<?xml version="1.0" encoding="utf-8"?>
<!-- Generator: Adobe Illustrator 19.0.0, SVG Export Plug-In . SVG Version: 6.00 Build 0)  -->
<svg version="1.1" id="Content" xmlns="http://www.w3.org/2000/svg" xmlns:xlink="http://www.w3.org/1999/xlink" x="0px" y="0px"
	 viewBox="654 -144 1920 1080" style="enable-background:new 654 -144 1920 1080;" xml:space="preserve">
<style type="text/css">
	.st0{fill:#FFF6C7;}
	.st1{fill:#020202;}
	.st2{fill:#091318;}
	.st3{fill:url(#XMLID_4_);}
	.st4{fill:url(#XMLID_5_);}
	.st5{fill:url(#XMLID_6_);}
	.st6{fill:url(#XMLID_7_);}
	.st7{fill:url(#XMLID_8_);}
	.st8{fill:url(#XMLID_13_);}
	.st9{fill:url(#XMLID_14_);}
	.st10{fill:url(#XMLID_33_);}
	.st11{opacity:0.41;fill:url(#XMLID_34_);enable-background:new    ;}
	.st12{opacity:0.41;fill:url(#XMLID_35_);enable-background:new    ;}
	.st13{opacity:0.41;fill:url(#XMLID_36_);enable-background:new    ;}
	.st14{opacity:0.41;fill:url(#XMLID_39_);enable-background:new    ;}
	.st15{opacity:0.41;}
	.st16{fill:#FFF6C8;}
	.st17{opacity:0.21;}
	.st18{fill:#47665A;}
	.st19{fill:#FDFDFE;}
	.st20{fill:url(#XMLID_40_);}

@keyframes flickerAnimation { /* flame pulses */
  0%   { opacity:1; }
  50%  { opacity:0; }
  100% { opacity:1; }
}
#XMLID_1_, #XMLID_2_  {
    opacity:1;
    animation: flickerAnimation 20s infinite;
}
}
</style>
<symbol  id="sparkle" viewBox="-5.5 -5.5 11 11">
	<path id="XMLID_2_" class="st0" d="M4.8,0.7H0.7v4.1c0,0.4-0.3,0.7-0.7,0.7s-0.7-0.3-0.7-0.7V0.7h-4.1c-0.4,0-0.7-0.3-0.7-0.7
		s0.3-0.7,0.7-0.7h4.1v-4.1c0-0.4,0.3-0.7,0.7-0.7s0.7,0.3,0.7,0.7v4.1h4.1c0.4,0,0.7,0.3,0.7,0.7S5.1,0.7,4.8,0.7z"/>
</symbol>
<symbol  id="stars" viewBox="-4.3 -3.8 8.6 7.6">
	<path id="XMLID_1_" class="st0" d="M4.3,0c0-2.1-1.9-3.8-4.3-3.8S-4.3-2.1-4.3,0S-2.4,3.8,0,3.8S4.3,2.1,4.3,0z"/>
</symbol>
<g id="XMLID_125_">
	<path id="XMLID_152_" class="st1" d="M1022.9-28.7c1.9-28.5-18.5-54-47.2-58c-29-4-55.8,15.4-61.4,43.7
		C949.6-33,986.6-31.4,1022.9-28.7z"/>
</g>
<rect id="XMLID_38_" x="653.7" y="-144" class="st2" width="1920.3" height="1080"/>
<use xlink:href="#stars"  width="8.6" height="7.6" id="XMLID_99_" x="-4.3" y="-3.8" transform="matrix(1 0 0 -1 697.3153 519.3275)" style="overflow:visible;"/>
<use xlink:href="#stars"  width="8.6" height="7.6" id="XMLID_98_" x="-4.3" y="-3.8" transform="matrix(1 0 0 -1 855.8688 569.5026)" style="overflow:visible;enable-background:new    ;"/>
<use xlink:href="#stars"  width="8.6" height="7.6" id="XMLID_97_" x="-4.3" y="-3.8" transform="matrix(1 0 0 -1 855.8688 77.8797)" style="overflow:visible;enable-background:new    ;"/>
<use xlink:href="#stars"  width="8.6" height="7.6" id="XMLID_96_" x="-4.3" y="-3.8" transform="matrix(1 0 0 -1 1966.8693 864.3172)" style="overflow:visible;enable-background:new    ;"/>
<use xlink:href="#stars"  width="8.6" height="7.6" id="XMLID_95_" x="-4.3" y="-3.8" transform="matrix(1 0 0 -1 1645.4644 554.7857)" style="overflow:visible;enable-background:new    ;"/>
<use xlink:href="#stars"  width="8.6" height="7.6" id="XMLID_94_" x="-4.3" y="-3.8" transform="matrix(1 0 0 -1 753.6667 712.6082)" style="overflow:visible;enable-background:new    ;"/>
<use xlink:href="#stars"  width="8.6" height="7.6" id="XMLID_92_" x="-4.3" y="-3.8" transform="matrix(1 0 0 -1 1409.9169 34.7137)" style="overflow:visible;enable-background:new    ;"/>
<use xlink:href="#stars"  width="8.6" height="7.6" id="XMLID_91_" x="-4.3" y="-3.8" transform="matrix(1 0 0 -1 1701.8706 -67.4732)" style="overflow:visible;enable-background:new    ;"/>
<use xlink:href="#stars"  width="8.6" height="7.6" id="XMLID_90_" x="-4.3" y="-3.8" transform="matrix(1 0 0 -1 2080.041 135.3477)" style="overflow:visible;enable-background:new    ;"/>
<use xlink:href="#stars"  width="8.6" height="7.6" id="XMLID_89_" x="-4.3" y="-3.8" transform="matrix(1 0 0 -1 1667.6418 812.026)" style="overflow:visible;enable-background:new    ;"/>
<use xlink:href="#stars"  width="8.6" height="7.6" id="XMLID_88_" x="-4.3" y="-3.8" transform="matrix(1 0 0 -1 1953.9335 733.4478)" style="overflow:visible;enable-background:new    ;"/>
<use xlink:href="#stars"  width="8.6" height="7.6" id="XMLID_87_" x="-4.3" y="-3.8" transform="matrix(1 0 0 -1 2210.4141 777.3435)" style="overflow:visible;enable-background:new    ;"/>
<use xlink:href="#stars"  width="8.6" height="7.6" id="XMLID_86_" x="-4.3" y="-3.8" transform="matrix(1 0 0 -1 2370.8835 548.2747)" style="overflow:visible;enable-background:new    ;"/>
<use xlink:href="#stars"  width="8.6" height="7.6" id="XMLID_85_" x="-4.3" y="-3.8" transform="matrix(1 0 0 -1 2393.2031 169.3174)" style="overflow:visible;enable-background:new    ;"/>
<use xlink:href="#stars"  width="8.6" height="7.6" id="XMLID_84_" x="-4.3" y="-3.8" transform="matrix(1 0 0 -1 2463.2791 291.9783)" style="overflow:visible;enable-background:new    ;"/>
<use xlink:href="#stars"  width="8.6" height="7.6" id="XMLID_83_" x="-4.3" y="-3.8" transform="matrix(1 0 0 -1 2465.0186 690.7769)" style="overflow:visible;enable-background:new    ;"/>
<use xlink:href="#stars"  width="8.6" height="7.6" id="XMLID_82_" x="-4.3" y="-3.8" transform="matrix(1 0 0 -1 2288.376 197.6785)" style="overflow:visible;enable-background:new    ;"/>
<use xlink:href="#stars"  width="8.6" height="7.6" id="XMLID_81_" x="-4.3" y="-3.8" transform="matrix(1 0 0 -1 2214.2559 2.5716)" style="overflow:visible;enable-background:new    ;"/>
<use xlink:href="#stars"  width="8.6" height="7.6" id="XMLID_80_" x="-4.3" y="-3.8" transform="matrix(1 0 0 -1 2350.9529 4.6135)" style="overflow:visible;enable-background:new    ;"/>
<use xlink:href="#stars"  width="8.6" height="7.6" id="XMLID_79_" x="-4.3" y="-3.8" transform="matrix(1 0 0 -1 1991.7892 24.6921)" style="overflow:visible;enable-background:new    ;"/>
<use xlink:href="#stars"  width="8.6" height="7.6" id="XMLID_78_" x="-4.3" y="-3.8" transform="matrix(1 0 0 -1 1682.1199 355.678)" style="overflow:visible;enable-background:new    ;"/>
<use xlink:href="#stars"  width="8.6" height="7.6" id="XMLID_77_" x="-4.3" y="-3.8" transform="matrix(1 0 0 -1 2170.4507 576.2959)" style="overflow:visible;enable-background:new    ;"/>
<use xlink:href="#stars"  width="8.6" height="7.6" id="XMLID_76_" x="-4.3" y="-3.8" transform="matrix(1 0 0 -1 1725.1108 131.5328)" style="overflow:visible;enable-background:new    ;"/>
<use xlink:href="#stars"  width="8.6" height="7.6" id="XMLID_75_" x="-4.3" y="-3.8" transform="matrix(1 0 0 -1 1349.2305 -37.9389)" style="overflow:visible;enable-background:new    ;"/>
<use xlink:href="#stars"  width="8.6" height="7.6" id="XMLID_74_" x="-4.3" y="-3.8" transform="matrix(1 0 0 -1 933.326 144.5)" style="overflow:visible;enable-background:new    ;"/>
<use xlink:href="#stars"  width="8.6" height="7.6" id="XMLID_73_" x="-4.3" y="-3.8" transform="matrix(1 0 0 -1 1239.301 431.2909)" style="overflow:visible;enable-background:new    ;"/>
<use xlink:href="#stars"  width="8.6" height="7.6" id="XMLID_71_" x="-4.3" y="-3.8" transform="matrix(1 0 0 -1 1720.7312 433.9832)" style="overflow:visible;enable-background:new    ;"/>
<use xlink:href="#stars"  width="8.6" height="7.6" id="XMLID_70_" x="-4.3" y="-3.8" transform="matrix(1 0 0 -1 711.648 54.8887)" style="overflow:visible;enable-background:new    ;"/>
<use xlink:href="#stars"  width="8.6" height="7.6" id="XMLID_69_" x="-4.3" y="-3.8" transform="matrix(1 0 0 -1 1401.9088 145.5477)" style="overflow:visible;enable-background:new    ;"/>
<use xlink:href="#stars"  width="8.6" height="7.6" id="XMLID_68_" x="-4.3" y="-3.8" transform="matrix(1 0 0 -1 1308.9871 634.2354)" style="overflow:visible;enable-background:new    ;"/>
<use xlink:href="#stars"  width="8.6" height="7.6" id="XMLID_66_" x="-4.3" y="-3.8" transform="matrix(1 0 0 -1 840.611 787.0212)" style="overflow:visible;enable-background:new    ;"/>
<use xlink:href="#stars"  width="8.6" height="7.6" id="XMLID_65_" x="-4.3" y="-3.8" transform="matrix(1 0 0 -1 753.6667 283.9854)" style="overflow:visible;enable-background:new    ;"/>
<use xlink:href="#stars"  width="8.6" height="7.6" id="XMLID_63_" x="-4.3" y="-3.8" transform="matrix(1 0 0 -1 1013.0713 445.5092)" style="overflow:visible;enable-background:new    ;"/>
<use xlink:href="#stars"  width="8.6" height="7.6" id="XMLID_62_" x="-4.3" y="-3.8" transform="matrix(1 0 0 -1 1255.3939 183.2148)" style="overflow:visible;enable-background:new    ;"/>
<use xlink:href="#stars"  width="8.6" height="7.6" id="XMLID_58_" x="-4.3" y="-3.8" transform="matrix(1 0 0 -1 1449 512.1851)" style="overflow:visible;enable-background:new    ;"/>
<use xlink:href="#stars"  width="8.6" height="7.6" id="XMLID_55_" x="-4.3" y="-3.8" transform="matrix(1 0 0 -1 1835.8613 864.1522)" style="overflow:visible;enable-background:new    ;"/>
<use xlink:href="#sparkle"  width="11" height="11" id="XMLID_133_" x="-5.5" y="-5.5" transform="matrix(0.9818 0 0 -0.9818 816.7351 579.0468)" style="overflow:visible;"/>
<use xlink:href="#sparkle"  width="11" height="11" id="XMLID_132_" x="-5.5" y="-5.5" transform="matrix(0.9818 0 0 -0.9818 1134.9961 -56.9842)" style="overflow:visible;enable-background:new    ;"/>
<use xlink:href="#sparkle"  width="11" height="11" id="XMLID_131_" x="-5.5" y="-5.5" transform="matrix(0.9818 0 0 -0.9818 1637.002 -13.9696)" style="overflow:visible;enable-background:new    ;"/>
<use xlink:href="#sparkle"  width="11" height="11" id="XMLID_130_" x="-5.5" y="-5.5" transform="matrix(0.9818 0 0 -0.9818 2073.6597 72.4634)" style="overflow:visible;enable-background:new    ;"/>
<use xlink:href="#sparkle"  width="11" height="11" id="XMLID_129_" x="-5.5" y="-5.5" transform="matrix(0.9818 0 0 -0.9818 2270.1233 158.7029)" style="overflow:visible;enable-background:new    ;"/>
<use xlink:href="#sparkle"  width="11" height="11" id="XMLID_128_" x="-5.5" y="-5.5" transform="matrix(0.9818 0 0 -0.9818 2450.7725 66.6717)" style="overflow:visible;enable-background:new    ;"/>
<use xlink:href="#sparkle"  width="11" height="11" id="XMLID_127_" x="-5.5" y="-5.5" transform="matrix(0.9818 0 0 -0.9818 2448.531 -56.3356)" style="overflow:visible;enable-background:new    ;"/>
<use xlink:href="#sparkle"  width="11" height="11" id="XMLID_126_" x="-5.5" y="-5.5" transform="matrix(0.9818 0 0 -0.9818 2121.9312 -48.535)" style="overflow:visible;enable-background:new    ;"/>
<use xlink:href="#sparkle"  width="11" height="11" id="XMLID_124_" x="-5.5" y="-5.5" transform="matrix(0.9818 0 0 -0.9818 801.3537 -26.2693)" style="overflow:visible;enable-background:new    ;"/>
<use xlink:href="#sparkle"  width="11" height="11" id="XMLID_123_" x="-5.5" y="-5.5" transform="matrix(0.9818 0 0 -0.9818 742.4479 179.2585)" style="overflow:visible;enable-background:new    ;"/>
<use xlink:href="#sparkle"  width="11" height="11" id="XMLID_122_" x="-5.5" y="-5.5" transform="matrix(0.9818 0 0 -0.9818 718.6752 -76.5966)" style="overflow:visible;enable-background:new    ;"/>
<use xlink:href="#sparkle"  width="11" height="11" id="XMLID_121_" x="-5.5" y="-5.5" transform="matrix(0.9818 0 0 -0.9818 2200.4751 336.6581)" style="overflow:visible;enable-background:new    ;"/>
<use xlink:href="#sparkle"  width="11" height="11" id="XMLID_120_" x="-5.5" y="-5.5" transform="matrix(0.9818 0 0 -0.9818 1807.9999 289.4021)" style="overflow:visible;enable-background:new    ;"/>
<use xlink:href="#sparkle"  width="11" height="11" id="XMLID_119_" x="-5.5" y="-5.5" transform="matrix(0.9818 0 0 -0.9818 1187.1649 112.9204)" style="overflow:visible;enable-background:new    ;"/>
<use xlink:href="#sparkle"  width="11" height="11" id="XMLID_118_" x="-5.5" y="-5.5" transform="matrix(0.9818 0 0 -0.9818 1235.7635 15.729)" style="overflow:visible;enable-background:new    ;"/>
<use xlink:href="#sparkle"  width="11" height="11" id="XMLID_117_" x="-5.5" y="-5.5" transform="matrix(0.9818 0 0 -0.9818 877.4233 514.0906)" style="overflow:visible;enable-background:new    ;"/>
<use xlink:href="#sparkle"  width="11" height="11" id="XMLID_116_" x="-5.5" y="-5.5" transform="matrix(0.9818 0 0 -0.9818 1649.4368 227.3437)" style="overflow:visible;enable-background:new    ;"/>
<use xlink:href="#sparkle"  width="11" height="11" id="XMLID_115_" x="-5.5" y="-5.5" transform="matrix(0.9818 0 0 -0.9818 2320.3428 297.5158)" style="overflow:visible;enable-background:new    ;"/>
<use xlink:href="#sparkle"  width="11" height="11" id="XMLID_114_" x="-5.5" y="-5.5" transform="matrix(0.9818 0 0 -0.9818 1795.3339 -34.4904)" style="overflow:visible;enable-background:new    ;"/>
<use xlink:href="#sparkle"  width="11" height="11" id="XMLID_113_" x="-5.5" y="-5.5" transform="matrix(0.9818 0 0 -0.9818 1829.4984 54.9457)" style="overflow:visible;enable-background:new    ;"/>
<use xlink:href="#sparkle"  width="11" height="11" id="XMLID_112_" x="-5.5" y="-5.5" transform="matrix(0.9818 0 0 -0.9818 811.3184 401.3321)" style="overflow:visible;enable-background:new    ;"/>
<use xlink:href="#sparkle"  width="11" height="11" id="XMLID_111_" x="-5.5" y="-5.5" transform="matrix(0.9818 0 0 -0.9818 1661.8195 588.2156)" style="overflow:visible;enable-background:new    ;"/>
<use xlink:href="#sparkle"  width="11" height="11" id="XMLID_110_" x="-5.5" y="-5.5" transform="matrix(0.9818 0 0 -0.9818 787.9317 826.7036)" style="overflow:visible;enable-background:new    ;"/>
<use xlink:href="#sparkle"  width="11" height="11" id="XMLID_108_" x="-5.5" y="-5.5" transform="matrix(0.9818 0 0 -0.9818 2402.1191 808.2111)" style="overflow:visible;enable-background:new    ;"/>
<use xlink:href="#sparkle"  width="11" height="11" id="XMLID_107_" x="-5.5" y="-5.5" transform="matrix(0.9818 0 0 -0.9818 2193.606 422.0258)" style="overflow:visible;enable-background:new    ;"/>
<use xlink:href="#sparkle"  width="11" height="11" id="XMLID_106_" x="-5.5" y="-5.5" transform="matrix(0.9818 0 0 -0.9818 2498.7766 393.6174)" style="overflow:visible;enable-background:new    ;"/>
<use xlink:href="#sparkle"  width="11" height="11" id="XMLID_105_" x="-5.5" y="-5.5" transform="matrix(0.9818 0 0 -0.9818 1469.551 166.9603)" style="overflow:visible;enable-background:new    ;"/>
<use xlink:href="#sparkle"  width="11" height="11" id="XMLID_104_" x="-5.5" y="-5.5" transform="matrix(0.9818 0 0 -0.9818 1370.6068 420.4461)" style="overflow:visible;enable-background:new    ;"/>
<use xlink:href="#sparkle"  width="11" height="11" id="XMLID_103_" x="-5.5" y="-5.5" transform="matrix(0.9818 0 0 -0.9818 1413.5131 562.2354)" style="overflow:visible;enable-background:new    ;"/>
<use xlink:href="#sparkle"  width="11" height="11" id="XMLID_102_" x="-5.5" y="-5.5" transform="matrix(0.9818 0 0 -0.9818 1261.9227 713.9809)" style="overflow:visible;enable-background:new    ;"/>
<use xlink:href="#sparkle"  width="11" height="11" id="XMLID_100_" x="-5.5" y="-5.5" transform="matrix(0.9818 0 0 -0.9818 1499.6564 304.4332)" style="overflow:visible;enable-background:new    ;"/>
<linearGradient id="XMLID_4_" gradientUnits="userSpaceOnUse" x1="2358.4705" y1="298.667" x2="2349.9622" y2="229.3725" gradientTransform="matrix(0.9986 5.374856e-002 5.374856e-002 -0.9986 -14.1325 643.9819)">
	<stop  offset="0" style="stop-color:#FFF6C8;stop-opacity:0.3"/>
	<stop  offset="1" style="stop-color:#FFF6C8;stop-opacity:0"/>
</linearGradient>
<path id="XMLID_53_" class="st3" d="M2538.2,555.9c1.2-22.6-19.2-42-45.7-43.5c-15.7-0.8-29.9,4.8-39.2,14.3
	c-13.7-5-31.1-8.5-50.3-9.5c-0.1,0-0.2,0-0.3,0c-2.9-27.7-55.3-52.4-120.9-55.9c-68.4-3.7-125.1,17-126.7,46.2"/>
<linearGradient id="XMLID_5_" gradientUnits="userSpaceOnUse" x1="1574.2483" y1="98.6554" x2="1558.9752" y2="12.748" gradientTransform="matrix(1 0 0 -1 0 792)">
	<stop  offset="0" style="stop-color:#FFF6C8;stop-opacity:0.3"/>
	<stop  offset="1" style="stop-color:#FFF6C8;stop-opacity:0"/>
</linearGradient>
<path id="XMLID_101_" class="st4" d="M1684.5,740.6c0-18.2-14.8-33-33-33c-16.3,0-29.8,11.8-32.5,27.3c-4.8-4.5-11.3-7.3-18.5-7.3
	c-4.1,0-7.9,0.9-11.4,2.5c-2.2-22.7-21.3-40.5-44.6-40.5s-42.4,17.8-44.6,40.5c-5.7-4-12.7-6.4-20.2-6.4
	c-19.4,0-35.2,15.7-35.2,35.2"/>
<linearGradient id="XMLID_6_" gradientUnits="userSpaceOnUse" x1="1355" y1="460.3" x2="1355" y2="460.3" gradientTransform="matrix(1 0 0 -1 0 792)">
	<stop  offset="0" style="stop-color:#FFF6C8;stop-opacity:0.3"/>
	<stop  offset="1" style="stop-color:#FFF6C8;stop-opacity:0"/>
</linearGradient>
<path id="XMLID_56_" class="st5" d="M1355,331.7"/>
<linearGradient id="XMLID_7_" gradientUnits="userSpaceOnUse" x1="1304.7" y1="456.2" x2="1304.7" y2="456.2" gradientTransform="matrix(1 0 0 -1 0 792)">
	<stop  offset="0" style="stop-color:#FFF6C8;stop-opacity:0.3"/>
	<stop  offset="1" style="stop-color:#FFF6C8;stop-opacity:0"/>
</linearGradient>
<path id="XMLID_54_" class="st6" d="M1304.7,335.8"/>
<linearGradient id="XMLID_8_" gradientUnits="userSpaceOnUse" x1="2197.3442" y1="-26.6219" x2="2185.5811" y2="-92.7862" gradientTransform="matrix(1 0 0 -1 0 792)">
	<stop  offset="0" style="stop-color:#FFF6C8;stop-opacity:0.3"/>
	<stop  offset="1" style="stop-color:#FFF6C8;stop-opacity:0"/>
</linearGradient>
<path id="XMLID_135_" class="st7" d="M2276.7,874.8c0-9.9-10.8-17.8-24.2-17.8c-1.6,0-3.2,0.1-4.8,0.3c0-0.1,0-0.2,0-0.3
	c0-19.7-17.5-35.7-39.1-35.7c-16.8,0-31.1,9.7-36.6,23.3c-7.4-9.5-19-15.6-31.9-15.6c-22.4,0-40.5,18.1-40.5,40.5"/>
<linearGradient id="XMLID_13_" gradientUnits="userSpaceOnUse" x1="820.5442" y1="360.5781" x2="808.7812" y2="294.4138" gradientTransform="matrix(1 0 0 -1 0 792)">
	<stop  offset="0" style="stop-color:#FFF6C8;stop-opacity:0.3"/>
	<stop  offset="1" style="stop-color:#FFF6C8;stop-opacity:0"/>
</linearGradient>
<path id="XMLID_12_" class="st8" d="M899.9,487.6c0-9.9-10.8-17.8-24.2-17.8c-1.6,0-3.2,0.1-4.8,0.3c0-0.1,0-0.2,0-0.3
	c0-19.7-17.5-35.7-39.1-35.7c-16.8,0-31.1,9.7-36.6,23.3c-7.4-9.5-19-15.6-31.9-15.6c-22.4,0-40.5,18.1-40.5,40.5"/>
<linearGradient id="XMLID_14_" gradientUnits="userSpaceOnUse" x1="895.2" y1="-83.5" x2="895.2" y2="-83.5" gradientTransform="matrix(1 0 0 -1 0 792)">
	<stop  offset="0" style="stop-color:#FFF6C8;stop-opacity:0.3"/>
	<stop  offset="1" style="stop-color:#FFF6C8;stop-opacity:0"/>
</linearGradient>
<path id="XMLID_134_" class="st9" d="M895.2,875.5"/>
<linearGradient id="XMLID_33_" gradientUnits="userSpaceOnUse" x1="2285.6125" y1="752.6754" x2="2274.0449" y2="687.6105" gradientTransform="matrix(1 0 0 -1 0 792)">
	<stop  offset="0" style="stop-color:#FFF6C8;stop-opacity:0.3"/>
	<stop  offset="1" style="stop-color:#FFF6C8;stop-opacity:0"/>
</linearGradient>
<path id="XMLID_136_" class="st10" d="M2427.3,98.3c0-12.8-13.3-23.2-29.8-23.2c-3.1,0-6.1,0.4-8.9,1c-2.4-14.1-20.8-25.1-43.2-25.1
	c-15.3,0-28.7,5.1-36.5,12.9c-9-1.7-18.8-2.7-29.1-2.7c-20.7,0-39.4,3.8-53.4,10.1c-3.4-24.2-24.2-42.8-49.3-42.8
	c-27.5,0-49.8,22.3-49.8,49.8"/>
<linearGradient id="XMLID_34_" gradientUnits="userSpaceOnUse" x1="936.1516" y1="792.9606" x2="916.9274" y2="684.8293" gradientTransform="matrix(0.9905 0.1377 0.1377 -0.9905 -51.3832 572.0909)">
	<stop  offset="0" style="stop-color:#FFFFFF;stop-opacity:0.9"/>
	<stop  offset="8.430076e-002" style="stop-color:#FFFEF7;stop-opacity:0.8241"/>
	<stop  offset="0.6911" style="stop-color:#FFF8D5;stop-opacity:0.278"/>
	<stop  offset="1" style="stop-color:#FFF6C8;stop-opacity:0"/>
</linearGradient>
<circle id="XMLID_137_" class="st11" cx="968.1" cy="-32.2" r="54.9"/>
<linearGradient id="XMLID_35_" gradientUnits="userSpaceOnUse" x1="936.1516" y1="792.9606" x2="916.9274" y2="684.8293" gradientTransform="matrix(0.9905 0.1377 0.1377 -0.9905 -51.3832 572.0909)">
	<stop  offset="0" style="stop-color:#FFFFFF;stop-opacity:0.9"/>
	<stop  offset="8.430076e-002" style="stop-color:#FFFEF7;stop-opacity:0.8241"/>
	<stop  offset="0.6911" style="stop-color:#FFF8D5;stop-opacity:0.278"/>
	<stop  offset="1" style="stop-color:#FFF6C8;stop-opacity:0"/>
</linearGradient>
<circle id="XMLID_139_" class="st12" cx="968.1" cy="-32.2" r="54.9"/>
<linearGradient id="XMLID_36_" gradientUnits="userSpaceOnUse" x1="1233.5216" y1="483.2663" x2="1214.2972" y2="375.1351" gradientTransform="matrix(0.9905 0.1377 0.1377 -0.9905 -51.3832 572.0909)">
	<stop  offset="0" style="stop-color:#FFFFFF;stop-opacity:0.9"/>
	<stop  offset="8.430076e-002" style="stop-color:#FFFEF7;stop-opacity:0.8241"/>
	<stop  offset="0.6911" style="stop-color:#FFF8D5;stop-opacity:0.278"/>
	<stop  offset="1" style="stop-color:#FFF6C8;stop-opacity:0"/>
</linearGradient>
<circle id="XMLID_10_" class="st13" cx="1220" cy="315.5" r="54.9"/>
<linearGradient id="XMLID_39_" gradientUnits="userSpaceOnUse" x1="2025.6023" y1="639.7222" x2="2006.3782" y2="531.5909" gradientTransform="matrix(0.9905 0.1377 0.1377 -0.9905 -51.3832 572.0909)">
	<stop  offset="0" style="stop-color:#FFFFFF;stop-opacity:0.9"/>
	<stop  offset="8.430076e-002" style="stop-color:#FFFEF7;stop-opacity:0.8241"/>
	<stop  offset="0.6911" style="stop-color:#FFF8D5;stop-opacity:0.278"/>
	<stop  offset="1" style="stop-color:#FFF6C8;stop-opacity:0"/>
</linearGradient>
<circle id="XMLID_9_" class="st14" cx="2026.1" cy="269.6" r="54.9"/>
<g id="XMLID_138_" class="st15">
	<path id="XMLID_140_" class="st16" d="M967.1-46.2c0.3,0,0.7,0.1,1,0.1C967.7-46.1,967.4-46.2,967.1-46.2z"/>
	<path id="XMLID_141_" class="st16" d="M972-45.5c0.3,0,0.7,0.1,1,0.1C972.6-45.4,972.3-45.5,972-45.5z"/>
	<path id="XMLID_142_" class="st16" d="M973.7-45.3c35.5,5.2,63.1,12.9,62.5,17.6c-0.7,4.8-31.4,4.5-68.6-0.6
		c-37.2-5.1-66.8-13.3-66.2-18.1c0.6-4.7,29.4-4.6,64.9,0.1c-46-6.1-83.5-5.2-84.5,2.2c-1,7.5,36.8,19,84.5,25.7
		c47.7,6.7,87.2,5.9,88.3-1.7C1055.5-27.5,1019.7-38.6,973.7-45.3z"/>
	<path id="XMLID_143_" class="st16" d="M973-45.4c0.3,0,0.5,0.1,0.8,0.1C973.5-45.3,973.2-45.4,973-45.4z"/>
	<path id="XMLID_144_" class="st16" d="M966.3-46.3c0.3,0,0.5,0.1,0.8,0.1C966.8-46.2,966.6-46.3,966.3-46.3z"/>
	<path id="XMLID_145_" class="st16" d="M970-45.8c0.7,0.1,1.3,0.2,2,0.3C971.3-45.6,970.7-45.7,970-45.8z"/>
	<path id="XMLID_146_" class="st16" d="M968.1-46.1c0.7,0.1,1.3,0.2,2,0.3C969.4-45.9,968.7-46,968.1-46.1z"/>
</g>
<g id="Satelite" class="st17">
	<g id="XMLID_148_">
		<path id="XMLID_163_" class="st18" d="M1531.3-30.5c-3.9-9.1,0.2-19.7,9.3-23.6s19.7,0.2,23.6,9.3L1531.3-30.5z"/>
	</g>
	<g id="XMLID_147_">
		<path id="XMLID_162_" class="st19" d="M1564.2-44.8c-15.9,8.5-32.9,14.3-32.9,14.3L1564.2-44.8z"/>
	</g>
	<g id="XMLID_149_">
		<path id="XMLID_159_" class="st18" d="M1551.5-27.8l-7.8-17.9c-0.1-0.2,0-0.5,0.3-0.6c0.2-0.1,0.5,0,0.6,0.3l7.8,17.9
			c0.1,0.2,0,0.5-0.3,0.6C1551.9-27.5,1551.6-27.6,1551.5-27.8z"/>
	</g>
	<g id="XMLID_151_">
		<path id="XMLID_158_" class="st18" d="M1542.9-45.4l-7.8-17.9c-0.3-0.7,0-1.5,0.7-1.8s1.5,0,1.8,0.7l7.8,17.9
			c0.3,0.7,0,1.5-0.7,1.8C1544-44.3,1543.2-44.7,1542.9-45.4z"/>
	</g>
	<g id="XMLID_150_">
		
			<rect id="XMLID_161_" x="1510.3" y="-88.6" transform="matrix(0.3982 0.9173 -0.9173 0.3982 848.918 -1450.7395)" class="st18" width="39.6" height="20.5"/>
	</g>
	<g id="XMLID_154_">
		
			<rect id="XMLID_157_" x="1529" y="-112" transform="matrix(-0.3982 -0.9173 0.9173 -0.3982 2211.1592 1293.9297)" class="st18" width="2.1" height="67.3"/>
	</g>
	<g id="XMLID_153_">
		
			<rect id="XMLID_160_" x="1561.5" y="-118.5" transform="matrix(-0.3982 -0.9173 0.9173 -0.3982 2279.446 1305.7643)" class="st18" width="13.2" height="47.3"/>
	</g>
	<g id="XMLID_156_">
		
			<rect id="XMLID_155_" x="1485.2" y="-85.4" transform="matrix(-0.3982 -0.9173 0.9173 -0.3982 2142.5547 1282.0956)" class="st18" width="13.2" height="47.3"/>
	</g>
</g>
<use xlink:href="#stars"  width="8.6" height="7.6" id="XMLID_72_" x="-4.3" y="-3.8" transform="matrix(1 0 0 -1 1026.3256 335.2192)" style="overflow:visible;enable-background:new    ;"/>
<use xlink:href="#stars"  width="8.6" height="7.6" id="XMLID_32_" x="-4.3" y="-3.8" transform="matrix(1 0 0 -1 1046.4075 628.4977)" style="overflow:visible;enable-background:new    ;"/>
<use xlink:href="#stars"  width="8.6" height="7.6" id="XMLID_31_" x="-4.3" y="-3.8" transform="matrix(1 0 0 -1 1129.4432 743.1564)" style="overflow:visible;enable-background:new    ;"/>
<use xlink:href="#stars"  width="8.6" height="7.6" id="XMLID_30_" x="-4.3" y="-3.8" transform="matrix(1 0 0 -1 895.6868 690.7769)" style="overflow:visible;enable-background:new    ;"/>
<use xlink:href="#stars"  width="8.6" height="7.6" id="XMLID_29_" x="-4.3" y="-3.8" transform="matrix(1 0 0 -1 1543.4861 817.3658)" style="overflow:visible;enable-background:new    ;"/>
<use xlink:href="#stars"  width="8.6" height="7.6" id="XMLID_28_" x="-4.3" y="-3.8" transform="matrix(1 0 0 -1 887.2339 309.5388)" style="overflow:visible;enable-background:new    ;"/>
<use xlink:href="#stars"  width="8.6" height="7.6" id="XMLID_27_" x="-4.3" y="-3.8" transform="matrix(1 0 0 -1 1068.8381 214.6354)" style="overflow:visible;enable-background:new    ;"/>
<use xlink:href="#stars"  width="8.6" height="7.6" id="XMLID_26_" x="-4.3" y="-3.8" transform="matrix(1 0 0 -1 1715.1499 367.3194)" style="overflow:visible;enable-background:new    ;"/>
<use xlink:href="#stars"  width="8.6" height="7.6" id="XMLID_25_" x="-4.3" y="-3.8" transform="matrix(1 0 0 -1 1906.0615 502.3348)" style="overflow:visible;enable-background:new    ;"/>
<use xlink:href="#stars"  width="8.6" height="7.6" id="XMLID_24_" x="-4.3" y="-3.8" transform="matrix(1 0 0 -1 1948.2838 616.9857)" style="overflow:visible;enable-background:new    ;"/>
<use xlink:href="#stars"  width="8.6" height="7.6" id="XMLID_23_" x="-4.3" y="-3.8" transform="matrix(1 0 0 -1 1949.9568 207.0043)" style="overflow:visible;enable-background:new    ;"/>
<use xlink:href="#stars"  width="8.6" height="7.6" id="XMLID_22_" x="-4.3" y="-3.8" transform="matrix(1 0 0 -1 2042.6526 421.8293)" style="overflow:visible;enable-background:new    ;"/>
<use xlink:href="#sparkle"  width="11" height="11" id="XMLID_21_" x="-5.5" y="-5.5" transform="matrix(0.9818 0 0 -0.9818 1007.6543 544.4601)" style="overflow:visible;enable-background:new    ;"/>
<use xlink:href="#sparkle"  width="11" height="11" id="XMLID_20_" x="-5.5" y="-5.5" transform="matrix(0.9818 0 0 -0.9818 1437.2185 423.5414)" style="overflow:visible;enable-background:new    ;"/>
<use xlink:href="#sparkle"  width="11" height="11" id="XMLID_19_" x="-5.5" y="-5.5" transform="matrix(0.9818 0 0 -0.9818 1709.5605 602.5698)" style="overflow:visible;enable-background:new    ;"/>
<use xlink:href="#sparkle"  width="11" height="11" id="XMLID_18_" x="-5.5" y="-5.5" transform="matrix(0.9818 0 0 -0.9818 1493.1937 686.5782)" style="overflow:visible;enable-background:new    ;"/>
<use xlink:href="#sparkle"  width="11" height="11" id="XMLID_17_" x="-5.5" y="-5.5" transform="matrix(0.9818 0 0 -0.9818 1026.3253 759.347)" style="overflow:visible;enable-background:new    ;"/>
<use xlink:href="#sparkle"  width="11" height="11" id="XMLID_16_" x="-5.5" y="-5.5" transform="matrix(0.9818 0 0 -0.9818 1107.417 510.3997)" style="overflow:visible;enable-background:new    ;"/>
<use xlink:href="#sparkle"  width="11" height="11" id="XMLID_15_" x="-5.5" y="-5.5" transform="matrix(0.9818 0 0 -0.9818 1857.7712 389.4208)" style="overflow:visible;enable-background:new    ;"/>
<linearGradient id="XMLID_40_" gradientUnits="userSpaceOnUse" x1="1143.842" y1="-42.8681" x2="1130.8242" y2="-116.0896" gradientTransform="matrix(1 0 0 -1 0 792)">
	<stop  offset="0" style="stop-color:#FFF6C8;stop-opacity:0.3"/>
	<stop  offset="1" style="stop-color:#FFF6C8;stop-opacity:0"/>
</linearGradient>
<path id="XMLID_11_" class="st20" d="M1253.3,884.5c0-19.9-16.1-36-36-36c-18.2,0-33.2,13.5-35.6,31c-10.2-9.9-24.1-15.9-39.5-15.9
	c-15.5,0-29.5,6.2-39.8,16.3c-4.1-17.6-21.5-30.8-42.4-30.8c-23.9,0-43.3,17.3-43.3,38.7"/>
</svg>
