<?xml version="1.0" encoding="utf-8"?>
<!-- Generator: Adobe Illustrator 19.0.0, SVG Export Plug-In . SVG Version: 6.00 Build 0)  -->
<svg version="1.1" id="Layer_1" xmlns="http://www.w3.org/2000/svg" xmlns:xlink="http://www.w3.org/1999/xlink" x="0px" y="0px"
	 viewBox="0 0 242.8 242.2" style="enable-background:new 0 0 242.8 242.2;" xml:space="preserve">
<style type="text/css">
	.st0{fill:url(#Circle_1_);}
	.st1{fill:#D6D6D6;}
</style>
<linearGradient id="Circle_1_" gradientUnits="userSpaceOnUse" x1="121.4235" y1="242.847" x2="121.4235" y2="0">
	<stop  offset="0" style="stop-color:#9F1D20"/>
	<stop  offset="1" style="stop-color:#F05360"/>
</linearGradient>
<circle id="Circle" class="st0" cx="121.4" cy="121.4" r="121.4"/>
<g id="XMLID_3_">
	<path id="XMLID_2_" class="st1" d="M135,55.9l45.4,93.9c1.9,3.8,2.9,6.7,2.9,8.6c0,4-3.3,7.7-9.8,10.9c-3.8,1.9-6.8,2.9-9,2.9
		c-2.2,0-4-0.5-5.4-1.5c-1.4-1-2.4-2.1-3-3.2c-0.6-1.1-1.5-2.8-2.6-5l-8.7-18.2H98.1l-8.7,18.2c-1.1,2.2-2,3.9-2.6,4.9
		c-0.6,1-1.6,2-3,3.1c-1.4,1.1-3.2,1.6-5.4,1.6c-2.2,0-5.2-1-9-2.9c-6.5-3.1-9.8-6.7-9.8-10.8c0-1.9,1-4.8,2.9-8.6l45.4-94
		c1.2-2.6,3.1-4.7,5.6-6.2c2.5-1.6,5.2-2.4,8-2.4C127.6,47.1,132,50,135,55.9z M121.3,96.2l-11.1,23h22.4L121.3,96.2z"/>
</g>
</svg>
