<?xml version="1.0" encoding="utf-8"?>
<!-- Generator: Adobe Illustrator 19.0.0, SVG Export Plug-In . SVG Version: 6.00 Build 0)  -->
<svg version="1.1" id="Layer_1" xmlns="http://www.w3.org/2000/svg" xmlns:xlink="http://www.w3.org/1999/xlink" x="0px" y="0px"
	 viewBox="0 0 533.7 719.7" style="enable-background:new 0 0 533.7 719.7;" xml:space="preserve">
<style type="text/css">
	.st0{fill:#43B49F;}
	.st1{fill:#878787;}
	.st2{fill:#3A3A3A;}
	.st3{fill:#3A3850;}
	.st4{fill:#827DA3;}
	.st5{fill:#3C53A4;}
	.st6{fill:#D71F26;}
	.st7{fill:#D6D6D6;}
	#XMLID_105_ {
    animation-name: wave-animation;
    animation-duration: 2.5s;
    animation-iteration-count: infinite;
    transform-origin: 70% 70%;
}

@keyframes wave-animation {
    0% { transform: rotate(  0.5deg) }
    10% { transform: rotate(-0.5deg) }
    20% { transform: rotate( 0.5deg) }
    30% { transform: rotate(-0.5deg) }
    40% { transform: rotate(  0.5deg) }
    50% { transform: rotate(  0.0deg) }
    100% { transform: rotate(  0.0deg) }
}

@keyframes wave-animation {
    0% { transform: fill(  0.5deg) }
    10% { transform: rotate(-0.5deg) }
    20% { transform: rotate( 0.5deg) }
    30% { transform: rotate(-0.5deg) }
    40% { transform: rotate(  0.5deg) }
    50% { transform: rotate(  0.0deg) }
    100% { transform: rotate(  0.0deg) }
}
</style>
<ellipse id="Backpack" transform="matrix(0.9914 -0.1311 0.1311 0.9914 -66.644 28.1855)" class="st0" cx="180.7" cy="520.2" rx="123" ry="133.5"/>
<path id="Leg_Left" class="st1" d="M105.5,686.2L94,579.9c-2.2-20.1,9.6-37.8,26.4-39.4h0c16.8-1.6,32.1,13.3,34.3,33.5l11.5,106.3
	c2.2,20.1-9.6,37.8-26.4,39.4h0C123,721.2,107.7,706.3,105.5,686.2z"/>
<path id="XMLID_37_" class="st2" d="M155.6,580.6c0,0.3,0.1,0.7,0.1,1l10.8,100.9c2,18.8-9.8,35.4-26.4,37.1
	c-11,1.1-21.4-4.7-27.7-14.3c6.3,6.8,15,10.6,24.1,9.7c16.6-1.6,28.4-18.2,26.4-37.1l-10.8-100.9c0-0.3-0.1-0.7-0.1-1
	c-0.8-5.9-2.8-11.2-5.8-15.8C151.1,565.5,154.5,572.5,155.6,580.6z"/>
<path id="Leg_Right" class="st1" d="M228.1,673.7l-12.5-106.1c-2.4-20.1,9.3-37.9,26-39.8h0c16.7-1.9,32.2,12.9,34.6,33l12.5,106.1
	c2.4,20.1-9.3,37.9-26,39.8h0C246,708.5,230.5,693.8,228.1,673.7z"/>
<path id="XMLID_6_" class="st2" d="M278.2,567.6c0,0.3,0.1,0.7,0.1,1l10.8,100.9c2,18.8-9.8,35.4-26.4,37.1
	c-11,1.1-21.4-4.7-27.7-14.3c6.3,6.8,15,10.6,24.1,9.7c16.6-1.6,28.4-18.2,26.4-37.1L274.7,564c0-0.3-0.1-0.7-0.1-1
	c-0.8-5.9-2.8-11.2-5.8-15.8C273.7,552.5,277.2,559.6,278.2,567.6z"/>
<path id="Stomach" class="st2" d="M69.4,389l23.7,177.4c7.8,58.4,55.4,100.2,106.4,93.4s86-59.7,78.2-118.1L254,364.3L69.4,389z"/>
<path id="Stomach_1_" class="st1" d="M65.6,382.1l23.7,177.4c7.8,58.4,55.4,100.2,106.4,93.4s86-59.7,78.2-118.1l-23.7-177.4
	L65.6,382.1z"/>
<path id="XMLID_41_" class="st2" d="M278.1,542.4c5.7,58.6-28.7,110.6-78.5,117.3c-22.1,3-43.6-3.5-61.6-16.7
	c14.9,6.5,31.5,9.1,48.5,6.8c50-6.7,85.4-53.4,82.1-106.1L278.1,542.4z"/>
<g id="Hand_Left">
	<g id="XMLID_101_">
		<g id="XMLID_104_">
			<path id="XMLID_105_" class="st1" d="M17.9,516.3L2.6,481.4c-6.7-15.4,0.3-33.4,15.7-40.2h0c15.4-6.7,33.4,0.3,40.2,15.7
				l15.3,34.9c6.7,15.4-0.3,33.4-15.7,40.2h0C42.7,538.7,24.6,531.7,17.9,516.3z"/>
		</g>
		<g id="XMLID_102_">
			<path id="XMLID_103_" class="st1" d="M73,537.2l-25.3-1.2c-16.8-0.8-29.8-15.1-29-31.9l0,0c0.8-16.8,15.1-29.8,31.9-29l25.3,1.2
				c16.8,0.8,29.8,15.1,29,31.9l0,0C104.1,525,89.7,538,73,537.2z"/>
		</g>
	</g>
</g>
<g id="Hand_Right">
	<g id="XMLID_106_">
		<g id="XMLID_109_">
			<path id="XMLID_110_" class="st1" d="M345.3,546.1l-11.8-38.5c-4.9-16-22.1-25.1-38.1-20.2h0c-16,4.9-25.1,22.1-20.2,38.1
				L287,564c4.9,16,22.1,25.1,38.1,20.2l0,0C341.1,579.3,350.2,562.2,345.3,546.1z"/>
		</g>
		<g id="XMLID_107_">
			<path id="XMLID_108_" class="st1" d="M292,468.1l27.6,21.6c13.2,10.3,15.5,29.6,5.2,42.8l0,0c-10.3,13.2-29.6,15.5-42.8,5.2
				l-27.6-21.6c-13.2-10.3-15.5-29.6-5.2-42.8l0,0C259.5,460.1,278.8,457.7,292,468.1z"/>
		</g>
	</g>
</g>
<path id="XMLID_38_" class="st2" d="M282.8,369.8c8.9,66.2-37.6,127-103.8,135.8c-38.1,5.1-74.4-8.1-100-32.9
	c-18.9-18.3-32-42.8-35.8-70.9c-8.8-66.2,37.6-127,103.8-135.8c34.6-4.6,67.8,5.9,92.8,26.5C262.5,311.2,278.5,338.3,282.8,369.8z"
	/>
<path id="XMLID_36_" class="st1" d="M275.6,363.4c8.9,66.2-37.6,127-103.8,135.8c-34.6,4.6-67.8-5.9-92.8-26.5
	c-18.9-18.3-32-42.8-35.8-70.9c-8.8-66.2,37.6-127,103.8-135.8c34.6-4.6,67.8,5.9,92.8,26.5C258.7,310.8,271.8,335.3,275.6,363.4z"
	/>
<g id="Helmet_1_">
	<path id="Helmet" class="st3" d="M259.5,372.9c7.1,53.3-30.3,102.4-83.7,109.5c-18.7,2.5-36.9-0.5-53-7.8
		c-4.9-2.2-9.6-4.8-14.1-7.8c-3.4-2.3-6.7-4.8-9.8-7.5c-6.3-5.5-12-11.8-16.7-18.8c-8.2-12.1-13.8-26.2-15.9-41.7
		c-5.2-38.7,13.2-75.2,44-95c7-4.5,14.6-8.1,22.8-10.7c3.9-1.2,7.9-2.3,12-3c1.6-0.3,3.2-0.6,4.9-0.8c3.8-0.5,7.5-0.8,11.2-0.8
		C210.1,287.5,252.9,323.3,259.5,372.9z"/>
	<path id="XMLID_16_" class="st4" d="M133.2,293L99,459.3c-6.3-5.5-12-11.8-16.7-18.8l28.1-136.7C117.4,299.3,125,295.7,133.2,293z"
		/>
	<path id="XMLID_17_" class="st4" d="M161.2,288.4l-38.3,186.3c-4.9-2.2-9.6-4.8-14.1-7.8L145.2,290c1.6-0.3,3.2-0.6,4.9-0.8
		C153.8,288.8,157.5,288.5,161.2,288.4z"/>
</g>
<circle id="XMLID_1_" class="st5" cx="119.2" cy="525.8" r="7.3"/>
<circle id="XMLID_4_" class="st6" cx="138.1" cy="524.2" r="7.3"/>
<rect id="XMLID_3_" x="71.5" y="471.5" transform="matrix(0.9914 -0.1311 0.1311 0.9914 -66.517 14.5345)" class="st0" width="11.3" height="81.9"/>
<rect id="XMLID_10_" x="274" y="448.3" transform="matrix(0.9912 -0.1324 0.1324 0.9912 -65.4314 41.543)" class="st0" width="11.4" height="129"/>
<g id="XMLID_13_">
	<path id="XMLID_86_" d="M252.2,281.5c3.2-9.6,5.9-17.9,8.7-26.2c4.3-13,8.8-25.9,12.8-38.9c0.7-2.3,0.4-5.6-0.8-7.8
		C228.4,129.3,269,30.5,356.3,5.4c83.7-24.1,169.4,35.1,176.8,122c6.1,71.7-41.8,135.5-112.4,149.1c-33.6,6.5-65.6,1.1-95.5-15.7
		c-3.1-1.7-5.6-1.8-8.9-0.7C295.4,267.2,274.4,274.1,252.2,281.5z M266.8,266.7c2.8-0.8,4.7-1.3,6.5-1.9
		c14.8-4.9,29.7-9.8,44.5-14.9c3.3-1.1,5.8-0.9,8.8,1c25,15.1,52.1,21.4,81.3,18.3c69.4-7.5,120.3-67.3,116.5-136.7
		C521.5,78,484.5,31,432.3,15c-52.2-16-109,2.4-141.9,45.9c-32.4,42.9-35.4,99.8-7.4,146.5c1.6,2.7,2,4.9,0.9,7.9
		c-3.7,10.3-7.1,20.8-10.5,31.2C271.3,252.9,269.2,259.3,266.8,266.7z"/>
	<path id="XMLID_85_" class="st7" d="M266.8,266.7c2.4-7.4,4.5-13.8,6.6-20.2c3.5-10.4,6.8-20.9,10.5-31.2c1.1-3,0.7-5.2-0.9-7.9
		c-28-46.7-25-103.6,7.4-146.5C323.3,17.4,380.1-0.9,432.3,15c52.2,15.9,89.1,63,92.1,117.4c3.8,69.4-47.2,129.3-116.5,136.7
		c-29.2,3.1-56.3-3.2-81.3-18.3c-3-1.8-5.5-2.1-8.8-1c-14.8,5.1-29.7,10-44.5,14.9C271.4,265.4,269.6,265.9,266.8,266.7z"/>
</g>
<g id="XMLID_14_">
	<path id="XMLID_117_" d="M291.4,107.3l6.8,14.1c0.3,0.6,0.4,1,0.4,1.3c0,0.6-0.5,1.2-1.5,1.6c-0.6,0.3-1,0.4-1.4,0.4
		s-0.6-0.1-0.8-0.2c-0.2-0.2-0.4-0.3-0.5-0.5c-0.1-0.2-0.2-0.4-0.4-0.8l-1.3-2.7h-7l-1.3,2.7c-0.2,0.3-0.3,0.6-0.4,0.7
		c-0.1,0.2-0.2,0.3-0.5,0.5s-0.5,0.2-0.8,0.2s-0.8-0.1-1.4-0.4c-1-0.5-1.5-1-1.5-1.6c0-0.3,0.1-0.7,0.4-1.3l6.8-14.1
		c0.2-0.4,0.5-0.7,0.8-0.9s0.8-0.4,1.2-0.4C290.2,106,290.9,106.4,291.4,107.3z M289.3,113.4l-1.7,3.5h3.4L289.3,113.4z"/>
	<path id="XMLID_120_" d="M309,111.3c0.3,0.1,0.6,0.3,0.8,0.5c0.2,0.2,0.3,0.6,0.3,1.2c0,0.5-0.2,1.1-0.5,1.8c-0.3,0.6-0.8,1-1.4,1
		c-0.3,0-0.6-0.1-0.9-0.2s-0.6-0.2-1.1-0.2c-0.5,0-0.9,0.2-1.3,0.5c-0.4,0.3-0.6,0.7-0.6,1.2v5.3c0,0.4,0,0.7,0,0.9
		c0,0.2-0.1,0.4-0.2,0.7c-0.3,0.4-0.9,0.7-2,0.7c-0.8,0-1.4-0.1-1.7-0.4c-0.3-0.2-0.4-0.6-0.5-1.1c0-0.2,0-0.4,0-0.7v-8.9
		c0-0.4,0-0.7,0-0.9c0-0.2,0.1-0.4,0.2-0.6c0.2-0.5,0.9-0.7,2-0.7c1,0,1.6,0.2,1.9,0.6c0.2,0.3,0.3,0.5,0.3,0.8
		c0.1-0.1,0.2-0.3,0.4-0.4c0.2-0.2,0.5-0.4,1-0.7c0.5-0.3,1-0.4,1.4-0.4c0.4,0,0.7,0,1,0.1C308.4,111.2,308.7,111.2,309,111.3z"/>
	<path id="XMLID_122_" d="M323.6,116.2c0,1-0.3,1.8-0.8,2.3c-0.5,0.5-1.1,0.7-1.7,0.7h-6c0,0.5,0.3,0.9,0.8,1.2
		c0.6,0.3,1.1,0.5,1.7,0.5c1,0,1.7-0.1,2.3-0.3l0.3-0.1c0.4-0.2,0.7-0.3,1-0.3c0.5,0,1,0.4,1.4,1.1c0.2,0.5,0.3,0.8,0.3,1.2
		c0,1.5-1.8,2.2-5.4,2.2c-1.2,0-2.4-0.2-3.3-0.6c-1-0.4-1.7-1-2.3-1.7c-1.1-1.4-1.6-2.9-1.6-4.6c0-2.1,0.7-3.8,2.1-5.1
		c1.4-1.3,3.1-1.9,5.1-1.9c2.3,0,4.1,0.8,5.2,2.5C323.3,114.3,323.6,115.2,323.6,116.2z M318.3,117c0.6,0,1-0.3,1-0.8
		c0-0.4-0.1-0.7-0.4-0.9c-0.3-0.2-0.7-0.4-1.3-0.4c-0.5,0-1.1,0.2-1.6,0.7s-0.8,0.9-0.8,1.4H318.3z"/>
	<path id="XMLID_125_" d="M344,111.3c1,0.4,1.5,1,1.5,1.6c0,0.3-0.1,0.6-0.2,0.9c-0.1,0.3-0.2,0.4-0.2,0.4l-6.6,14.8
		c-0.1,0.3-0.2,0.6-0.3,0.7c-0.1,0.2-0.2,0.3-0.4,0.5c-0.2,0.2-0.5,0.2-0.8,0.2s-0.7-0.1-1.3-0.4c-1-0.4-1.5-1-1.5-1.6
		c0-0.4,0.8-2.3,2.4-5.8l-5-8.5c-0.3-0.6-0.5-1-0.5-1.2c0-0.5,0.5-1.1,1.4-1.6c0.6-0.3,1-0.5,1.3-0.5c0.3,0,0.6,0.1,0.8,0.2
		c0.2,0.1,0.3,0.3,0.4,0.4c0.1,0.1,0.6,0.9,1.4,2.3c0.8,1.4,1.6,2.7,2.4,4c0.1-0.3,0.5-1.3,1.4-3.1c0.8-1.8,1.3-2.8,1.3-2.9
		c0.1-0.1,0.2-0.3,0.3-0.4c0.2-0.3,0.5-0.4,0.9-0.4S343.5,111.1,344,111.3z"/>
	<path id="XMLID_127_" d="M348.6,112.8c1.4-1.3,3-2,4.8-2c1.8,0,3.4,0.7,4.8,2s2.1,3,2.1,5c0,1.4-0.4,2.6-1.1,3.7
		c-0.7,1.1-1.6,1.9-2.6,2.4c-1,0.5-2.1,0.8-3.2,0.8s-2.2-0.3-3.2-0.8s-1.9-1.4-2.6-2.4c-0.7-1.1-1.1-2.3-1.1-3.6
		C346.5,115.8,347.2,114.2,348.6,112.8z M351.8,119.7c0.5,0.4,1.1,0.6,1.6,0.6s1.1-0.2,1.7-0.6c0.6-0.4,0.8-1,0.8-1.9
		c0-0.8-0.3-1.4-0.8-1.8c-0.5-0.4-1.1-0.6-1.7-0.6c-0.6,0-1.2,0.2-1.7,0.6c-0.5,0.4-0.8,1-0.8,1.9
		C351,118.6,351.2,119.2,351.8,119.7z"/>
	<path id="XMLID_130_" d="M367.9,124.4c-1.7,0-3.1-0.6-4.2-1.9c-1.1-1.3-1.7-2.9-1.7-4.7v-4.4c0-0.4,0-0.7,0-0.9s0.1-0.4,0.2-0.7
		c0.2-0.5,0.9-0.7,2-0.7c1.2,0,1.9,0.3,2.1,1c0.1,0.3,0.2,0.7,0.2,1.3v4.4c0,0.7,0.2,1.2,0.6,1.6c0.4,0.4,0.9,0.6,1.6,0.6
		c0.7,0,1.2-0.2,1.6-0.6c0.4-0.4,0.6-0.9,0.6-1.6v-4.5c0-0.4,0-0.7,0-0.9c0-0.2,0.1-0.4,0.2-0.7c0.2-0.4,0.9-0.7,1.9-0.7
		c1.1,0,1.7,0.2,1.9,0.7c0.1,0.3,0.2,0.5,0.2,0.7c0,0.2,0,0.5,0,0.9v8.9c0,0.4,0,0.7,0,0.8c0,0.2-0.1,0.4-0.2,0.6
		c-0.3,0.4-0.9,0.7-1.9,0.7c-1,0-1.7-0.2-1.9-0.6c-0.2-0.3-0.3-0.6-0.3-1c-0.1,0.1-0.2,0.3-0.5,0.5c-0.2,0.2-0.5,0.4-0.7,0.6
		C369.2,124.3,368.6,124.4,367.9,124.4z"/>
	<path id="XMLID_132_" d="M392.8,111.3c0.3,0.1,0.6,0.3,0.8,0.5c0.2,0.2,0.3,0.6,0.3,1.2c0,0.5-0.2,1.1-0.5,1.8
		c-0.3,0.6-0.8,1-1.4,1c-0.3,0-0.6-0.1-0.9-0.2s-0.6-0.2-1.1-0.2c-0.5,0-0.9,0.2-1.3,0.5c-0.4,0.3-0.6,0.7-0.6,1.2v5.3
		c0,0.4,0,0.7,0,0.9c0,0.2-0.1,0.4-0.2,0.7c-0.3,0.4-0.9,0.7-2,0.7c-0.8,0-1.4-0.1-1.7-0.4c-0.3-0.2-0.4-0.6-0.5-1.1
		c0-0.2,0-0.4,0-0.7v-8.9c0-0.4,0-0.7,0-0.9c0-0.2,0.1-0.4,0.2-0.6c0.2-0.5,0.9-0.7,2-0.7c1,0,1.6,0.2,1.9,0.6
		c0.2,0.3,0.3,0.5,0.3,0.8c0.1-0.1,0.2-0.3,0.4-0.4c0.2-0.2,0.5-0.4,1-0.7c0.5-0.3,1-0.4,1.4-0.4c0.4,0,0.7,0,1,0.1
		C392.1,111.2,392.4,111.2,392.8,111.3z"/>
	<path id="XMLID_134_" d="M407.3,116.2c0,1-0.3,1.8-0.8,2.3c-0.5,0.5-1.1,0.7-1.7,0.7h-6c0,0.5,0.3,0.9,0.8,1.2
		c0.6,0.3,1.1,0.5,1.7,0.5c1,0,1.7-0.1,2.3-0.3l0.3-0.1c0.4-0.2,0.7-0.3,1-0.3c0.5,0,1,0.4,1.4,1.1c0.2,0.5,0.3,0.8,0.3,1.2
		c0,1.5-1.8,2.2-5.4,2.2c-1.2,0-2.4-0.2-3.3-0.6c-1-0.4-1.7-1-2.3-1.7c-1.1-1.4-1.6-2.9-1.6-4.6c0-2.1,0.7-3.8,2.1-5.1
		c1.4-1.3,3.1-1.9,5.1-1.9c2.3,0,4.1,0.8,5.2,2.5C407,114.3,407.3,115.2,407.3,116.2z M402,117c0.6,0,1-0.3,1-0.8
		c0-0.4-0.1-0.7-0.4-0.9c-0.3-0.2-0.7-0.4-1.3-0.4c-0.5,0-1.1,0.2-1.6,0.7s-0.8,0.9-0.8,1.4H402z"/>
	<path id="XMLID_137_" d="M417.6,112.6c0.1-0.9,0.8-1.4,2-1.4c0.7,0,1.1,0.1,1.5,0.2c0.3,0.1,0.5,0.3,0.7,0.5
		c0.1,0.3,0.2,0.5,0.2,0.7c0,0.2,0,0.5,0,0.9v8.8c0,0.4,0,0.7,0,0.9s-0.1,0.4-0.2,0.7c-0.2,0.4-0.8,0.7-1.7,0.7
		c-0.9,0-1.5-0.1-1.8-0.3c-0.3-0.2-0.5-0.6-0.5-1c-0.6,0.9-1.7,1.3-3.1,1.3c-1.5,0-2.8-0.7-4.1-2c-1.2-1.3-1.9-2.9-1.9-4.6
		c0-1.8,0.6-3.3,1.9-4.6c1.3-1.3,2.6-2,4.1-2c0.6,0,1.1,0.1,1.6,0.3c0.5,0.2,0.8,0.4,1,0.6C417.3,112.3,417.5,112.4,417.6,112.6z
		 M413,117.8c0,0.6,0.2,1.1,0.7,1.5c0.4,0.4,1,0.7,1.6,0.7c0.6,0,1.1-0.2,1.6-0.7c0.4-0.5,0.6-1,0.6-1.5s-0.2-1.1-0.6-1.5
		c-0.4-0.5-0.9-0.7-1.6-0.7c-0.7,0-1.2,0.2-1.6,0.7C413.2,116.8,413,117.3,413,117.8z"/>
	<path id="XMLID_140_" d="M432.9,105.6c0.1-0.2,0.3-0.4,0.7-0.5c0.3-0.1,0.7-0.2,1.3-0.2s1,0.1,1.3,0.2c0.3,0.1,0.5,0.3,0.7,0.5
		c0.1,0.3,0.2,0.5,0.2,0.7c0,0.2,0,0.5,0,0.9v15.1c0,0.4,0,0.7,0,0.9c0,0.2-0.1,0.4-0.2,0.6c-0.3,0.5-1,0.7-2.1,0.7
		c-1.2,0-1.8-0.4-2-1.2c-0.7,0.8-1.7,1.2-3,1.2c-1.5,0-2.9-0.7-4.1-2c-1.2-1.3-1.9-2.9-1.9-4.6c0-1.8,0.6-3.3,1.9-4.6
		c1.3-1.3,2.6-2,4.1-2c1.2,0,2.2,0.4,2.9,1.3v-5.3c0-0.4,0-0.7,0-0.9C432.7,106.1,432.8,105.9,432.9,105.6z M428.8,119.4
		c0.4,0.5,1,0.7,1.6,0.7c0.6,0,1.1-0.2,1.6-0.7c0.4-0.5,0.6-1,0.6-1.5c0-0.5-0.2-1.1-0.6-1.5s-0.9-0.7-1.6-0.7
		c-0.7,0-1.2,0.2-1.6,0.7c-0.4,0.5-0.6,1-0.6,1.5C428.2,118.4,428.4,118.9,428.8,119.4z"/>
	<path id="XMLID_143_" d="M451.2,111.3c1,0.4,1.5,1,1.5,1.6c0,0.3-0.1,0.6-0.2,0.9c-0.1,0.3-0.2,0.4-0.2,0.4l-6.6,14.8
		c-0.1,0.3-0.2,0.6-0.3,0.7c-0.1,0.2-0.2,0.3-0.4,0.5c-0.2,0.2-0.5,0.2-0.8,0.2s-0.7-0.1-1.3-0.4c-1-0.4-1.5-1-1.5-1.6
		c0-0.4,0.8-2.3,2.4-5.8l-5-8.5c-0.3-0.6-0.5-1-0.5-1.2c0-0.5,0.5-1.1,1.4-1.6c0.6-0.3,1-0.5,1.3-0.5c0.3,0,0.6,0.1,0.8,0.2
		c0.2,0.1,0.3,0.3,0.4,0.4c0.1,0.1,0.6,0.9,1.4,2.3c0.8,1.4,1.6,2.7,2.4,4c0.1-0.3,0.5-1.3,1.4-3.1c0.8-1.8,1.3-2.8,1.3-2.9
		c0.1-0.1,0.2-0.3,0.3-0.4c0.2-0.3,0.5-0.4,0.9-0.4S450.7,111.1,451.2,111.3z"/>
	<path id="XMLID_145_" d="M468.2,115.6l-1.6-0.1v3.5c0,0.5,0.1,0.8,0.2,1c0.1,0.2,0.4,0.3,0.8,0.3s0.7,0,0.9,0
		c0.2,0,0.4,0.1,0.7,0.2c0.4,0.2,0.6,0.8,0.6,1.7c0,1.1-0.2,1.7-0.7,1.9c-0.3,0.1-0.5,0.2-0.7,0.2c-0.2,0-0.5,0-0.8,0
		c-1.8,0-3.1-0.4-4-1.2c-0.9-0.8-1.4-2.1-1.4-4v-3.7c-0.3,0.1-0.7,0.1-1,0.1c-0.4,0-0.7-0.1-0.9-0.4c-0.2-0.3-0.4-0.8-0.4-1.5
		c0-0.7,0-1.2,0.1-1.5s0.2-0.5,0.4-0.7c0.3-0.2,0.6-0.3,1-0.3l0.8,0.1v-2.6c0-0.4,0-0.7,0-0.9c0-0.2,0.1-0.4,0.2-0.6
		c0.2-0.4,0.9-0.6,1.9-0.6c1.1,0,1.8,0.3,2,0.9c0.1,0.3,0.1,0.7,0.1,1.3v2.5c0.7-0.1,1.3-0.1,1.7-0.1s0.7,0,0.9,0
		c0.2,0,0.4,0.1,0.7,0.2c0.4,0.2,0.7,0.9,0.7,1.9c0,1.1-0.2,1.7-0.7,1.9c-0.3,0.1-0.5,0.2-0.7,0.2S468.6,115.6,468.2,115.6z"/>
	<path id="XMLID_147_" d="M473.6,112.8c1.4-1.3,3-2,4.8-2c1.8,0,3.4,0.7,4.8,2s2.1,3,2.1,5c0,1.4-0.4,2.6-1.1,3.7
		c-0.7,1.1-1.6,1.9-2.6,2.4c-1,0.5-2.1,0.8-3.2,0.8s-2.2-0.3-3.2-0.8s-1.9-1.4-2.6-2.4c-0.7-1.1-1.1-2.3-1.1-3.6
		C471.5,115.8,472.2,114.2,473.6,112.8z M476.7,119.7c0.5,0.4,1.1,0.6,1.6,0.6s1.1-0.2,1.7-0.6c0.6-0.4,0.8-1,0.8-1.9
		c0-0.8-0.3-1.4-0.8-1.8c-0.5-0.4-1.1-0.6-1.7-0.6c-0.6,0-1.2,0.2-1.7,0.6c-0.5,0.4-0.8,1-0.8,1.9
		C475.9,118.6,476.2,119.2,476.7,119.7z"/>
	<path id="XMLID_150_" d="M287.2,153.6c-0.3-0.2-0.5-0.5-0.5-1c0-0.4,0.3-1.1,1-2c0.2-0.3,0.5-0.4,0.9-0.4c0.4,0,1,0.2,1.7,0.6
		c0.7,0.4,1.3,0.6,1.9,0.6c1,0,1.5-0.2,1.5-0.6c0-0.3-0.6-0.6-1.7-0.7c-1.1-0.2-2.1-0.5-3.2-1.2c-0.5-0.3-0.9-0.8-1.2-1.4
		c-0.3-0.6-0.5-1.4-0.5-2.3c0-2.7,1.8-4,5.5-4c1.2,0,2.4,0.3,3.7,0.9c0.6,0.3,0.9,0.6,0.9,1s-0.2,0.9-0.6,1.5
		c-0.4,0.6-0.7,0.9-1.1,0.9c-0.2,0-0.6-0.1-1.1-0.4c-0.5-0.3-1.1-0.4-1.8-0.4c-1,0-1.5,0.2-1.5,0.6c0,0.5,0.6,0.8,1.7,1
		c1.1,0.1,2.2,0.4,3.2,1c0.5,0.2,0.9,0.6,1.2,1.2c0.3,0.6,0.5,1.3,0.5,2.2c0,0.9-0.2,1.6-0.5,2.2c-0.3,0.6-0.8,1.1-1.4,1.4
		c-1.1,0.5-2.4,0.8-4.1,0.8C290.2,155,288.7,154.5,287.2,153.6z"/>
	<path id="XMLID_152_" d="M306.7,145.9l-1.6-0.1v3.5c0,0.5,0.1,0.8,0.2,1c0.1,0.2,0.4,0.3,0.8,0.3s0.7,0,0.9,0
		c0.2,0,0.4,0.1,0.7,0.2c0.4,0.2,0.6,0.8,0.6,1.7c0,1.1-0.2,1.7-0.7,1.9c-0.3,0.1-0.5,0.2-0.7,0.2c-0.2,0-0.5,0-0.8,0
		c-1.8,0-3.1-0.4-4-1.2c-0.9-0.8-1.4-2.1-1.4-4v-3.7c-0.3,0.1-0.7,0.1-1,0.1c-0.4,0-0.7-0.1-0.9-0.4c-0.2-0.3-0.4-0.8-0.4-1.5
		c0-0.7,0-1.2,0.1-1.5s0.2-0.5,0.4-0.7c0.3-0.2,0.6-0.3,1-0.3l0.8,0.1V139c0-0.4,0-0.7,0-0.9c0-0.2,0.1-0.4,0.2-0.6
		c0.2-0.4,0.9-0.6,1.9-0.6c1.1,0,1.8,0.3,2,0.9c0.1,0.3,0.1,0.7,0.1,1.3v2.5c0.7-0.1,1.3-0.1,1.7-0.1s0.7,0,0.9,0
		c0.2,0,0.4,0.1,0.7,0.2c0.4,0.2,0.7,0.9,0.7,1.9c0,1.1-0.2,1.7-0.7,1.9c-0.3,0.1-0.5,0.2-0.7,0.2S307.1,145.9,306.7,145.9z"/>
	<path id="XMLID_154_" d="M319,142.9c0.1-0.9,0.8-1.4,2-1.4c0.7,0,1.1,0.1,1.5,0.2c0.3,0.1,0.5,0.3,0.7,0.5c0.1,0.3,0.2,0.5,0.2,0.7
		c0,0.2,0,0.5,0,0.9v8.8c0,0.4,0,0.7,0,0.9s-0.1,0.4-0.2,0.7c-0.2,0.4-0.8,0.7-1.7,0.7c-0.9,0-1.5-0.1-1.8-0.3
		c-0.3-0.2-0.5-0.6-0.5-1c-0.6,0.9-1.7,1.3-3.1,1.3c-1.5,0-2.8-0.7-4.1-2c-1.2-1.3-1.9-2.9-1.9-4.6c0-1.8,0.6-3.3,1.9-4.6
		c1.3-1.3,2.6-2,4.1-2c0.6,0,1.1,0.1,1.6,0.3c0.5,0.2,0.8,0.4,1,0.6C318.7,142.6,318.9,142.7,319,142.9z M314.4,148.1
		c0,0.6,0.2,1.1,0.7,1.5c0.4,0.4,1,0.7,1.6,0.7c0.6,0,1.1-0.2,1.6-0.7c0.4-0.5,0.6-1,0.6-1.5s-0.2-1.1-0.6-1.5
		c-0.4-0.5-0.9-0.7-1.6-0.7c-0.7,0-1.2,0.2-1.6,0.7C314.6,147.1,314.4,147.6,314.4,148.1z"/>
	<path id="XMLID_157_" d="M334.4,141.6c0.3,0.1,0.6,0.3,0.8,0.5c0.2,0.2,0.3,0.6,0.3,1.2c0,0.5-0.2,1.1-0.5,1.8
		c-0.3,0.6-0.8,1-1.4,1c-0.3,0-0.6-0.1-0.9-0.2s-0.6-0.2-1.1-0.2c-0.5,0-0.9,0.2-1.3,0.5c-0.4,0.3-0.6,0.7-0.6,1.2v5.3
		c0,0.4,0,0.7,0,0.9c0,0.2-0.1,0.4-0.2,0.7c-0.3,0.4-0.9,0.7-2,0.7c-0.8,0-1.4-0.1-1.7-0.4c-0.3-0.2-0.4-0.6-0.5-1.1
		c0-0.2,0-0.4,0-0.7v-8.9c0-0.4,0-0.7,0-0.9c0-0.2,0.1-0.4,0.2-0.6c0.2-0.5,0.9-0.7,2-0.7c1,0,1.6,0.2,1.9,0.6
		c0.2,0.3,0.3,0.5,0.3,0.8c0.1-0.1,0.2-0.3,0.4-0.4c0.2-0.2,0.5-0.4,1-0.7c0.5-0.3,1-0.4,1.4-0.4c0.4,0,0.7,0,1,0.1
		C333.8,141.5,334.1,141.5,334.4,141.6z"/>
	<path id="XMLID_159_" d="M344.7,145.9l-1.6-0.1v3.5c0,0.5,0.1,0.8,0.2,1c0.1,0.2,0.4,0.3,0.8,0.3s0.7,0,0.9,0
		c0.2,0,0.4,0.1,0.7,0.2c0.4,0.2,0.6,0.8,0.6,1.7c0,1.1-0.2,1.7-0.7,1.9c-0.3,0.1-0.5,0.2-0.7,0.2c-0.2,0-0.5,0-0.8,0
		c-1.8,0-3.1-0.4-4-1.2c-0.9-0.8-1.4-2.1-1.4-4v-3.7c-0.3,0.1-0.7,0.1-1,0.1c-0.4,0-0.7-0.1-0.9-0.4c-0.2-0.3-0.4-0.8-0.4-1.5
		c0-0.7,0-1.2,0.1-1.5s0.2-0.5,0.4-0.7c0.3-0.2,0.6-0.3,1-0.3l0.8,0.1V139c0-0.4,0-0.7,0-0.9c0-0.2,0.1-0.4,0.2-0.6
		c0.2-0.4,0.9-0.6,1.9-0.6c1.1,0,1.8,0.3,2,0.9c0.1,0.3,0.1,0.7,0.1,1.3v2.5c0.7-0.1,1.3-0.1,1.7-0.1s0.7,0,0.9,0
		c0.2,0,0.4,0.1,0.7,0.2c0.4,0.2,0.7,0.9,0.7,1.9c0,1.1-0.2,1.7-0.7,1.9c-0.3,0.1-0.5,0.2-0.7,0.2S345,145.9,344.7,145.9z"/>
	<path id="XMLID_161_" d="M367,141.6c1,0.4,1.5,1,1.5,1.6c0,0.3-0.1,0.6-0.2,0.9c-0.1,0.3-0.2,0.4-0.2,0.4l-6.6,14.8
		c-0.1,0.3-0.2,0.6-0.3,0.7c-0.1,0.2-0.2,0.3-0.4,0.5c-0.2,0.2-0.5,0.2-0.8,0.2s-0.7-0.1-1.3-0.4c-1-0.4-1.5-1-1.5-1.6
		c0-0.4,0.8-2.3,2.4-5.8l-5-8.5c-0.3-0.6-0.5-1-0.5-1.2c0-0.5,0.5-1.1,1.4-1.6c0.6-0.3,1-0.5,1.3-0.5c0.3,0,0.6,0.1,0.8,0.2
		c0.2,0.1,0.3,0.3,0.4,0.4c0.1,0.1,0.6,0.9,1.4,2.3c0.8,1.4,1.6,2.7,2.4,4c0.1-0.3,0.5-1.3,1.4-3.1c0.8-1.8,1.3-2.8,1.3-2.9
		c0.1-0.1,0.2-0.3,0.3-0.4c0.2-0.3,0.5-0.4,0.9-0.4S366.5,141.4,367,141.6z"/>
	<path id="XMLID_163_" d="M371.6,143.1c1.4-1.3,3-2,4.8-2c1.8,0,3.4,0.7,4.8,2s2.1,3,2.1,5c0,1.4-0.4,2.6-1.1,3.7
		c-0.7,1.1-1.6,1.9-2.6,2.4c-1,0.5-2.1,0.8-3.2,0.8s-2.2-0.3-3.2-0.8s-1.9-1.4-2.6-2.4c-0.7-1.1-1.1-2.3-1.1-3.6
		C369.5,146.1,370.2,144.5,371.6,143.1z M374.8,150c0.5,0.4,1.1,0.6,1.6,0.6s1.1-0.2,1.7-0.6c0.6-0.4,0.8-1,0.8-1.9
		c0-0.8-0.3-1.4-0.8-1.8c-0.5-0.4-1.1-0.6-1.7-0.6c-0.6,0-1.2,0.2-1.7,0.6c-0.5,0.4-0.8,1-0.8,1.9C374,148.9,374.3,149.5,374.8,150z
		"/>
	<path id="XMLID_166_" d="M391,154.7c-1.7,0-3.1-0.6-4.2-1.9c-1.1-1.3-1.7-2.9-1.7-4.7v-4.4c0-0.4,0-0.7,0-0.9s0.1-0.4,0.2-0.7
		c0.2-0.5,0.9-0.7,2-0.7c1.2,0,1.9,0.3,2.1,1c0.1,0.3,0.2,0.7,0.2,1.3v4.4c0,0.7,0.2,1.2,0.6,1.6c0.4,0.4,0.9,0.6,1.6,0.6
		c0.7,0,1.2-0.2,1.6-0.6c0.4-0.4,0.6-0.9,0.6-1.6v-4.5c0-0.4,0-0.7,0-0.9c0-0.2,0.1-0.4,0.2-0.7c0.2-0.4,0.9-0.7,1.9-0.7
		c1.1,0,1.7,0.2,1.9,0.7c0.1,0.3,0.2,0.5,0.2,0.7c0,0.2,0,0.5,0,0.9v8.9c0,0.4,0,0.7,0,0.8c0,0.2-0.1,0.4-0.2,0.6
		c-0.3,0.4-0.9,0.7-1.9,0.7c-1,0-1.7-0.2-1.9-0.6c-0.2-0.3-0.3-0.6-0.3-1c-0.1,0.1-0.2,0.3-0.5,0.5c-0.2,0.2-0.5,0.4-0.7,0.6
		C392.3,154.6,391.6,154.7,391,154.7z"/>
	<path id="XMLID_168_" d="M409.4,141.6c0.3,0.1,0.6,0.3,0.8,0.5c0.2,0.2,0.3,0.6,0.3,1.2c0,0.5-0.2,1.1-0.5,1.8
		c-0.3,0.6-0.8,1-1.4,1c-0.3,0-0.6-0.1-0.9-0.2s-0.6-0.2-1.1-0.2c-0.5,0-0.9,0.2-1.3,0.5c-0.4,0.3-0.6,0.7-0.6,1.2v5.3
		c0,0.4,0,0.7,0,0.9c0,0.2-0.1,0.4-0.2,0.7c-0.3,0.4-0.9,0.7-2,0.7c-0.8,0-1.4-0.1-1.7-0.4c-0.3-0.2-0.4-0.6-0.5-1.1
		c0-0.2,0-0.4,0-0.7v-8.9c0-0.4,0-0.7,0-0.9c0-0.2,0.1-0.4,0.2-0.6c0.2-0.5,0.9-0.7,2-0.7c1,0,1.6,0.2,1.9,0.6
		c0.2,0.3,0.3,0.5,0.3,0.8c0.1-0.1,0.2-0.3,0.4-0.4c0.2-0.2,0.5-0.4,1-0.7c0.5-0.3,1-0.4,1.4-0.4c0.4,0,0.7,0,1,0.1
		C408.8,141.5,409.1,141.5,409.4,141.6z"/>
	<path id="XMLID_170_" d="M419.2,141.6c0.3-0.1,0.7-0.2,1.3-0.2c0.5,0,0.9,0.1,1.2,0.2c0.3,0.1,0.5,0.3,0.6,0.5s0.2,0.5,0.2,0.7
		c0,0.2,0,0.5,0,0.9V154c0,2-0.7,3.5-2,4.7s-2.9,1.8-4.5,1.8c-0.4,0-0.7,0-0.9,0c-0.2,0-0.4-0.1-0.6-0.2c-0.4-0.2-0.7-0.9-0.7-1.8
		c0-1,0.2-1.6,0.5-1.9s0.9-0.4,1.5-0.4s1.2-0.2,1.6-0.5c0.5-0.3,0.7-0.9,0.7-1.8v-10.4c0-0.6,0.1-1,0.2-1.3S418.9,141.7,419.2,141.6
		z M421.7,139.5c-0.3,0.1-0.7,0.1-1.3,0.1s-0.9-0.1-1.2-0.2s-0.5-0.3-0.6-0.5c-0.1-0.2-0.2-0.5-0.2-0.7s0-0.5,0-0.9
		c0-0.4,0-0.7,0-0.9c0-0.2,0.1-0.4,0.2-0.6c0.2-0.4,0.9-0.7,1.9-0.7c1,0,1.6,0.2,1.9,0.7c0.1,0.2,0.2,0.4,0.2,0.6s0,0.5,0,0.8v0.2
		c0,0.4,0,0.6,0,0.8c0,0.2-0.1,0.4-0.2,0.6S422,139.4,421.7,139.5z"/>
	<path id="XMLID_173_" d="M426.4,143.1c1.4-1.3,3-2,4.8-2c1.8,0,3.4,0.7,4.8,2s2.1,3,2.1,5c0,1.4-0.4,2.6-1.1,3.7
		c-0.7,1.1-1.6,1.9-2.6,2.4c-1,0.5-2.1,0.8-3.2,0.8s-2.2-0.3-3.2-0.8s-1.9-1.4-2.6-2.4c-0.7-1.1-1.1-2.3-1.1-3.6
		C424.3,146.1,425,144.5,426.4,143.1z M429.5,150c0.5,0.4,1.1,0.6,1.6,0.6s1.1-0.2,1.7-0.6c0.6-0.4,0.8-1,0.8-1.9
		c0-0.8-0.3-1.4-0.8-1.8c-0.5-0.4-1.1-0.6-1.7-0.6c-0.6,0-1.2,0.2-1.7,0.6c-0.5,0.4-0.8,1-0.8,1.9C428.7,148.9,429,149.5,429.5,150z
		"/>
	<path id="XMLID_176_" d="M445.7,154.7c-1.7,0-3.1-0.6-4.2-1.9c-1.1-1.3-1.7-2.9-1.7-4.7v-4.4c0-0.4,0-0.7,0-0.9s0.1-0.4,0.2-0.7
		c0.2-0.5,0.9-0.7,2-0.7c1.2,0,1.9,0.3,2.1,1c0.1,0.3,0.2,0.7,0.2,1.3v4.4c0,0.7,0.2,1.2,0.6,1.6c0.4,0.4,0.9,0.6,1.6,0.6
		c0.7,0,1.2-0.2,1.6-0.6c0.4-0.4,0.6-0.9,0.6-1.6v-4.5c0-0.4,0-0.7,0-0.9c0-0.2,0.1-0.4,0.2-0.7c0.2-0.4,0.9-0.7,1.9-0.7
		c1.1,0,1.7,0.2,1.9,0.7c0.1,0.3,0.2,0.5,0.2,0.7c0,0.2,0,0.5,0,0.9v8.9c0,0.4,0,0.7,0,0.8c0,0.2-0.1,0.4-0.2,0.6
		c-0.3,0.4-0.9,0.7-1.9,0.7c-1,0-1.7-0.2-1.9-0.6c-0.2-0.3-0.3-0.6-0.3-1c-0.1,0.1-0.2,0.3-0.5,0.5c-0.2,0.2-0.5,0.4-0.7,0.6
		C447,154.6,446.4,154.7,445.7,154.7z"/>
	<path id="XMLID_178_" d="M464.1,141.6c0.3,0.1,0.6,0.3,0.8,0.5c0.2,0.2,0.3,0.6,0.3,1.2c0,0.5-0.2,1.1-0.5,1.8
		c-0.3,0.6-0.8,1-1.4,1c-0.3,0-0.6-0.1-0.9-0.2s-0.6-0.2-1.1-0.2c-0.5,0-0.9,0.2-1.3,0.5c-0.4,0.3-0.6,0.7-0.6,1.2v5.3
		c0,0.4,0,0.7,0,0.9c0,0.2-0.1,0.4-0.2,0.7c-0.3,0.4-0.9,0.7-2,0.7c-0.8,0-1.4-0.1-1.7-0.4c-0.3-0.2-0.4-0.6-0.5-1.1
		c0-0.2,0-0.4,0-0.7v-8.9c0-0.4,0-0.7,0-0.9c0-0.2,0.1-0.4,0.2-0.6c0.2-0.5,0.9-0.7,2-0.7c1,0,1.6,0.2,1.9,0.6
		c0.2,0.3,0.3,0.5,0.3,0.8c0.1-0.1,0.2-0.3,0.4-0.4c0.2-0.2,0.5-0.4,1-0.7c0.5-0.3,1-0.4,1.4-0.4c0.4,0,0.7,0,1,0.1
		C463.5,141.5,463.8,141.5,464.1,141.6z"/>
	<path id="XMLID_180_" d="M474,141.5c1.7,0,3.1,0.6,4.2,1.9c1.1,1.3,1.7,2.9,1.7,4.7v4.4c0,0.4,0,0.7,0,0.9c0,0.2-0.1,0.4-0.2,0.6
		c-0.2,0.5-0.9,0.7-2,0.7c-1.2,0-1.9-0.3-2.1-0.9c-0.1-0.3-0.2-0.7-0.2-1.3v-4.4c0-0.7-0.2-1.2-0.6-1.6s-0.9-0.6-1.6-0.6
		s-1.2,0.2-1.6,0.6c-0.4,0.4-0.6,0.9-0.6,1.6v4.5c0,0.4,0,0.7,0,0.9c0,0.2-0.1,0.4-0.2,0.6c-0.2,0.5-0.9,0.7-1.9,0.7
		c-1.1,0-1.7-0.2-1.9-0.7c-0.1-0.3-0.2-0.5-0.2-0.7s0-0.5,0-0.9v-8.9c0-0.4,0-0.7,0-0.8c0-0.2,0.1-0.4,0.2-0.6
		c0.2-0.4,0.9-0.6,1.9-0.6c1,0,1.7,0.2,1.9,0.6c0.2,0.3,0.3,0.6,0.3,1c0.1-0.1,0.2-0.3,0.5-0.5c0.2-0.2,0.5-0.4,0.7-0.5
		C472.7,141.7,473.3,141.5,474,141.5z"/>
	<path id="XMLID_182_" d="M494.8,146.5c0,1-0.3,1.8-0.8,2.3c-0.5,0.5-1.1,0.7-1.7,0.7h-6c0,0.5,0.3,0.9,0.8,1.2
		c0.6,0.3,1.1,0.5,1.7,0.5c1,0,1.7-0.1,2.3-0.3l0.3-0.1c0.4-0.2,0.7-0.3,1-0.3c0.5,0,1,0.4,1.4,1.1c0.2,0.5,0.3,0.8,0.3,1.2
		c0,1.5-1.8,2.2-5.4,2.2c-1.2,0-2.4-0.2-3.3-0.6c-1-0.4-1.7-1-2.3-1.7c-1.1-1.4-1.6-2.9-1.6-4.6c0-2.1,0.7-3.8,2.1-5.1
		c1.4-1.3,3.1-1.9,5.1-1.9c2.3,0,4.1,0.8,5.2,2.5C494.5,144.6,494.8,145.5,494.8,146.5z M489.4,147.3c0.6,0,1-0.3,1-0.8
		c0-0.4-0.1-0.7-0.4-0.9c-0.3-0.2-0.7-0.4-1.3-0.4c-0.5,0-1.1,0.2-1.6,0.7s-0.8,0.9-0.8,1.4H489.4z"/>
	<path id="XMLID_185_" d="M508,141.6c1,0.4,1.5,1,1.5,1.6c0,0.3-0.1,0.6-0.2,0.9c-0.1,0.3-0.2,0.4-0.2,0.4l-6.6,14.8
		c-0.1,0.3-0.2,0.6-0.3,0.7c-0.1,0.2-0.2,0.3-0.4,0.5c-0.2,0.2-0.5,0.2-0.8,0.2s-0.7-0.1-1.3-0.4c-1-0.4-1.5-1-1.5-1.6
		c0-0.4,0.8-2.3,2.4-5.8l-5-8.5c-0.3-0.6-0.5-1-0.5-1.2c0-0.5,0.5-1.1,1.4-1.6c0.6-0.3,1-0.5,1.3-0.5c0.3,0,0.6,0.1,0.8,0.2
		c0.2,0.1,0.3,0.3,0.4,0.4c0.1,0.1,0.6,0.9,1.4,2.3c0.8,1.4,1.6,2.7,2.4,4c0.1-0.3,0.5-1.3,1.4-3.1c0.8-1.8,1.3-2.8,1.3-2.9
		c0.1-0.1,0.2-0.3,0.3-0.4c0.2-0.3,0.5-0.4,0.9-0.4S507.5,141.4,508,141.6z"/>
	<path id="XMLID_187_" d="M514.3,146.3l0-0.2c0-0.7,0.2-1.3,0.6-1.7c0.4-0.4,0.9-0.7,1.4-0.8s0.9-0.4,1.4-0.7
		c0.4-0.3,0.6-0.8,0.6-1.3c0-0.5-0.2-1-0.5-1.3c-0.3-0.3-0.8-0.5-1.4-0.5s-1.1,0.1-1.4,0.3c-0.3,0.2-0.5,0.4-0.5,0.6l-0.1,0.3
		c-0.2,0.4-0.3,0.8-0.5,1c-0.2,0.2-0.5,0.3-0.8,0.3c-0.3,0-0.7-0.1-1.3-0.3c-1-0.4-1.5-0.9-1.5-1.4c0-0.3,0.1-0.5,0.2-0.8
		c0.1-0.3,0.2-0.5,0.3-0.7c0.1-0.2,0.2-0.5,0.5-0.9c0.3-0.4,0.6-0.8,1-1.1c0.4-0.3,0.9-0.6,1.6-0.9c0.7-0.3,1.5-0.4,2.3-0.4
		c1.8,0,3.2,0.6,4.4,1.7c1.1,1.1,1.7,2.5,1.7,4c0,0.7-0.1,1.4-0.4,2c-0.3,0.6-0.6,1.1-0.9,1.5c-0.7,0.7-1.4,1.2-2.1,1.4l-0.4,0.1
		c0,0.3,0,0.5,0,0.7c0,0.2-0.1,0.3-0.2,0.5c-0.1,0.2-0.3,0.3-0.6,0.4c-0.3,0.1-0.7,0.1-1.2,0.1s-0.9,0-1.2-0.1
		c-0.3-0.1-0.5-0.2-0.6-0.4c-0.1-0.2-0.2-0.4-0.2-0.5C514.3,146.9,514.3,146.7,514.3,146.3z M514.2,150.8c0.1-0.3,0.4-0.5,0.7-0.6
		c0.3-0.1,0.9-0.2,1.6-0.2c0.7,0,1.3,0.2,1.6,0.5s0.5,1,0.5,1.9c0,0.7-0.1,1.2-0.3,1.5c-0.2,0.3-0.4,0.5-0.8,0.7s-0.9,0.2-1.6,0.2
		s-1.3-0.2-1.7-0.5c-0.3-0.3-0.4-0.8-0.4-1.5v-0.4c0-0.4,0-0.7,0-0.9S514,151.1,514.2,150.8z"/>
</g>
</svg>
