<?xml version="1.0" encoding="utf-8"?>
<!-- Generator: Adobe Illustrator 19.0.0, SVG Export Plug-In . SVG Version: 6.00 Build 0)  -->
<svg version="1.1" id="Content" xmlns="http://www.w3.org/2000/svg" xmlns:xlink="http://www.w3.org/1999/xlink" x="0px" y="0px"
	 viewBox="539 -242.7 1920 1080" style="enable-background:new 539 -242.7 1920 1080;" xml:space="preserve">
<style type="text/css">
	.st0{fill:#FFF6C7;}
	.st1{fill:#020202;}
	.st2{fill:#091318;}
	.st3{fill:url(#XMLID_4_);}
	.st4{fill:url(#XMLID_5_);}
	.st5{fill:url(#XMLID_6_);}
	.st6{fill:url(#XMLID_7_);}
	.st7{fill:url(#XMLID_8_);}
	.st8{fill:url(#XMLID_13_);}
	.st9{fill:url(#XMLID_14_);}
	.st10{fill:url(#XMLID_33_);}
	.st11{opacity:0.41;fill:url(#XMLID_34_);enable-background:new    ;}
	.st12{opacity:0.41;fill:url(#XMLID_35_);enable-background:new    ;}
	.st13{opacity:0.41;fill:url(#XMLID_36_);enable-background:new    ;}
	.st14{opacity:0.41;fill:url(#XMLID_39_);enable-background:new    ;}
	.st15{opacity:0.41;}
	.st16{fill:#FFF6C8;}
	.st17{opacity:0.21;}
	.st18{fill:#47665A;}
	.st19{fill:#FDFDFE;}
	.st20{fill:url(#XMLID_40_);}
	.st21{opacity:0.82;fill:#FFFFFF;}
	.st22{font-family:'Poppins-Bold';}
	.st23{font-size:52.1013px;}
</style>
<symbol  id="sparkle" viewBox="-5.5 -5.5 11 11">
	<path id="XMLID_2_" class="st0" d="M4.8,0.7H0.7v4.1c0,0.4-0.3,0.7-0.7,0.7s-0.7-0.3-0.7-0.7V0.7h-4.1c-0.4,0-0.7-0.3-0.7-0.7
		s0.3-0.7,0.7-0.7h4.1v-4.1c0-0.4,0.3-0.7,0.7-0.7s0.7,0.3,0.7,0.7v4.1h4.1c0.4,0,0.7,0.3,0.7,0.7S5.1,0.7,4.8,0.7z"/>
</symbol>
<symbol  id="stars" viewBox="-4.3 -3.8 8.6 7.6">
	<path id="XMLID_1_" class="st0" d="M4.3,0c0-2.1-1.9-3.8-4.3-3.8S-4.3-2.1-4.3,0S-2.4,3.8,0,3.8S4.3,2.1,4.3,0z"/>
</symbol>
<g id="XMLID_125_">
	<path id="XMLID_152_" class="st1" d="M907.9-127.4c1.9-28.5-18.5-54-47.2-58c-29-4-55.8,15.4-61.4,43.7
		C834.6-131.7,871.6-130.1,907.9-127.4z"/>
</g>
<rect id="XMLID_38_" x="539" y="-242.7" class="st2" width="1920" height="1080"/>
<use xlink:href="#stars"  width="8.6" height="7.6" id="XMLID_99_" x="-4.3" y="-3.8" transform="matrix(1 0 0 -1 582.3153 420.6075)" style="overflow:visible;"/>
<use xlink:href="#stars"  width="8.6" height="7.6" id="XMLID_98_" x="-4.3" y="-3.8" transform="matrix(1 0 0 -1 740.8688 470.7826)" style="overflow:visible;enable-background:new    ;"/>
<use xlink:href="#stars"  width="8.6" height="7.6" id="XMLID_97_" x="-4.3" y="-3.8" transform="matrix(1 0 0 -1 740.8688 -20.8403)" style="overflow:visible;enable-background:new    ;"/>
<use xlink:href="#stars"  width="8.6" height="7.6" id="XMLID_96_" x="-4.3" y="-3.8" transform="matrix(1 0 0 -1 1851.8693 765.5972)" style="overflow:visible;enable-background:new    ;"/>
<use xlink:href="#stars"  width="8.6" height="7.6" id="XMLID_95_" x="-4.3" y="-3.8" transform="matrix(1 0 0 -1 1530.4644 456.0657)" style="overflow:visible;enable-background:new    ;"/>
<use xlink:href="#stars"  width="8.6" height="7.6" id="XMLID_94_" x="-4.3" y="-3.8" transform="matrix(1 0 0 -1 638.6667 613.8882)" style="overflow:visible;enable-background:new    ;"/>
<use xlink:href="#stars"  width="8.6" height="7.6" id="XMLID_92_" x="-4.3" y="-3.8" transform="matrix(1 0 0 -1 1294.9169 -64.0063)" style="overflow:visible;enable-background:new    ;"/>
<use xlink:href="#stars"  width="8.6" height="7.6" id="XMLID_91_" x="-4.3" y="-3.8" transform="matrix(1 0 0 -1 1586.8706 -166.1932)" style="overflow:visible;enable-background:new    ;"/>
<use xlink:href="#stars"  width="8.6" height="7.6" id="XMLID_90_" x="-4.3" y="-3.8" transform="matrix(1 0 0 -1 1965.0409 36.6277)" style="overflow:visible;enable-background:new    ;"/>
<use xlink:href="#stars"  width="8.6" height="7.6" id="XMLID_89_" x="-4.3" y="-3.8" transform="matrix(1 0 0 -1 1552.6418 713.306)" style="overflow:visible;enable-background:new    ;"/>
<use xlink:href="#stars"  width="8.6" height="7.6" id="XMLID_88_" x="-4.3" y="-3.8" transform="matrix(1 0 0 -1 1838.9335 634.7278)" style="overflow:visible;enable-background:new    ;"/>
<use xlink:href="#stars"  width="8.6" height="7.6" id="XMLID_87_" x="-4.3" y="-3.8" transform="matrix(1 0 0 -1 2095.4141 678.6235)" style="overflow:visible;enable-background:new    ;"/>
<use xlink:href="#stars"  width="8.6" height="7.6" id="XMLID_86_" x="-4.3" y="-3.8" transform="matrix(1 0 0 -1 2255.8835 449.5547)" style="overflow:visible;enable-background:new    ;"/>
<use xlink:href="#stars"  width="8.6" height="7.6" id="XMLID_85_" x="-4.3" y="-3.8" transform="matrix(1 0 0 -1 2278.2031 70.5974)" style="overflow:visible;enable-background:new    ;"/>
<use xlink:href="#stars"  width="8.6" height="7.6" id="XMLID_84_" x="-4.3" y="-3.8" transform="matrix(1 0 0 -1 2348.2791 193.2583)" style="overflow:visible;enable-background:new    ;"/>
<use xlink:href="#stars"  width="8.6" height="7.6" id="XMLID_83_" x="-4.3" y="-3.8" transform="matrix(1 0 0 -1 2350.0186 592.0569)" style="overflow:visible;enable-background:new    ;"/>
<use xlink:href="#stars"  width="8.6" height="7.6" id="XMLID_82_" x="-4.3" y="-3.8" transform="matrix(1 0 0 -1 2173.376 98.9585)" style="overflow:visible;enable-background:new    ;"/>
<use xlink:href="#stars"  width="8.6" height="7.6" id="XMLID_81_" x="-4.3" y="-3.8" transform="matrix(1 0 0 -1 2099.2559 -96.1484)" style="overflow:visible;enable-background:new    ;"/>
<use xlink:href="#stars"  width="8.6" height="7.6" id="XMLID_80_" x="-4.3" y="-3.8" transform="matrix(1 0 0 -1 2235.9529 -94.1065)" style="overflow:visible;enable-background:new    ;"/>
<use xlink:href="#stars"  width="8.6" height="7.6" id="XMLID_79_" x="-4.3" y="-3.8" transform="matrix(1 0 0 -1 1876.7892 -74.0279)" style="overflow:visible;enable-background:new    ;"/>
<use xlink:href="#stars"  width="8.6" height="7.6" id="XMLID_78_" x="-4.3" y="-3.8" transform="matrix(1 0 0 -1 1567.1199 256.958)" style="overflow:visible;enable-background:new    ;"/>
<use xlink:href="#stars"  width="8.6" height="7.6" id="XMLID_77_" x="-4.3" y="-3.8" transform="matrix(1 0 0 -1 2055.4507 477.5759)" style="overflow:visible;enable-background:new    ;"/>
<use xlink:href="#stars"  width="8.6" height="7.6" id="XMLID_76_" x="-4.3" y="-3.8" transform="matrix(1 0 0 -1 1610.1108 32.8128)" style="overflow:visible;enable-background:new    ;"/>
<use xlink:href="#stars"  width="8.6" height="7.6" id="XMLID_75_" x="-4.3" y="-3.8" transform="matrix(1 0 0 -1 1234.2305 -136.6589)" style="overflow:visible;enable-background:new    ;"/>
<use xlink:href="#stars"  width="8.6" height="7.6" id="XMLID_74_" x="-4.3" y="-3.8" transform="matrix(1 0 0 -1 818.326 45.78)" style="overflow:visible;enable-background:new    ;"/>
<use xlink:href="#stars"  width="8.6" height="7.6" id="XMLID_73_" x="-4.3" y="-3.8" transform="matrix(1 0 0 -1 1124.301 332.5709)" style="overflow:visible;enable-background:new    ;"/>
<use xlink:href="#stars"  width="8.6" height="7.6" id="XMLID_71_" x="-4.3" y="-3.8" transform="matrix(1 0 0 -1 1605.7312 335.2632)" style="overflow:visible;enable-background:new    ;"/>
<use xlink:href="#stars"  width="8.6" height="7.6" id="XMLID_70_" x="-4.3" y="-3.8" transform="matrix(1 0 0 -1 596.648 -43.8313)" style="overflow:visible;enable-background:new    ;"/>
<use xlink:href="#stars"  width="8.6" height="7.6" id="XMLID_69_" x="-4.3" y="-3.8" transform="matrix(1 0 0 -1 1286.9088 46.8277)" style="overflow:visible;enable-background:new    ;"/>
<use xlink:href="#stars"  width="8.6" height="7.6" id="XMLID_68_" x="-4.3" y="-3.8" transform="matrix(1 0 0 -1 1193.9871 535.5154)" style="overflow:visible;enable-background:new    ;"/>
<use xlink:href="#stars"  width="8.6" height="7.6" id="XMLID_66_" x="-4.3" y="-3.8" transform="matrix(1 0 0 -1 725.611 688.3012)" style="overflow:visible;enable-background:new    ;"/>
<use xlink:href="#stars"  width="8.6" height="7.6" id="XMLID_65_" x="-4.3" y="-3.8" transform="matrix(1 0 0 -1 638.6667 185.2654)" style="overflow:visible;enable-background:new    ;"/>
<use xlink:href="#stars"  width="8.6" height="7.6" id="XMLID_63_" x="-4.3" y="-3.8" transform="matrix(1 0 0 -1 898.0713 346.7892)" style="overflow:visible;enable-background:new    ;"/>
<use xlink:href="#stars"  width="8.6" height="7.6" id="XMLID_62_" x="-4.3" y="-3.8" transform="matrix(1 0 0 -1 1140.3939 84.4948)" style="overflow:visible;enable-background:new    ;"/>
<use xlink:href="#stars"  width="8.6" height="7.6" id="XMLID_58_" x="-4.3" y="-3.8" transform="matrix(1 0 0 -1 1334 413.4651)" style="overflow:visible;enable-background:new    ;"/>
<use xlink:href="#stars"  width="8.6" height="7.6" id="XMLID_55_" x="-4.3" y="-3.8" transform="matrix(1 0 0 -1 1720.8613 765.4323)" style="overflow:visible;enable-background:new    ;"/>
<use xlink:href="#sparkle"  width="11" height="11" id="XMLID_133_" x="-5.5" y="-5.5" transform="matrix(0.9818 0 0 -0.9818 701.7351 480.3268)" style="overflow:visible;"/>
<use xlink:href="#sparkle"  width="11" height="11" id="XMLID_132_" x="-5.5" y="-5.5" transform="matrix(0.9818 0 0 -0.9818 1019.9961 -155.7042)" style="overflow:visible;enable-background:new    ;"/>
<use xlink:href="#sparkle"  width="11" height="11" id="XMLID_131_" x="-5.5" y="-5.5" transform="matrix(0.9818 0 0 -0.9818 1522.002 -112.6896)" style="overflow:visible;enable-background:new    ;"/>
<use xlink:href="#sparkle"  width="11" height="11" id="XMLID_130_" x="-5.5" y="-5.5" transform="matrix(0.9818 0 0 -0.9818 1958.6598 -26.2566)" style="overflow:visible;enable-background:new    ;"/>
<use xlink:href="#sparkle"  width="11" height="11" id="XMLID_129_" x="-5.5" y="-5.5" transform="matrix(0.9818 0 0 -0.9818 2155.1233 59.9829)" style="overflow:visible;enable-background:new    ;"/>
<use xlink:href="#sparkle"  width="11" height="11" id="XMLID_128_" x="-5.5" y="-5.5" transform="matrix(0.9818 0 0 -0.9818 2335.7725 -32.0483)" style="overflow:visible;enable-background:new    ;"/>
<use xlink:href="#sparkle"  width="11" height="11" id="XMLID_127_" x="-5.5" y="-5.5" transform="matrix(0.9818 0 0 -0.9818 2333.531 -155.0556)" style="overflow:visible;enable-background:new    ;"/>
<use xlink:href="#sparkle"  width="11" height="11" id="XMLID_126_" x="-5.5" y="-5.5" transform="matrix(0.9818 0 0 -0.9818 2006.9312 -147.255)" style="overflow:visible;enable-background:new    ;"/>
<use xlink:href="#sparkle"  width="11" height="11" id="XMLID_124_" x="-5.5" y="-5.5" transform="matrix(0.9818 0 0 -0.9818 686.3537 -124.9893)" style="overflow:visible;enable-background:new    ;"/>
<use xlink:href="#sparkle"  width="11" height="11" id="XMLID_123_" x="-5.5" y="-5.5" transform="matrix(0.9818 0 0 -0.9818 627.4479 80.5385)" style="overflow:visible;enable-background:new    ;"/>
<use xlink:href="#sparkle"  width="11" height="11" id="XMLID_122_" x="-5.5" y="-5.5" transform="matrix(0.9818 0 0 -0.9818 603.6752 -175.3166)" style="overflow:visible;enable-background:new    ;"/>
<use xlink:href="#sparkle"  width="11" height="11" id="XMLID_121_" x="-5.5" y="-5.5" transform="matrix(0.9818 0 0 -0.9818 2085.4751 237.9381)" style="overflow:visible;enable-background:new    ;"/>
<use xlink:href="#sparkle"  width="11" height="11" id="XMLID_120_" x="-5.5" y="-5.5" transform="matrix(0.9818 0 0 -0.9818 1692.9999 190.6821)" style="overflow:visible;enable-background:new    ;"/>
<use xlink:href="#sparkle"  width="11" height="11" id="XMLID_119_" x="-5.5" y="-5.5" transform="matrix(0.9818 0 0 -0.9818 1072.1649 14.2004)" style="overflow:visible;enable-background:new    ;"/>
<use xlink:href="#sparkle"  width="11" height="11" id="XMLID_118_" x="-5.5" y="-5.5" transform="matrix(0.9818 0 0 -0.9818 1120.7635 -82.991)" style="overflow:visible;enable-background:new    ;"/>
<use xlink:href="#sparkle"  width="11" height="11" id="XMLID_117_" x="-5.5" y="-5.5" transform="matrix(0.9818 0 0 -0.9818 762.4233 415.3706)" style="overflow:visible;enable-background:new    ;"/>
<use xlink:href="#sparkle"  width="11" height="11" id="XMLID_116_" x="-5.5" y="-5.5" transform="matrix(0.9818 0 0 -0.9818 1534.4368 128.6237)" style="overflow:visible;enable-background:new    ;"/>
<use xlink:href="#sparkle"  width="11" height="11" id="XMLID_115_" x="-5.5" y="-5.5" transform="matrix(0.9818 0 0 -0.9818 2205.3428 198.7958)" style="overflow:visible;enable-background:new    ;"/>
<use xlink:href="#sparkle"  width="11" height="11" id="XMLID_114_" x="-5.5" y="-5.5" transform="matrix(0.9818 0 0 -0.9818 1680.3339 -133.2104)" style="overflow:visible;enable-background:new    ;"/>
<use xlink:href="#sparkle"  width="11" height="11" id="XMLID_113_" x="-5.5" y="-5.5" transform="matrix(0.9818 0 0 -0.9818 1714.4984 -43.7743)" style="overflow:visible;enable-background:new    ;"/>
<use xlink:href="#sparkle"  width="11" height="11" id="XMLID_112_" x="-5.5" y="-5.5" transform="matrix(0.9818 0 0 -0.9818 696.3184 302.6121)" style="overflow:visible;enable-background:new    ;"/>
<use xlink:href="#sparkle"  width="11" height="11" id="XMLID_111_" x="-5.5" y="-5.5" transform="matrix(0.9818 0 0 -0.9818 1546.8195 489.4956)" style="overflow:visible;enable-background:new    ;"/>
<use xlink:href="#sparkle"  width="11" height="11" id="XMLID_110_" x="-5.5" y="-5.5" transform="matrix(0.9818 0 0 -0.9818 672.9317 727.9836)" style="overflow:visible;enable-background:new    ;"/>
<use xlink:href="#sparkle"  width="11" height="11" id="XMLID_108_" x="-5.5" y="-5.5" transform="matrix(0.9818 0 0 -0.9818 2287.1191 709.4911)" style="overflow:visible;enable-background:new    ;"/>
<use xlink:href="#sparkle"  width="11" height="11" id="XMLID_107_" x="-5.5" y="-5.5" transform="matrix(0.9818 0 0 -0.9818 2078.606 323.3058)" style="overflow:visible;enable-background:new    ;"/>
<use xlink:href="#sparkle"  width="11" height="11" id="XMLID_106_" x="-5.5" y="-5.5" transform="matrix(0.9818 0 0 -0.9818 2383.7766 294.8974)" style="overflow:visible;enable-background:new    ;"/>
<use xlink:href="#sparkle"  width="11" height="11" id="XMLID_105_" x="-5.5" y="-5.5" transform="matrix(0.9818 0 0 -0.9818 1354.551 68.2403)" style="overflow:visible;enable-background:new    ;"/>
<use xlink:href="#sparkle"  width="11" height="11" id="XMLID_104_" x="-5.5" y="-5.5" transform="matrix(0.9818 0 0 -0.9818 1255.6068 321.7261)" style="overflow:visible;enable-background:new    ;"/>
<use xlink:href="#sparkle"  width="11" height="11" id="XMLID_103_" x="-5.5" y="-5.5" transform="matrix(0.9818 0 0 -0.9818 1298.5131 463.5154)" style="overflow:visible;enable-background:new    ;"/>
<use xlink:href="#sparkle"  width="11" height="11" id="XMLID_102_" x="-5.5" y="-5.5" transform="matrix(0.9818 0 0 -0.9818 1146.9227 615.2609)" style="overflow:visible;enable-background:new    ;"/>
<use xlink:href="#sparkle"  width="11" height="11" id="XMLID_100_" x="-5.5" y="-5.5" transform="matrix(0.9818 0 0 -0.9818 1384.6564 205.7132)" style="overflow:visible;enable-background:new    ;"/>
<linearGradient id="XMLID_4_" gradientUnits="userSpaceOnUse" x1="2238.0322" y1="205.2614" x2="2229.5239" y2="135.9669" gradientTransform="matrix(0.9986 5.374856e-002 5.374856e-002 -0.9986 -3.8424 458.4605)">
	<stop  offset="0" style="stop-color:#FFF6C8;stop-opacity:0.3"/>
	<stop  offset="1" style="stop-color:#FFF6C8;stop-opacity:0"/>
</linearGradient>
<path id="XMLID_53_" class="st3" d="M2423.2,457.2c1.2-22.6-19.2-42-45.7-43.5c-15.7-0.8-29.9,4.8-39.2,14.3
	c-13.7-5-31.1-8.5-50.3-9.5c-0.1,0-0.2,0-0.3,0c-2.9-27.7-55.3-52.4-120.9-55.9c-68.4-3.7-125.1,17-126.7,46.2"/>
<linearGradient id="XMLID_5_" gradientUnits="userSpaceOnUse" x1="1459.2483" y1="-0.7845" x2="1443.9752" y2="-86.692" gradientTransform="matrix(1 0 0 -1 0 593.84)">
	<stop  offset="0" style="stop-color:#FFF6C8;stop-opacity:0.3"/>
	<stop  offset="1" style="stop-color:#FFF6C8;stop-opacity:0"/>
</linearGradient>
<path id="XMLID_101_" class="st4" d="M1569.5,641.9c0-18.2-14.8-33-33-33c-16.3,0-29.8,11.8-32.5,27.3c-4.8-4.5-11.3-7.3-18.5-7.3
	c-4.1,0-7.9,0.9-11.4,2.5c-2.2-22.7-21.3-40.5-44.6-40.5s-42.4,17.8-44.6,40.5c-5.7-4-12.7-6.4-20.2-6.4
	c-19.4,0-35.2,15.7-35.2,35.2"/>
<linearGradient id="XMLID_6_" gradientUnits="userSpaceOnUse" x1="1240" y1="360.86" x2="1240" y2="360.86" gradientTransform="matrix(1 0 0 -1 0 593.84)">
	<stop  offset="0" style="stop-color:#FFF6C8;stop-opacity:0.3"/>
	<stop  offset="1" style="stop-color:#FFF6C8;stop-opacity:0"/>
</linearGradient>
<path id="XMLID_56_" class="st5" d="M1240,233"/>
<linearGradient id="XMLID_7_" gradientUnits="userSpaceOnUse" x1="1189.7" y1="356.76" x2="1189.7" y2="356.76" gradientTransform="matrix(1 0 0 -1 0 593.84)">
	<stop  offset="0" style="stop-color:#FFF6C8;stop-opacity:0.3"/>
	<stop  offset="1" style="stop-color:#FFF6C8;stop-opacity:0"/>
</linearGradient>
<path id="XMLID_54_" class="st6" d="M1189.7,237.1"/>
<linearGradient id="XMLID_8_" gradientUnits="userSpaceOnUse" x1="2082.3442" y1="-126.0619" x2="2070.5811" y2="-192.2262" gradientTransform="matrix(1 0 0 -1 0 593.84)">
	<stop  offset="0" style="stop-color:#FFF6C8;stop-opacity:0.3"/>
	<stop  offset="1" style="stop-color:#FFF6C8;stop-opacity:0"/>
</linearGradient>
<path id="XMLID_135_" class="st7" d="M2161.7,776.1c0-9.9-10.8-17.8-24.2-17.8c-1.6,0-3.2,0.1-4.8,0.3c0-0.1,0-0.2,0-0.3
	c0-19.7-17.5-35.7-39.1-35.7c-16.8,0-31.1,9.7-36.6,23.3c-7.4-9.5-19-15.6-31.9-15.6c-22.4,0-40.5,18.1-40.5,40.5"/>
<linearGradient id="XMLID_13_" gradientUnits="userSpaceOnUse" x1="705.5442" y1="261.1381" x2="693.7812" y2="194.9739" gradientTransform="matrix(1 0 0 -1 0 593.84)">
	<stop  offset="0" style="stop-color:#FFF6C8;stop-opacity:0.3"/>
	<stop  offset="1" style="stop-color:#FFF6C8;stop-opacity:0"/>
</linearGradient>
<path id="XMLID_12_" class="st8" d="M784.9,388.9c0-9.9-10.8-17.8-24.2-17.8c-1.6,0-3.2,0.1-4.8,0.3c0-0.1,0-0.2,0-0.3
	c0-19.7-17.5-35.7-39.1-35.7c-16.8,0-31.1,9.7-36.6,23.3c-7.4-9.5-19-15.6-31.9-15.6c-22.4,0-40.5,18.1-40.5,40.5"/>
<linearGradient id="XMLID_14_" gradientUnits="userSpaceOnUse" x1="780.2" y1="-182.94" x2="780.2" y2="-182.94" gradientTransform="matrix(1 0 0 -1 0 593.84)">
	<stop  offset="0" style="stop-color:#FFF6C8;stop-opacity:0.3"/>
	<stop  offset="1" style="stop-color:#FFF6C8;stop-opacity:0"/>
</linearGradient>
<path id="XMLID_134_" class="st9" d="M780.2,776.8"/>
<linearGradient id="XMLID_33_" gradientUnits="userSpaceOnUse" x1="2170.6125" y1="653.2355" x2="2159.0449" y2="588.1706" gradientTransform="matrix(1 0 0 -1 0 593.84)">
	<stop  offset="0" style="stop-color:#FFF6C8;stop-opacity:0.3"/>
	<stop  offset="1" style="stop-color:#FFF6C8;stop-opacity:0"/>
</linearGradient>
<path id="XMLID_136_" class="st10" d="M2312.3-0.4c0-12.8-13.3-23.2-29.8-23.2c-3.1,0-6.1,0.4-8.9,1c-2.4-14.1-20.8-25.1-43.2-25.1
	c-15.3,0-28.7,5.1-36.5,12.9c-9-1.7-18.8-2.7-29.1-2.7c-20.7,0-39.4,3.8-53.4,10.1c-3.4-24.2-24.2-42.8-49.3-42.8
	c-27.5,0-49.8,22.3-49.8,49.8"/>
<linearGradient id="XMLID_34_" gradientUnits="userSpaceOnUse" x1="806.5593" y1="708.4193" x2="787.3351" y2="600.2881" gradientTransform="matrix(0.9905 0.1377 0.1377 -0.9905 -26.3807 407.4777)">
	<stop  offset="0" style="stop-color:#FFFFFF;stop-opacity:0.9"/>
	<stop  offset="8.430076e-002" style="stop-color:#FFFEF7;stop-opacity:0.8241"/>
	<stop  offset="0.6911" style="stop-color:#FFF8D5;stop-opacity:0.278"/>
	<stop  offset="1" style="stop-color:#FFF6C8;stop-opacity:0"/>
</linearGradient>
<circle id="XMLID_137_" class="st11" cx="853.1" cy="-130.9" r="54.9"/>
<linearGradient id="XMLID_35_" gradientUnits="userSpaceOnUse" x1="806.5593" y1="708.4193" x2="787.3351" y2="600.2881" gradientTransform="matrix(0.9905 0.1377 0.1377 -0.9905 -26.3807 407.4777)">
	<stop  offset="0" style="stop-color:#FFFFFF;stop-opacity:0.9"/>
	<stop  offset="8.430076e-002" style="stop-color:#FFFEF7;stop-opacity:0.8241"/>
	<stop  offset="0.6911" style="stop-color:#FFF8D5;stop-opacity:0.278"/>
	<stop  offset="1" style="stop-color:#FFF6C8;stop-opacity:0"/>
</linearGradient>
<circle id="XMLID_139_" class="st12" cx="853.1" cy="-130.9" r="54.9"/>
<linearGradient id="XMLID_36_" gradientUnits="userSpaceOnUse" x1="1103.9293" y1="398.725" x2="1084.705" y2="290.5938" gradientTransform="matrix(0.9905 0.1377 0.1377 -0.9905 -26.3807 407.4777)">
	<stop  offset="0" style="stop-color:#FFFFFF;stop-opacity:0.9"/>
	<stop  offset="8.430076e-002" style="stop-color:#FFFEF7;stop-opacity:0.8241"/>
	<stop  offset="0.6911" style="stop-color:#FFF8D5;stop-opacity:0.278"/>
	<stop  offset="1" style="stop-color:#FFF6C8;stop-opacity:0"/>
</linearGradient>
<circle id="XMLID_10_" class="st13" cx="1105" cy="216.8" r="54.9"/>
<linearGradient id="XMLID_39_" gradientUnits="userSpaceOnUse" x1="1896.01" y1="555.1809" x2="1876.7859" y2="447.0497" gradientTransform="matrix(0.9905 0.1377 0.1377 -0.9905 -26.3807 407.4777)">
	<stop  offset="0" style="stop-color:#FFFFFF;stop-opacity:0.9"/>
	<stop  offset="8.430076e-002" style="stop-color:#FFFEF7;stop-opacity:0.8241"/>
	<stop  offset="0.6911" style="stop-color:#FFF8D5;stop-opacity:0.278"/>
	<stop  offset="1" style="stop-color:#FFF6C8;stop-opacity:0"/>
</linearGradient>
<circle id="XMLID_9_" class="st14" cx="1911.1" cy="170.9" r="54.9"/>
<g id="XMLID_138_" class="st15">
	<path id="XMLID_140_" class="st16" d="M852.1-144.9c0.3,0,0.7,0.1,1,0.1C852.7-144.8,852.4-144.9,852.1-144.9z"/>
	<path id="XMLID_141_" class="st16" d="M857-144.2c0.3,0,0.7,0.1,1,0.1C857.6-144.1,857.3-144.2,857-144.2z"/>
	<path id="XMLID_142_" class="st16" d="M858.7-144c35.5,5.2,63.1,12.9,62.5,17.6c-0.7,4.8-31.4,4.5-68.6-0.6
		c-37.2-5.1-66.8-13.3-66.2-18.1c0.6-4.7,29.4-4.6,64.9,0.1c-46-6.1-83.5-5.2-84.5,2.2c-1,7.5,36.8,19,84.5,25.7
		c47.7,6.7,87.2,5.9,88.3-1.7C940.5-126.2,904.7-137.3,858.7-144z"/>
	<path id="XMLID_143_" class="st16" d="M858-144.1c0.3,0,0.5,0.1,0.8,0.1C858.5-144,858.2-144.1,858-144.1z"/>
	<path id="XMLID_144_" class="st16" d="M851.3-145c0.3,0,0.5,0.1,0.8,0.1C851.8-144.9,851.6-145,851.3-145z"/>
	<path id="XMLID_145_" class="st16" d="M855-144.5c0.7,0.1,1.3,0.2,2,0.3C856.3-144.3,855.7-144.4,855-144.5z"/>
	<path id="XMLID_146_" class="st16" d="M853.1-144.8c0.7,0.1,1.3,0.2,2,0.3C854.4-144.6,853.7-144.7,853.1-144.8z"/>
</g>
<g id="Satelite" class="st17">
	<g id="XMLID_148_">
		<path id="XMLID_163_" class="st18" d="M1416.3-129.2c-3.9-9.1,0.2-19.7,9.3-23.6c9.1-3.9,19.7,0.2,23.6,9.3L1416.3-129.2z"/>
	</g>
	<g id="XMLID_147_">
		<path id="XMLID_162_" class="st19" d="M1449.2-143.5c-15.9,8.5-32.9,14.3-32.9,14.3L1449.2-143.5z"/>
	</g>
	<g id="XMLID_149_">
		<path id="XMLID_159_" class="st18" d="M1436.5-126.5l-7.8-17.9c-0.1-0.2,0-0.5,0.3-0.6c0.2-0.1,0.5,0,0.6,0.3l7.8,17.9
			c0.1,0.2,0,0.5-0.3,0.6C1436.9-126.2,1436.6-126.3,1436.5-126.5z"/>
	</g>
	<g id="XMLID_151_">
		<path id="XMLID_158_" class="st18" d="M1427.9-144.1l-7.8-17.9c-0.3-0.7,0-1.5,0.7-1.8s1.5,0,1.8,0.7l7.8,17.9
			c0.3,0.7,0,1.5-0.7,1.8C1429-143,1428.2-143.4,1427.9-144.1z"/>
	</g>
	<g id="XMLID_150_">
		
			<rect id="XMLID_161_" x="1395.3" y="-187.4" transform="matrix(0.3982 0.9173 -0.9173 0.3982 689.1552 -1404.6599)" class="st18" width="39.6" height="20.5"/>
	</g>
	<g id="XMLID_154_">
		
			<rect id="XMLID_157_" x="1414" y="-210.7" transform="matrix(-0.3982 -0.9173 0.9173 -0.3982 2140.9221 1050.41)" class="st18" width="2.1" height="67.3"/>
	</g>
	<g id="XMLID_153_">
		
			<rect id="XMLID_160_" x="1446.5" y="-217.2" transform="matrix(-0.3982 -0.9173 0.9173 -0.3982 2209.209 1062.2448)" class="st18" width="13.2" height="47.3"/>
	</g>
	<g id="XMLID_156_">
		
			<rect id="XMLID_155_" x="1370.2" y="-184.1" transform="matrix(-0.3982 -0.9173 0.9173 -0.3982 2072.3176 1038.5759)" class="st18" width="13.2" height="47.3"/>
	</g>
</g>
<use xlink:href="#stars"  width="8.6" height="7.6" id="XMLID_72_" x="-4.3" y="-3.8" transform="matrix(1 0 0 -1 911.3256 236.4992)" style="overflow:visible;enable-background:new    ;"/>
<use xlink:href="#stars"  width="8.6" height="7.6" id="XMLID_32_" x="-4.3" y="-3.8" transform="matrix(1 0 0 -1 931.4074 529.7777)" style="overflow:visible;enable-background:new    ;"/>
<use xlink:href="#stars"  width="8.6" height="7.6" id="XMLID_31_" x="-4.3" y="-3.8" transform="matrix(1 0 0 -1 1014.4432 644.4364)" style="overflow:visible;enable-background:new    ;"/>
<use xlink:href="#stars"  width="8.6" height="7.6" id="XMLID_30_" x="-4.3" y="-3.8" transform="matrix(1 0 0 -1 780.6868 592.0569)" style="overflow:visible;enable-background:new    ;"/>
<use xlink:href="#stars"  width="8.6" height="7.6" id="XMLID_29_" x="-4.3" y="-3.8" transform="matrix(1 0 0 -1 1428.4861 718.6458)" style="overflow:visible;enable-background:new    ;"/>
<use xlink:href="#stars"  width="8.6" height="7.6" id="XMLID_28_" x="-4.3" y="-3.8" transform="matrix(1 0 0 -1 772.2339 210.8188)" style="overflow:visible;enable-background:new    ;"/>
<use xlink:href="#stars"  width="8.6" height="7.6" id="XMLID_27_" x="-4.3" y="-3.8" transform="matrix(1 0 0 -1 953.8381 115.9154)" style="overflow:visible;enable-background:new    ;"/>
<use xlink:href="#stars"  width="8.6" height="7.6" id="XMLID_26_" x="-4.3" y="-3.8" transform="matrix(1 0 0 -1 1600.1499 268.5994)" style="overflow:visible;enable-background:new    ;"/>
<use xlink:href="#stars"  width="8.6" height="7.6" id="XMLID_25_" x="-4.3" y="-3.8" transform="matrix(1 0 0 -1 1791.0615 403.6148)" style="overflow:visible;enable-background:new    ;"/>
<use xlink:href="#stars"  width="8.6" height="7.6" id="XMLID_24_" x="-4.3" y="-3.8" transform="matrix(1 0 0 -1 1833.2838 518.2657)" style="overflow:visible;enable-background:new    ;"/>
<use xlink:href="#stars"  width="8.6" height="7.6" id="XMLID_23_" x="-4.3" y="-3.8" transform="matrix(1 0 0 -1 1834.9568 108.2843)" style="overflow:visible;enable-background:new    ;"/>
<use xlink:href="#stars"  width="8.6" height="7.6" id="XMLID_22_" x="-4.3" y="-3.8" transform="matrix(1 0 0 -1 1927.6526 323.1093)" style="overflow:visible;enable-background:new    ;"/>
<use xlink:href="#sparkle"  width="11" height="11" id="XMLID_21_" x="-5.5" y="-5.5" transform="matrix(0.9818 0 0 -0.9818 892.6543 445.7401)" style="overflow:visible;enable-background:new    ;"/>
<use xlink:href="#sparkle"  width="11" height="11" id="XMLID_20_" x="-5.5" y="-5.5" transform="matrix(0.9818 0 0 -0.9818 1322.2185 324.8214)" style="overflow:visible;enable-background:new    ;"/>
<use xlink:href="#sparkle"  width="11" height="11" id="XMLID_19_" x="-5.5" y="-5.5" transform="matrix(0.9818 0 0 -0.9818 1594.5605 503.8498)" style="overflow:visible;enable-background:new    ;"/>
<use xlink:href="#sparkle"  width="11" height="11" id="XMLID_18_" x="-5.5" y="-5.5" transform="matrix(0.9818 0 0 -0.9818 1378.1937 587.8582)" style="overflow:visible;enable-background:new    ;"/>
<use xlink:href="#sparkle"  width="11" height="11" id="XMLID_17_" x="-5.5" y="-5.5" transform="matrix(0.9818 0 0 -0.9818 911.3253 660.627)" style="overflow:visible;enable-background:new    ;"/>
<use xlink:href="#sparkle"  width="11" height="11" id="XMLID_16_" x="-5.5" y="-5.5" transform="matrix(0.9818 0 0 -0.9818 992.417 411.6797)" style="overflow:visible;enable-background:new    ;"/>
<use xlink:href="#sparkle"  width="11" height="11" id="XMLID_15_" x="-5.5" y="-5.5" transform="matrix(0.9818 0 0 -0.9818 1742.7712 290.7008)" style="overflow:visible;enable-background:new    ;"/>
<linearGradient id="XMLID_40_" gradientUnits="userSpaceOnUse" x1="1028.842" y1="-142.3081" x2="1015.8242" y2="-215.5296" gradientTransform="matrix(1 0 0 -1 0 593.84)">
	<stop  offset="0" style="stop-color:#FFF6C8;stop-opacity:0.3"/>
	<stop  offset="1" style="stop-color:#FFF6C8;stop-opacity:0"/>
</linearGradient>
<path id="XMLID_11_" class="st20" d="M1138.3,785.8c0-19.9-16.1-36-36-36c-18.2,0-33.2,13.5-35.6,31c-10.2-9.9-24.1-15.9-39.5-15.9
	c-15.5,0-29.5,6.2-39.8,16.3c-4.1-17.6-21.5-30.8-42.4-30.8c-23.9,0-43.3,17.3-43.3,38.7"/>
<path class="st21" d="M1439.2,206.7c-3.4,0-6.7,0.1-10.1,0.4H532.5v256.3h896.7c3.3,0.3,6.7,0.4,10.1,0.4
	c71,0,128.5-57.5,128.5-128.5S1510.2,206.7,1439.2,206.7z"/>
<text transform="matrix(1 0 0 1 578.0144 290.7009)"><tspan x="0" y="0" class="st22 st23">Development and implementation  </tspan><tspan x="0" y="62.5" class="st22 st23">of an integrated web system using</tspan><tspan x="0" y="125" class="st22 st23">modern internet technologies</tspan></text>
</svg>
