<?xml version="1.0" encoding="utf-8"?>
<!-- Generator: Adobe Illustrator 19.0.0, SVG Export Plug-In . SVG Version: 6.00 Build 0)  -->
<svg version="1.1" id="Content" xmlns="http://www.w3.org/2000/svg" xmlns:xlink="http://www.w3.org/1999/xlink" x="0px" y="0px"
	 viewBox="539 -242.7 1920 1080" style="enable-background:new 539 -242.7 1920 1080;" xml:space="preserve">
<style type="text/css">
	.st0{fill:#FFF6C7;}
	.st1{fill:#020202;}
	.st2{fill:#091318;}
	.st3{fill:url(#XMLID_188_);}
	.st4{fill:url(#XMLID_189_);}
	.st5{fill:url(#XMLID_190_);}
	.st6{fill:url(#XMLID_191_);}
	.st7{fill:url(#XMLID_192_);}
	.st8{fill:url(#XMLID_193_);}
	.st9{fill:url(#XMLID_194_);}
	.st10{fill:url(#XMLID_195_);}
	.st11{opacity:0.41;fill:url(#XMLID_196_);enable-background:new    ;}
	.st12{opacity:0.41;fill:url(#XMLID_197_);enable-background:new    ;}
	.st13{opacity:0.41;fill:url(#XMLID_198_);enable-background:new    ;}
	.st14{opacity:0.41;fill:url(#XMLID_199_);enable-background:new    ;}
	.st15{opacity:0.41;}
	.st16{fill:#FFF6C8;}
	.st17{opacity:0.21;}
	.st18{fill:#47665A;}
	.st19{fill:#FDFDFE;}
	.st20{fill:url(#XMLID_200_);}
	.st21{opacity:0.82;fill:#FFFFFF;}
	.st22{font-family:'Poppins-Bold';}
	.st23{font-size:161.9177px;}
	.st24{fill:url(#Circle_1_);}
	.st25{fill:#D6D6D6;}
	.st26{fill:#43B49F;}
	.st27{fill:#878787;}
	.st28{fill:#3A3A3A;}
	.st29{fill:#3A3850;}
	.st30{fill:#827DA3;}
	.st31{fill:#3C53A4;}
	.st32{fill:#D71F26;}
</style>
<symbol  id="sparkle" viewBox="-5.5 -5.5 11 11">
	<path id="XMLID_2_" class="st0" d="M4.8,0.7H0.7v4.1c0,0.4-0.3,0.7-0.7,0.7s-0.7-0.3-0.7-0.7V0.7h-4.1c-0.4,0-0.7-0.3-0.7-0.7
		s0.3-0.7,0.7-0.7h4.1v-4.1c0-0.4,0.3-0.7,0.7-0.7s0.7,0.3,0.7,0.7v4.1h4.1c0.4,0,0.7,0.3,0.7,0.7S5.1,0.7,4.8,0.7z"/>
</symbol>
<symbol  id="stars" viewBox="-4.3 -3.8 8.6 7.6">
	<path id="XMLID_1_" class="st0" d="M4.3,0c0-2.1-1.9-3.8-4.3-3.8S-4.3-2.1-4.3,0S-2.4,3.8,0,3.8S4.3,2.1,4.3,0z"/>
</symbol>
<g id="XMLID_125_">
	<path id="XMLID_152_" class="st1" d="M907.9-127.4c1.9-28.5-18.5-54-47.2-58c-29-4-55.8,15.4-61.4,43.7
		C834.6-131.7,871.6-130.1,907.9-127.4z"/>
</g>
<rect id="XMLID_38_" x="539" y="-242.7" class="st2" width="1920" height="1080"/>
<use xlink:href="#stars"  width="8.6" height="7.6" id="XMLID_99_" x="-4.3" y="-3.8" transform="matrix(1 0 0 -1 582.3153 420.6075)" style="overflow:visible;"/>
<use xlink:href="#stars"  width="8.6" height="7.6" id="XMLID_98_" x="-4.3" y="-3.8" transform="matrix(1 0 0 -1 740.8688 470.7826)" style="overflow:visible;enable-background:new    ;"/>
<use xlink:href="#stars"  width="8.6" height="7.6" id="XMLID_97_" x="-4.3" y="-3.8" transform="matrix(1 0 0 -1 740.8688 -20.8403)" style="overflow:visible;enable-background:new    ;"/>
<use xlink:href="#stars"  width="8.6" height="7.6" id="XMLID_96_" x="-4.3" y="-3.8" transform="matrix(1 0 0 -1 1851.8693 765.5972)" style="overflow:visible;enable-background:new    ;"/>
<use xlink:href="#stars"  width="8.6" height="7.6" id="XMLID_95_" x="-4.3" y="-3.8" transform="matrix(1 0 0 -1 1530.4644 456.0657)" style="overflow:visible;enable-background:new    ;"/>
<use xlink:href="#stars"  width="8.6" height="7.6" id="XMLID_94_" x="-4.3" y="-3.8" transform="matrix(1 0 0 -1 638.6667 613.8882)" style="overflow:visible;enable-background:new    ;"/>
<use xlink:href="#stars"  width="8.6" height="7.6" id="XMLID_92_" x="-4.3" y="-3.8" transform="matrix(1 0 0 -1 1294.9169 -64.0063)" style="overflow:visible;enable-background:new    ;"/>
<use xlink:href="#stars"  width="8.6" height="7.6" id="XMLID_91_" x="-4.3" y="-3.8" transform="matrix(1 0 0 -1 1586.8706 -166.1932)" style="overflow:visible;enable-background:new    ;"/>
<use xlink:href="#stars"  width="8.6" height="7.6" id="XMLID_90_" x="-4.3" y="-3.8" transform="matrix(1 0 0 -1 1965.0409 36.6277)" style="overflow:visible;enable-background:new    ;"/>
<use xlink:href="#stars"  width="8.6" height="7.6" id="XMLID_89_" x="-4.3" y="-3.8" transform="matrix(1 0 0 -1 1552.6418 713.306)" style="overflow:visible;enable-background:new    ;"/>
<use xlink:href="#stars"  width="8.6" height="7.6" id="XMLID_88_" x="-4.3" y="-3.8" transform="matrix(1 0 0 -1 1838.9335 634.7278)" style="overflow:visible;enable-background:new    ;"/>
<use xlink:href="#stars"  width="8.6" height="7.6" id="XMLID_87_" x="-4.3" y="-3.8" transform="matrix(1 0 0 -1 2095.4141 678.6235)" style="overflow:visible;enable-background:new    ;"/>
<use xlink:href="#stars"  width="8.6" height="7.6" id="XMLID_86_" x="-4.3" y="-3.8" transform="matrix(1 0 0 -1 2255.8835 449.5547)" style="overflow:visible;enable-background:new    ;"/>
<use xlink:href="#stars"  width="8.6" height="7.6" id="XMLID_85_" x="-4.3" y="-3.8" transform="matrix(1 0 0 -1 2278.2031 70.5974)" style="overflow:visible;enable-background:new    ;"/>
<use xlink:href="#stars"  width="8.6" height="7.6" id="XMLID_84_" x="-4.3" y="-3.8" transform="matrix(1 0 0 -1 2348.2791 193.2583)" style="overflow:visible;enable-background:new    ;"/>
<use xlink:href="#stars"  width="8.6" height="7.6" id="XMLID_83_" x="-4.3" y="-3.8" transform="matrix(1 0 0 -1 2350.0186 592.0569)" style="overflow:visible;enable-background:new    ;"/>
<use xlink:href="#stars"  width="8.6" height="7.6" id="XMLID_82_" x="-4.3" y="-3.8" transform="matrix(1 0 0 -1 2173.376 98.9585)" style="overflow:visible;enable-background:new    ;"/>
<use xlink:href="#stars"  width="8.6" height="7.6" id="XMLID_81_" x="-4.3" y="-3.8" transform="matrix(1 0 0 -1 2099.2559 -96.1484)" style="overflow:visible;enable-background:new    ;"/>
<use xlink:href="#stars"  width="8.6" height="7.6" id="XMLID_80_" x="-4.3" y="-3.8" transform="matrix(1 0 0 -1 2235.9529 -94.1065)" style="overflow:visible;enable-background:new    ;"/>
<use xlink:href="#stars"  width="8.6" height="7.6" id="XMLID_79_" x="-4.3" y="-3.8" transform="matrix(1 0 0 -1 1876.7892 -74.0279)" style="overflow:visible;enable-background:new    ;"/>
<use xlink:href="#stars"  width="8.6" height="7.6" id="XMLID_78_" x="-4.3" y="-3.8" transform="matrix(1 0 0 -1 1567.1199 256.958)" style="overflow:visible;enable-background:new    ;"/>
<use xlink:href="#stars"  width="8.6" height="7.6" id="XMLID_77_" x="-4.3" y="-3.8" transform="matrix(1 0 0 -1 2055.4507 477.5759)" style="overflow:visible;enable-background:new    ;"/>
<use xlink:href="#stars"  width="8.6" height="7.6" id="XMLID_76_" x="-4.3" y="-3.8" transform="matrix(1 0 0 -1 1610.1108 32.8128)" style="overflow:visible;enable-background:new    ;"/>
<use xlink:href="#stars"  width="8.6" height="7.6" id="XMLID_75_" x="-4.3" y="-3.8" transform="matrix(1 0 0 -1 1234.2305 -136.6589)" style="overflow:visible;enable-background:new    ;"/>
<use xlink:href="#stars"  width="8.6" height="7.6" id="XMLID_74_" x="-4.3" y="-3.8" transform="matrix(1 0 0 -1 818.326 45.78)" style="overflow:visible;enable-background:new    ;"/>
<use xlink:href="#stars"  width="8.6" height="7.6" id="XMLID_73_" x="-4.3" y="-3.8" transform="matrix(1 0 0 -1 1124.301 332.5709)" style="overflow:visible;enable-background:new    ;"/>
<use xlink:href="#stars"  width="8.6" height="7.6" id="XMLID_71_" x="-4.3" y="-3.8" transform="matrix(1 0 0 -1 1605.7312 335.2632)" style="overflow:visible;enable-background:new    ;"/>
<use xlink:href="#stars"  width="8.6" height="7.6" id="XMLID_70_" x="-4.3" y="-3.8" transform="matrix(1 0 0 -1 596.648 -43.8313)" style="overflow:visible;enable-background:new    ;"/>
<use xlink:href="#stars"  width="8.6" height="7.6" id="XMLID_69_" x="-4.3" y="-3.8" transform="matrix(1 0 0 -1 1286.9088 46.8277)" style="overflow:visible;enable-background:new    ;"/>
<use xlink:href="#stars"  width="8.6" height="7.6" id="XMLID_68_" x="-4.3" y="-3.8" transform="matrix(1 0 0 -1 1193.9871 535.5154)" style="overflow:visible;enable-background:new    ;"/>
<use xlink:href="#stars"  width="8.6" height="7.6" id="XMLID_66_" x="-4.3" y="-3.8" transform="matrix(1 0 0 -1 725.611 688.3012)" style="overflow:visible;enable-background:new    ;"/>
<use xlink:href="#stars"  width="8.6" height="7.6" id="XMLID_65_" x="-4.3" y="-3.8" transform="matrix(1 0 0 -1 638.6667 185.2654)" style="overflow:visible;enable-background:new    ;"/>
<use xlink:href="#stars"  width="8.6" height="7.6" id="XMLID_63_" x="-4.3" y="-3.8" transform="matrix(1 0 0 -1 898.0713 346.7892)" style="overflow:visible;enable-background:new    ;"/>
<use xlink:href="#stars"  width="8.6" height="7.6" id="XMLID_62_" x="-4.3" y="-3.8" transform="matrix(1 0 0 -1 1140.3939 84.4948)" style="overflow:visible;enable-background:new    ;"/>
<use xlink:href="#stars"  width="8.6" height="7.6" id="XMLID_58_" x="-4.3" y="-3.8" transform="matrix(1 0 0 -1 1334 413.4651)" style="overflow:visible;enable-background:new    ;"/>
<use xlink:href="#stars"  width="8.6" height="7.6" id="XMLID_55_" x="-4.3" y="-3.8" transform="matrix(1 0 0 -1 1720.8613 765.4323)" style="overflow:visible;enable-background:new    ;"/>
<use xlink:href="#sparkle"  width="11" height="11" id="XMLID_133_" x="-5.5" y="-5.5" transform="matrix(0.9818 0 0 -0.9818 701.7351 480.3268)" style="overflow:visible;"/>
<use xlink:href="#sparkle"  width="11" height="11" id="XMLID_132_" x="-5.5" y="-5.5" transform="matrix(0.9818 0 0 -0.9818 1019.9961 -155.7042)" style="overflow:visible;enable-background:new    ;"/>
<use xlink:href="#sparkle"  width="11" height="11" id="XMLID_131_" x="-5.5" y="-5.5" transform="matrix(0.9818 0 0 -0.9818 1522.002 -112.6896)" style="overflow:visible;enable-background:new    ;"/>
<use xlink:href="#sparkle"  width="11" height="11" id="XMLID_130_" x="-5.5" y="-5.5" transform="matrix(0.9818 0 0 -0.9818 1958.6598 -26.2566)" style="overflow:visible;enable-background:new    ;"/>
<use xlink:href="#sparkle"  width="11" height="11" id="XMLID_129_" x="-5.5" y="-5.5" transform="matrix(0.9818 0 0 -0.9818 2155.1233 59.9829)" style="overflow:visible;enable-background:new    ;"/>
<use xlink:href="#sparkle"  width="11" height="11" id="XMLID_128_" x="-5.5" y="-5.5" transform="matrix(0.9818 0 0 -0.9818 2335.7725 -32.0483)" style="overflow:visible;enable-background:new    ;"/>
<use xlink:href="#sparkle"  width="11" height="11" id="XMLID_127_" x="-5.5" y="-5.5" transform="matrix(0.9818 0 0 -0.9818 2333.531 -155.0556)" style="overflow:visible;enable-background:new    ;"/>
<use xlink:href="#sparkle"  width="11" height="11" id="XMLID_126_" x="-5.5" y="-5.5" transform="matrix(0.9818 0 0 -0.9818 2006.9312 -147.255)" style="overflow:visible;enable-background:new    ;"/>
<use xlink:href="#sparkle"  width="11" height="11" id="XMLID_124_" x="-5.5" y="-5.5" transform="matrix(0.9818 0 0 -0.9818 686.3537 -124.9893)" style="overflow:visible;enable-background:new    ;"/>
<use xlink:href="#sparkle"  width="11" height="11" id="XMLID_123_" x="-5.5" y="-5.5" transform="matrix(0.9818 0 0 -0.9818 627.4479 80.5385)" style="overflow:visible;enable-background:new    ;"/>
<use xlink:href="#sparkle"  width="11" height="11" id="XMLID_122_" x="-5.5" y="-5.5" transform="matrix(0.9818 0 0 -0.9818 603.6752 -175.3166)" style="overflow:visible;enable-background:new    ;"/>
<use xlink:href="#sparkle"  width="11" height="11" id="XMLID_121_" x="-5.5" y="-5.5" transform="matrix(0.9818 0 0 -0.9818 2085.4751 237.9381)" style="overflow:visible;enable-background:new    ;"/>
<use xlink:href="#sparkle"  width="11" height="11" id="XMLID_120_" x="-5.5" y="-5.5" transform="matrix(0.9818 0 0 -0.9818 1692.9999 190.6821)" style="overflow:visible;enable-background:new    ;"/>
<use xlink:href="#sparkle"  width="11" height="11" id="XMLID_119_" x="-5.5" y="-5.5" transform="matrix(0.9818 0 0 -0.9818 1072.1649 14.2004)" style="overflow:visible;enable-background:new    ;"/>
<use xlink:href="#sparkle"  width="11" height="11" id="XMLID_118_" x="-5.5" y="-5.5" transform="matrix(0.9818 0 0 -0.9818 1120.7635 -82.991)" style="overflow:visible;enable-background:new    ;"/>
<use xlink:href="#sparkle"  width="11" height="11" id="XMLID_117_" x="-5.5" y="-5.5" transform="matrix(0.9818 0 0 -0.9818 762.4233 415.3706)" style="overflow:visible;enable-background:new    ;"/>
<use xlink:href="#sparkle"  width="11" height="11" id="XMLID_116_" x="-5.5" y="-5.5" transform="matrix(0.9818 0 0 -0.9818 1534.4368 128.6237)" style="overflow:visible;enable-background:new    ;"/>
<use xlink:href="#sparkle"  width="11" height="11" id="XMLID_115_" x="-5.5" y="-5.5" transform="matrix(0.9818 0 0 -0.9818 2205.3428 198.7958)" style="overflow:visible;enable-background:new    ;"/>
<use xlink:href="#sparkle"  width="11" height="11" id="XMLID_114_" x="-5.5" y="-5.5" transform="matrix(0.9818 0 0 -0.9818 1680.3339 -133.2104)" style="overflow:visible;enable-background:new    ;"/>
<use xlink:href="#sparkle"  width="11" height="11" id="XMLID_113_" x="-5.5" y="-5.5" transform="matrix(0.9818 0 0 -0.9818 1714.4984 -43.7743)" style="overflow:visible;enable-background:new    ;"/>
<use xlink:href="#sparkle"  width="11" height="11" id="XMLID_112_" x="-5.5" y="-5.5" transform="matrix(0.9818 0 0 -0.9818 696.3184 302.6121)" style="overflow:visible;enable-background:new    ;"/>
<use xlink:href="#sparkle"  width="11" height="11" id="XMLID_111_" x="-5.5" y="-5.5" transform="matrix(0.9818 0 0 -0.9818 1546.8195 489.4956)" style="overflow:visible;enable-background:new    ;"/>
<use xlink:href="#sparkle"  width="11" height="11" id="XMLID_110_" x="-5.5" y="-5.5" transform="matrix(0.9818 0 0 -0.9818 672.9317 727.9836)" style="overflow:visible;enable-background:new    ;"/>
<use xlink:href="#sparkle"  width="11" height="11" id="XMLID_108_" x="-5.5" y="-5.5" transform="matrix(0.9818 0 0 -0.9818 2287.1191 709.4911)" style="overflow:visible;enable-background:new    ;"/>
<use xlink:href="#sparkle"  width="11" height="11" id="XMLID_107_" x="-5.5" y="-5.5" transform="matrix(0.9818 0 0 -0.9818 2078.606 323.3058)" style="overflow:visible;enable-background:new    ;"/>
<use xlink:href="#sparkle"  width="11" height="11" id="XMLID_106_" x="-5.5" y="-5.5" transform="matrix(0.9818 0 0 -0.9818 2383.7766 294.8974)" style="overflow:visible;enable-background:new    ;"/>
<use xlink:href="#sparkle"  width="11" height="11" id="XMLID_105_" x="-5.5" y="-5.5" transform="matrix(0.9818 0 0 -0.9818 1354.551 68.2403)" style="overflow:visible;enable-background:new    ;"/>
<use xlink:href="#sparkle"  width="11" height="11" id="XMLID_104_" x="-5.5" y="-5.5" transform="matrix(0.9818 0 0 -0.9818 1255.6068 321.7261)" style="overflow:visible;enable-background:new    ;"/>
<use xlink:href="#sparkle"  width="11" height="11" id="XMLID_103_" x="-5.5" y="-5.5" transform="matrix(0.9818 0 0 -0.9818 1298.5131 463.5154)" style="overflow:visible;enable-background:new    ;"/>
<use xlink:href="#sparkle"  width="11" height="11" id="XMLID_102_" x="-5.5" y="-5.5" transform="matrix(0.9818 0 0 -0.9818 1146.9227 615.2609)" style="overflow:visible;enable-background:new    ;"/>
<use xlink:href="#sparkle"  width="11" height="11" id="XMLID_100_" x="-5.5" y="-5.5" transform="matrix(0.9818 0 0 -0.9818 1384.6564 205.7132)" style="overflow:visible;enable-background:new    ;"/>
<linearGradient id="XMLID_188_" gradientUnits="userSpaceOnUse" x1="2238.0322" y1="205.2614" x2="2229.5239" y2="135.9669" gradientTransform="matrix(0.9986 5.374856e-002 5.374856e-002 -0.9986 -3.8424 458.4605)">
	<stop  offset="0" style="stop-color:#FFF6C8;stop-opacity:0.3"/>
	<stop  offset="1" style="stop-color:#FFF6C8;stop-opacity:0"/>
</linearGradient>
<path id="XMLID_53_" class="st3" d="M2423.2,457.2c1.2-22.6-19.2-42-45.7-43.5c-15.7-0.8-29.9,4.8-39.2,14.3
	c-13.7-5-31.1-8.5-50.3-9.5c-0.1,0-0.2,0-0.3,0c-2.9-27.7-55.3-52.4-120.9-55.9c-68.4-3.7-125.1,17-126.7,46.2"/>
<linearGradient id="XMLID_189_" gradientUnits="userSpaceOnUse" x1="1459.2483" y1="-0.7845" x2="1443.9752" y2="-86.692" gradientTransform="matrix(1 0 0 -1 0 593.84)">
	<stop  offset="0" style="stop-color:#FFF6C8;stop-opacity:0.3"/>
	<stop  offset="1" style="stop-color:#FFF6C8;stop-opacity:0"/>
</linearGradient>
<path id="XMLID_101_" class="st4" d="M1569.5,641.9c0-18.2-14.8-33-33-33c-16.3,0-29.8,11.8-32.5,27.3c-4.8-4.5-11.3-7.3-18.5-7.3
	c-4.1,0-7.9,0.9-11.4,2.5c-2.2-22.7-21.3-40.5-44.6-40.5s-42.4,17.8-44.6,40.5c-5.7-4-12.7-6.4-20.2-6.4
	c-19.4,0-35.2,15.7-35.2,35.2"/>
<linearGradient id="XMLID_190_" gradientUnits="userSpaceOnUse" x1="1240" y1="360.86" x2="1240" y2="360.86" gradientTransform="matrix(1 0 0 -1 0 593.84)">
	<stop  offset="0" style="stop-color:#FFF6C8;stop-opacity:0.3"/>
	<stop  offset="1" style="stop-color:#FFF6C8;stop-opacity:0"/>
</linearGradient>
<path id="XMLID_56_" class="st5" d="M1240,233"/>
<linearGradient id="XMLID_191_" gradientUnits="userSpaceOnUse" x1="1189.7" y1="356.76" x2="1189.7" y2="356.76" gradientTransform="matrix(1 0 0 -1 0 593.84)">
	<stop  offset="0" style="stop-color:#FFF6C8;stop-opacity:0.3"/>
	<stop  offset="1" style="stop-color:#FFF6C8;stop-opacity:0"/>
</linearGradient>
<path id="XMLID_54_" class="st6" d="M1189.7,237.1"/>
<linearGradient id="XMLID_192_" gradientUnits="userSpaceOnUse" x1="2082.3442" y1="-126.0619" x2="2070.5811" y2="-192.2262" gradientTransform="matrix(1 0 0 -1 0 593.84)">
	<stop  offset="0" style="stop-color:#FFF6C8;stop-opacity:0.3"/>
	<stop  offset="1" style="stop-color:#FFF6C8;stop-opacity:0"/>
</linearGradient>
<path id="XMLID_135_" class="st7" d="M2161.7,776.1c0-9.9-10.8-17.8-24.2-17.8c-1.6,0-3.2,0.1-4.8,0.3c0-0.1,0-0.2,0-0.3
	c0-19.7-17.5-35.7-39.1-35.7c-16.8,0-31.1,9.7-36.6,23.3c-7.4-9.5-19-15.6-31.9-15.6c-22.4,0-40.5,18.1-40.5,40.5"/>
<linearGradient id="XMLID_193_" gradientUnits="userSpaceOnUse" x1="705.5442" y1="261.1381" x2="693.7812" y2="194.9739" gradientTransform="matrix(1 0 0 -1 0 593.84)">
	<stop  offset="0" style="stop-color:#FFF6C8;stop-opacity:0.3"/>
	<stop  offset="1" style="stop-color:#FFF6C8;stop-opacity:0"/>
</linearGradient>
<path id="XMLID_12_" class="st8" d="M784.9,388.9c0-9.9-10.8-17.8-24.2-17.8c-1.6,0-3.2,0.1-4.8,0.3c0-0.1,0-0.2,0-0.3
	c0-19.7-17.5-35.7-39.1-35.7c-16.8,0-31.1,9.7-36.6,23.3c-7.4-9.5-19-15.6-31.9-15.6c-22.4,0-40.5,18.1-40.5,40.5"/>
<linearGradient id="XMLID_194_" gradientUnits="userSpaceOnUse" x1="780.2" y1="-182.94" x2="780.2" y2="-182.94" gradientTransform="matrix(1 0 0 -1 0 593.84)">
	<stop  offset="0" style="stop-color:#FFF6C8;stop-opacity:0.3"/>
	<stop  offset="1" style="stop-color:#FFF6C8;stop-opacity:0"/>
</linearGradient>
<path id="XMLID_134_" class="st9" d="M780.2,776.8"/>
<linearGradient id="XMLID_195_" gradientUnits="userSpaceOnUse" x1="2170.6125" y1="653.2355" x2="2159.0449" y2="588.1706" gradientTransform="matrix(1 0 0 -1 0 593.84)">
	<stop  offset="0" style="stop-color:#FFF6C8;stop-opacity:0.3"/>
	<stop  offset="1" style="stop-color:#FFF6C8;stop-opacity:0"/>
</linearGradient>
<path id="XMLID_136_" class="st10" d="M2312.3-0.4c0-12.8-13.3-23.2-29.8-23.2c-3.1,0-6.1,0.4-8.9,1c-2.4-14.1-20.8-25.1-43.2-25.1
	c-15.3,0-28.7,5.1-36.5,12.9c-9-1.7-18.8-2.7-29.1-2.7c-20.7,0-39.4,3.8-53.4,10.1c-3.4-24.2-24.2-42.8-49.3-42.8
	c-27.5,0-49.8,22.3-49.8,49.8"/>
<linearGradient id="XMLID_196_" gradientUnits="userSpaceOnUse" x1="806.5593" y1="708.4193" x2="787.3351" y2="600.2881" gradientTransform="matrix(0.9905 0.1377 0.1377 -0.9905 -26.3807 407.4777)">
	<stop  offset="0" style="stop-color:#FFFFFF;stop-opacity:0.9"/>
	<stop  offset="8.430076e-002" style="stop-color:#FFFEF7;stop-opacity:0.8241"/>
	<stop  offset="0.6911" style="stop-color:#FFF8D5;stop-opacity:0.278"/>
	<stop  offset="1" style="stop-color:#FFF6C8;stop-opacity:0"/>
</linearGradient>
<circle id="XMLID_137_" class="st11" cx="853.1" cy="-130.9" r="54.9"/>
<linearGradient id="XMLID_197_" gradientUnits="userSpaceOnUse" x1="806.5593" y1="708.4193" x2="787.3351" y2="600.2881" gradientTransform="matrix(0.9905 0.1377 0.1377 -0.9905 -26.3807 407.4777)">
	<stop  offset="0" style="stop-color:#FFFFFF;stop-opacity:0.9"/>
	<stop  offset="8.430076e-002" style="stop-color:#FFFEF7;stop-opacity:0.8241"/>
	<stop  offset="0.6911" style="stop-color:#FFF8D5;stop-opacity:0.278"/>
	<stop  offset="1" style="stop-color:#FFF6C8;stop-opacity:0"/>
</linearGradient>
<circle id="XMLID_139_" class="st12" cx="853.1" cy="-130.9" r="54.9"/>
<linearGradient id="XMLID_198_" gradientUnits="userSpaceOnUse" x1="1103.9293" y1="398.725" x2="1084.705" y2="290.5938" gradientTransform="matrix(0.9905 0.1377 0.1377 -0.9905 -26.3807 407.4777)">
	<stop  offset="0" style="stop-color:#FFFFFF;stop-opacity:0.9"/>
	<stop  offset="8.430076e-002" style="stop-color:#FFFEF7;stop-opacity:0.8241"/>
	<stop  offset="0.6911" style="stop-color:#FFF8D5;stop-opacity:0.278"/>
	<stop  offset="1" style="stop-color:#FFF6C8;stop-opacity:0"/>
</linearGradient>
<circle id="XMLID_10_" class="st13" cx="1105" cy="216.8" r="54.9"/>
<linearGradient id="XMLID_199_" gradientUnits="userSpaceOnUse" x1="1896.01" y1="555.1809" x2="1876.7859" y2="447.0497" gradientTransform="matrix(0.9905 0.1377 0.1377 -0.9905 -26.3807 407.4777)">
	<stop  offset="0" style="stop-color:#FFFFFF;stop-opacity:0.9"/>
	<stop  offset="8.430076e-002" style="stop-color:#FFFEF7;stop-opacity:0.8241"/>
	<stop  offset="0.6911" style="stop-color:#FFF8D5;stop-opacity:0.278"/>
	<stop  offset="1" style="stop-color:#FFF6C8;stop-opacity:0"/>
</linearGradient>
<circle id="XMLID_9_" class="st14" cx="1911.1" cy="170.9" r="54.9"/>
<g id="XMLID_138_" class="st15">
	<path id="XMLID_140_" class="st16" d="M852.1-144.9c0.3,0,0.7,0.1,1,0.1C852.7-144.8,852.4-144.9,852.1-144.9z"/>
	<path id="XMLID_141_" class="st16" d="M857-144.2c0.3,0,0.7,0.1,1,0.1C857.6-144.1,857.3-144.2,857-144.2z"/>
	<path id="XMLID_142_" class="st16" d="M858.7-144c35.5,5.2,63.1,12.9,62.5,17.6c-0.7,4.8-31.4,4.5-68.6-0.6
		c-37.2-5.1-66.8-13.3-66.2-18.1c0.6-4.7,29.4-4.6,64.9,0.1c-46-6.1-83.5-5.2-84.5,2.2c-1,7.5,36.8,19,84.5,25.7
		c47.7,6.7,87.2,5.9,88.3-1.7C940.5-126.2,904.7-137.3,858.7-144z"/>
	<path id="XMLID_143_" class="st16" d="M858-144.1c0.3,0,0.5,0.1,0.8,0.1C858.5-144,858.2-144.1,858-144.1z"/>
	<path id="XMLID_144_" class="st16" d="M851.3-145c0.3,0,0.5,0.1,0.8,0.1C851.8-144.9,851.6-145,851.3-145z"/>
	<path id="XMLID_145_" class="st16" d="M855-144.5c0.7,0.1,1.3,0.2,2,0.3C856.3-144.3,855.7-144.4,855-144.5z"/>
	<path id="XMLID_146_" class="st16" d="M853.1-144.8c0.7,0.1,1.3,0.2,2,0.3C854.4-144.6,853.7-144.7,853.1-144.8z"/>
</g>
<g id="Satelite" class="st17">
	<g id="XMLID_148_">
		<path id="XMLID_163_" class="st18" d="M1416.3-129.2c-3.9-9.1,0.2-19.7,9.3-23.6c9.1-3.9,19.7,0.2,23.6,9.3L1416.3-129.2z"/>
	</g>
	<g id="XMLID_147_">
		<path id="XMLID_162_" class="st19" d="M1449.2-143.5c-15.9,8.5-32.9,14.3-32.9,14.3L1449.2-143.5z"/>
	</g>
	<g id="XMLID_149_">
		<path id="XMLID_159_" class="st18" d="M1436.5-126.5l-7.8-17.9c-0.1-0.2,0-0.5,0.3-0.6c0.2-0.1,0.5,0,0.6,0.3l7.8,17.9
			c0.1,0.2,0,0.5-0.3,0.6C1436.9-126.2,1436.6-126.3,1436.5-126.5z"/>
	</g>
	<g id="XMLID_151_">
		<path id="XMLID_158_" class="st18" d="M1427.9-144.1l-7.8-17.9c-0.3-0.7,0-1.5,0.7-1.8s1.5,0,1.8,0.7l7.8,17.9
			c0.3,0.7,0,1.5-0.7,1.8C1429-143,1428.2-143.4,1427.9-144.1z"/>
	</g>
	<g id="XMLID_150_">
		
			<rect id="XMLID_161_" x="1395.3" y="-187.4" transform="matrix(0.3982 0.9173 -0.9173 0.3982 689.1552 -1404.6599)" class="st18" width="39.6" height="20.5"/>
	</g>
	<g id="XMLID_154_">
		
			<rect id="XMLID_157_" x="1414" y="-210.7" transform="matrix(-0.3982 -0.9173 0.9173 -0.3982 2140.9221 1050.41)" class="st18" width="2.1" height="67.3"/>
	</g>
	<g id="XMLID_153_">
		
			<rect id="XMLID_160_" x="1446.5" y="-217.2" transform="matrix(-0.3982 -0.9173 0.9173 -0.3982 2209.209 1062.2448)" class="st18" width="13.2" height="47.3"/>
	</g>
	<g id="XMLID_156_">
		
			<rect id="XMLID_155_" x="1370.2" y="-184.1" transform="matrix(-0.3982 -0.9173 0.9173 -0.3982 2072.3176 1038.5759)" class="st18" width="13.2" height="47.3"/>
	</g>
</g>
<use xlink:href="#stars"  width="8.6" height="7.6" id="XMLID_72_" x="-4.3" y="-3.8" transform="matrix(1 0 0 -1 911.3256 236.4992)" style="overflow:visible;enable-background:new    ;"/>
<use xlink:href="#stars"  width="8.6" height="7.6" id="XMLID_32_" x="-4.3" y="-3.8" transform="matrix(1 0 0 -1 931.4074 529.7777)" style="overflow:visible;enable-background:new    ;"/>
<use xlink:href="#stars"  width="8.6" height="7.6" id="XMLID_31_" x="-4.3" y="-3.8" transform="matrix(1 0 0 -1 1014.4432 644.4364)" style="overflow:visible;enable-background:new    ;"/>
<use xlink:href="#stars"  width="8.6" height="7.6" id="XMLID_30_" x="-4.3" y="-3.8" transform="matrix(1 0 0 -1 780.6868 592.0569)" style="overflow:visible;enable-background:new    ;"/>
<use xlink:href="#stars"  width="8.6" height="7.6" id="XMLID_29_" x="-4.3" y="-3.8" transform="matrix(1 0 0 -1 1428.4861 718.6458)" style="overflow:visible;enable-background:new    ;"/>
<use xlink:href="#stars"  width="8.6" height="7.6" id="XMLID_28_" x="-4.3" y="-3.8" transform="matrix(1 0 0 -1 772.2339 210.8188)" style="overflow:visible;enable-background:new    ;"/>
<use xlink:href="#stars"  width="8.6" height="7.6" id="XMLID_27_" x="-4.3" y="-3.8" transform="matrix(1 0 0 -1 953.8381 115.9154)" style="overflow:visible;enable-background:new    ;"/>
<use xlink:href="#stars"  width="8.6" height="7.6" id="XMLID_26_" x="-4.3" y="-3.8" transform="matrix(1 0 0 -1 1600.1499 268.5994)" style="overflow:visible;enable-background:new    ;"/>
<use xlink:href="#stars"  width="8.6" height="7.6" id="XMLID_25_" x="-4.3" y="-3.8" transform="matrix(1 0 0 -1 1791.0615 403.6148)" style="overflow:visible;enable-background:new    ;"/>
<use xlink:href="#stars"  width="8.6" height="7.6" id="XMLID_24_" x="-4.3" y="-3.8" transform="matrix(1 0 0 -1 1833.2838 518.2657)" style="overflow:visible;enable-background:new    ;"/>
<use xlink:href="#stars"  width="8.6" height="7.6" id="XMLID_23_" x="-4.3" y="-3.8" transform="matrix(1 0 0 -1 1834.9568 108.2843)" style="overflow:visible;enable-background:new    ;"/>
<use xlink:href="#stars"  width="8.6" height="7.6" id="XMLID_22_" x="-4.3" y="-3.8" transform="matrix(1 0 0 -1 1927.6526 323.1093)" style="overflow:visible;enable-background:new    ;"/>
<use xlink:href="#sparkle"  width="11" height="11" id="XMLID_21_" x="-5.5" y="-5.5" transform="matrix(0.9818 0 0 -0.9818 892.6543 445.7401)" style="overflow:visible;enable-background:new    ;"/>
<use xlink:href="#sparkle"  width="11" height="11" id="XMLID_20_" x="-5.5" y="-5.5" transform="matrix(0.9818 0 0 -0.9818 1322.2185 324.8214)" style="overflow:visible;enable-background:new    ;"/>
<use xlink:href="#sparkle"  width="11" height="11" id="XMLID_19_" x="-5.5" y="-5.5" transform="matrix(0.9818 0 0 -0.9818 1594.5605 503.8498)" style="overflow:visible;enable-background:new    ;"/>
<use xlink:href="#sparkle"  width="11" height="11" id="XMLID_18_" x="-5.5" y="-5.5" transform="matrix(0.9818 0 0 -0.9818 1378.1937 587.8582)" style="overflow:visible;enable-background:new    ;"/>
<use xlink:href="#sparkle"  width="11" height="11" id="XMLID_17_" x="-5.5" y="-5.5" transform="matrix(0.9818 0 0 -0.9818 911.3253 660.627)" style="overflow:visible;enable-background:new    ;"/>
<use xlink:href="#sparkle"  width="11" height="11" id="XMLID_16_" x="-5.5" y="-5.5" transform="matrix(0.9818 0 0 -0.9818 992.417 411.6797)" style="overflow:visible;enable-background:new    ;"/>
<use xlink:href="#sparkle"  width="11" height="11" id="XMLID_15_" x="-5.5" y="-5.5" transform="matrix(0.9818 0 0 -0.9818 1742.7712 290.7008)" style="overflow:visible;enable-background:new    ;"/>
<linearGradient id="XMLID_200_" gradientUnits="userSpaceOnUse" x1="1028.842" y1="-142.3081" x2="1015.8242" y2="-215.5296" gradientTransform="matrix(1 0 0 -1 0 593.84)">
	<stop  offset="0" style="stop-color:#FFF6C8;stop-opacity:0.3"/>
	<stop  offset="1" style="stop-color:#FFF6C8;stop-opacity:0"/>
</linearGradient>
<path id="XMLID_11_" class="st20" d="M1138.3,785.8c0-19.9-16.1-36-36-36c-18.2,0-33.2,13.5-35.6,31c-10.2-9.9-24.1-15.9-39.5-15.9
	c-15.5,0-29.5,6.2-39.8,16.3c-4.1-17.6-21.5-30.8-42.4-30.8c-23.9,0-43.3,17.3-43.3,38.7"/>
<path class="st21" d="M1439.2,206.7c-3.4,0-6.7,0.1-10.1,0.4H532.5v256.3h896.7c3.3,0.3,6.7,0.4,10.1,0.4
	c71,0,128.5-57.5,128.5-128.5S1510.2,206.7,1439.2,206.7z"/>
<text transform="matrix(1 0 0 1 561.8001 388.8803)" class="st22 st23">Allshack</text>
<linearGradient id="Circle_1_" gradientUnits="userSpaceOnUse" x1="1442.6967" y1="155.1967" x2="1442.6967" y2="361.9569" gradientTransform="matrix(1 0 0 -1 0 593.84)">
	<stop  offset="0" style="stop-color:#9F1D20"/>
	<stop  offset="1" style="stop-color:#F05360"/>
</linearGradient>
<circle id="Circle" class="st24" cx="1442.7" cy="335.3" r="103.4"/>
<g id="XMLID_3_">
	<path id="XMLID_4_" class="st25" d="M1454.3,279.5l38.7,80c1.6,3.2,2.5,5.7,2.5,7.3c0,3.4-2.8,6.6-8.3,9.3
		c-3.2,1.6-5.8,2.5-7.7,2.5s-3.4-0.4-4.6-1.3c-1.2-0.9-2-1.8-2.6-2.7c-0.5-0.9-1.3-2.4-2.2-4.3l-7.4-15.5h-39.8l-7.4,15.5
		c-0.9,1.9-1.7,3.3-2.2,4.2s-1.4,1.7-2.6,2.6c-1.2,0.9-2.7,1.4-4.6,1.4c-1.9,0-4.4-0.9-7.7-2.5c-5.5-2.6-8.3-5.7-8.3-9.2
		c0-1.6,0.9-4.1,2.5-7.3l38.7-80c1-2.2,2.6-4,4.8-5.3c2.1-1.4,4.4-2,6.8-2C1448,272,1451.7,274.5,1454.3,279.5z M1442.6,313.8
		l-9.5,19.6h19.1L1442.6,313.8z"/>
</g>
<ellipse id="Backpack" transform="matrix(-0.1311 -0.9914 0.9914 -0.1311 1739.0902 2483.7512)" class="st26" cx="1958" cy="479.7" rx="133.5" ry="123"/>
<path id="Leg_Left" class="st27" d="M1882.8,645.7l-11.5-106.3c-2.2-20.1,9.6-37.8,26.4-39.4l0,0c16.8-1.6,32.1,13.3,34.3,33.5
	l11.5,106.3c2.2,20.1-9.6,37.8-26.4,39.4l0,0C1900.3,680.7,1885,665.8,1882.8,645.7z"/>
<path id="XMLID_184_" class="st28" d="M1932.9,540.1c0,0.3,0.1,0.7,0.1,1l10.8,100.9c2,18.8-9.8,35.4-26.4,37.1
	c-11,1.1-21.4-4.7-27.7-14.3c6.3,6.8,15,10.6,24.1,9.7c16.6-1.6,28.4-18.2,26.4-37.1l-10.8-100.9c0-0.3-0.1-0.7-0.1-1
	c-0.8-5.9-2.8-11.2-5.8-15.8C1928.4,525,1931.8,532,1932.9,540.1z"/>
<path id="Leg_Right" class="st27" d="M2005.4,633.2l-12.5-106.1c-2.4-20.1,9.3-37.9,26-39.8l0,0c16.7-1.9,32.2,12.9,34.6,33
	l12.5,106.1c2.4,20.1-9.3,37.9-26,39.8l0,0C2023.3,668,2007.8,653.3,2005.4,633.2z"/>
<path id="XMLID_183_" class="st28" d="M2055.5,527.1c0,0.3,0.1,0.7,0.1,1l10.8,100.9c2,18.8-9.8,35.4-26.4,37.1
	c-11,1.1-21.4-4.7-27.7-14.3c6.3,6.8,15,10.6,24.1,9.7c16.6-1.6,28.4-18.2,26.4-37.1L2052,523.5c0-0.3-0.1-0.7-0.1-1
	c-0.8-5.9-2.8-11.2-5.8-15.8C2051,512,2054.5,519.1,2055.5,527.1z"/>
<path id="Stomach" class="st28" d="M1846.7,348.5l23.7,177.4c7.8,58.4,55.4,100.2,106.4,93.4s86-59.7,78.2-118.1l-23.7-177.4
	L1846.7,348.5z"/>
<path id="Stomach_1_" class="st27" d="M1842.9,341.6l23.7,177.4c7.8,58.4,55.4,100.2,106.4,93.4s86-59.7,78.2-118.1l-23.7-177.4
	L1842.9,341.6z"/>
<path id="XMLID_181_" class="st28" d="M2055.4,501.9c5.7,58.6-28.7,110.6-78.5,117.3c-22.1,3-43.6-3.5-61.6-16.7
	c14.9,6.5,31.5,9.1,48.5,6.8c50-6.7,85.4-53.4,82.1-106.1L2055.4,501.9z"/>
<g id="Hand_Left">
	<g id="XMLID_172_">
		<g id="XMLID_177_">
			<path id="XMLID_179_" class="st27" d="M1795.2,475.8l-15.3-34.9c-6.7-15.4,0.3-33.4,15.7-40.2l0,0c15.4-6.7,33.4,0.3,40.2,15.7
				l15.3,34.9c6.7,15.4-0.3,33.4-15.7,40.2l0,0C1820,498.2,1801.9,491.2,1795.2,475.8z"/>
		</g>
		<g id="XMLID_174_">
			<path id="XMLID_175_" class="st27" d="M1850.3,496.7l-25.3-1.2c-16.8-0.8-29.8-15.1-29-31.9l0,0c0.8-16.8,15.1-29.8,31.9-29
				l25.3,1.2c16.8,0.8,29.8,15.1,29,31.9l0,0C1881.4,484.5,1867,497.5,1850.3,496.7z"/>
		</g>
	</g>
</g>
<g id="Hand_Right">
	<g id="XMLID_164_">
		<g id="XMLID_169_">
			<path id="XMLID_171_" class="st27" d="M2122.6,505.6l-11.8-38.5c-4.9-16-22.1-25.1-38.1-20.2l0,0c-16,4.9-25.1,22.1-20.2,38.1
				l11.8,38.5c4.9,16,22.1,25.1,38.1,20.2l0,0C2118.4,538.8,2127.5,521.7,2122.6,505.6z"/>
		</g>
		<g id="XMLID_165_">
			<path id="XMLID_167_" class="st27" d="M2069.3,427.6l27.6,21.6c13.2,10.3,15.5,29.6,5.2,42.8l0,0c-10.3,13.2-29.6,15.5-42.8,5.2
				l-27.6-21.6c-13.2-10.3-15.5-29.6-5.2-42.8l0,0C2036.8,419.6,2056.1,417.2,2069.3,427.6z"/>
		</g>
	</g>
</g>
<path id="XMLID_109_" class="st28" d="M2060.1,329.3c8.9,66.2-37.6,127-103.8,135.8c-38.1,5.1-74.4-8.1-100-32.9
	c-18.9-18.3-32-42.8-35.8-70.9c-8.8-66.2,37.6-127,103.8-135.8c34.6-4.6,67.8,5.9,92.8,26.5C2039.8,270.7,2055.8,297.8,2060.1,329.3
	z"/>
<path id="XMLID_93_" class="st27" d="M2052.9,322.9c8.9,66.2-37.6,127-103.8,135.8c-34.6,4.6-67.8-5.9-92.8-26.5
	c-18.9-18.3-32-42.8-35.8-70.9c-8.8-66.2,37.6-127,103.8-135.8c34.6-4.6,67.8,5.9,92.8,26.5C2036,270.3,2049.1,294.8,2052.9,322.9z"
	/>
<g id="Helmet_1_">
	<path id="Helmet" class="st29" d="M2036.8,332.4c7.1,53.3-30.3,102.4-83.7,109.5c-18.7,2.5-36.9-0.5-53-7.8
		c-4.9-2.2-9.6-4.8-14.1-7.8c-3.4-2.3-6.7-4.8-9.8-7.5c-6.3-5.5-12-11.8-16.7-18.8c-8.2-12.1-13.8-26.2-15.9-41.7
		c-5.2-38.7,13.2-75.2,44-95c7-4.5,14.6-8.1,22.8-10.7c3.9-1.2,7.9-2.3,12-3c1.6-0.3,3.2-0.6,4.9-0.8c3.8-0.5,7.5-0.8,11.2-0.8
		C1987.4,247,2030.2,282.8,2036.8,332.4z"/>
	<path id="XMLID_67_" class="st30" d="M1910.5,252.5l-34.2,166.3c-6.3-5.5-12-11.8-16.7-18.8l28.1-136.7
		C1894.7,258.8,1902.3,255.2,1910.5,252.5z"/>
	<path id="XMLID_64_" class="st30" d="M1938.5,247.9l-38.3,186.3c-4.9-2.2-9.6-4.8-14.1-7.8l36.4-176.9c1.6-0.3,3.2-0.6,4.9-0.8
		C1931.1,248.3,1934.8,248,1938.5,247.9z"/>
</g>
<circle id="XMLID_61_" class="st31" cx="1896.5" cy="485.3" r="7.3"/>
<circle id="XMLID_60_" class="st32" cx="1915.4" cy="483.7" r="7.3"/>
<rect id="XMLID_59_" x="1848.8" y="431" transform="matrix(-0.9914 0.1311 -0.1311 -0.9914 3754.7935 696.7903)" class="st26" width="11.3" height="81.9"/>
<rect id="XMLID_57_" x="2051.3" y="407.8" transform="matrix(-0.9912 0.1324 -0.1324 -0.9912 4158.4492 668.1406)" class="st26" width="11.4" height="129"/>
<g id="XMLID_50_">
	<path id="XMLID_52_" d="M2029.5,241c3.2-9.6,5.9-17.9,8.7-26.2c4.3-13,8.8-25.9,12.8-38.9c0.7-2.3,0.4-5.6-0.8-7.8
		c-44.5-79.3-3.9-178.1,83.4-203.2c83.7-24.1,169.4,35.1,176.8,122c6.1,71.7-41.8,135.5-112.4,149.1c-33.6,6.5-65.6,1.1-95.5-15.7
		c-3.1-1.7-5.6-1.8-8.9-0.7C2072.7,226.7,2051.7,233.6,2029.5,241z M2044.1,226.2c2.8-0.8,4.7-1.3,6.5-1.9
		c14.8-4.9,29.7-9.8,44.5-14.9c3.3-1.1,5.8-0.9,8.8,1c25,15.1,52.1,21.4,81.3,18.3c69.4-7.5,120.3-67.3,116.5-136.7
		c-2.9-54.5-39.9-101.5-92.1-117.5s-109,2.4-141.9,45.9c-32.4,42.9-35.4,99.8-7.4,146.5c1.6,2.7,2,4.9,0.9,7.9
		c-3.7,10.3-7.1,20.8-10.5,31.2C2048.6,212.4,2046.5,218.8,2044.1,226.2z"/>
	<path id="XMLID_51_" class="st25" d="M2044.1,226.2c2.4-7.4,4.5-13.8,6.6-20.2c3.5-10.4,6.8-20.9,10.5-31.2c1.1-3,0.7-5.2-0.9-7.9
		c-28-46.7-25-103.6,7.4-146.5c32.9-43.5,89.7-61.8,141.9-45.9s89.1,63,92.1,117.4c3.8,69.4-47.2,129.3-116.5,136.7
		c-29.2,3.1-56.3-3.2-81.3-18.3c-3-1.8-5.5-2.1-8.8-1c-14.8,5.1-29.7,10-44.5,14.9C2048.7,224.9,2046.9,225.4,2044.1,226.2z"/>
</g>
<g id="XMLID_14_">
	<path id="XMLID_49_" d="M2068.7,66.8l6.8,14.1c0.3,0.6,0.4,1,0.4,1.3c0,0.6-0.5,1.2-1.5,1.6c-0.6,0.3-1,0.4-1.4,0.4
		c-0.4,0-0.6-0.1-0.8-0.2c-0.2-0.2-0.4-0.3-0.5-0.5c-0.1-0.2-0.2-0.4-0.4-0.8L2070,80h-7l-1.3,2.7c-0.2,0.3-0.3,0.6-0.4,0.7
		c-0.1,0.2-0.2,0.3-0.5,0.5c-0.3,0.2-0.5,0.2-0.8,0.2s-0.8-0.1-1.4-0.4c-1-0.5-1.5-1-1.5-1.6c0-0.3,0.1-0.7,0.4-1.3l6.8-14.1
		c0.2-0.4,0.5-0.7,0.8-0.9c0.3-0.2,0.8-0.4,1.2-0.4C2067.5,65.5,2068.2,65.9,2068.7,66.8z M2066.6,72.9l-1.7,3.5h3.4L2066.6,72.9z"
		/>
	<path id="XMLID_48_" d="M2086.3,70.8c0.3,0.1,0.6,0.3,0.8,0.5s0.3,0.6,0.3,1.2c0,0.5-0.2,1.1-0.5,1.8c-0.3,0.6-0.8,1-1.4,1
		c-0.3,0-0.6-0.1-0.9-0.2s-0.6-0.2-1.1-0.2s-0.9,0.2-1.3,0.5c-0.4,0.3-0.6,0.7-0.6,1.2v5.3c0,0.4,0,0.7,0,0.9c0,0.2-0.1,0.4-0.2,0.7
		c-0.3,0.4-0.9,0.7-2,0.7c-0.8,0-1.4-0.1-1.7-0.4c-0.3-0.2-0.4-0.6-0.5-1.1c0-0.2,0-0.4,0-0.7v-8.9c0-0.4,0-0.7,0-0.9
		c0-0.2,0.1-0.4,0.2-0.6c0.2-0.5,0.9-0.7,2-0.7c1,0,1.6,0.2,1.9,0.6c0.2,0.3,0.3,0.5,0.3,0.8c0.1-0.1,0.2-0.3,0.4-0.4
		c0.2-0.2,0.5-0.4,1-0.7c0.5-0.3,1-0.4,1.4-0.4c0.4,0,0.7,0,1,0.1C2085.7,70.7,2086,70.7,2086.3,70.8z"/>
	<path id="XMLID_47_" d="M2100.9,75.7c0,1-0.3,1.8-0.8,2.3s-1.1,0.7-1.7,0.7h-6c0,0.5,0.3,0.9,0.8,1.2c0.6,0.3,1.1,0.5,1.7,0.5
		c1,0,1.7-0.1,2.3-0.3l0.3-0.1c0.4-0.2,0.7-0.3,1-0.3c0.5,0,1,0.4,1.4,1.1c0.2,0.5,0.3,0.8,0.3,1.2c0,1.5-1.8,2.2-5.4,2.2
		c-1.2,0-2.4-0.2-3.3-0.6c-1-0.4-1.7-1-2.3-1.7c-1.1-1.4-1.6-2.9-1.6-4.6c0-2.1,0.7-3.8,2.1-5.1c1.4-1.3,3.1-1.9,5.1-1.9
		c2.3,0,4.1,0.8,5.2,2.5C2100.6,73.8,2100.9,74.7,2100.9,75.7z M2095.6,76.5c0.6,0,1-0.3,1-0.8c0-0.4-0.1-0.7-0.4-0.9
		c-0.3-0.2-0.7-0.4-1.3-0.4c-0.5,0-1.1,0.2-1.6,0.7s-0.8,0.9-0.8,1.4C2092.5,76.5,2095.6,76.5,2095.6,76.5z"/>
	<path id="XMLID_46_" d="M2121.3,70.8c1,0.4,1.5,1,1.5,1.6c0,0.3-0.1,0.6-0.2,0.9c-0.1,0.3-0.2,0.4-0.2,0.4l-6.6,14.8
		c-0.1,0.3-0.2,0.6-0.3,0.7c-0.1,0.2-0.2,0.3-0.4,0.5s-0.5,0.2-0.8,0.2c-0.3,0-0.7-0.1-1.3-0.4c-1-0.4-1.5-1-1.5-1.6
		c0-0.4,0.8-2.3,2.4-5.8l-5-8.5c-0.3-0.6-0.5-1-0.5-1.2c0-0.5,0.5-1.1,1.4-1.6c0.6-0.3,1-0.5,1.3-0.5s0.6,0.1,0.8,0.2
		s0.3,0.3,0.4,0.4c0.1,0.1,0.6,0.9,1.4,2.3c0.8,1.4,1.6,2.7,2.4,4c0.1-0.3,0.5-1.3,1.4-3.1c0.8-1.8,1.3-2.8,1.3-2.9
		c0.1-0.1,0.2-0.3,0.3-0.4c0.2-0.3,0.5-0.4,0.9-0.4C2120.4,70.4,2120.8,70.6,2121.3,70.8z"/>
	<path id="XMLID_45_" d="M2125.9,72.3c1.4-1.3,3-2,4.8-2s3.4,0.7,4.8,2c1.4,1.3,2.1,3,2.1,5c0,1.4-0.4,2.6-1.1,3.7
		c-0.7,1.1-1.6,1.9-2.6,2.4s-2.1,0.8-3.2,0.8c-1.1,0-2.2-0.3-3.2-0.8s-1.9-1.4-2.6-2.4c-0.7-1.1-1.1-2.3-1.1-3.6
		C2123.8,75.3,2124.5,73.7,2125.9,72.3z M2129.1,79.2c0.5,0.4,1.1,0.6,1.6,0.6s1.1-0.2,1.7-0.6s0.8-1,0.8-1.9c0-0.8-0.3-1.4-0.8-1.8
		s-1.1-0.6-1.7-0.6c-0.6,0-1.2,0.2-1.7,0.6s-0.8,1-0.8,1.9C2128.3,78.1,2128.5,78.7,2129.1,79.2z"/>
	<path id="XMLID_44_" d="M2145.2,83.9c-1.7,0-3.1-0.6-4.2-1.9c-1.1-1.3-1.7-2.9-1.7-4.7v-4.4c0-0.4,0-0.7,0-0.9s0.1-0.4,0.2-0.7
		c0.2-0.5,0.9-0.7,2-0.7c1.2,0,1.9,0.3,2.1,1c0.1,0.3,0.2,0.7,0.2,1.3v4.4c0,0.7,0.2,1.2,0.6,1.6s0.9,0.6,1.6,0.6
		c0.7,0,1.2-0.2,1.6-0.6c0.4-0.4,0.6-0.9,0.6-1.6v-4.5c0-0.4,0-0.7,0-0.9c0-0.2,0.1-0.4,0.2-0.7c0.2-0.4,0.9-0.7,1.9-0.7
		c1.1,0,1.7,0.2,1.9,0.7c0.1,0.3,0.2,0.5,0.2,0.7s0,0.5,0,0.9v8.9c0,0.4,0,0.7,0,0.8c0,0.2-0.1,0.4-0.2,0.6
		c-0.3,0.4-0.9,0.7-1.9,0.7s-1.7-0.2-1.9-0.6c-0.2-0.3-0.3-0.6-0.3-1c-0.1,0.1-0.2,0.3-0.5,0.5c-0.2,0.2-0.5,0.4-0.7,0.6
		C2146.5,83.8,2145.9,83.9,2145.2,83.9z"/>
	<path id="XMLID_43_" d="M2170.1,70.8c0.3,0.1,0.6,0.3,0.8,0.5s0.3,0.6,0.3,1.2c0,0.5-0.2,1.1-0.5,1.8c-0.3,0.6-0.8,1-1.4,1
		c-0.3,0-0.6-0.1-0.9-0.2s-0.6-0.2-1.1-0.2s-0.9,0.2-1.3,0.5c-0.4,0.3-0.6,0.7-0.6,1.2v5.3c0,0.4,0,0.7,0,0.9c0,0.2-0.1,0.4-0.2,0.7
		c-0.3,0.4-0.9,0.7-2,0.7c-0.8,0-1.4-0.1-1.7-0.4c-0.3-0.2-0.4-0.6-0.5-1.1c0-0.2,0-0.4,0-0.7v-8.9c0-0.4,0-0.7,0-0.9
		c0-0.2,0.1-0.4,0.2-0.6c0.2-0.5,0.9-0.7,2-0.7c1,0,1.6,0.2,1.9,0.6c0.2,0.3,0.3,0.5,0.3,0.8c0.1-0.1,0.2-0.3,0.4-0.4
		c0.2-0.2,0.5-0.4,1-0.7c0.5-0.3,1-0.4,1.4-0.4c0.4,0,0.7,0,1,0.1C2169.4,70.7,2169.7,70.7,2170.1,70.8z"/>
	<path id="XMLID_42_" d="M2184.6,75.7c0,1-0.3,1.8-0.8,2.3s-1.1,0.7-1.7,0.7h-6c0,0.5,0.3,0.9,0.8,1.2c0.6,0.3,1.1,0.5,1.7,0.5
		c1,0,1.7-0.1,2.3-0.3l0.3-0.1c0.4-0.2,0.7-0.3,1-0.3c0.5,0,1,0.4,1.4,1.1c0.2,0.5,0.3,0.8,0.3,1.2c0,1.5-1.8,2.2-5.4,2.2
		c-1.2,0-2.4-0.2-3.3-0.6c-1-0.4-1.7-1-2.3-1.7c-1.1-1.4-1.6-2.9-1.6-4.6c0-2.1,0.7-3.8,2.1-5.1c1.4-1.3,3.1-1.9,5.1-1.9
		c2.3,0,4.1,0.8,5.2,2.5C2184.3,73.8,2184.6,74.7,2184.6,75.7z M2179.3,76.5c0.6,0,1-0.3,1-0.8c0-0.4-0.1-0.7-0.4-0.9
		c-0.3-0.2-0.7-0.4-1.3-0.4c-0.5,0-1.1,0.2-1.6,0.7s-0.8,0.9-0.8,1.4C2176.2,76.5,2179.3,76.5,2179.3,76.5z"/>
	<path id="XMLID_41_" d="M2194.9,72.1c0.1-0.9,0.8-1.4,2-1.4c0.7,0,1.1,0.1,1.5,0.2c0.3,0.1,0.5,0.3,0.7,0.5
		c0.1,0.3,0.2,0.5,0.2,0.7s0,0.5,0,0.9v8.8c0,0.4,0,0.7,0,0.9s-0.1,0.4-0.2,0.7c-0.2,0.4-0.8,0.7-1.7,0.7c-0.9,0-1.5-0.1-1.8-0.3
		c-0.3-0.2-0.5-0.6-0.5-1c-0.6,0.9-1.7,1.3-3.1,1.3c-1.5,0-2.8-0.7-4.1-2c-1.2-1.3-1.9-2.9-1.9-4.6c0-1.8,0.6-3.3,1.9-4.6
		c1.3-1.3,2.6-2,4.1-2c0.6,0,1.1,0.1,1.6,0.3c0.5,0.2,0.8,0.4,1,0.6C2194.6,71.8,2194.8,71.9,2194.9,72.1z M2190.3,77.3
		c0,0.6,0.2,1.1,0.7,1.5c0.4,0.4,1,0.7,1.6,0.7c0.6,0,1.1-0.2,1.6-0.7c0.4-0.5,0.6-1,0.6-1.5s-0.2-1.1-0.6-1.5
		c-0.4-0.5-0.9-0.7-1.6-0.7c-0.7,0-1.2,0.2-1.6,0.7C2190.5,76.3,2190.3,76.8,2190.3,77.3z"/>
	<path id="XMLID_40_" d="M2210.2,65.1c0.1-0.2,0.3-0.4,0.7-0.5c0.3-0.1,0.7-0.2,1.3-0.2c0.6,0,1,0.1,1.3,0.2
		c0.3,0.1,0.5,0.3,0.7,0.5c0.1,0.3,0.2,0.5,0.2,0.7s0,0.5,0,0.9v15.1c0,0.4,0,0.7,0,0.9c0,0.2-0.1,0.4-0.2,0.6
		c-0.3,0.5-1,0.7-2.1,0.7c-1.2,0-1.8-0.4-2-1.2c-0.7,0.8-1.7,1.2-3,1.2c-1.5,0-2.9-0.7-4.1-2c-1.2-1.3-1.9-2.9-1.9-4.6
		c0-1.8,0.6-3.3,1.9-4.6c1.3-1.3,2.6-2,4.1-2c1.2,0,2.2,0.4,2.9,1.3v-5.3c0-0.4,0-0.7,0-0.9C2210,65.6,2210.1,65.4,2210.2,65.1z
		 M2206.1,78.9c0.4,0.5,1,0.7,1.6,0.7c0.6,0,1.1-0.2,1.6-0.7c0.4-0.5,0.6-1,0.6-1.5s-0.2-1.1-0.6-1.5c-0.4-0.4-0.9-0.7-1.6-0.7
		s-1.2,0.2-1.6,0.7c-0.4,0.5-0.6,1-0.6,1.5S2205.7,78.4,2206.1,78.9z"/>
	<path id="XMLID_39_" d="M2228.5,70.8c1,0.4,1.5,1,1.5,1.6c0,0.3-0.1,0.6-0.2,0.9c-0.1,0.3-0.2,0.4-0.2,0.4l-6.6,14.8
		c-0.1,0.3-0.2,0.6-0.3,0.7c-0.1,0.2-0.2,0.3-0.4,0.5c-0.2,0.2-0.5,0.2-0.8,0.2c-0.3,0-0.7-0.1-1.3-0.4c-1-0.4-1.5-1-1.5-1.6
		c0-0.4,0.8-2.3,2.4-5.8l-5-8.5c-0.3-0.6-0.5-1-0.5-1.2c0-0.5,0.5-1.1,1.4-1.6c0.6-0.3,1-0.5,1.3-0.5c0.3,0,0.6,0.1,0.8,0.2
		s0.3,0.3,0.4,0.4c0.1,0.1,0.6,0.9,1.4,2.3s1.6,2.7,2.4,4c0.1-0.3,0.5-1.3,1.4-3.1c0.8-1.8,1.3-2.8,1.3-2.9c0.1-0.1,0.2-0.3,0.3-0.4
		c0.2-0.3,0.5-0.4,0.9-0.4C2227.6,70.4,2228,70.6,2228.5,70.8z"/>
	<path id="XMLID_36_" d="M2245.5,75.1l-1.6-0.1v3.5c0,0.5,0.1,0.8,0.2,1c0.1,0.2,0.4,0.3,0.8,0.3s0.7,0,0.9,0c0.2,0,0.4,0.1,0.7,0.2
		c0.4,0.2,0.6,0.8,0.6,1.7c0,1.1-0.2,1.7-0.7,1.9c-0.3,0.1-0.5,0.2-0.7,0.2s-0.5,0-0.8,0c-1.8,0-3.1-0.4-4-1.2
		c-0.9-0.8-1.4-2.1-1.4-4v-3.7c-0.3,0.1-0.7,0.1-1,0.1c-0.4,0-0.7-0.1-0.9-0.4s-0.4-0.8-0.4-1.5s0-1.2,0.1-1.5
		c0.1-0.3,0.2-0.5,0.4-0.7c0.3-0.2,0.6-0.3,1-0.3l0.8,0.1v-2.6c0-0.4,0-0.7,0-0.9c0-0.2,0.1-0.4,0.2-0.6c0.2-0.4,0.9-0.6,1.9-0.6
		c1.1,0,1.8,0.3,2,0.9c0.1,0.3,0.1,0.7,0.1,1.3v2.5c0.7-0.1,1.3-0.1,1.7-0.1c0.4,0,0.7,0,0.9,0c0.2,0,0.4,0.1,0.7,0.2
		c0.4,0.2,0.7,0.9,0.7,1.9c0,1.1-0.2,1.7-0.7,1.9c-0.3,0.1-0.5,0.2-0.7,0.2C2246.1,74.8,2245.9,75.1,2245.5,75.1z"/>
	<path id="XMLID_35_" d="M2250.9,72.3c1.4-1.3,3-2,4.8-2s3.4,0.7,4.8,2c1.4,1.3,2.1,3,2.1,5c0,1.4-0.4,2.6-1.1,3.7
		c-0.7,1.1-1.6,1.9-2.6,2.4s-2.1,0.8-3.2,0.8c-1.1,0-2.2-0.3-3.2-0.8s-1.9-1.4-2.6-2.4c-0.7-1.1-1.1-2.3-1.1-3.6
		C2248.8,75.3,2249.5,73.7,2250.9,72.3z M2254,79.2c0.5,0.4,1.1,0.6,1.6,0.6s1.1-0.2,1.7-0.6c0.6-0.4,0.8-1,0.8-1.9
		c0-0.8-0.3-1.4-0.8-1.8s-1.1-0.6-1.7-0.6c-0.6,0-1.2,0.2-1.7,0.6s-0.8,1-0.8,1.9C2253.2,78.1,2253.5,78.7,2254,79.2z"/>
	<path id="XMLID_34_" d="M2064.5,113.1c-0.3-0.2-0.5-0.5-0.5-1c0-0.4,0.3-1.1,1-2c0.2-0.3,0.5-0.4,0.9-0.4s1,0.2,1.7,0.6
		c0.7,0.4,1.3,0.6,1.9,0.6c1,0,1.5-0.2,1.5-0.6c0-0.3-0.6-0.6-1.7-0.7c-1.1-0.2-2.1-0.5-3.2-1.2c-0.5-0.3-0.9-0.8-1.2-1.4
		c-0.3-0.6-0.5-1.4-0.5-2.3c0-2.7,1.8-4,5.5-4c1.2,0,2.4,0.3,3.7,0.9c0.6,0.3,0.9,0.6,0.9,1s-0.2,0.9-0.6,1.5s-0.7,0.9-1.1,0.9
		c-0.2,0-0.6-0.1-1.1-0.4c-0.5-0.3-1.1-0.4-1.8-0.4c-1,0-1.5,0.2-1.5,0.6c0,0.5,0.6,0.8,1.7,1c1.1,0.1,2.2,0.4,3.2,1
		c0.5,0.2,0.9,0.6,1.2,1.2c0.3,0.6,0.5,1.3,0.5,2.2s-0.2,1.6-0.5,2.2c-0.3,0.6-0.8,1.1-1.4,1.4c-1.1,0.5-2.4,0.8-4.1,0.8
		C2067.5,114.5,2066,114,2064.5,113.1z"/>
	<path id="XMLID_33_" d="M2084,105.4l-1.6-0.1v3.5c0,0.5,0.1,0.8,0.2,1c0.1,0.2,0.4,0.3,0.8,0.3s0.7,0,0.9,0c0.2,0,0.4,0.1,0.7,0.2
		c0.4,0.2,0.6,0.8,0.6,1.7c0,1.1-0.2,1.7-0.7,1.9c-0.3,0.1-0.5,0.2-0.7,0.2s-0.5,0-0.8,0c-1.8,0-3.1-0.4-4-1.2s-1.4-2.1-1.4-4v-3.7
		c-0.3,0.1-0.7,0.1-1,0.1c-0.4,0-0.7-0.1-0.9-0.4c-0.2-0.3-0.4-0.8-0.4-1.5s0-1.2,0.1-1.5c0.1-0.3,0.2-0.5,0.4-0.7
		c0.3-0.2,0.6-0.3,1-0.3l0.8,0.1v-2.5c0-0.4,0-0.7,0-0.9s0.1-0.4,0.2-0.6c0.2-0.4,0.9-0.6,1.9-0.6c1.1,0,1.8,0.3,2,0.9
		c0.1,0.3,0.1,0.7,0.1,1.3v2.5c0.7-0.1,1.3-0.1,1.7-0.1c0.4,0,0.7,0,0.9,0c0.2,0,0.4,0.1,0.7,0.2c0.4,0.2,0.7,0.9,0.7,1.9
		c0,1.1-0.2,1.7-0.7,1.9c-0.3,0.1-0.5,0.2-0.7,0.2C2084.6,105.2,2084.4,105.4,2084,105.4z"/>
	<path id="XMLID_13_" d="M2096.3,102.4c0.1-0.9,0.8-1.4,2-1.4c0.7,0,1.1,0.1,1.5,0.2c0.3,0.1,0.5,0.3,0.7,0.5
		c0.1,0.3,0.2,0.5,0.2,0.7s0,0.5,0,0.9v8.8c0,0.4,0,0.7,0,0.9s-0.1,0.4-0.2,0.7c-0.2,0.4-0.8,0.7-1.7,0.7c-0.9,0-1.5-0.1-1.8-0.3
		c-0.3-0.2-0.5-0.6-0.5-1c-0.6,0.9-1.7,1.3-3.1,1.3c-1.5,0-2.8-0.7-4.1-2c-1.2-1.3-1.9-2.9-1.9-4.6c0-1.8,0.6-3.3,1.9-4.6
		c1.3-1.3,2.6-2,4.1-2c0.6,0,1.1,0.1,1.6,0.3s0.8,0.4,1,0.6C2096,102.1,2096.2,102.2,2096.3,102.4z M2091.7,107.6
		c0,0.6,0.2,1.1,0.7,1.5c0.4,0.4,1,0.7,1.6,0.7c0.6,0,1.1-0.2,1.6-0.7c0.4-0.5,0.6-1,0.6-1.5s-0.2-1.1-0.6-1.5
		c-0.4-0.5-0.9-0.7-1.6-0.7c-0.7,0-1.2,0.2-1.6,0.7C2091.9,106.6,2091.7,107.1,2091.7,107.6z"/>
	<path id="XMLID_8_" d="M2111.7,101.1c0.3,0.1,0.6,0.3,0.8,0.5c0.2,0.2,0.3,0.6,0.3,1.2c0,0.5-0.2,1.1-0.5,1.8c-0.3,0.6-0.8,1-1.4,1
		c-0.3,0-0.6-0.1-0.9-0.2c-0.3-0.1-0.6-0.2-1.1-0.2s-0.9,0.2-1.3,0.5c-0.4,0.3-0.6,0.7-0.6,1.2v5.3c0,0.4,0,0.7,0,0.9
		s-0.1,0.4-0.2,0.7c-0.3,0.4-0.9,0.7-2,0.7c-0.8,0-1.4-0.1-1.7-0.4c-0.3-0.2-0.4-0.6-0.5-1.1c0-0.2,0-0.4,0-0.7v-8.9
		c0-0.4,0-0.7,0-0.9s0.1-0.4,0.2-0.6c0.2-0.5,0.9-0.7,2-0.7c1,0,1.6,0.2,1.9,0.6c0.2,0.3,0.3,0.5,0.3,0.8c0.1-0.1,0.2-0.3,0.4-0.4
		c0.2-0.2,0.5-0.4,1-0.7s1-0.4,1.4-0.4c0.4,0,0.7,0,1,0.1C2111.1,101,2111.4,101,2111.7,101.1z"/>
	<path id="XMLID_7_" d="M2122,105.4l-1.6-0.1v3.5c0,0.5,0.1,0.8,0.2,1c0.1,0.2,0.4,0.3,0.8,0.3s0.7,0,0.9,0c0.2,0,0.4,0.1,0.7,0.2
		c0.4,0.2,0.6,0.8,0.6,1.7c0,1.1-0.2,1.7-0.7,1.9c-0.3,0.1-0.5,0.2-0.7,0.2s-0.5,0-0.8,0c-1.8,0-3.1-0.4-4-1.2s-1.4-2.1-1.4-4v-3.7
		c-0.3,0.1-0.7,0.1-1,0.1c-0.4,0-0.7-0.1-0.9-0.4c-0.2-0.3-0.4-0.8-0.4-1.5s0-1.2,0.1-1.5c0.1-0.3,0.2-0.5,0.4-0.7
		c0.3-0.2,0.6-0.3,1-0.3l0.8,0.1v-2.5c0-0.4,0-0.7,0-0.9s0.1-0.4,0.2-0.6c0.2-0.4,0.9-0.6,1.9-0.6c1.1,0,1.8,0.3,2,0.9
		c0.1,0.3,0.1,0.7,0.1,1.3v2.5c0.7-0.1,1.3-0.1,1.7-0.1c0.4,0,0.7,0,0.9,0c0.2,0,0.4,0.1,0.7,0.2c0.4,0.2,0.7,0.9,0.7,1.9
		c0,1.1-0.2,1.7-0.7,1.9c-0.3,0.1-0.5,0.2-0.7,0.2C2122.6,105.2,2122.3,105.4,2122,105.4z"/>
	<path id="XMLID_6_" d="M2144.3,101.1c1,0.4,1.5,1,1.5,1.6c0,0.3-0.1,0.6-0.2,0.9c-0.1,0.3-0.2,0.4-0.2,0.4l-6.6,14.8
		c-0.1,0.3-0.2,0.6-0.3,0.7c-0.1,0.2-0.2,0.3-0.4,0.5s-0.5,0.2-0.8,0.2c-0.3,0-0.7-0.1-1.3-0.4c-1-0.4-1.5-1-1.5-1.6
		c0-0.4,0.8-2.3,2.4-5.8l-5-8.5c-0.3-0.6-0.5-1-0.5-1.2c0-0.5,0.5-1.1,1.4-1.6c0.6-0.3,1-0.5,1.3-0.5s0.6,0.1,0.8,0.2
		c0.2,0.1,0.3,0.3,0.4,0.4c0.1,0.1,0.6,0.9,1.4,2.3c0.8,1.4,1.6,2.7,2.4,4c0.1-0.3,0.5-1.3,1.4-3.1c0.8-1.8,1.3-2.8,1.3-2.9
		c0.1-0.1,0.2-0.3,0.3-0.4c0.2-0.3,0.5-0.4,0.9-0.4C2143.4,100.7,2143.8,100.9,2144.3,101.1z"/>
	<path id="XMLID_5_" d="M2148.9,102.6c1.4-1.3,3-2,4.8-2s3.4,0.7,4.8,2c1.4,1.3,2.1,3,2.1,5c0,1.4-0.4,2.6-1.1,3.7
		c-0.7,1.1-1.6,1.9-2.6,2.4s-2.1,0.8-3.2,0.8c-1.1,0-2.2-0.3-3.2-0.8s-1.9-1.4-2.6-2.4c-0.7-1.1-1.1-2.3-1.1-3.6
		C2146.8,105.6,2147.5,104,2148.9,102.6z M2152.1,109.5c0.5,0.4,1.1,0.6,1.6,0.6s1.1-0.2,1.7-0.6c0.6-0.4,0.8-1,0.8-1.9
		c0-0.8-0.3-1.4-0.8-1.8c-0.5-0.4-1.1-0.6-1.7-0.6c-0.6,0-1.2,0.2-1.7,0.6c-0.5,0.4-0.8,1-0.8,1.9
		C2151.3,108.4,2151.6,109,2152.1,109.5z"/>
	<path id="XMLID_166_" d="M2168.3,114.2c-1.7,0-3.1-0.6-4.2-1.9c-1.1-1.3-1.7-2.9-1.7-4.7v-4.4c0-0.4,0-0.7,0-0.9s0.1-0.4,0.2-0.7
		c0.2-0.5,0.9-0.7,2-0.7c1.2,0,1.9,0.3,2.1,1c0.1,0.3,0.2,0.7,0.2,1.3v4.4c0,0.7,0.2,1.2,0.6,1.6c0.4,0.4,0.9,0.6,1.6,0.6
		c0.7,0,1.2-0.2,1.6-0.6c0.4-0.4,0.6-0.9,0.6-1.6v-4.5c0-0.4,0-0.7,0-0.9s0.1-0.4,0.2-0.7c0.2-0.4,0.9-0.7,1.9-0.7
		c1.1,0,1.7,0.2,1.9,0.7c0.1,0.3,0.2,0.5,0.2,0.7s0,0.5,0,0.9v8.9c0,0.4,0,0.7,0,0.8c0,0.2-0.1,0.4-0.2,0.6
		c-0.3,0.4-0.9,0.7-1.9,0.7s-1.7-0.2-1.9-0.6c-0.2-0.3-0.3-0.6-0.3-1c-0.1,0.1-0.2,0.3-0.5,0.5c-0.2,0.2-0.5,0.4-0.7,0.6
		C2169.6,114.1,2168.9,114.2,2168.3,114.2z"/>
	<path id="XMLID_168_" d="M2186.7,101.1c0.3,0.1,0.6,0.3,0.8,0.5c0.2,0.2,0.3,0.6,0.3,1.2c0,0.5-0.2,1.1-0.5,1.8
		c-0.3,0.6-0.8,1-1.4,1c-0.3,0-0.6-0.1-0.9-0.2c-0.3-0.1-0.6-0.2-1.1-0.2s-0.9,0.2-1.3,0.5c-0.4,0.3-0.6,0.7-0.6,1.2v5.3
		c0,0.4,0,0.7,0,0.9s-0.1,0.4-0.2,0.7c-0.3,0.4-0.9,0.7-2,0.7c-0.8,0-1.4-0.1-1.7-0.4c-0.3-0.2-0.4-0.6-0.5-1.1c0-0.2,0-0.4,0-0.7
		v-8.9c0-0.4,0-0.7,0-0.9s0.1-0.4,0.2-0.6c0.2-0.5,0.9-0.7,2-0.7c1,0,1.6,0.2,1.9,0.6c0.2,0.3,0.3,0.5,0.3,0.8
		c0.1-0.1,0.2-0.3,0.4-0.4c0.2-0.2,0.5-0.4,1-0.7s1-0.4,1.4-0.4c0.4,0,0.7,0,1,0.1C2186.1,101,2186.4,101,2186.7,101.1z"/>
	<path id="XMLID_170_" d="M2196.5,101.1c0.3-0.1,0.7-0.2,1.3-0.2c0.5,0,0.9,0.1,1.2,0.2c0.3,0.1,0.5,0.3,0.6,0.5
		c0.1,0.2,0.2,0.5,0.2,0.7s0,0.5,0,0.9v10.3c0,2-0.7,3.5-2,4.7c-1.3,1.2-2.9,1.8-4.5,1.8c-0.4,0-0.7,0-0.9,0s-0.4-0.1-0.6-0.2
		c-0.4-0.2-0.7-0.9-0.7-1.8c0-1,0.2-1.6,0.5-1.9c0.3-0.3,0.9-0.4,1.5-0.4c0.6,0,1.2-0.2,1.6-0.5c0.5-0.3,0.7-0.9,0.7-1.8V103
		c0-0.6,0.1-1,0.2-1.3C2195.7,101.4,2196.2,101.2,2196.5,101.1z M2199,99c-0.3,0.1-0.7,0.1-1.3,0.1c-0.6,0-0.9-0.1-1.2-0.2
		s-0.5-0.3-0.6-0.5s-0.2-0.5-0.2-0.7s0-0.5,0-0.9s0-0.7,0-0.9s0.1-0.4,0.2-0.6c0.2-0.4,0.9-0.7,1.9-0.7s1.6,0.2,1.9,0.7
		c0.1,0.2,0.2,0.4,0.2,0.6s0,0.5,0,0.8v0.2c0,0.4,0,0.6,0,0.8s-0.1,0.4-0.2,0.6C2199.6,98.5,2199.3,98.9,2199,99z"/>
	<path id="XMLID_173_" d="M2203.7,102.6c1.4-1.3,3-2,4.8-2c1.8,0,3.4,0.7,4.8,2c1.4,1.3,2.1,3,2.1,5c0,1.4-0.4,2.6-1.1,3.7
		c-0.7,1.1-1.6,1.9-2.6,2.4s-2.1,0.8-3.2,0.8c-1.1,0-2.2-0.3-3.2-0.8s-1.9-1.4-2.6-2.4c-0.7-1.1-1.1-2.3-1.1-3.6
		C2201.6,105.6,2202.3,104,2203.7,102.6z M2206.8,109.5c0.5,0.4,1.1,0.6,1.6,0.6s1.1-0.2,1.7-0.6c0.6-0.4,0.8-1,0.8-1.9
		c0-0.8-0.3-1.4-0.8-1.8c-0.5-0.4-1.1-0.6-1.7-0.6s-1.2,0.2-1.7,0.6c-0.5,0.4-0.8,1-0.8,1.9C2206,108.4,2206.3,109,2206.8,109.5z"/>
	<path id="XMLID_176_" d="M2223,114.2c-1.7,0-3.1-0.6-4.2-1.9c-1.1-1.3-1.7-2.9-1.7-4.7v-4.4c0-0.4,0-0.7,0-0.9s0.1-0.4,0.2-0.7
		c0.2-0.5,0.9-0.7,2-0.7c1.2,0,1.9,0.3,2.1,1c0.1,0.3,0.2,0.7,0.2,1.3v4.4c0,0.7,0.2,1.2,0.6,1.6c0.4,0.4,0.9,0.6,1.6,0.6
		c0.7,0,1.2-0.2,1.6-0.6c0.4-0.4,0.6-0.9,0.6-1.6v-4.5c0-0.4,0-0.7,0-0.9s0.1-0.4,0.2-0.7c0.2-0.4,0.9-0.7,1.9-0.7
		c1.1,0,1.7,0.2,1.9,0.7c0.1,0.3,0.2,0.5,0.2,0.7s0,0.5,0,0.9v8.9c0,0.4,0,0.7,0,0.8c0,0.2-0.1,0.4-0.2,0.6
		c-0.3,0.4-0.9,0.7-1.9,0.7s-1.7-0.2-1.9-0.6c-0.2-0.3-0.3-0.6-0.3-1c-0.1,0.1-0.2,0.3-0.5,0.5c-0.2,0.2-0.5,0.4-0.7,0.6
		C2224.3,114.1,2223.7,114.2,2223,114.2z"/>
	<path id="XMLID_178_" d="M2241.4,101.1c0.3,0.1,0.6,0.3,0.8,0.5s0.3,0.6,0.3,1.2c0,0.5-0.2,1.1-0.5,1.8c-0.3,0.6-0.8,1-1.4,1
		c-0.3,0-0.6-0.1-0.9-0.2s-0.6-0.2-1.1-0.2s-0.9,0.2-1.3,0.5c-0.4,0.3-0.6,0.7-0.6,1.2v5.3c0,0.4,0,0.7,0,0.9s-0.1,0.4-0.2,0.7
		c-0.3,0.4-0.9,0.7-2,0.7c-0.8,0-1.4-0.1-1.7-0.4c-0.3-0.2-0.4-0.6-0.5-1.1c0-0.2,0-0.4,0-0.7v-8.9c0-0.4,0-0.7,0-0.9
		s0.1-0.4,0.2-0.6c0.2-0.5,0.9-0.7,2-0.7c1,0,1.6,0.2,1.9,0.6c0.2,0.3,0.3,0.5,0.3,0.8c0.1-0.1,0.2-0.3,0.4-0.4
		c0.2-0.2,0.5-0.4,1-0.7s1-0.4,1.4-0.4c0.4,0,0.7,0,1,0.1C2240.8,101,2241.1,101,2241.4,101.1z"/>
	<path id="XMLID_180_" d="M2251.3,101c1.7,0,3.1,0.6,4.2,1.9c1.1,1.3,1.7,2.9,1.7,4.7v4.4c0,0.4,0,0.7,0,0.9s-0.1,0.4-0.2,0.6
		c-0.2,0.5-0.9,0.7-2,0.7c-1.2,0-1.9-0.3-2.1-0.9c-0.1-0.3-0.2-0.7-0.2-1.3v-4.4c0-0.7-0.2-1.2-0.6-1.6c-0.4-0.4-0.9-0.6-1.6-0.6
		c-0.7,0-1.2,0.2-1.6,0.6c-0.4,0.4-0.6,0.9-0.6,1.6v4.5c0,0.4,0,0.7,0,0.9s-0.1,0.4-0.2,0.6c-0.2,0.5-0.9,0.7-1.9,0.7
		c-1.1,0-1.7-0.2-1.9-0.7c-0.1-0.3-0.2-0.5-0.2-0.7s0-0.5,0-0.9v-8.9c0-0.4,0-0.7,0-0.8c0-0.2,0.1-0.4,0.2-0.6
		c0.2-0.4,0.9-0.6,1.9-0.6s1.7,0.2,1.9,0.6c0.2,0.3,0.3,0.6,0.3,1c0.1-0.1,0.2-0.3,0.5-0.5c0.2-0.2,0.5-0.4,0.7-0.5
		C2250,101.2,2250.6,101,2251.3,101z"/>
	<path id="XMLID_182_" d="M2272.1,106c0,1-0.3,1.8-0.8,2.3s-1.1,0.7-1.7,0.7h-6c0,0.5,0.3,0.9,0.8,1.2c0.6,0.3,1.1,0.5,1.7,0.5
		c1,0,1.7-0.1,2.3-0.3l0.3-0.1c0.4-0.2,0.7-0.3,1-0.3c0.5,0,1,0.4,1.4,1.1c0.2,0.5,0.3,0.8,0.3,1.2c0,1.5-1.8,2.2-5.4,2.2
		c-1.2,0-2.4-0.2-3.3-0.6c-1-0.4-1.7-1-2.3-1.7c-1.1-1.4-1.6-2.9-1.6-4.6c0-2.1,0.7-3.8,2.1-5.1s3.1-1.9,5.1-1.9
		c2.3,0,4.1,0.8,5.2,2.5C2271.8,104.1,2272.1,105,2272.1,106z M2266.7,106.8c0.6,0,1-0.3,1-0.8c0-0.4-0.1-0.7-0.4-0.9
		c-0.3-0.2-0.7-0.4-1.3-0.4c-0.5,0-1.1,0.2-1.6,0.7s-0.8,0.9-0.8,1.4H2266.7z"/>
	<path id="XMLID_185_" d="M2285.3,101.1c1,0.4,1.5,1,1.5,1.6c0,0.3-0.1,0.6-0.2,0.9c-0.1,0.3-0.2,0.4-0.2,0.4l-6.6,14.8
		c-0.1,0.3-0.2,0.6-0.3,0.7c-0.1,0.2-0.2,0.3-0.4,0.5s-0.5,0.2-0.8,0.2c-0.3,0-0.7-0.1-1.3-0.4c-1-0.4-1.5-1-1.5-1.6
		c0-0.4,0.8-2.3,2.4-5.8l-5-8.5c-0.3-0.6-0.5-1-0.5-1.2c0-0.5,0.5-1.1,1.4-1.6c0.6-0.3,1-0.5,1.3-0.5s0.6,0.1,0.8,0.2
		c0.2,0.1,0.3,0.3,0.4,0.4c0.1,0.1,0.6,0.9,1.4,2.3c0.8,1.4,1.6,2.7,2.4,4c0.1-0.3,0.5-1.3,1.4-3.1c0.8-1.8,1.3-2.8,1.3-2.9
		c0.1-0.1,0.2-0.3,0.3-0.4c0.2-0.3,0.5-0.4,0.9-0.4C2284.4,100.7,2284.8,100.9,2285.3,101.1z"/>
	<path id="XMLID_187_" d="M2291.6,105.8v-0.2c0-0.7,0.2-1.3,0.6-1.7c0.4-0.4,0.9-0.7,1.4-0.8s0.9-0.4,1.4-0.7
		c0.4-0.3,0.6-0.8,0.6-1.3s-0.2-1-0.5-1.3s-0.8-0.5-1.4-0.5c-0.6,0-1.1,0.1-1.4,0.3s-0.5,0.4-0.5,0.6l-0.1,0.3
		c-0.2,0.4-0.3,0.8-0.5,1c-0.2,0.2-0.5,0.3-0.8,0.3s-0.7-0.1-1.3-0.3c-1-0.4-1.5-0.9-1.5-1.4c0-0.3,0.1-0.5,0.2-0.8
		c0.1-0.3,0.2-0.5,0.3-0.7c0.1-0.2,0.2-0.5,0.5-0.9s0.6-0.8,1-1.1c0.4-0.3,0.9-0.6,1.6-0.9c0.7-0.3,1.5-0.4,2.3-0.4
		c1.8,0,3.2,0.6,4.4,1.7c1.1,1.1,1.7,2.5,1.7,4c0,0.7-0.1,1.4-0.4,2s-0.6,1.1-0.9,1.5c-0.7,0.7-1.4,1.2-2.1,1.4l-0.4,0.1
		c0,0.3,0,0.5,0,0.7s-0.1,0.3-0.2,0.5s-0.3,0.3-0.6,0.4c-0.3,0.1-0.7,0.1-1.2,0.1s-0.9,0-1.2-0.1s-0.5-0.2-0.6-0.4
		c-0.1-0.2-0.2-0.4-0.2-0.5C2291.6,106.4,2291.6,106.2,2291.6,105.8z M2291.5,110.3c0.1-0.3,0.4-0.5,0.7-0.6s0.9-0.2,1.6-0.2
		c0.7,0,1.3,0.2,1.6,0.5s0.5,1,0.5,1.9c0,0.7-0.1,1.2-0.3,1.5s-0.4,0.5-0.8,0.7c-0.4,0.2-0.9,0.2-1.6,0.2s-1.3-0.2-1.7-0.5
		c-0.3-0.3-0.4-0.8-0.4-1.5v-0.4c0-0.4,0-0.7,0-0.9S2291.3,110.6,2291.5,110.3z"/>
</g>
</svg>
