<?xml version="1.0" encoding="utf-8"?>
<!-- Generator: Adobe Illustrator 19.0.0, SVG Export Plug-In . SVG Version: 6.00 Build 0)  -->
<svg version="1.1" id="Content" xmlns="http://www.w3.org/2000/svg" xmlns:xlink="http://www.w3.org/1999/xlink" x="0px" y="0px"
	 viewBox="539 -242.7 1920 1080" style="enable-background:new 539 -242.7 1920 1080;" xml:space="preserve">
<style type="text/css">
	.st0{fill:#FFF6C7;}
	.st1{fill:#020202;}
	.st2{fill:#091318;}
	.st3{fill:url(#XMLID_186_);}
	.st4{fill:url(#XMLID_188_);}
	.st5{fill:url(#XMLID_189_);}
	.st6{fill:url(#XMLID_190_);}
	.st7{fill:url(#XMLID_191_);}
	.st8{fill:url(#XMLID_192_);}
	.st9{fill:url(#XMLID_193_);}
	.st10{fill:url(#XMLID_194_);}
	.st11{opacity:0.41;fill:url(#XMLID_195_);enable-background:new    ;}
	.st12{opacity:0.41;fill:url(#XMLID_196_);enable-background:new    ;}
	.st13{opacity:0.41;fill:url(#XMLID_197_);enable-background:new    ;}
	.st14{opacity:0.41;fill:url(#XMLID_198_);enable-background:new    ;}
	.st15{opacity:0.41;}
	.st16{fill:#FFF6C8;}
	.st17{opacity:0.21;}
	.st18{fill:#47665A;}
	.st19{fill:#FDFDFE;}
	.st20{fill:url(#XMLID_199_);}
	.st21{opacity:0.82;fill:#FFFFFF;enable-background:new    ;}
	.st22{font-family:'Poppins-Bold';}
	.st23{font-size:161.9177px;}
	.st24{fill:url(#Circle_1_);}
	.st25{fill:#D6D6D6;}
	.st26{fill:#43B49F;}
	.st27{fill:#878787;}
	.st28{fill:#3A3A3A;}
	.st29{fill:#3A3850;}
	.st30{fill:#827DA3;}
	.st31{fill:#3C53A4;}
	.st32{fill:#D71F26;}
</style>
<symbol  id="sparkle" viewBox="-5.5 -5.5 11 11">
	<path id="XMLID_3_" class="st0" d="M4.8,0.7H0.7v4.1c0,0.4-0.3,0.7-0.7,0.7s-0.7-0.3-0.7-0.7V0.7h-4.1c-0.4,0-0.7-0.3-0.7-0.7
		s0.3-0.7,0.7-0.7h4.1v-4.1c0-0.4,0.3-0.7,0.7-0.7s0.7,0.3,0.7,0.7v4.1h4.1c0.4,0,0.7,0.3,0.7,0.7S5.1,0.7,4.8,0.7z"/>
</symbol>
<symbol  id="stars" viewBox="-4.3 -3.8 8.6 7.6">
	<path id="XMLID_2_" class="st0" d="M4.3,0c0-2.1-1.9-3.8-4.3-3.8S-4.3-2.1-4.3,0S-2.4,3.8,0,3.8S4.3,2.1,4.3,0z"/>
</symbol>
<g id="XMLID_125_">
	<path id="XMLID_152_" class="st1" d="M911.2-122.4c1.9-28.5-18.5-54-47.2-58c-29-4-55.8,15.4-61.4,43.7
		C837.8-126.7,874.8-125.1,911.2-122.4z"/>
</g>
<rect id="XMLID_38_" x="539" y="-242.7" class="st2" width="1923.3" height="1085"/>
<use xlink:href="#stars"  width="8.6" height="7.6" id="XMLID_99_" x="-4.3" y="-3.8" transform="matrix(1 0 0 -1 585.5653 425.6146)" style="overflow:visible;"/>
<use xlink:href="#stars"  width="8.6" height="7.6" id="XMLID_98_" x="-4.3" y="-3.8" transform="matrix(1 0 0 -1 744.1188 475.7897)" style="overflow:visible;enable-background:new    ;"/>
<use xlink:href="#stars"  width="8.6" height="7.6" id="XMLID_97_" x="-4.3" y="-3.8" transform="matrix(1 0 0 -1 744.1188 -15.8332)" style="overflow:visible;enable-background:new    ;"/>
<use xlink:href="#stars"  width="8.6" height="7.6" id="XMLID_96_" x="-4.3" y="-3.8" transform="matrix(1 0 0 -1 1855.1193 770.6043)" style="overflow:visible;enable-background:new    ;"/>
<use xlink:href="#stars"  width="8.6" height="7.6" id="XMLID_95_" x="-4.3" y="-3.8" transform="matrix(1 0 0 -1 1533.7144 461.0728)" style="overflow:visible;enable-background:new    ;"/>
<use xlink:href="#stars"  width="8.6" height="7.6" id="XMLID_94_" x="-4.3" y="-3.8" transform="matrix(1 0 0 -1 641.9167 618.8953)" style="overflow:visible;enable-background:new    ;"/>
<use xlink:href="#stars"  width="8.6" height="7.6" id="XMLID_92_" x="-4.3" y="-3.8" transform="matrix(1 0 0 -1 1298.1669 -58.9992)" style="overflow:visible;enable-background:new    ;"/>
<use xlink:href="#stars"  width="8.6" height="7.6" id="XMLID_91_" x="-4.3" y="-3.8" transform="matrix(1 0 0 -1 1590.1206 -161.1861)" style="overflow:visible;enable-background:new    ;"/>
<use xlink:href="#stars"  width="8.6" height="7.6" id="XMLID_90_" x="-4.3" y="-3.8" transform="matrix(1 0 0 -1 1968.2909 41.6348)" style="overflow:visible;enable-background:new    ;"/>
<use xlink:href="#stars"  width="8.6" height="7.6" id="XMLID_89_" x="-4.3" y="-3.8" transform="matrix(1 0 0 -1 1555.8918 718.3131)" style="overflow:visible;enable-background:new    ;"/>
<use xlink:href="#stars"  width="8.6" height="7.6" id="XMLID_88_" x="-4.3" y="-3.8" transform="matrix(1 0 0 -1 1842.1835 639.7349)" style="overflow:visible;enable-background:new    ;"/>
<use xlink:href="#stars"  width="8.6" height="7.6" id="XMLID_87_" x="-4.3" y="-3.8" transform="matrix(1 0 0 -1 2098.6641 683.6306)" style="overflow:visible;enable-background:new    ;"/>
<use xlink:href="#stars"  width="8.6" height="7.6" id="XMLID_86_" x="-4.3" y="-3.8" transform="matrix(1 0 0 -1 2259.1335 454.5618)" style="overflow:visible;enable-background:new    ;"/>
<use xlink:href="#stars"  width="8.6" height="7.6" id="XMLID_85_" x="-4.3" y="-3.8" transform="matrix(1 0 0 -1 2281.4531 75.6045)" style="overflow:visible;enable-background:new    ;"/>
<use xlink:href="#stars"  width="8.6" height="7.6" id="XMLID_84_" x="-4.3" y="-3.8" transform="matrix(1 0 0 -1 2351.5291 198.2654)" style="overflow:visible;enable-background:new    ;"/>
<use xlink:href="#stars"  width="8.6" height="7.6" id="XMLID_83_" x="-4.3" y="-3.8" transform="matrix(1 0 0 -1 2353.2686 597.064)" style="overflow:visible;enable-background:new    ;"/>
<use xlink:href="#stars"  width="8.6" height="7.6" id="XMLID_82_" x="-4.3" y="-3.8" transform="matrix(1 0 0 -1 2176.626 103.9656)" style="overflow:visible;enable-background:new    ;"/>
<use xlink:href="#stars"  width="8.6" height="7.6" id="XMLID_81_" x="-4.3" y="-3.8" transform="matrix(1 0 0 -1 2102.5059 -91.1413)" style="overflow:visible;enable-background:new    ;"/>
<use xlink:href="#stars"  width="8.6" height="7.6" id="XMLID_80_" x="-4.3" y="-3.8" transform="matrix(1 0 0 -1 2239.2029 -89.0994)" style="overflow:visible;enable-background:new    ;"/>
<use xlink:href="#stars"  width="8.6" height="7.6" id="XMLID_79_" x="-4.3" y="-3.8" transform="matrix(1 0 0 -1 1880.0392 -69.0208)" style="overflow:visible;enable-background:new    ;"/>
<use xlink:href="#stars"  width="8.6" height="7.6" id="XMLID_78_" x="-4.3" y="-3.8" transform="matrix(1 0 0 -1 1570.3699 261.9651)" style="overflow:visible;enable-background:new    ;"/>
<use xlink:href="#stars"  width="8.6" height="7.6" id="XMLID_77_" x="-4.3" y="-3.8" transform="matrix(1 0 0 -1 2058.7007 482.583)" style="overflow:visible;enable-background:new    ;"/>
<use xlink:href="#stars"  width="8.6" height="7.6" id="XMLID_76_" x="-4.3" y="-3.8" transform="matrix(1 0 0 -1 1613.3608 37.8199)" style="overflow:visible;enable-background:new    ;"/>
<use xlink:href="#stars"  width="8.6" height="7.6" id="XMLID_75_" x="-4.3" y="-3.8" transform="matrix(1 0 0 -1 1237.4805 -131.6518)" style="overflow:visible;enable-background:new    ;"/>
<use xlink:href="#stars"  width="8.6" height="7.6" id="XMLID_74_" x="-4.3" y="-3.8" transform="matrix(1 0 0 -1 821.576 50.7871)" style="overflow:visible;enable-background:new    ;"/>
<use xlink:href="#stars"  width="8.6" height="7.6" id="XMLID_73_" x="-4.3" y="-3.8" transform="matrix(1 0 0 -1 1127.551 337.578)" style="overflow:visible;enable-background:new    ;"/>
<use xlink:href="#stars"  width="8.6" height="7.6" id="XMLID_71_" x="-4.3" y="-3.8" transform="matrix(1 0 0 -1 1608.9812 340.2703)" style="overflow:visible;enable-background:new    ;"/>
<use xlink:href="#stars"  width="8.6" height="7.6" id="XMLID_70_" x="-4.3" y="-3.8" transform="matrix(1 0 0 -1 599.898 -38.8242)" style="overflow:visible;enable-background:new    ;"/>
<use xlink:href="#stars"  width="8.6" height="7.6" id="XMLID_69_" x="-4.3" y="-3.8" transform="matrix(1 0 0 -1 1290.1588 51.8348)" style="overflow:visible;enable-background:new    ;"/>
<use xlink:href="#stars"  width="8.6" height="7.6" id="XMLID_68_" x="-4.3" y="-3.8" transform="matrix(1 0 0 -1 1197.2371 540.5225)" style="overflow:visible;enable-background:new    ;"/>
<use xlink:href="#stars"  width="8.6" height="7.6" id="XMLID_66_" x="-4.3" y="-3.8" transform="matrix(1 0 0 -1 728.861 693.3083)" style="overflow:visible;enable-background:new    ;"/>
<use xlink:href="#stars"  width="8.6" height="7.6" id="XMLID_65_" x="-4.3" y="-3.8" transform="matrix(1 0 0 -1 641.9167 190.2725)" style="overflow:visible;enable-background:new    ;"/>
<use xlink:href="#stars"  width="8.6" height="7.6" id="XMLID_63_" x="-4.3" y="-3.8" transform="matrix(1 0 0 -1 901.3213 351.7963)" style="overflow:visible;enable-background:new    ;"/>
<use xlink:href="#stars"  width="8.6" height="7.6" id="XMLID_62_" x="-4.3" y="-3.8" transform="matrix(1 0 0 -1 1143.6439 89.5019)" style="overflow:visible;enable-background:new    ;"/>
<use xlink:href="#stars"  width="8.6" height="7.6" id="XMLID_58_" x="-4.3" y="-3.8" transform="matrix(1 0 0 -1 1337.25 418.4722)" style="overflow:visible;enable-background:new    ;"/>
<use xlink:href="#stars"  width="8.6" height="7.6" id="XMLID_55_" x="-4.3" y="-3.8" transform="matrix(1 0 0 -1 1724.1113 770.4394)" style="overflow:visible;enable-background:new    ;"/>
<use xlink:href="#sparkle"  width="11" height="11" id="XMLID_133_" x="-5.5" y="-5.5" transform="matrix(0.9818 0 0 -0.9818 704.9851 485.3339)" style="overflow:visible;"/>
<use xlink:href="#sparkle"  width="11" height="11" id="XMLID_132_" x="-5.5" y="-5.5" transform="matrix(0.9818 0 0 -0.9818 1023.2461 -150.6971)" style="overflow:visible;enable-background:new    ;"/>
<use xlink:href="#sparkle"  width="11" height="11" id="XMLID_131_" x="-5.5" y="-5.5" transform="matrix(0.9818 0 0 -0.9818 1525.252 -107.6825)" style="overflow:visible;enable-background:new    ;"/>
<use xlink:href="#sparkle"  width="11" height="11" id="XMLID_130_" x="-5.5" y="-5.5" transform="matrix(0.9818 0 0 -0.9818 1961.9098 -21.2495)" style="overflow:visible;enable-background:new    ;"/>
<use xlink:href="#sparkle"  width="11" height="11" id="XMLID_129_" x="-5.5" y="-5.5" transform="matrix(0.9818 0 0 -0.9818 2158.3733 64.99)" style="overflow:visible;enable-background:new    ;"/>
<use xlink:href="#sparkle"  width="11" height="11" id="XMLID_128_" x="-5.5" y="-5.5" transform="matrix(0.9818 0 0 -0.9818 2339.0225 -27.0412)" style="overflow:visible;enable-background:new    ;"/>
<use xlink:href="#sparkle"  width="11" height="11" id="XMLID_127_" x="-5.5" y="-5.5" transform="matrix(0.9818 0 0 -0.9818 2336.781 -150.0485)" style="overflow:visible;enable-background:new    ;"/>
<use xlink:href="#sparkle"  width="11" height="11" id="XMLID_126_" x="-5.5" y="-5.5" transform="matrix(0.9818 0 0 -0.9818 2010.1812 -142.2479)" style="overflow:visible;enable-background:new    ;"/>
<use xlink:href="#sparkle"  width="11" height="11" id="XMLID_124_" x="-5.5" y="-5.5" transform="matrix(0.9818 0 0 -0.9818 689.6037 -119.9822)" style="overflow:visible;enable-background:new    ;"/>
<use xlink:href="#sparkle"  width="11" height="11" id="XMLID_123_" x="-5.5" y="-5.5" transform="matrix(0.9818 0 0 -0.9818 630.6979 85.5456)" style="overflow:visible;enable-background:new    ;"/>
<use xlink:href="#sparkle"  width="11" height="11" id="XMLID_122_" x="-5.5" y="-5.5" transform="matrix(0.9818 0 0 -0.9818 606.9252 -170.3095)" style="overflow:visible;enable-background:new    ;"/>
<use xlink:href="#sparkle"  width="11" height="11" id="XMLID_121_" x="-5.5" y="-5.5" transform="matrix(0.9818 0 0 -0.9818 2088.7251 242.9452)" style="overflow:visible;enable-background:new    ;"/>
<use xlink:href="#sparkle"  width="11" height="11" id="XMLID_120_" x="-5.5" y="-5.5" transform="matrix(0.9818 0 0 -0.9818 1696.2499 195.6892)" style="overflow:visible;enable-background:new    ;"/>
<use xlink:href="#sparkle"  width="11" height="11" id="XMLID_119_" x="-5.5" y="-5.5" transform="matrix(0.9818 0 0 -0.9818 1075.4149 19.2075)" style="overflow:visible;enable-background:new    ;"/>
<use xlink:href="#sparkle"  width="11" height="11" id="XMLID_118_" x="-5.5" y="-5.5" transform="matrix(0.9818 0 0 -0.9818 1124.0135 -77.9839)" style="overflow:visible;enable-background:new    ;"/>
<use xlink:href="#sparkle"  width="11" height="11" id="XMLID_117_" x="-5.5" y="-5.5" transform="matrix(0.9818 0 0 -0.9818 765.6733 420.3777)" style="overflow:visible;enable-background:new    ;"/>
<use xlink:href="#sparkle"  width="11" height="11" id="XMLID_116_" x="-5.5" y="-5.5" transform="matrix(0.9818 0 0 -0.9818 1537.6868 133.6308)" style="overflow:visible;enable-background:new    ;"/>
<use xlink:href="#sparkle"  width="11" height="11" id="XMLID_115_" x="-5.5" y="-5.5" transform="matrix(0.9818 0 0 -0.9818 2208.5928 203.8029)" style="overflow:visible;enable-background:new    ;"/>
<use xlink:href="#sparkle"  width="11" height="11" id="XMLID_114_" x="-5.5" y="-5.5" transform="matrix(0.9818 0 0 -0.9818 1683.5839 -128.2033)" style="overflow:visible;enable-background:new    ;"/>
<use xlink:href="#sparkle"  width="11" height="11" id="XMLID_113_" x="-5.5" y="-5.5" transform="matrix(0.9818 0 0 -0.9818 1717.7484 -38.7672)" style="overflow:visible;enable-background:new    ;"/>
<use xlink:href="#sparkle"  width="11" height="11" id="XMLID_112_" x="-5.5" y="-5.5" transform="matrix(0.9818 0 0 -0.9818 699.5684 307.6192)" style="overflow:visible;enable-background:new    ;"/>
<use xlink:href="#sparkle"  width="11" height="11" id="XMLID_111_" x="-5.5" y="-5.5" transform="matrix(0.9818 0 0 -0.9818 1550.0695 494.5027)" style="overflow:visible;enable-background:new    ;"/>
<use xlink:href="#sparkle"  width="11" height="11" id="XMLID_110_" x="-5.5" y="-5.5" transform="matrix(0.9818 0 0 -0.9818 676.1817 732.9907)" style="overflow:visible;enable-background:new    ;"/>
<use xlink:href="#sparkle"  width="11" height="11" id="XMLID_108_" x="-5.5" y="-5.5" transform="matrix(0.9818 0 0 -0.9818 2290.3691 714.4982)" style="overflow:visible;enable-background:new    ;"/>
<use xlink:href="#sparkle"  width="11" height="11" id="XMLID_107_" x="-5.5" y="-5.5" transform="matrix(0.9818 0 0 -0.9818 2081.856 328.3129)" style="overflow:visible;enable-background:new    ;"/>
<use xlink:href="#sparkle"  width="11" height="11" id="XMLID_106_" x="-5.5" y="-5.5" transform="matrix(0.9818 0 0 -0.9818 2387.0266 299.9045)" style="overflow:visible;enable-background:new    ;"/>
<use xlink:href="#sparkle"  width="11" height="11" id="XMLID_105_" x="-5.5" y="-5.5" transform="matrix(0.9818 0 0 -0.9818 1357.801 73.2474)" style="overflow:visible;enable-background:new    ;"/>
<use xlink:href="#sparkle"  width="11" height="11" id="XMLID_104_" x="-5.5" y="-5.5" transform="matrix(0.9818 0 0 -0.9818 1258.8568 326.7332)" style="overflow:visible;enable-background:new    ;"/>
<use xlink:href="#sparkle"  width="11" height="11" id="XMLID_103_" x="-5.5" y="-5.5" transform="matrix(0.9818 0 0 -0.9818 1301.7631 468.5225)" style="overflow:visible;enable-background:new    ;"/>
<use xlink:href="#sparkle"  width="11" height="11" id="XMLID_102_" x="-5.5" y="-5.5" transform="matrix(0.9818 0 0 -0.9818 1150.1727 620.268)" style="overflow:visible;enable-background:new    ;"/>
<use xlink:href="#sparkle"  width="11" height="11" id="XMLID_100_" x="-5.5" y="-5.5" transform="matrix(0.9818 0 0 -0.9818 1387.9064 210.7203)" style="overflow:visible;enable-background:new    ;"/>
<linearGradient id="XMLID_186_" gradientUnits="userSpaceOnUse" x1="2243.1934" y1="452.7981" x2="2234.6851" y2="522.0927" gradientTransform="matrix(0.9986 5.374856e-002 -5.374856e-002 0.9986 29.6235 -193.9281)">
	<stop  offset="0" style="stop-color:#FFF6C8;stop-opacity:0.3"/>
	<stop  offset="1" style="stop-color:#FFF6C8;stop-opacity:0"/>
</linearGradient>
<path id="XMLID_53_" class="st3" d="M2426.4,462.2c1.2-22.6-19.2-42-45.7-43.5c-15.7-0.8-29.9,4.8-39.2,14.3
	c-13.7-5-31.1-8.5-50.3-9.5c-0.1,0-0.2,0-0.3,0c-2.9-27.7-55.3-52.4-120.9-55.9c-68.4-3.7-125.1,17-126.7,46.2"/>
<linearGradient id="XMLID_188_" gradientUnits="userSpaceOnUse" x1="1462.4983" y1="601.0918" x2="1447.2253" y2="686.9991" gradientTransform="matrix(1 0 0 1 0 -1.44)">
	<stop  offset="0" style="stop-color:#FFF6C8;stop-opacity:0.3"/>
	<stop  offset="1" style="stop-color:#FFF6C8;stop-opacity:0"/>
</linearGradient>
<path id="XMLID_101_" class="st4" d="M1572.8,646.9c0-18.2-14.8-33-33-33c-16.3,0-29.8,11.8-32.5,27.3c-4.8-4.5-11.3-7.3-18.5-7.3
	c-4.1,0-7.9,0.9-11.4,2.5c-2.2-22.7-21.3-40.5-44.6-40.5s-42.4,17.8-44.6,40.5c-5.7-4-12.7-6.4-20.2-6.4
	c-19.4,0-35.2,15.7-35.2,35.2"/>
<linearGradient id="XMLID_189_" gradientUnits="userSpaceOnUse" x1="1243.25" y1="239.4471" x2="1243.25" y2="239.4471" gradientTransform="matrix(1 0 0 1 0 -1.44)">
	<stop  offset="0" style="stop-color:#FFF6C8;stop-opacity:0.3"/>
	<stop  offset="1" style="stop-color:#FFF6C8;stop-opacity:0"/>
</linearGradient>
<path id="XMLID_56_" class="st5" d="M1243.3,238"/>
<linearGradient id="XMLID_190_" gradientUnits="userSpaceOnUse" x1="1192.95" y1="243.5471" x2="1192.95" y2="243.5471" gradientTransform="matrix(1 0 0 1 0 -1.44)">
	<stop  offset="0" style="stop-color:#FFF6C8;stop-opacity:0.3"/>
	<stop  offset="1" style="stop-color:#FFF6C8;stop-opacity:0"/>
</linearGradient>
<path id="XMLID_54_" class="st6" d="M1192.9,242.1"/>
<linearGradient id="XMLID_191_" gradientUnits="userSpaceOnUse" x1="2085.5942" y1="726.369" x2="2073.8311" y2="792.5334" gradientTransform="matrix(1 0 0 1 0 -1.44)">
	<stop  offset="0" style="stop-color:#FFF6C8;stop-opacity:0.3"/>
	<stop  offset="1" style="stop-color:#FFF6C8;stop-opacity:0"/>
</linearGradient>
<path id="XMLID_135_" class="st7" d="M2164.9,781.1c0-9.9-10.8-17.8-24.2-17.8c-1.6,0-3.2,0.1-4.8,0.3c0-0.1,0-0.2,0-0.3
	c0-19.7-17.5-35.7-39.1-35.7c-16.8,0-31.1,9.7-36.6,23.3c-7.4-9.5-19-15.6-31.9-15.6c-22.4,0-40.5,18.1-40.5,40.5"/>
<linearGradient id="XMLID_192_" gradientUnits="userSpaceOnUse" x1="708.7943" y1="339.169" x2="697.0313" y2="405.3332" gradientTransform="matrix(1 0 0 1 0 -1.44)">
	<stop  offset="0" style="stop-color:#FFF6C8;stop-opacity:0.3"/>
	<stop  offset="1" style="stop-color:#FFF6C8;stop-opacity:0"/>
</linearGradient>
<path id="XMLID_12_" class="st8" d="M788.2,393.9c0-9.9-10.8-17.8-24.2-17.8c-1.6,0-3.2,0.1-4.8,0.3c0-0.1,0-0.2,0-0.3
	c0-19.7-17.5-35.7-39.1-35.7c-16.8,0-31.1,9.7-36.6,23.3c-7.4-9.5-19-15.6-31.9-15.6c-22.4,0-40.5,18.1-40.5,40.5"/>
<linearGradient id="XMLID_193_" gradientUnits="userSpaceOnUse" x1="783.45" y1="783.2471" x2="783.45" y2="783.2471" gradientTransform="matrix(1 0 0 1 0 -1.44)">
	<stop  offset="0" style="stop-color:#FFF6C8;stop-opacity:0.3"/>
	<stop  offset="1" style="stop-color:#FFF6C8;stop-opacity:0"/>
</linearGradient>
<path id="XMLID_134_" class="st9" d="M783.5,781.8"/>
<linearGradient id="XMLID_194_" gradientUnits="userSpaceOnUse" x1="2173.8625" y1="-52.9283" x2="2162.2949" y2="12.1363" gradientTransform="matrix(1 0 0 1 0 -1.44)">
	<stop  offset="0" style="stop-color:#FFF6C8;stop-opacity:0.3"/>
	<stop  offset="1" style="stop-color:#FFF6C8;stop-opacity:0"/>
</linearGradient>
<path id="XMLID_136_" class="st10" d="M2315.6,4.6c0-12.8-13.3-23.2-29.8-23.2c-3.1,0-6.1,0.4-8.9,1c-2.4-14.1-20.8-25.1-43.2-25.1
	c-15.3,0-28.7,5.1-36.5,12.9c-9-1.7-18.8-2.7-29.1-2.7c-20.7,0-39.4,3.8-53.4,10.1c-3.4-24.2-24.2-42.8-49.3-42.8
	c-27.5,0-49.8,22.3-49.8,49.8"/>
<linearGradient id="XMLID_195_" gradientUnits="userSpaceOnUse" x1="820.8656" y1="39.8184" x2="801.6414" y2="147.9496" gradientTransform="matrix(0.9905 0.1377 -0.1377 0.9905 65.7312 -330.5946)">
	<stop  offset="0" style="stop-color:#FFFFFF;stop-opacity:0.9"/>
	<stop  offset="8.430076e-002" style="stop-color:#FFFEF7;stop-opacity:0.8241"/>
	<stop  offset="0.6911" style="stop-color:#FFF8D5;stop-opacity:0.278"/>
	<stop  offset="1" style="stop-color:#FFF6C8;stop-opacity:0"/>
</linearGradient>
<circle id="XMLID_137_" class="st11" cx="856.3" cy="-125.9" r="54.9"/>
<linearGradient id="XMLID_196_" gradientUnits="userSpaceOnUse" x1="820.8656" y1="39.8184" x2="801.6414" y2="147.9496" gradientTransform="matrix(0.9905 0.1377 -0.1377 0.9905 65.7312 -330.5946)">
	<stop  offset="0" style="stop-color:#FFFFFF;stop-opacity:0.9"/>
	<stop  offset="8.430076e-002" style="stop-color:#FFFEF7;stop-opacity:0.8241"/>
	<stop  offset="0.6911" style="stop-color:#FFF8D5;stop-opacity:0.278"/>
	<stop  offset="1" style="stop-color:#FFF6C8;stop-opacity:0"/>
</linearGradient>
<circle id="XMLID_139_" class="st12" cx="856.3" cy="-125.9" r="54.9"/>
<linearGradient id="XMLID_197_" gradientUnits="userSpaceOnUse" x1="1118.2356" y1="349.5126" x2="1099.0112" y2="457.6439" gradientTransform="matrix(0.9905 0.1377 -0.1377 0.9905 65.7312 -330.5946)">
	<stop  offset="0" style="stop-color:#FFFFFF;stop-opacity:0.9"/>
	<stop  offset="8.430076e-002" style="stop-color:#FFFEF7;stop-opacity:0.8241"/>
	<stop  offset="0.6911" style="stop-color:#FFF8D5;stop-opacity:0.278"/>
	<stop  offset="1" style="stop-color:#FFF6C8;stop-opacity:0"/>
</linearGradient>
<circle id="XMLID_10_" class="st13" cx="1108.3" cy="221.8" r="54.9"/>
<linearGradient id="XMLID_198_" gradientUnits="userSpaceOnUse" x1="1910.3163" y1="193.0567" x2="1891.0922" y2="301.188" gradientTransform="matrix(0.9905 0.1377 -0.1377 0.9905 65.7312 -330.5946)">
	<stop  offset="0" style="stop-color:#FFFFFF;stop-opacity:0.9"/>
	<stop  offset="8.430076e-002" style="stop-color:#FFFEF7;stop-opacity:0.8241"/>
	<stop  offset="0.6911" style="stop-color:#FFF8D5;stop-opacity:0.278"/>
	<stop  offset="1" style="stop-color:#FFF6C8;stop-opacity:0"/>
</linearGradient>
<circle id="XMLID_9_" class="st14" cx="1914.3" cy="175.9" r="54.9"/>
<g id="XMLID_138_" class="st15">
	<path id="XMLID_140_" class="st16" d="M855.3-139.9c0.3,0,0.7,0.1,1,0.1C856-139.8,855.7-139.9,855.3-139.9z"/>
	<path id="XMLID_141_" class="st16" d="M860.3-139.2c0.3,0,0.7,0.1,1,0.1C860.8-139.1,860.5-139.2,860.3-139.2z"/>
	<path id="XMLID_142_" class="st16" d="M862-139c35.5,5.2,63.1,12.9,62.5,17.6c-0.7,4.8-31.4,4.5-68.6-0.6
		c-37.2-5.1-66.8-13.3-66.2-18.1c0.6-4.7,29.4-4.6,64.9,0.1c-46-6.1-83.5-5.2-84.5,2.2c-1,7.5,36.8,19,84.5,25.7s87.2,5.9,88.3-1.7
		C943.8-121.2,908-132.3,862-139z"/>
	<path id="XMLID_143_" class="st16" d="M861.3-139.1c0.3,0,0.5,0.1,0.8,0.1C861.8-139,861.5-139.1,861.3-139.1z"/>
	<path id="XMLID_144_" class="st16" d="M854.5-140c0.3,0,0.5,0.1,0.8,0.1C855-139.9,854.8-140,854.5-140z"/>
	<path id="XMLID_145_" class="st16" d="M858.3-139.5c0.7,0.1,1.3,0.2,2,0.3C859.5-139.3,859-139.4,858.3-139.5z"/>
	<path id="XMLID_146_" class="st16" d="M856.3-139.8c0.7,0.1,1.3,0.2,2,0.3C857.7-139.6,857-139.7,856.3-139.8z"/>
</g>
<g id="Satelite" class="st17">
	<g id="XMLID_148_">
		<path id="XMLID_163_" class="st18" d="M1419.6-124.2c-3.9-9.1,0.2-19.7,9.3-23.6c9.1-3.9,19.7,0.2,23.6,9.3L1419.6-124.2z"/>
	</g>
	<g id="XMLID_147_">
		<path id="XMLID_162_" class="st19" d="M1452.4-138.5c-15.9,8.5-32.9,14.3-32.9,14.3L1452.4-138.5z"/>
	</g>
	<g id="XMLID_149_">
		<path id="XMLID_159_" class="st18" d="M1439.8-121.5l-7.8-17.9c-0.1-0.2,0-0.5,0.3-0.6c0.2-0.1,0.5,0,0.6,0.3l7.8,17.9
			c0.1,0.2,0,0.5-0.3,0.6C1440.2-121.2,1439.8-121.3,1439.8-121.5z"/>
	</g>
	<g id="XMLID_151_">
		<path id="XMLID_158_" class="st18" d="M1431.2-139.1l-7.8-17.9c-0.3-0.7,0-1.5,0.7-1.8s1.5,0,1.8,0.7l7.8,17.9
			c0.3,0.7,0,1.5-0.7,1.8C1432.3-138,1431.4-138.4,1431.2-139.1z"/>
	</g>
	<g id="XMLID_150_">
		
			<rect id="XMLID_161_" x="1398.6" y="-182.4" transform="matrix(-0.3982 -0.9173 0.9173 -0.3982 2141.0911 1060.4327)" class="st18" width="39.6" height="20.5"/>
	</g>
	<g id="XMLID_154_">
		
			<rect id="XMLID_157_" x="1417.2" y="-205.8" transform="matrix(0.3982 0.9173 -0.9173 0.3982 695.6549 -1404.5709)" class="st18" width="2.1" height="67.3"/>
	</g>
	<g id="XMLID_153_">
		
			<rect id="XMLID_160_" x="1449.7" y="-212.3" transform="matrix(0.3982 0.9173 -0.9173 0.3982 703.3895 -1449.3568)" class="st18" width="13.2" height="47.3"/>
	</g>
	<g id="XMLID_156_">
		
			<rect id="XMLID_155_" x="1373.5" y="-179.1" transform="matrix(0.3982 0.9173 -0.9173 0.3982 687.9647 -1359.5641)" class="st18" width="13.2" height="47.3"/>
	</g>
</g>
<use xlink:href="#stars"  width="8.6" height="7.6" id="XMLID_72_" x="-4.3" y="-3.8" transform="matrix(1 0 0 -1 914.5756 241.5063)" style="overflow:visible;enable-background:new    ;"/>
<use xlink:href="#stars"  width="8.6" height="7.6" id="XMLID_32_" x="-4.3" y="-3.8" transform="matrix(1 0 0 -1 934.6574 534.7848)" style="overflow:visible;enable-background:new    ;"/>
<use xlink:href="#stars"  width="8.6" height="7.6" id="XMLID_31_" x="-4.3" y="-3.8" transform="matrix(1 0 0 -1 1017.6932 649.4435)" style="overflow:visible;enable-background:new    ;"/>
<use xlink:href="#stars"  width="8.6" height="7.6" id="XMLID_30_" x="-4.3" y="-3.8" transform="matrix(1 0 0 -1 783.9368 597.064)" style="overflow:visible;enable-background:new    ;"/>
<use xlink:href="#stars"  width="8.6" height="7.6" id="XMLID_29_" x="-4.3" y="-3.8" transform="matrix(1 0 0 -1 1431.7361 723.6529)" style="overflow:visible;enable-background:new    ;"/>
<use xlink:href="#stars"  width="8.6" height="7.6" id="XMLID_28_" x="-4.3" y="-3.8" transform="matrix(1 0 0 -1 775.4839 215.8259)" style="overflow:visible;enable-background:new    ;"/>
<use xlink:href="#stars"  width="8.6" height="7.6" id="XMLID_27_" x="-4.3" y="-3.8" transform="matrix(1 0 0 -1 957.0881 120.9225)" style="overflow:visible;enable-background:new    ;"/>
<use xlink:href="#stars"  width="8.6" height="7.6" id="XMLID_26_" x="-4.3" y="-3.8" transform="matrix(1 0 0 -1 1603.3999 273.6065)" style="overflow:visible;enable-background:new    ;"/>
<use xlink:href="#stars"  width="8.6" height="7.6" id="XMLID_25_" x="-4.3" y="-3.8" transform="matrix(1 0 0 -1 1794.3115 408.6219)" style="overflow:visible;enable-background:new    ;"/>
<use xlink:href="#stars"  width="8.6" height="7.6" id="XMLID_24_" x="-4.3" y="-3.8" transform="matrix(1 0 0 -1 1836.5338 523.2728)" style="overflow:visible;enable-background:new    ;"/>
<use xlink:href="#stars"  width="8.6" height="7.6" id="XMLID_23_" x="-4.3" y="-3.8" transform="matrix(1 0 0 -1 1838.2068 113.2914)" style="overflow:visible;enable-background:new    ;"/>
<use xlink:href="#stars"  width="8.6" height="7.6" id="XMLID_22_" x="-4.3" y="-3.8" transform="matrix(1 0 0 -1 1930.9026 328.1164)" style="overflow:visible;enable-background:new    ;"/>
<use xlink:href="#sparkle"  width="11" height="11" id="XMLID_21_" x="-5.5" y="-5.5" transform="matrix(0.9818 0 0 -0.9818 895.9043 450.7472)" style="overflow:visible;enable-background:new    ;"/>
<use xlink:href="#sparkle"  width="11" height="11" id="XMLID_20_" x="-5.5" y="-5.5" transform="matrix(0.9818 0 0 -0.9818 1325.4685 329.8285)" style="overflow:visible;enable-background:new    ;"/>
<use xlink:href="#sparkle"  width="11" height="11" id="XMLID_19_" x="-5.5" y="-5.5" transform="matrix(0.9818 0 0 -0.9818 1597.8105 508.8569)" style="overflow:visible;enable-background:new    ;"/>
<use xlink:href="#sparkle"  width="11" height="11" id="XMLID_18_" x="-5.5" y="-5.5" transform="matrix(0.9818 0 0 -0.9818 1381.4437 592.8653)" style="overflow:visible;enable-background:new    ;"/>
<use xlink:href="#sparkle"  width="11" height="11" id="XMLID_17_" x="-5.5" y="-5.5" transform="matrix(0.9818 0 0 -0.9818 914.5753 665.6341)" style="overflow:visible;enable-background:new    ;"/>
<use xlink:href="#sparkle"  width="11" height="11" id="XMLID_16_" x="-5.5" y="-5.5" transform="matrix(0.9818 0 0 -0.9818 995.667 416.6868)" style="overflow:visible;enable-background:new    ;"/>
<use xlink:href="#sparkle"  width="11" height="11" id="XMLID_15_" x="-5.5" y="-5.5" transform="matrix(0.9818 0 0 -0.9818 1746.0212 295.7079)" style="overflow:visible;enable-background:new    ;"/>
<linearGradient id="XMLID_199_" gradientUnits="userSpaceOnUse" x1="1032.092" y1="742.6151" x2="1019.0742" y2="815.8369" gradientTransform="matrix(1 0 0 1 0 -1.44)">
	<stop  offset="0" style="stop-color:#FFF6C8;stop-opacity:0.3"/>
	<stop  offset="1" style="stop-color:#FFF6C8;stop-opacity:0"/>
</linearGradient>
<path id="XMLID_11_" class="st20" d="M1141.6,790.8c0-19.9-16.1-36-36-36c-18.2,0-33.2,13.5-35.6,31c-10.2-9.9-24.1-15.9-39.5-15.9
	c-15.5,0-29.5,6.2-39.8,16.3c-4.1-17.6-21.5-30.8-42.4-30.8c-23.9,0-43.3,17.3-43.3,38.7"/>
<path class="st21" d="M1442.9,211.7c-3.4,0-6.7,0.1-10.1,0.4H539v256.3h893.9c3.3,0.3,6.7,0.4,10.1,0.4
	c70.8,0,128.1-57.5,128.1-128.5S1513.6,211.7,1442.9,211.7z"/>
<text transform="matrix(1 0 0 1 565.0501 393.8874)" class="st22 st23">Allshack</text>
<linearGradient id="Circle_1_" gradientUnits="userSpaceOnUse" x1="1445.95" y1="445.1471" x2="1445.95" y2="238.3471" gradientTransform="matrix(1 0 0 1 0 -1.44)">
	<stop  offset="0" style="stop-color:#9F1D20"/>
	<stop  offset="1" style="stop-color:#F05360"/>
</linearGradient>
<circle id="Circle" class="st24" cx="1445.9" cy="340.3" r="103.4"/>
<g id="XMLID_1_">
	<path id="XMLID_4_" class="st25" d="M1457.6,284.5l38.7,80c1.6,3.2,2.5,5.7,2.5,7.3c0,3.4-2.8,6.6-8.3,9.3
		c-3.2,1.6-5.8,2.5-7.7,2.5s-3.4-0.4-4.6-1.3s-2-1.8-2.6-2.7c-0.5-0.9-1.3-2.4-2.2-4.3l-7.4-15.5h-39.8l-7.4,15.5
		c-0.9,1.9-1.7,3.3-2.2,4.2s-1.4,1.7-2.6,2.6s-2.7,1.4-4.6,1.4s-4.4-0.9-7.7-2.5c-5.5-2.6-8.3-5.7-8.3-9.2c0-1.6,0.9-4.1,2.5-7.3
		l38.7-80c1-2.2,2.6-4,4.8-5.3c2.1-1.4,4.4-2,6.8-2C1451.3,277,1454.9,279.5,1457.6,284.5z M1445.8,318.8l-9.5,19.6h19.1
		L1445.8,318.8z"/>
</g>
<ellipse id="Backpack" transform="matrix(-0.9914 0.1311 -0.1311 -0.9914 3969.0593 708.1254)" class="st26" cx="1961.2" cy="484.7" rx="123" ry="133.5"/>
<path id="Leg_Left" class="st27" d="M1886.1,650.7l-11.5-106.3c-2.2-20.1,9.6-37.8,26.4-39.4l0,0c16.8-1.6,32.1,13.3,34.3,33.5
	l11.5,106.3c2.2,20.1-9.6,37.8-26.4,39.4l0,0C1903.6,685.7,1888.3,670.8,1886.1,650.7z"/>
<path id="XMLID_184_" class="st28" d="M1936.2,545.1c0,0.3,0.1,0.7,0.1,1l10.8,100.9c2,18.8-9.8,35.4-26.4,37.1
	c-11,1.1-21.4-4.7-27.7-14.3c6.3,6.8,15,10.6,24.1,9.7c16.6-1.6,28.4-18.2,26.4-37.1l-10.8-100.9c0-0.3-0.1-0.7-0.1-1
	c-0.8-5.9-2.8-11.2-5.8-15.8C1931.7,530,1935.1,537,1936.2,545.1z"/>
<path id="Leg_Right" class="st27" d="M2008.7,638.2l-12.5-106.1c-2.4-20.1,9.3-37.9,26-39.8l0,0c16.7-1.9,32.2,12.9,34.6,33
	l12.5,106.1c2.4,20.1-9.3,37.9-26,39.8l0,0C2026.6,673,2011.1,658.3,2008.7,638.2z"/>
<path id="XMLID_183_" class="st28" d="M2058.8,532.1c0,0.3,0.1,0.7,0.1,1l10.8,100.9c2,18.8-9.8,35.4-26.4,37.1
	c-11,1.1-21.4-4.7-27.7-14.3c6.3,6.8,15,10.6,24.1,9.7c16.6-1.6,28.4-18.2,26.4-37.1l-10.8-100.9c0-0.3-0.1-0.7-0.1-1
	c-0.8-5.9-2.8-11.2-5.8-15.8C2054.3,517,2057.8,524.1,2058.8,532.1z"/>
<path id="Stomach" class="st28" d="M1849.9,353.5l23.7,177.4c7.8,58.4,55.4,100.2,106.4,93.4s86-59.7,78.2-118.1l-23.7-177.4
	L1849.9,353.5z"/>
<path id="Stomach_1_" class="st27" d="M1846.2,346.6l23.7,177.4c7.8,58.4,55.4,100.2,106.4,93.4s86-59.7,78.2-118.1l-23.7-177.4
	L1846.2,346.6z"/>
<path id="XMLID_181_" class="st28" d="M2058.6,506.9c5.7,58.6-28.7,110.6-78.5,117.3c-22.1,3-43.6-3.5-61.6-16.7
	c14.9,6.5,31.5,9.1,48.5,6.8c50-6.7,85.4-53.4,82.1-106.1L2058.6,506.9z"/>
<g id="Hand_Left">
	<g id="XMLID_172_">
		<g id="XMLID_177_">
			<path id="XMLID_179_" class="st27" d="M1798.4,480.8l-15.3-34.9c-6.7-15.4,0.3-33.4,15.7-40.2l0,0c15.4-6.7,33.4,0.3,40.2,15.7
				l15.3,34.9c6.7,15.4-0.3,33.4-15.7,40.2l0,0C1823.3,503.2,1805.2,496.2,1798.4,480.8z"/>
		</g>
		<g id="XMLID_174_">
			<path id="XMLID_175_" class="st27" d="M1853.6,501.7l-25.3-1.2c-16.8-0.8-29.8-15.1-29-31.9l0,0c0.8-16.8,15.1-29.8,31.9-29
				l25.3,1.2c16.8,0.8,29.8,15.1,29,31.9l0,0C1884.7,489.5,1870.3,502.5,1853.6,501.7z"/>
		</g>
	</g>
</g>
<g id="Hand_Right">
	<g id="XMLID_164_">
		<g id="XMLID_169_">
			<path id="XMLID_171_" class="st27" d="M2125.9,510.6l-11.8-38.5c-4.9-16-22.1-25.1-38.1-20.2l0,0c-16,4.9-25.1,22.1-20.2,38.1
				l11.8,38.5c4.9,16,22.1,25.1,38.1,20.2l0,0C2121.6,543.8,2130.8,526.7,2125.9,510.6z"/>
		</g>
		<g id="XMLID_165_">
			<path id="XMLID_167_" class="st27" d="M2072.6,432.6l27.6,21.6c13.2,10.3,15.5,29.6,5.2,42.8l0,0c-10.3,13.2-29.6,15.5-42.8,5.2
				l-27.6-21.6c-13.2-10.3-15.5-29.6-5.2-42.8l0,0C2040.1,424.6,2059.4,422.2,2072.6,432.6z"/>
		</g>
	</g>
</g>
<path id="XMLID_109_" class="st28" d="M2063.4,334.3c8.9,66.2-37.6,127-103.8,135.8c-38.1,5.1-74.4-8.1-100-32.9
	c-18.9-18.3-32-42.8-35.8-70.9c-8.8-66.2,37.6-127,103.8-135.8c34.6-4.6,67.8,5.9,92.8,26.5C2043.1,275.7,2059.1,302.8,2063.4,334.3
	z"/>
<path id="XMLID_93_" class="st27" d="M2056.1,327.9c8.9,66.2-37.6,127-103.8,135.8c-34.6,4.6-67.8-5.9-92.8-26.5
	c-18.9-18.3-32-42.8-35.8-70.9c-8.8-66.2,37.6-127,103.8-135.8c34.6-4.6,67.8,5.9,92.8,26.5C2039.3,275.3,2052.4,299.8,2056.1,327.9
	z"/>
<g id="Helmet_1_">
	<path id="Helmet" class="st29" d="M2040.1,337.4c7.1,53.3-30.3,102.4-83.7,109.5c-18.7,2.5-36.9-0.5-53-7.8
		c-4.9-2.2-9.6-4.8-14.1-7.8c-3.4-2.3-6.7-4.8-9.8-7.5c-6.3-5.5-12-11.8-16.7-18.8c-8.2-12.1-13.8-26.2-15.9-41.7
		c-5.2-38.7,13.2-75.2,44-95c7-4.5,14.6-8.1,22.8-10.7c3.9-1.2,7.9-2.3,12-3c1.6-0.3,3.2-0.6,4.9-0.8c3.8-0.5,7.5-0.8,11.2-0.8
		C1990.7,252,2033.4,287.8,2040.1,337.4z"/>
	<path id="XMLID_67_" class="st30" d="M1913.8,257.5l-34.2,166.3c-6.3-5.5-12-11.8-16.7-18.8l28.1-136.7
		C1897.9,263.8,1905.6,260.2,1913.8,257.5z"/>
	<path id="XMLID_64_" class="st30" d="M1941.8,252.9l-38.3,186.3c-4.9-2.2-9.6-4.8-14.1-7.8l36.4-176.9c1.6-0.3,3.2-0.6,4.9-0.8
		C1934.3,253.3,1938.1,253,1941.8,252.9z"/>
</g>
<circle id="XMLID_61_" class="st31" cx="1899.8" cy="490.3" r="7.3"/>
<circle id="XMLID_60_" class="st32" cx="1918.7" cy="488.7" r="7.3"/>
<rect id="XMLID_59_" x="1852" y="436.1" transform="matrix(0.9914 -0.1311 0.1311 0.9914 -46.5037 247.6498)" class="st26" width="11.3" height="81.9"/>
<rect id="XMLID_57_" x="2054.6" y="412.9" transform="matrix(0.9912 -0.1324 0.1324 0.9912 -45.0633 276.981)" class="st26" width="11.4" height="129"/>
<g id="XMLID_50_">
	<path id="XMLID_52_" d="M2032.8,246c3.2-9.6,5.9-17.9,8.7-26.2c4.3-13,8.8-25.9,12.8-38.9c0.7-2.3,0.4-5.6-0.8-7.8
		c-44.5-79.3-3.9-178.1,83.4-203.2c83.7-24.1,169.4,35.1,176.8,122c6.1,71.7-41.8,135.5-112.4,149.1c-33.6,6.5-65.6,1.1-95.5-15.7
		c-3.1-1.7-5.6-1.8-8.9-0.7C2075.9,231.7,2054.9,238.6,2032.8,246z M2047.3,231.2c2.8-0.8,4.7-1.3,6.5-1.9
		c14.8-4.9,29.7-9.8,44.5-14.9c3.3-1.1,5.8-0.9,8.8,1c25,15.1,52.1,21.4,81.3,18.3c69.4-7.5,120.3-67.3,116.5-136.7
		c-2.9-54.5-39.9-101.5-92.1-117.5s-109,2.4-141.9,45.9c-32.4,42.9-35.4,99.8-7.4,146.5c1.6,2.7,2,4.9,0.9,7.9
		c-3.7,10.3-7.1,20.8-10.5,31.2C2051.9,217.4,2049.8,223.8,2047.3,231.2z"/>
	<path id="XMLID_51_" class="st25" d="M2047.3,231.2c2.4-7.4,4.5-13.8,6.6-20.2c3.5-10.4,6.8-20.9,10.5-31.2c1.1-3,0.7-5.2-0.9-7.9
		c-28-46.7-25-103.6,7.4-146.5c32.9-43.5,89.7-61.8,141.9-45.9s89.1,63,92.1,117.4c3.8,69.4-47.2,129.3-116.5,136.7
		c-29.2,3.1-56.3-3.2-81.3-18.3c-3-1.8-5.5-2.1-8.8-1c-14.8,5.1-29.7,10-44.5,14.9C2051.9,229.9,2050.1,230.4,2047.3,231.2z"/>
</g>
<g id="XMLID_14_">
	<path id="XMLID_49_" d="M2071.9,71.8l6.8,14.1c0.3,0.6,0.4,1,0.4,1.3c0,0.6-0.5,1.2-1.5,1.6c-0.6,0.3-1,0.4-1.4,0.4
		s-0.6-0.1-0.8-0.2c-0.2-0.2-0.4-0.3-0.5-0.5s-0.2-0.4-0.4-0.8l-1.3-2.7h-7l-1.3,2.7c-0.2,0.3-0.3,0.6-0.4,0.7
		c-0.1,0.2-0.2,0.3-0.5,0.5s-0.5,0.2-0.8,0.2s-0.8-0.1-1.4-0.4c-1-0.5-1.5-1-1.5-1.6c0-0.3,0.1-0.7,0.4-1.3l6.8-14.1
		c0.2-0.4,0.5-0.7,0.8-0.9c0.3-0.2,0.8-0.4,1.2-0.4C2070.8,70.5,2071.4,70.9,2071.9,71.8z M2069.9,77.9l-1.7,3.5h3.4L2069.9,77.9z"
		/>
	<path id="XMLID_48_" d="M2089.6,75.8c0.3,0.1,0.6,0.3,0.8,0.5s0.3,0.6,0.3,1.2c0,0.5-0.2,1.1-0.5,1.8c-0.3,0.6-0.8,1-1.4,1
		c-0.3,0-0.6-0.1-0.9-0.2s-0.6-0.2-1.1-0.2s-0.9,0.2-1.3,0.5c-0.4,0.3-0.6,0.7-0.6,1.2v5.3c0,0.4,0,0.7,0,0.9c0,0.2-0.1,0.4-0.2,0.7
		c-0.3,0.4-0.9,0.7-2,0.7c-0.8,0-1.4-0.1-1.7-0.4c-0.3-0.2-0.4-0.6-0.5-1.1c0-0.2,0-0.4,0-0.7v-8.9c0-0.4,0-0.7,0-0.9
		c0-0.2,0.1-0.4,0.2-0.6c0.2-0.5,0.9-0.7,2-0.7c1,0,1.6,0.2,1.9,0.6c0.2,0.3,0.3,0.5,0.3,0.8c0.1-0.1,0.2-0.3,0.4-0.4
		c0.2-0.2,0.5-0.4,1-0.7c0.5-0.3,1-0.4,1.4-0.4s0.7,0,1,0.1C2088.9,75.7,2089.3,75.7,2089.6,75.8z"/>
	<path id="XMLID_47_" d="M2104.1,80.7c0,1-0.3,1.8-0.8,2.3s-1.1,0.7-1.7,0.7h-6c0,0.5,0.3,0.9,0.8,1.2c0.6,0.3,1.1,0.5,1.7,0.5
		c1,0,1.7-0.1,2.3-0.3l0.3-0.1c0.4-0.2,0.7-0.3,1-0.3c0.5,0,1,0.4,1.4,1.1c0.2,0.5,0.3,0.8,0.3,1.2c0,1.5-1.8,2.2-5.4,2.2
		c-1.2,0-2.4-0.2-3.3-0.6c-1-0.4-1.7-1-2.3-1.7c-1.1-1.4-1.6-2.9-1.6-4.6c0-2.1,0.7-3.8,2.1-5.1c1.4-1.3,3.1-1.9,5.1-1.9
		c2.3,0,4.1,0.8,5.2,2.5C2103.9,78.8,2104.1,79.7,2104.1,80.7z M2098.9,81.5c0.6,0,1-0.3,1-0.8c0-0.4-0.1-0.7-0.4-0.9
		c-0.3-0.2-0.7-0.4-1.3-0.4c-0.5,0-1.1,0.2-1.6,0.7s-0.8,0.9-0.8,1.4C2095.8,81.5,2098.9,81.5,2098.9,81.5z"/>
	<path id="XMLID_46_" d="M2124.6,75.8c1,0.4,1.5,1,1.5,1.6c0,0.3-0.1,0.6-0.2,0.9c-0.1,0.3-0.2,0.4-0.2,0.4l-6.6,14.8
		c-0.1,0.3-0.2,0.6-0.3,0.7c-0.1,0.2-0.2,0.3-0.4,0.5s-0.5,0.2-0.8,0.2s-0.7-0.1-1.3-0.4c-1-0.4-1.5-1-1.5-1.6
		c0-0.4,0.8-2.3,2.4-5.8l-5-8.5c-0.3-0.6-0.5-1-0.5-1.2c0-0.5,0.5-1.1,1.4-1.6c0.6-0.3,1-0.5,1.3-0.5s0.6,0.1,0.8,0.2
		s0.3,0.3,0.4,0.4c0.1,0.1,0.6,0.9,1.4,2.3c0.8,1.4,1.6,2.7,2.4,4c0.1-0.3,0.5-1.3,1.4-3.1c0.8-1.8,1.3-2.8,1.3-2.9
		c0.1-0.1,0.2-0.3,0.3-0.4c0.2-0.3,0.5-0.4,0.9-0.4C2123.6,75.4,2124.1,75.6,2124.6,75.8z"/>
	<path id="XMLID_45_" d="M2129.1,77.3c1.4-1.3,3-2,4.8-2s3.4,0.7,4.8,2c1.4,1.3,2.1,3,2.1,5c0,1.4-0.4,2.6-1.1,3.7
		c-0.7,1.1-1.6,1.9-2.6,2.4s-2.1,0.8-3.2,0.8c-1.1,0-2.2-0.3-3.2-0.8s-1.9-1.4-2.6-2.4c-0.7-1.1-1.1-2.3-1.1-3.6
		C2127.1,80.3,2127.8,78.7,2129.1,77.3z M2132.4,84.2c0.5,0.4,1.1,0.6,1.6,0.6s1.1-0.2,1.7-0.6s0.8-1,0.8-1.9c0-0.8-0.3-1.4-0.8-1.8
		s-1.1-0.6-1.7-0.6c-0.6,0-1.2,0.2-1.7,0.6s-0.8,1-0.8,1.9C2131.6,83.1,2131.8,83.7,2132.4,84.2z"/>
	<path id="XMLID_44_" d="M2148.4,88.9c-1.7,0-3.1-0.6-4.2-1.9c-1.1-1.3-1.7-2.9-1.7-4.7v-4.4c0-0.4,0-0.7,0-0.9s0.1-0.4,0.2-0.7
		c0.2-0.5,0.9-0.7,2-0.7c1.2,0,1.9,0.3,2.1,1c0.1,0.3,0.2,0.7,0.2,1.3v4.4c0,0.7,0.2,1.2,0.6,1.6s0.9,0.6,1.6,0.6
		c0.7,0,1.2-0.2,1.6-0.6c0.4-0.4,0.6-0.9,0.6-1.6v-4.5c0-0.4,0-0.7,0-0.9c0-0.2,0.1-0.4,0.2-0.7c0.2-0.4,0.9-0.7,1.9-0.7
		c1.1,0,1.7,0.2,1.9,0.7c0.1,0.3,0.2,0.5,0.2,0.7s0,0.5,0,0.9v8.9c0,0.4,0,0.7,0,0.8c0,0.2-0.1,0.4-0.2,0.6
		c-0.3,0.4-0.9,0.7-1.9,0.7s-1.7-0.2-1.9-0.6c-0.2-0.3-0.3-0.6-0.3-1c-0.1,0.1-0.2,0.3-0.5,0.5c-0.2,0.2-0.5,0.4-0.7,0.6
		C2149.8,88.8,2149.1,88.9,2148.4,88.9z"/>
	<path id="XMLID_43_" d="M2173.4,75.8c0.3,0.1,0.6,0.3,0.8,0.5s0.3,0.6,0.3,1.2c0,0.5-0.2,1.1-0.5,1.8c-0.3,0.6-0.8,1-1.4,1
		c-0.3,0-0.6-0.1-0.9-0.2s-0.6-0.2-1.1-0.2s-0.9,0.2-1.3,0.5c-0.4,0.3-0.6,0.7-0.6,1.2v5.3c0,0.4,0,0.7,0,0.9c0,0.2-0.1,0.4-0.2,0.7
		c-0.3,0.4-0.9,0.7-2,0.7c-0.8,0-1.4-0.1-1.7-0.4c-0.3-0.2-0.4-0.6-0.5-1.1c0-0.2,0-0.4,0-0.7v-8.9c0-0.4,0-0.7,0-0.9
		c0-0.2,0.1-0.4,0.2-0.6c0.2-0.5,0.9-0.7,2-0.7c1,0,1.6,0.2,1.9,0.6c0.2,0.3,0.3,0.5,0.3,0.8c0.1-0.1,0.2-0.3,0.4-0.4
		c0.2-0.2,0.5-0.4,1-0.7c0.5-0.3,1-0.4,1.4-0.4s0.7,0,1,0.1C2172.6,75.7,2172.9,75.7,2173.4,75.8z"/>
	<path id="XMLID_42_" d="M2187.9,80.7c0,1-0.3,1.8-0.8,2.3s-1.1,0.7-1.7,0.7h-6c0,0.5,0.3,0.9,0.8,1.2c0.6,0.3,1.1,0.5,1.7,0.5
		c1,0,1.7-0.1,2.3-0.3l0.3-0.1c0.4-0.2,0.7-0.3,1-0.3c0.5,0,1,0.4,1.4,1.1c0.2,0.5,0.3,0.8,0.3,1.2c0,1.5-1.8,2.2-5.4,2.2
		c-1.2,0-2.4-0.2-3.3-0.6c-1-0.4-1.7-1-2.3-1.7c-1.1-1.4-1.6-2.9-1.6-4.6c0-2.1,0.7-3.8,2.1-5.1c1.4-1.3,3.1-1.9,5.1-1.9
		c2.3,0,4.1,0.8,5.2,2.5C2187.6,78.8,2187.9,79.7,2187.9,80.7z M2182.6,81.5c0.6,0,1-0.3,1-0.8c0-0.4-0.1-0.7-0.4-0.9
		c-0.3-0.2-0.7-0.4-1.3-0.4c-0.5,0-1.1,0.2-1.6,0.7s-0.8,0.9-0.8,1.4C2179.4,81.5,2182.6,81.5,2182.6,81.5z"/>
	<path id="XMLID_41_" d="M2198.1,77.1c0.1-0.9,0.8-1.4,2-1.4c0.7,0,1.1,0.1,1.5,0.2c0.3,0.1,0.5,0.3,0.7,0.5
		c0.1,0.3,0.2,0.5,0.2,0.7s0,0.5,0,0.9v8.8c0,0.4,0,0.7,0,0.9s-0.1,0.4-0.2,0.7c-0.2,0.4-0.8,0.7-1.7,0.7s-1.5-0.1-1.8-0.3
		c-0.3-0.2-0.5-0.6-0.5-1c-0.6,0.9-1.7,1.3-3.1,1.3c-1.5,0-2.8-0.7-4.1-2c-1.2-1.3-1.9-2.9-1.9-4.6c0-1.8,0.6-3.3,1.9-4.6
		c1.3-1.3,2.6-2,4.1-2c0.6,0,1.1,0.1,1.6,0.3c0.5,0.2,0.8,0.4,1,0.6C2197.9,76.8,2198.1,76.9,2198.1,77.1z M2193.6,82.3
		c0,0.6,0.2,1.1,0.7,1.5c0.4,0.4,1,0.7,1.6,0.7s1.1-0.2,1.6-0.7c0.4-0.5,0.6-1,0.6-1.5s-0.2-1.1-0.6-1.5c-0.4-0.5-0.9-0.7-1.6-0.7
		c-0.7,0-1.2,0.2-1.6,0.7C2193.8,81.3,2193.6,81.8,2193.6,82.3z"/>
	<path id="XMLID_40_" d="M2213.4,70.1c0.1-0.2,0.3-0.4,0.7-0.5c0.3-0.1,0.7-0.2,1.3-0.2s1,0.1,1.3,0.2s0.5,0.3,0.7,0.5
		c0.1,0.3,0.2,0.5,0.2,0.7s0,0.5,0,0.9v15.1c0,0.4,0,0.7,0,0.9c0,0.2-0.1,0.4-0.2,0.6c-0.3,0.5-1,0.7-2.1,0.7c-1.2,0-1.8-0.4-2-1.2
		c-0.7,0.8-1.7,1.2-3,1.2c-1.5,0-2.9-0.7-4.1-2c-1.2-1.3-1.9-2.9-1.9-4.6c0-1.8,0.6-3.3,1.9-4.6c1.3-1.3,2.6-2,4.1-2
		c1.2,0,2.2,0.4,2.9,1.3v-5.3c0-0.4,0-0.7,0-0.9C2213.3,70.6,2213.4,70.4,2213.4,70.1z M2209.4,83.9c0.4,0.5,1,0.7,1.6,0.7
		s1.1-0.2,1.6-0.7c0.4-0.5,0.6-1,0.6-1.5s-0.2-1.1-0.6-1.5c-0.4-0.4-0.9-0.7-1.6-0.7s-1.2,0.2-1.6,0.7c-0.4,0.5-0.6,1-0.6,1.5
		S2208.9,83.4,2209.4,83.9z"/>
	<path id="XMLID_39_" d="M2231.8,75.8c1,0.4,1.5,1,1.5,1.6c0,0.3-0.1,0.6-0.2,0.9c-0.1,0.3-0.2,0.4-0.2,0.4l-6.6,14.8
		c-0.1,0.3-0.2,0.6-0.3,0.7c-0.1,0.2-0.2,0.3-0.4,0.5s-0.5,0.2-0.8,0.2s-0.7-0.1-1.3-0.4c-1-0.4-1.5-1-1.5-1.6
		c0-0.4,0.8-2.3,2.4-5.8l-5-8.5c-0.3-0.6-0.5-1-0.5-1.2c0-0.5,0.5-1.1,1.4-1.6c0.6-0.3,1-0.5,1.3-0.5s0.6,0.1,0.8,0.2
		s0.3,0.3,0.4,0.4c0.1,0.1,0.6,0.9,1.4,2.3s1.6,2.7,2.4,4c0.1-0.3,0.5-1.3,1.4-3.1c0.8-1.8,1.3-2.8,1.3-2.9c0.1-0.1,0.2-0.3,0.3-0.4
		c0.2-0.3,0.5-0.4,0.9-0.4C2230.9,75.4,2231.3,75.6,2231.8,75.8z"/>
	<path id="XMLID_36_" d="M2248.8,80.1l-1.6-0.1v3.5c0,0.5,0.1,0.8,0.2,1c0.1,0.2,0.4,0.3,0.8,0.3s0.7,0,0.9,0s0.4,0.1,0.7,0.2
		c0.4,0.2,0.6,0.8,0.6,1.7c0,1.1-0.2,1.7-0.7,1.9c-0.3,0.1-0.5,0.2-0.7,0.2s-0.5,0-0.8,0c-1.8,0-3.1-0.4-4-1.2
		c-0.9-0.8-1.4-2.1-1.4-4v-3.7c-0.3,0.1-0.7,0.1-1,0.1c-0.4,0-0.7-0.1-0.9-0.4s-0.4-0.8-0.4-1.5s0-1.2,0.1-1.5s0.2-0.5,0.4-0.7
		c0.3-0.2,0.6-0.3,1-0.3l0.8,0.1v-2.6c0-0.4,0-0.7,0-0.9c0-0.2,0.1-0.4,0.2-0.6c0.2-0.4,0.9-0.6,1.9-0.6c1.1,0,1.8,0.3,2,0.9
		c0.1,0.3,0.1,0.7,0.1,1.3v2.5c0.7-0.1,1.3-0.1,1.7-0.1s0.7,0,0.9,0s0.4,0.1,0.7,0.2c0.4,0.2,0.7,0.9,0.7,1.9c0,1.1-0.2,1.7-0.7,1.9
		c-0.3,0.1-0.5,0.2-0.7,0.2S2249.1,80.1,2248.8,80.1z"/>
	<path id="XMLID_35_" d="M2254.1,77.3c1.4-1.3,3-2,4.8-2s3.4,0.7,4.8,2c1.4,1.3,2.1,3,2.1,5c0,1.4-0.4,2.6-1.1,3.7
		c-0.7,1.1-1.6,1.9-2.6,2.4s-2.1,0.8-3.2,0.8c-1.1,0-2.2-0.3-3.2-0.8s-1.9-1.4-2.6-2.4c-0.7-1.1-1.1-2.3-1.1-3.6
		C2252.1,80.3,2252.8,78.7,2254.1,77.3z M2257.3,84.2c0.5,0.4,1.1,0.6,1.6,0.6s1.1-0.2,1.7-0.6c0.6-0.4,0.8-1,0.8-1.9
		c0-0.8-0.3-1.4-0.8-1.8s-1.1-0.6-1.7-0.6c-0.6,0-1.2,0.2-1.7,0.6s-0.8,1-0.8,1.9C2256.4,83.1,2256.8,83.7,2257.3,84.2z"/>
	<path id="XMLID_34_" d="M2067.8,118.1c-0.3-0.2-0.5-0.5-0.5-1c0-0.4,0.3-1.1,1-2c0.2-0.3,0.5-0.4,0.9-0.4s1,0.2,1.7,0.6
		s1.3,0.6,1.9,0.6c1,0,1.5-0.2,1.5-0.6c0-0.3-0.6-0.6-1.7-0.7c-1.1-0.2-2.1-0.5-3.2-1.2c-0.5-0.3-0.9-0.8-1.2-1.4s-0.5-1.4-0.5-2.3
		c0-2.7,1.8-4,5.5-4c1.2,0,2.4,0.3,3.7,0.9c0.6,0.3,0.9,0.6,0.9,1s-0.2,0.9-0.6,1.5s-0.7,0.9-1.1,0.9c-0.2,0-0.6-0.1-1.1-0.4
		s-1.1-0.4-1.8-0.4c-1,0-1.5,0.2-1.5,0.6c0,0.5,0.6,0.8,1.7,1c1.1,0.1,2.2,0.4,3.2,1c0.5,0.2,0.9,0.6,1.2,1.2s0.5,1.3,0.5,2.2
		s-0.2,1.6-0.5,2.2s-0.8,1.1-1.4,1.4c-1.1,0.5-2.4,0.8-4.1,0.8C2070.8,119.5,2069.3,119,2067.8,118.1z"/>
	<path id="XMLID_33_" d="M2087.3,110.4l-1.6-0.1v3.5c0,0.5,0.1,0.8,0.2,1c0.1,0.2,0.4,0.3,0.8,0.3s0.7,0,0.9,0s0.4,0.1,0.7,0.2
		c0.4,0.2,0.6,0.8,0.6,1.7c0,1.1-0.2,1.7-0.7,1.9c-0.3,0.1-0.5,0.2-0.7,0.2s-0.5,0-0.8,0c-1.8,0-3.1-0.4-4-1.2s-1.4-2.1-1.4-4v-3.7
		c-0.3,0.1-0.7,0.1-1,0.1c-0.4,0-0.7-0.1-0.9-0.4s-0.4-0.8-0.4-1.5s0-1.2,0.1-1.5s0.2-0.5,0.4-0.7c0.3-0.2,0.6-0.3,1-0.3l0.8,0.1
		v-2.5c0-0.4,0-0.7,0-0.9s0.1-0.4,0.2-0.6c0.2-0.4,0.9-0.6,1.9-0.6c1.1,0,1.8,0.3,2,0.9c0.1,0.3,0.1,0.7,0.1,1.3v2.5
		c0.7-0.1,1.3-0.1,1.7-0.1s0.7,0,0.9,0s0.4,0.1,0.7,0.2c0.4,0.2,0.7,0.9,0.7,1.9c0,1.1-0.2,1.7-0.7,1.9c-0.3,0.1-0.5,0.2-0.7,0.2
		C2087.9,110.2,2087.6,110.4,2087.3,110.4z"/>
	<path id="XMLID_13_" d="M2099.6,107.4c0.1-0.9,0.8-1.4,2-1.4c0.7,0,1.1,0.1,1.5,0.2c0.3,0.1,0.5,0.3,0.7,0.5
		c0.1,0.3,0.2,0.5,0.2,0.7s0,0.5,0,0.9v8.8c0,0.4,0,0.7,0,0.9s-0.1,0.4-0.2,0.7c-0.2,0.4-0.8,0.7-1.7,0.7s-1.5-0.1-1.8-0.3
		c-0.3-0.2-0.5-0.6-0.5-1c-0.6,0.9-1.7,1.3-3.1,1.3c-1.5,0-2.8-0.7-4.1-2c-1.2-1.3-1.9-2.9-1.9-4.6c0-1.8,0.6-3.3,1.9-4.6
		c1.3-1.3,2.6-2,4.1-2c0.6,0,1.1,0.1,1.6,0.3s0.8,0.4,1,0.6C2099.3,107.1,2099.4,107.2,2099.6,107.4z M2094.9,112.6
		c0,0.6,0.2,1.1,0.7,1.5c0.4,0.4,1,0.7,1.6,0.7s1.1-0.2,1.6-0.7c0.4-0.5,0.6-1,0.6-1.5s-0.2-1.1-0.6-1.5c-0.4-0.5-0.9-0.7-1.6-0.7
		c-0.7,0-1.2,0.2-1.6,0.7C2095.1,111.6,2094.9,112.1,2094.9,112.6z"/>
	<path id="XMLID_8_" d="M2114.9,106.1c0.3,0.1,0.6,0.3,0.8,0.5s0.3,0.6,0.3,1.2c0,0.5-0.2,1.1-0.5,1.8c-0.3,0.6-0.8,1-1.4,1
		c-0.3,0-0.6-0.1-0.9-0.2c-0.3-0.1-0.6-0.2-1.1-0.2s-0.9,0.2-1.3,0.5c-0.4,0.3-0.6,0.7-0.6,1.2v5.3c0,0.4,0,0.7,0,0.9
		s-0.1,0.4-0.2,0.7c-0.3,0.4-0.9,0.7-2,0.7c-0.8,0-1.4-0.1-1.7-0.4c-0.3-0.2-0.4-0.6-0.5-1.1c0-0.2,0-0.4,0-0.7v-8.9
		c0-0.4,0-0.7,0-0.9s0.1-0.4,0.2-0.6c0.2-0.5,0.9-0.7,2-0.7c1,0,1.6,0.2,1.9,0.6c0.2,0.3,0.3,0.5,0.3,0.8c0.1-0.1,0.2-0.3,0.4-0.4
		c0.2-0.2,0.5-0.4,1-0.7s1-0.4,1.4-0.4s0.7,0,1,0.1C2114.4,106,2114.6,106,2114.9,106.1z"/>
	<path id="XMLID_7_" d="M2125.3,110.4l-1.6-0.1v3.5c0,0.5,0.1,0.8,0.2,1c0.1,0.2,0.4,0.3,0.8,0.3s0.7,0,0.9,0s0.4,0.1,0.7,0.2
		c0.4,0.2,0.6,0.8,0.6,1.7c0,1.1-0.2,1.7-0.7,1.9c-0.3,0.1-0.5,0.2-0.7,0.2s-0.5,0-0.8,0c-1.8,0-3.1-0.4-4-1.2s-1.4-2.1-1.4-4v-3.7
		c-0.3,0.1-0.7,0.1-1,0.1c-0.4,0-0.7-0.1-0.9-0.4s-0.4-0.8-0.4-1.5s0-1.2,0.1-1.5s0.2-0.5,0.4-0.7c0.3-0.2,0.6-0.3,1-0.3l0.8,0.1
		v-2.5c0-0.4,0-0.7,0-0.9s0.1-0.4,0.2-0.6c0.2-0.4,0.9-0.6,1.9-0.6c1.1,0,1.8,0.3,2,0.9c0.1,0.3,0.1,0.7,0.1,1.3v2.5
		c0.7-0.1,1.3-0.1,1.7-0.1s0.7,0,0.9,0s0.4,0.1,0.7,0.2c0.4,0.2,0.7,0.9,0.7,1.9c0,1.1-0.2,1.7-0.7,1.9c-0.3,0.1-0.5,0.2-0.7,0.2
		C2125.9,110.2,2125.6,110.4,2125.3,110.4z"/>
	<path id="XMLID_6_" d="M2147.6,106.1c1,0.4,1.5,1,1.5,1.6c0,0.3-0.1,0.6-0.2,0.9c-0.1,0.3-0.2,0.4-0.2,0.4l-6.6,14.8
		c-0.1,0.3-0.2,0.6-0.3,0.7c-0.1,0.2-0.2,0.3-0.4,0.5s-0.5,0.2-0.8,0.2s-0.7-0.1-1.3-0.4c-1-0.4-1.5-1-1.5-1.6
		c0-0.4,0.8-2.3,2.4-5.8l-5-8.5c-0.3-0.6-0.5-1-0.5-1.2c0-0.5,0.5-1.1,1.4-1.6c0.6-0.3,1-0.5,1.3-0.5s0.6,0.1,0.8,0.2
		s0.3,0.3,0.4,0.4c0.1,0.1,0.6,0.9,1.4,2.3c0.8,1.4,1.6,2.7,2.4,4c0.1-0.3,0.5-1.3,1.4-3.1c0.8-1.8,1.3-2.8,1.3-2.9
		c0.1-0.1,0.2-0.3,0.3-0.4c0.2-0.3,0.5-0.4,0.9-0.4C2146.6,105.7,2147.1,105.9,2147.6,106.1z"/>
	<path id="XMLID_5_" d="M2152.1,107.6c1.4-1.3,3-2,4.8-2s3.4,0.7,4.8,2c1.4,1.3,2.1,3,2.1,5c0,1.4-0.4,2.6-1.1,3.7
		c-0.7,1.1-1.6,1.9-2.6,2.4s-2.1,0.8-3.2,0.8c-1.1,0-2.2-0.3-3.2-0.8s-1.9-1.4-2.6-2.4c-0.7-1.1-1.1-2.3-1.1-3.6
		C2150.1,110.6,2150.8,109,2152.1,107.6z M2155.4,114.5c0.5,0.4,1.1,0.6,1.6,0.6s1.1-0.2,1.7-0.6c0.6-0.4,0.8-1,0.8-1.9
		c0-0.8-0.3-1.4-0.8-1.8s-1.1-0.6-1.7-0.6c-0.6,0-1.2,0.2-1.7,0.6s-0.8,1-0.8,1.9C2154.6,113.4,2154.9,114,2155.4,114.5z"/>
	<path id="XMLID_166_" d="M2171.6,119.2c-1.7,0-3.1-0.6-4.2-1.9c-1.1-1.3-1.7-2.9-1.7-4.7v-4.4c0-0.4,0-0.7,0-0.9s0.1-0.4,0.2-0.7
		c0.2-0.5,0.9-0.7,2-0.7c1.2,0,1.9,0.3,2.1,1c0.1,0.3,0.2,0.7,0.2,1.3v4.4c0,0.7,0.2,1.2,0.6,1.6c0.4,0.4,0.9,0.6,1.6,0.6
		c0.7,0,1.2-0.2,1.6-0.6c0.4-0.4,0.6-0.9,0.6-1.6v-4.5c0-0.4,0-0.7,0-0.9s0.1-0.4,0.2-0.7c0.2-0.4,0.9-0.7,1.9-0.7
		c1.1,0,1.7,0.2,1.9,0.7c0.1,0.3,0.2,0.5,0.2,0.7s0,0.5,0,0.9v8.9c0,0.4,0,0.7,0,0.8c0,0.2-0.1,0.4-0.2,0.6
		c-0.3,0.4-0.9,0.7-1.9,0.7s-1.7-0.2-1.9-0.6c-0.2-0.3-0.3-0.6-0.3-1c-0.1,0.1-0.2,0.3-0.5,0.5c-0.2,0.2-0.5,0.4-0.7,0.6
		C2172.9,119.1,2172.1,119.2,2171.6,119.2z"/>
	<path id="XMLID_168_" d="M2189.9,106.1c0.3,0.1,0.6,0.3,0.8,0.5s0.3,0.6,0.3,1.2c0,0.5-0.2,1.1-0.5,1.8c-0.3,0.6-0.8,1-1.4,1
		c-0.3,0-0.6-0.1-0.9-0.2c-0.3-0.1-0.6-0.2-1.1-0.2s-0.9,0.2-1.3,0.5c-0.4,0.3-0.6,0.7-0.6,1.2v5.3c0,0.4,0,0.7,0,0.9
		s-0.1,0.4-0.2,0.7c-0.3,0.4-0.9,0.7-2,0.7c-0.8,0-1.4-0.1-1.7-0.4c-0.3-0.2-0.4-0.6-0.5-1.1c0-0.2,0-0.4,0-0.7v-8.9
		c0-0.4,0-0.7,0-0.9s0.1-0.4,0.2-0.6c0.2-0.5,0.9-0.7,2-0.7c1,0,1.6,0.2,1.9,0.6c0.2,0.3,0.3,0.5,0.3,0.8c0.1-0.1,0.2-0.3,0.4-0.4
		c0.2-0.2,0.5-0.4,1-0.7s1-0.4,1.4-0.4s0.7,0,1,0.1C2189.4,106,2189.6,106,2189.9,106.1z"/>
	<path id="XMLID_170_" d="M2199.8,106.1c0.3-0.1,0.7-0.2,1.3-0.2c0.5,0,0.9,0.1,1.2,0.2s0.5,0.3,0.6,0.5s0.2,0.5,0.2,0.7
		s0,0.5,0,0.9v10.3c0,2-0.7,3.5-2,4.7s-2.9,1.8-4.5,1.8c-0.4,0-0.7,0-0.9,0s-0.4-0.1-0.6-0.2c-0.4-0.2-0.7-0.9-0.7-1.8
		c0-1,0.2-1.6,0.5-1.9s0.9-0.4,1.5-0.4s1.2-0.2,1.6-0.5c0.5-0.3,0.7-0.9,0.7-1.8V108c0-0.6,0.1-1,0.2-1.3
		C2198.9,106.4,2199.4,106.2,2199.8,106.1z M2202.3,104c-0.3,0.1-0.7,0.1-1.3,0.1s-0.9-0.1-1.2-0.2s-0.5-0.3-0.6-0.5
		s-0.2-0.5-0.2-0.7s0-0.5,0-0.9s0-0.7,0-0.9s0.1-0.4,0.2-0.6c0.2-0.4,0.9-0.7,1.9-0.7s1.6,0.2,1.9,0.7c0.1,0.2,0.2,0.4,0.2,0.6
		s0,0.5,0,0.8v0.2c0,0.4,0,0.6,0,0.8s-0.1,0.4-0.2,0.6C2202.9,103.5,2202.6,103.9,2202.3,104z"/>
	<path id="XMLID_173_" d="M2206.9,107.6c1.4-1.3,3-2,4.8-2s3.4,0.7,4.8,2c1.4,1.3,2.1,3,2.1,5c0,1.4-0.4,2.6-1.1,3.7
		c-0.7,1.1-1.6,1.9-2.6,2.4s-2.1,0.8-3.2,0.8c-1.1,0-2.2-0.3-3.2-0.8s-1.9-1.4-2.6-2.4c-0.7-1.1-1.1-2.3-1.1-3.6
		C2204.9,110.6,2205.6,109,2206.9,107.6z M2210.1,114.5c0.5,0.4,1.1,0.6,1.6,0.6s1.1-0.2,1.7-0.6c0.6-0.4,0.8-1,0.8-1.9
		c0-0.8-0.3-1.4-0.8-1.8s-1.1-0.6-1.7-0.6s-1.2,0.2-1.7,0.6s-0.8,1-0.8,1.9C2209.3,113.4,2209.6,114,2210.1,114.5z"/>
	<path id="XMLID_176_" d="M2226.3,119.2c-1.7,0-3.1-0.6-4.2-1.9c-1.1-1.3-1.7-2.9-1.7-4.7v-4.4c0-0.4,0-0.7,0-0.9s0.1-0.4,0.2-0.7
		c0.2-0.5,0.9-0.7,2-0.7c1.2,0,1.9,0.3,2.1,1c0.1,0.3,0.2,0.7,0.2,1.3v4.4c0,0.7,0.2,1.2,0.6,1.6c0.4,0.4,0.9,0.6,1.6,0.6
		c0.7,0,1.2-0.2,1.6-0.6c0.4-0.4,0.6-0.9,0.6-1.6v-4.5c0-0.4,0-0.7,0-0.9s0.1-0.4,0.2-0.7c0.2-0.4,0.9-0.7,1.9-0.7
		c1.1,0,1.7,0.2,1.9,0.7c0.1,0.3,0.2,0.5,0.2,0.7s0,0.5,0,0.9v8.9c0,0.4,0,0.7,0,0.8c0,0.2-0.1,0.4-0.2,0.6
		c-0.3,0.4-0.9,0.7-1.9,0.7s-1.7-0.2-1.9-0.6c-0.2-0.3-0.3-0.6-0.3-1c-0.1,0.1-0.2,0.3-0.5,0.5c-0.2,0.2-0.5,0.4-0.7,0.6
		C2227.6,119.1,2226.9,119.2,2226.3,119.2z"/>
	<path id="XMLID_178_" d="M2244.6,106.1c0.3,0.1,0.6,0.3,0.8,0.5s0.3,0.6,0.3,1.2c0,0.5-0.2,1.1-0.5,1.8c-0.3,0.6-0.8,1-1.4,1
		c-0.3,0-0.6-0.1-0.9-0.2s-0.6-0.2-1.1-0.2s-0.9,0.2-1.3,0.5c-0.4,0.3-0.6,0.7-0.6,1.2v5.3c0,0.4,0,0.7,0,0.9s-0.1,0.4-0.2,0.7
		c-0.3,0.4-0.9,0.7-2,0.7c-0.8,0-1.4-0.1-1.7-0.4c-0.3-0.2-0.4-0.6-0.5-1.1c0-0.2,0-0.4,0-0.7v-8.9c0-0.4,0-0.7,0-0.9
		s0.1-0.4,0.2-0.6c0.2-0.5,0.9-0.7,2-0.7c1,0,1.6,0.2,1.9,0.6c0.2,0.3,0.3,0.5,0.3,0.8c0.1-0.1,0.2-0.3,0.4-0.4
		c0.2-0.2,0.5-0.4,1-0.7s1-0.4,1.4-0.4s0.7,0,1,0.1C2244.1,106,2244.4,106,2244.6,106.1z"/>
	<path id="XMLID_180_" d="M2254.6,106c1.7,0,3.1,0.6,4.2,1.9c1.1,1.3,1.7,2.9,1.7,4.7v4.4c0,0.4,0,0.7,0,0.9s-0.1,0.4-0.2,0.6
		c-0.2,0.5-0.9,0.7-2,0.7c-1.2,0-1.9-0.3-2.1-0.9c-0.1-0.3-0.2-0.7-0.2-1.3v-4.4c0-0.7-0.2-1.2-0.6-1.6c-0.4-0.4-0.9-0.6-1.6-0.6
		c-0.7,0-1.2,0.2-1.6,0.6c-0.4,0.4-0.6,0.9-0.6,1.6v4.5c0,0.4,0,0.7,0,0.9s-0.1,0.4-0.2,0.6c-0.2,0.5-0.9,0.7-1.9,0.7
		c-1.1,0-1.7-0.2-1.9-0.7c-0.1-0.3-0.2-0.5-0.2-0.7s0-0.5,0-0.9v-8.9c0-0.4,0-0.7,0-0.8c0-0.2,0.1-0.4,0.2-0.6
		c0.2-0.4,0.9-0.6,1.9-0.6s1.7,0.2,1.9,0.6c0.2,0.3,0.3,0.6,0.3,1c0.1-0.1,0.2-0.3,0.5-0.5c0.2-0.2,0.5-0.4,0.7-0.5
		C2253.3,106.2,2253.9,106,2254.6,106z"/>
	<path id="XMLID_182_" d="M2275.4,111c0,1-0.3,1.8-0.8,2.3s-1.1,0.7-1.7,0.7h-6c0,0.5,0.3,0.9,0.8,1.2c0.6,0.3,1.1,0.5,1.7,0.5
		c1,0,1.7-0.1,2.3-0.3l0.3-0.1c0.4-0.2,0.7-0.3,1-0.3c0.5,0,1,0.4,1.4,1.1c0.2,0.5,0.3,0.8,0.3,1.2c0,1.5-1.8,2.2-5.4,2.2
		c-1.2,0-2.4-0.2-3.3-0.6c-1-0.4-1.7-1-2.3-1.7c-1.1-1.4-1.6-2.9-1.6-4.6c0-2.1,0.7-3.8,2.1-5.1s3.1-1.9,5.1-1.9
		c2.3,0,4.1,0.8,5.2,2.5C2275.1,109.1,2275.4,110,2275.4,111z M2269.9,111.8c0.6,0,1-0.3,1-0.8c0-0.4-0.1-0.7-0.4-0.9
		c-0.3-0.2-0.7-0.4-1.3-0.4c-0.5,0-1.1,0.2-1.6,0.7s-0.8,0.9-0.8,1.4C2266.8,111.8,2269.9,111.8,2269.9,111.8z"/>
	<path id="XMLID_185_" d="M2288.6,106.1c1,0.4,1.5,1,1.5,1.6c0,0.3-0.1,0.6-0.2,0.9c-0.1,0.3-0.2,0.4-0.2,0.4l-6.6,14.8
		c-0.1,0.3-0.2,0.6-0.3,0.7c-0.1,0.2-0.2,0.3-0.4,0.5s-0.5,0.2-0.8,0.2s-0.7-0.1-1.3-0.4c-1-0.4-1.5-1-1.5-1.6
		c0-0.4,0.8-2.3,2.4-5.8l-5-8.5c-0.3-0.6-0.5-1-0.5-1.2c0-0.5,0.5-1.1,1.4-1.6c0.6-0.3,1-0.5,1.3-0.5s0.6,0.1,0.8,0.2
		s0.3,0.3,0.4,0.4c0.1,0.1,0.6,0.9,1.4,2.3c0.8,1.4,1.6,2.7,2.4,4c0.1-0.3,0.5-1.3,1.4-3.1c0.8-1.8,1.3-2.8,1.3-2.9
		c0.1-0.1,0.2-0.3,0.3-0.4c0.2-0.3,0.5-0.4,0.9-0.4C2287.6,105.7,2288.1,105.9,2288.6,106.1z"/>
	<path id="XMLID_187_" d="M2294.9,110.8v-0.2c0-0.7,0.2-1.3,0.6-1.7c0.4-0.4,0.9-0.7,1.4-0.8s0.9-0.4,1.4-0.7
		c0.4-0.3,0.6-0.8,0.6-1.3s-0.2-1-0.5-1.3s-0.8-0.5-1.4-0.5c-0.6,0-1.1,0.1-1.4,0.3s-0.5,0.4-0.5,0.6l-0.1,0.3
		c-0.2,0.4-0.3,0.8-0.5,1s-0.5,0.3-0.8,0.3s-0.7-0.1-1.3-0.3c-1-0.4-1.5-0.9-1.5-1.4c0-0.3,0.1-0.5,0.2-0.8c0.1-0.3,0.2-0.5,0.3-0.7
		s0.2-0.5,0.5-0.9s0.6-0.8,1-1.1c0.4-0.3,0.9-0.6,1.6-0.9c0.7-0.3,1.5-0.4,2.3-0.4c1.8,0,3.2,0.6,4.4,1.7c1.1,1.1,1.7,2.5,1.7,4
		c0,0.7-0.1,1.4-0.4,2s-0.6,1.1-0.9,1.5c-0.7,0.7-1.4,1.2-2.1,1.4l-0.4,0.1c0,0.3,0,0.5,0,0.7s-0.1,0.3-0.2,0.5s-0.3,0.3-0.6,0.4
		s-0.7,0.1-1.2,0.1s-0.9,0-1.2-0.1s-0.5-0.2-0.6-0.4c-0.1-0.2-0.2-0.4-0.2-0.5C2294.9,111.4,2294.9,111.2,2294.9,110.8z
		 M2294.8,115.3c0.1-0.3,0.4-0.5,0.7-0.6s0.9-0.2,1.6-0.2c0.7,0,1.3,0.2,1.6,0.5s0.5,1,0.5,1.9c0,0.7-0.1,1.2-0.3,1.5
		s-0.4,0.5-0.8,0.7c-0.4,0.2-0.9,0.2-1.6,0.2s-1.3-0.2-1.7-0.5c-0.3-0.3-0.4-0.8-0.4-1.5v-0.4c0-0.4,0-0.7,0-0.9
		S2294.6,115.6,2294.8,115.3z"/>
</g>
</svg>
