<?xml version="1.0" encoding="utf-8"?>
<!-- Generator: Adobe Illustrator 19.0.0, SVG Export Plug-In . SVG Version: 6.00 Build 0)  -->
<svg version="1.1" id="Content" xmlns="http://www.w3.org/2000/svg" xmlns:xlink="http://www.w3.org/1999/xlink" x="0px" y="0px"
	 viewBox="539 -242.7 1920 1080" style="enable-background:new 539 -242.7 1920 1080;" xml:space="preserve">
<style type="text/css">
	.st0{fill:#FFF6C7;}
	.st1{fill:#020202;}
	.st2{fill:#091318;}
	.st3{fill:url(#XMLID_6_);}
	.st4{fill:url(#XMLID_7_);}
	.st5{fill:url(#XMLID_8_);}
	.st6{fill:url(#XMLID_13_);}
	.st7{fill:url(#XMLID_14_);}
	.st8{fill:url(#XMLID_33_);}
	.st9{fill:url(#XMLID_34_);}
	.st10{fill:url(#XMLID_35_);}
	.st11{opacity:0.41;fill:url(#XMLID_36_);enable-background:new    ;}
	.st12{opacity:0.41;fill:url(#XMLID_39_);enable-background:new    ;}
	.st13{opacity:0.41;fill:url(#XMLID_40_);enable-background:new    ;}
	.st14{opacity:0.41;fill:url(#XMLID_41_);enable-background:new    ;}
	.st15{opacity:0.41;}
	.st16{fill:#FFF6C8;}
	.st17{opacity:0.21;}
	.st18{fill:#47665A;}
	.st19{fill:#FDFDFE;}
	.st20{fill:url(#XMLID_42_);}
	.st21{opacity:0.83;fill:#FFFFFF;}
	.st22{fill:url(#Circle_1_);}
	.st23{fill:#D6D6D6;}
	.st24{font-family:'Poppins-Bold';}
	.st25{font-size:40px;}
</style>
<symbol  id="sparkle" viewBox="-5.5 -5.5 11 11">
	<path id="XMLID_2_" class="st0" d="M4.8,0.7H0.7v4.1c0,0.4-0.3,0.7-0.7,0.7s-0.7-0.3-0.7-0.7V0.7h-4.1c-0.4,0-0.7-0.3-0.7-0.7
		s0.3-0.7,0.7-0.7h4.1v-4.1c0-0.4,0.3-0.7,0.7-0.7s0.7,0.3,0.7,0.7v4.1h4.1c0.4,0,0.7,0.3,0.7,0.7S5.1,0.7,4.8,0.7z"/>
</symbol>
<symbol  id="stars" viewBox="-4.3 -3.8 8.6 7.6">
	<path id="XMLID_1_" class="st0" d="M4.3,0c0-2.1-1.9-3.8-4.3-3.8S-4.3-2.1-4.3,0S-2.4,3.8,0,3.8S4.3,2.1,4.3,0z"/>
</symbol>
<g id="XMLID_125_">
	<path id="XMLID_152_" class="st1" d="M906.5-125.7c1.9-28.5-18.5-54-47.2-58c-29-4-55.8,15.4-61.4,43.7
		C833.2-130,870.2-128.4,906.5-125.7z"/>
</g>
<rect id="XMLID_38_" x="537.6" y="-241" class="st2" width="1920" height="1080"/>
<use xlink:href="#stars"  width="8.6" height="7.6" id="XMLID_99_" x="-4.3" y="-3.8" transform="matrix(1 0 0 -1 580.8859 422.3463)" style="overflow:visible;"/>
<use xlink:href="#stars"  width="8.6" height="7.6" id="XMLID_98_" x="-4.3" y="-3.8" transform="matrix(1 0 0 -1 739.4394 472.5214)" style="overflow:visible;enable-background:new    ;"/>
<use xlink:href="#stars"  width="8.6" height="7.6" id="XMLID_97_" x="-4.3" y="-3.8" transform="matrix(1 0 0 -1 739.4394 -19.1015)" style="overflow:visible;enable-background:new    ;"/>
<use xlink:href="#stars"  width="8.6" height="7.6" id="XMLID_96_" x="-4.3" y="-3.8" transform="matrix(1 0 0 -1 1850.4398 767.336)" style="overflow:visible;enable-background:new    ;"/>
<use xlink:href="#stars"  width="8.6" height="7.6" id="XMLID_95_" x="-4.3" y="-3.8" transform="matrix(1 0 0 -1 1529.035 457.8045)" style="overflow:visible;enable-background:new    ;"/>
<use xlink:href="#stars"  width="8.6" height="7.6" id="XMLID_94_" x="-4.3" y="-3.8" transform="matrix(1 0 0 -1 637.2373 615.627)" style="overflow:visible;enable-background:new    ;"/>
<use xlink:href="#stars"  width="8.6" height="7.6" id="XMLID_92_" x="-4.3" y="-3.8" transform="matrix(1 0 0 -1 1293.4874 -62.2675)" style="overflow:visible;enable-background:new    ;"/>
<use xlink:href="#stars"  width="8.6" height="7.6" id="XMLID_91_" x="-4.3" y="-3.8" transform="matrix(1 0 0 -1 1585.4412 -164.4544)" style="overflow:visible;enable-background:new    ;"/>
<use xlink:href="#stars"  width="8.6" height="7.6" id="XMLID_90_" x="-4.3" y="-3.8" transform="matrix(1 0 0 -1 1963.6115 38.3665)" style="overflow:visible;enable-background:new    ;"/>
<use xlink:href="#stars"  width="8.6" height="7.6" id="XMLID_89_" x="-4.3" y="-3.8" transform="matrix(1 0 0 -1 1551.2124 715.0448)" style="overflow:visible;enable-background:new    ;"/>
<use xlink:href="#stars"  width="8.6" height="7.6" id="XMLID_88_" x="-4.3" y="-3.8" transform="matrix(1 0 0 -1 1837.504 636.4666)" style="overflow:visible;enable-background:new    ;"/>
<use xlink:href="#stars"  width="8.6" height="7.6" id="XMLID_87_" x="-4.3" y="-3.8" transform="matrix(1 0 0 -1 2093.9846 680.3623)" style="overflow:visible;enable-background:new    ;"/>
<use xlink:href="#stars"  width="8.6" height="7.6" id="XMLID_86_" x="-4.3" y="-3.8" transform="matrix(1 0 0 -1 2254.4541 451.2935)" style="overflow:visible;enable-background:new    ;"/>
<use xlink:href="#stars"  width="8.6" height="7.6" id="XMLID_85_" x="-4.3" y="-3.8" transform="matrix(1 0 0 -1 2276.7737 72.3362)" style="overflow:visible;enable-background:new    ;"/>
<use xlink:href="#stars"  width="8.6" height="7.6" id="XMLID_84_" x="-4.3" y="-3.8" transform="matrix(1 0 0 -1 2346.8496 194.9971)" style="overflow:visible;enable-background:new    ;"/>
<use xlink:href="#stars"  width="8.6" height="7.6" id="XMLID_83_" x="-4.3" y="-3.8" transform="matrix(1 0 0 -1 2348.5894 593.7957)" style="overflow:visible;enable-background:new    ;"/>
<use xlink:href="#stars"  width="8.6" height="7.6" id="XMLID_82_" x="-4.3" y="-3.8" transform="matrix(1 0 0 -1 2171.9468 100.6973)" style="overflow:visible;enable-background:new    ;"/>
<use xlink:href="#stars"  width="8.6" height="7.6" id="XMLID_81_" x="-4.3" y="-3.8" transform="matrix(1 0 0 -1 2097.8264 -94.4096)" style="overflow:visible;enable-background:new    ;"/>
<use xlink:href="#stars"  width="8.6" height="7.6" id="XMLID_80_" x="-4.3" y="-3.8" transform="matrix(1 0 0 -1 2234.5234 -92.3677)" style="overflow:visible;enable-background:new    ;"/>
<use xlink:href="#stars"  width="8.6" height="7.6" id="XMLID_79_" x="-4.3" y="-3.8" transform="matrix(1 0 0 -1 1875.3597 -72.2891)" style="overflow:visible;enable-background:new    ;"/>
<use xlink:href="#stars"  width="8.6" height="7.6" id="XMLID_78_" x="-4.3" y="-3.8" transform="matrix(1 0 0 -1 1565.6904 258.6968)" style="overflow:visible;enable-background:new    ;"/>
<use xlink:href="#stars"  width="8.6" height="7.6" id="XMLID_77_" x="-4.3" y="-3.8" transform="matrix(1 0 0 -1 2054.0212 479.3147)" style="overflow:visible;enable-background:new    ;"/>
<use xlink:href="#stars"  width="8.6" height="7.6" id="XMLID_76_" x="-4.3" y="-3.8" transform="matrix(1 0 0 -1 1608.6814 34.5516)" style="overflow:visible;enable-background:new    ;"/>
<use xlink:href="#stars"  width="8.6" height="7.6" id="XMLID_75_" x="-4.3" y="-3.8" transform="matrix(1 0 0 -1 1232.801 -134.9201)" style="overflow:visible;enable-background:new    ;"/>
<use xlink:href="#stars"  width="8.6" height="7.6" id="XMLID_74_" x="-4.3" y="-3.8" transform="matrix(1 0 0 -1 816.8966 47.5188)" style="overflow:visible;enable-background:new    ;"/>
<use xlink:href="#stars"  width="8.6" height="7.6" id="XMLID_73_" x="-4.3" y="-3.8" transform="matrix(1 0 0 -1 1122.8717 334.3097)" style="overflow:visible;enable-background:new    ;"/>
<use xlink:href="#stars"  width="8.6" height="7.6" id="XMLID_71_" x="-4.3" y="-3.8" transform="matrix(1 0 0 -1 1604.3018 337.002)" style="overflow:visible;enable-background:new    ;"/>
<use xlink:href="#stars"  width="8.6" height="7.6" id="XMLID_70_" x="-4.3" y="-3.8" transform="matrix(1 0 0 -1 595.2186 -42.0925)" style="overflow:visible;enable-background:new    ;"/>
<use xlink:href="#stars"  width="8.6" height="7.6" id="XMLID_69_" x="-4.3" y="-3.8" transform="matrix(1 0 0 -1 1285.4794 48.5665)" style="overflow:visible;enable-background:new    ;"/>
<use xlink:href="#stars"  width="8.6" height="7.6" id="XMLID_68_" x="-4.3" y="-3.8" transform="matrix(1 0 0 -1 1192.5577 537.2542)" style="overflow:visible;enable-background:new    ;"/>
<use xlink:href="#stars"  width="8.6" height="7.6" id="XMLID_66_" x="-4.3" y="-3.8" transform="matrix(1 0 0 -1 724.1816 690.04)" style="overflow:visible;enable-background:new    ;"/>
<use xlink:href="#stars"  width="8.6" height="7.6" id="XMLID_65_" x="-4.3" y="-3.8" transform="matrix(1 0 0 -1 637.2373 187.0042)" style="overflow:visible;enable-background:new    ;"/>
<use xlink:href="#stars"  width="8.6" height="7.6" id="XMLID_63_" x="-4.3" y="-3.8" transform="matrix(1 0 0 -1 896.6419 348.528)" style="overflow:visible;enable-background:new    ;"/>
<use xlink:href="#stars"  width="8.6" height="7.6" id="XMLID_62_" x="-4.3" y="-3.8" transform="matrix(1 0 0 -1 1138.9645 86.2336)" style="overflow:visible;enable-background:new    ;"/>
<use xlink:href="#stars"  width="8.6" height="7.6" id="XMLID_58_" x="-4.3" y="-3.8" transform="matrix(1 0 0 -1 1332.5706 415.2039)" style="overflow:visible;enable-background:new    ;"/>
<use xlink:href="#stars"  width="8.6" height="7.6" id="XMLID_55_" x="-4.3" y="-3.8" transform="matrix(1 0 0 -1 1719.4319 767.171)" style="overflow:visible;enable-background:new    ;"/>
<use xlink:href="#sparkle"  width="11" height="11" id="XMLID_133_" x="-5.5" y="-5.5" transform="matrix(0.9818 0 0 -0.9818 700.3057 482.0656)" style="overflow:visible;"/>
<use xlink:href="#sparkle"  width="11" height="11" id="XMLID_132_" x="-5.5" y="-5.5" transform="matrix(0.9818 0 0 -0.9818 1018.5667 -153.9654)" style="overflow:visible;enable-background:new    ;"/>
<use xlink:href="#sparkle"  width="11" height="11" id="XMLID_131_" x="-5.5" y="-5.5" transform="matrix(0.9818 0 0 -0.9818 1520.5726 -110.9508)" style="overflow:visible;enable-background:new    ;"/>
<use xlink:href="#sparkle"  width="11" height="11" id="XMLID_130_" x="-5.5" y="-5.5" transform="matrix(0.9818 0 0 -0.9818 1957.2303 -24.5178)" style="overflow:visible;enable-background:new    ;"/>
<use xlink:href="#sparkle"  width="11" height="11" id="XMLID_129_" x="-5.5" y="-5.5" transform="matrix(0.9818 0 0 -0.9818 2153.6938 61.7217)" style="overflow:visible;enable-background:new    ;"/>
<use xlink:href="#sparkle"  width="11" height="11" id="XMLID_128_" x="-5.5" y="-5.5" transform="matrix(0.9818 0 0 -0.9818 2334.343 -30.3095)" style="overflow:visible;enable-background:new    ;"/>
<use xlink:href="#sparkle"  width="11" height="11" id="XMLID_127_" x="-5.5" y="-5.5" transform="matrix(0.9818 0 0 -0.9818 2332.1016 -153.3168)" style="overflow:visible;enable-background:new    ;"/>
<use xlink:href="#sparkle"  width="11" height="11" id="XMLID_126_" x="-5.5" y="-5.5" transform="matrix(0.9818 0 0 -0.9818 2005.5017 -145.5162)" style="overflow:visible;enable-background:new    ;"/>
<use xlink:href="#sparkle"  width="11" height="11" id="XMLID_124_" x="-5.5" y="-5.5" transform="matrix(0.9818 0 0 -0.9818 684.9243 -123.2505)" style="overflow:visible;enable-background:new    ;"/>
<use xlink:href="#sparkle"  width="11" height="11" id="XMLID_123_" x="-5.5" y="-5.5" transform="matrix(0.9818 0 0 -0.9818 626.0185 82.2773)" style="overflow:visible;enable-background:new    ;"/>
<use xlink:href="#sparkle"  width="11" height="11" id="XMLID_122_" x="-5.5" y="-5.5" transform="matrix(0.9818 0 0 -0.9818 602.2458 -173.5778)" style="overflow:visible;enable-background:new    ;"/>
<use xlink:href="#sparkle"  width="11" height="11" id="XMLID_121_" x="-5.5" y="-5.5" transform="matrix(0.9818 0 0 -0.9818 2084.0457 239.6769)" style="overflow:visible;enable-background:new    ;"/>
<use xlink:href="#sparkle"  width="11" height="11" id="XMLID_120_" x="-5.5" y="-5.5" transform="matrix(0.9818 0 0 -0.9818 1691.5704 192.4209)" style="overflow:visible;enable-background:new    ;"/>
<use xlink:href="#sparkle"  width="11" height="11" id="XMLID_119_" x="-5.5" y="-5.5" transform="matrix(0.9818 0 0 -0.9818 1070.7356 15.9392)" style="overflow:visible;enable-background:new    ;"/>
<use xlink:href="#sparkle"  width="11" height="11" id="XMLID_118_" x="-5.5" y="-5.5" transform="matrix(0.9818 0 0 -0.9818 1119.3342 -81.2522)" style="overflow:visible;enable-background:new    ;"/>
<use xlink:href="#sparkle"  width="11" height="11" id="XMLID_117_" x="-5.5" y="-5.5" transform="matrix(0.9818 0 0 -0.9818 760.9939 417.1094)" style="overflow:visible;enable-background:new    ;"/>
<use xlink:href="#sparkle"  width="11" height="11" id="XMLID_116_" x="-5.5" y="-5.5" transform="matrix(0.9818 0 0 -0.9818 1533.0074 130.3625)" style="overflow:visible;enable-background:new    ;"/>
<use xlink:href="#sparkle"  width="11" height="11" id="XMLID_115_" x="-5.5" y="-5.5" transform="matrix(0.9818 0 0 -0.9818 2203.9133 200.5346)" style="overflow:visible;enable-background:new    ;"/>
<use xlink:href="#sparkle"  width="11" height="11" id="XMLID_114_" x="-5.5" y="-5.5" transform="matrix(0.9818 0 0 -0.9818 1678.9044 -131.4716)" style="overflow:visible;enable-background:new    ;"/>
<use xlink:href="#sparkle"  width="11" height="11" id="XMLID_113_" x="-5.5" y="-5.5" transform="matrix(0.9818 0 0 -0.9818 1713.069 -42.0355)" style="overflow:visible;enable-background:new    ;"/>
<use xlink:href="#sparkle"  width="11" height="11" id="XMLID_112_" x="-5.5" y="-5.5" transform="matrix(0.9818 0 0 -0.9818 694.889 304.3509)" style="overflow:visible;enable-background:new    ;"/>
<use xlink:href="#sparkle"  width="11" height="11" id="XMLID_111_" x="-5.5" y="-5.5" transform="matrix(0.9818 0 0 -0.9818 1545.3901 491.2344)" style="overflow:visible;enable-background:new    ;"/>
<use xlink:href="#sparkle"  width="11" height="11" id="XMLID_110_" x="-5.5" y="-5.5" transform="matrix(0.9818 0 0 -0.9818 671.5023 729.7224)" style="overflow:visible;enable-background:new    ;"/>
<use xlink:href="#sparkle"  width="11" height="11" id="XMLID_108_" x="-5.5" y="-5.5" transform="matrix(0.9818 0 0 -0.9818 2285.6899 711.2299)" style="overflow:visible;enable-background:new    ;"/>
<use xlink:href="#sparkle"  width="11" height="11" id="XMLID_107_" x="-5.5" y="-5.5" transform="matrix(0.9818 0 0 -0.9818 2077.1765 325.0446)" style="overflow:visible;enable-background:new    ;"/>
<use xlink:href="#sparkle"  width="11" height="11" id="XMLID_106_" x="-5.5" y="-5.5" transform="matrix(0.9818 0 0 -0.9818 2382.3474 296.6362)" style="overflow:visible;enable-background:new    ;"/>
<use xlink:href="#sparkle"  width="11" height="11" id="XMLID_105_" x="-5.5" y="-5.5" transform="matrix(0.9818 0 0 -0.9818 1353.1217 69.9791)" style="overflow:visible;enable-background:new    ;"/>
<use xlink:href="#sparkle"  width="11" height="11" id="XMLID_104_" x="-5.5" y="-5.5" transform="matrix(0.9818 0 0 -0.9818 1254.1775 323.4649)" style="overflow:visible;enable-background:new    ;"/>
<use xlink:href="#sparkle"  width="11" height="11" id="XMLID_103_" x="-5.5" y="-5.5" transform="matrix(0.9818 0 0 -0.9818 1297.0837 465.2542)" style="overflow:visible;enable-background:new    ;"/>
<use xlink:href="#sparkle"  width="11" height="11" id="XMLID_102_" x="-5.5" y="-5.5" transform="matrix(0.9818 0 0 -0.9818 1145.4933 616.9997)" style="overflow:visible;enable-background:new    ;"/>
<use xlink:href="#sparkle"  width="11" height="11" id="XMLID_100_" x="-5.5" y="-5.5" transform="matrix(0.9818 0 0 -0.9818 1383.2269 207.452)" style="overflow:visible;enable-background:new    ;"/>
<linearGradient id="XMLID_6_" gradientUnits="userSpaceOnUse" x1="2236.6982" y1="203.4484" x2="2228.1902" y2="134.1539" gradientTransform="matrix(0.9986 5.374856e-002 5.374856e-002 -0.9986 -3.8424 458.4605)">
	<stop  offset="0" style="stop-color:#FFF6C8;stop-opacity:0.3"/>
	<stop  offset="1" style="stop-color:#FFF6C8;stop-opacity:0"/>
</linearGradient>
<path id="XMLID_53_" class="st3" d="M2421.8,458.9c1.2-22.6-19.2-42-45.7-43.5c-15.7-0.8-29.9,4.8-39.2,14.3
	c-13.7-5-31.1-8.5-50.3-9.5c-0.1,0-0.2,0-0.3,0c-2.9-27.7-55.3-52.4-120.9-55.9c-68.4-3.7-125.1,17-126.7,46.2"/>
<linearGradient id="XMLID_7_" gradientUnits="userSpaceOnUse" x1="1457.819" y1="-2.5233" x2="1442.5458" y2="-88.4308" gradientTransform="matrix(1 0 0 -1 0 593.84)">
	<stop  offset="0" style="stop-color:#FFF6C8;stop-opacity:0.3"/>
	<stop  offset="1" style="stop-color:#FFF6C8;stop-opacity:0"/>
</linearGradient>
<path id="XMLID_101_" class="st4" d="M1568.1,643.6c0-18.2-14.8-33-33-33c-16.3,0-29.8,11.8-32.5,27.3c-4.8-4.5-11.3-7.3-18.5-7.3
	c-4.1,0-7.9,0.9-11.4,2.5c-2.2-22.7-21.3-40.5-44.6-40.5c-23.3,0-42.4,17.8-44.6,40.5c-5.7-4-12.7-6.4-20.2-6.4
	c-19.4,0-35.2,15.7-35.2,35.2"/>
<linearGradient id="XMLID_8_" gradientUnits="userSpaceOnUse" x1="1238.5706" y1="359.1212" x2="1238.5706" y2="359.1212" gradientTransform="matrix(1 0 0 -1 0 593.84)">
	<stop  offset="0" style="stop-color:#FFF6C8;stop-opacity:0.3"/>
	<stop  offset="1" style="stop-color:#FFF6C8;stop-opacity:0"/>
</linearGradient>
<path id="XMLID_56_" class="st5" d="M1238.6,234.7"/>
<linearGradient id="XMLID_13_" gradientUnits="userSpaceOnUse" x1="1188.2706" y1="355.0213" x2="1188.2706" y2="355.0213" gradientTransform="matrix(1 0 0 -1 0 593.84)">
	<stop  offset="0" style="stop-color:#FFF6C8;stop-opacity:0.3"/>
	<stop  offset="1" style="stop-color:#FFF6C8;stop-opacity:0"/>
</linearGradient>
<path id="XMLID_54_" class="st6" d="M1188.3,238.8"/>
<linearGradient id="XMLID_14_" gradientUnits="userSpaceOnUse" x1="2080.9148" y1="-127.8007" x2="2069.1519" y2="-193.965" gradientTransform="matrix(1 0 0 -1 0 593.84)">
	<stop  offset="0" style="stop-color:#FFF6C8;stop-opacity:0.3"/>
	<stop  offset="1" style="stop-color:#FFF6C8;stop-opacity:0"/>
</linearGradient>
<path id="XMLID_135_" class="st7" d="M2160.3,777.8c0-9.9-10.8-17.8-24.2-17.8c-1.6,0-3.2,0.1-4.8,0.3c0-0.1,0-0.2,0-0.3
	c0-19.7-17.5-35.7-39.1-35.7c-16.8,0-31.1,9.7-36.6,23.3c-7.4-9.5-19-15.6-31.9-15.6c-22.4,0-40.5,18.1-40.5,40.5"/>
<linearGradient id="XMLID_33_" gradientUnits="userSpaceOnUse" x1="704.1148" y1="259.3993" x2="692.3518" y2="193.2351" gradientTransform="matrix(1 0 0 -1 0 593.84)">
	<stop  offset="0" style="stop-color:#FFF6C8;stop-opacity:0.3"/>
	<stop  offset="1" style="stop-color:#FFF6C8;stop-opacity:0"/>
</linearGradient>
<path id="XMLID_12_" class="st8" d="M783.5,390.6c0-9.9-10.8-17.8-24.2-17.8c-1.6,0-3.2,0.1-4.8,0.3c0-0.1,0-0.2,0-0.3
	c0-19.7-17.5-35.7-39.1-35.7c-16.8,0-31.1,9.7-36.6,23.3c-7.4-9.5-19-15.6-31.9-15.6c-22.4,0-40.5,18.1-40.5,40.5"/>
<linearGradient id="XMLID_34_" gradientUnits="userSpaceOnUse" x1="778.7706" y1="-184.6788" x2="778.7706" y2="-184.6788" gradientTransform="matrix(1 0 0 -1 0 593.84)">
	<stop  offset="0" style="stop-color:#FFF6C8;stop-opacity:0.3"/>
	<stop  offset="1" style="stop-color:#FFF6C8;stop-opacity:0"/>
</linearGradient>
<path id="XMLID_134_" class="st9" d="M778.8,778.5"/>
<linearGradient id="XMLID_35_" gradientUnits="userSpaceOnUse" x1="2169.1833" y1="651.4967" x2="2157.6155" y2="586.4318" gradientTransform="matrix(1 0 0 -1 0 593.84)">
	<stop  offset="0" style="stop-color:#FFF6C8;stop-opacity:0.3"/>
	<stop  offset="1" style="stop-color:#FFF6C8;stop-opacity:0"/>
</linearGradient>
<path id="XMLID_136_" class="st10" d="M2310.9,1.3c0-12.8-13.3-23.2-29.8-23.2c-3.1,0-6.1,0.4-8.9,1C2269.8-35,2251.4-46,2229-46
	c-15.3,0-28.7,5.1-36.5,12.9c-9-1.7-18.8-2.7-29.1-2.7c-20.7,0-39.4,3.8-53.4,10.1c-3.4-24.2-24.2-42.8-49.3-42.8
	c-27.5,0-49.8,22.3-49.8,49.8"/>
<linearGradient id="XMLID_36_" gradientUnits="userSpaceOnUse" x1="805.383" y1="706.5003" x2="786.1588" y2="598.3691" gradientTransform="matrix(0.9905 0.1377 0.1377 -0.9905 -26.3807 407.4777)">
	<stop  offset="0" style="stop-color:#FFFFFF;stop-opacity:0.9"/>
	<stop  offset="8.430076e-002" style="stop-color:#FFFEF7;stop-opacity:0.8241"/>
	<stop  offset="0.6911" style="stop-color:#FFF8D5;stop-opacity:0.278"/>
	<stop  offset="1" style="stop-color:#FFF6C8;stop-opacity:0"/>
</linearGradient>
<circle id="XMLID_137_" class="st11" cx="851.7" cy="-129.2" r="54.9"/>
<linearGradient id="XMLID_39_" gradientUnits="userSpaceOnUse" x1="805.383" y1="706.5003" x2="786.1588" y2="598.3691" gradientTransform="matrix(0.9905 0.1377 0.1377 -0.9905 -26.3807 407.4777)">
	<stop  offset="0" style="stop-color:#FFFFFF;stop-opacity:0.9"/>
	<stop  offset="8.430076e-002" style="stop-color:#FFFEF7;stop-opacity:0.8241"/>
	<stop  offset="0.6911" style="stop-color:#FFF8D5;stop-opacity:0.278"/>
	<stop  offset="1" style="stop-color:#FFF6C8;stop-opacity:0"/>
</linearGradient>
<circle id="XMLID_139_" class="st12" cx="851.7" cy="-129.2" r="54.9"/>
<linearGradient id="XMLID_40_" gradientUnits="userSpaceOnUse" x1="1102.7529" y1="396.806" x2="1083.5287" y2="288.6748" gradientTransform="matrix(0.9905 0.1377 0.1377 -0.9905 -26.3807 407.4777)">
	<stop  offset="0" style="stop-color:#FFFFFF;stop-opacity:0.9"/>
	<stop  offset="8.430076e-002" style="stop-color:#FFFEF7;stop-opacity:0.8241"/>
	<stop  offset="0.6911" style="stop-color:#FFF8D5;stop-opacity:0.278"/>
	<stop  offset="1" style="stop-color:#FFF6C8;stop-opacity:0"/>
</linearGradient>
<circle id="XMLID_10_" class="st13" cx="1103.6" cy="218.5" r="54.9"/>
<linearGradient id="XMLID_41_" gradientUnits="userSpaceOnUse" x1="1894.8336" y1="553.2619" x2="1875.6095" y2="445.1307" gradientTransform="matrix(0.9905 0.1377 0.1377 -0.9905 -26.3807 407.4777)">
	<stop  offset="0" style="stop-color:#FFFFFF;stop-opacity:0.9"/>
	<stop  offset="8.430076e-002" style="stop-color:#FFFEF7;stop-opacity:0.8241"/>
	<stop  offset="0.6911" style="stop-color:#FFF8D5;stop-opacity:0.278"/>
	<stop  offset="1" style="stop-color:#FFF6C8;stop-opacity:0"/>
</linearGradient>
<circle id="XMLID_9_" class="st14" cx="1909.7" cy="172.6" r="54.9"/>
<g id="XMLID_138_" class="st15">
	<path id="XMLID_140_" class="st16" d="M850.7-143.2c0.3,0,0.7,0.1,1,0.1C851.3-143.1,851-143.2,850.7-143.2z"/>
	<path id="XMLID_141_" class="st16" d="M855.6-142.5c0.3,0,0.7,0.1,1,0.1C856.2-142.4,855.9-142.5,855.6-142.5z"/>
	<path id="XMLID_142_" class="st16" d="M857.3-142.3c35.5,5.2,63.1,12.9,62.5,17.6c-0.7,4.8-31.4,4.5-68.6-0.6
		c-37.2-5.1-66.8-13.3-66.2-18.1c0.6-4.7,29.4-4.6,64.9,0.1c-46-6.1-83.5-5.2-84.5,2.2c-1,7.5,36.8,19,84.5,25.7s87.2,5.9,88.3-1.7
		C939.1-124.5,903.3-135.6,857.3-142.3z"/>
	<path id="XMLID_143_" class="st16" d="M856.6-142.4c0.3,0,0.5,0.1,0.8,0.1C857.1-142.3,856.8-142.4,856.6-142.4z"/>
	<path id="XMLID_144_" class="st16" d="M849.9-143.3c0.3,0,0.5,0.1,0.8,0.1C850.4-143.2,850.2-143.3,849.9-143.3z"/>
	<path id="XMLID_145_" class="st16" d="M853.6-142.8c0.7,0.1,1.3,0.2,2,0.3C854.9-142.6,854.3-142.7,853.6-142.8z"/>
	<path id="XMLID_146_" class="st16" d="M851.7-143.1c0.7,0.1,1.3,0.2,2,0.3C853-142.9,852.3-143,851.7-143.1z"/>
</g>
<g id="Satelite" class="st17">
	<g id="XMLID_148_">
		<path id="XMLID_163_" class="st18" d="M1414.9-127.5c-3.9-9.1,0.2-19.7,9.3-23.6c9.1-3.9,19.7,0.2,23.6,9.3L1414.9-127.5z"/>
	</g>
	<g id="XMLID_147_">
		<path id="XMLID_162_" class="st19" d="M1447.8-141.8c-15.9,8.5-32.9,14.3-32.9,14.3L1447.8-141.8z"/>
	</g>
	<g id="XMLID_149_">
		<path id="XMLID_159_" class="st18" d="M1435.1-124.8l-7.8-17.9c-0.1-0.2,0-0.5,0.3-0.6c0.2-0.1,0.5,0,0.6,0.3l7.8,17.9
			c0.1,0.2,0,0.5-0.3,0.6C1435.5-124.5,1435.2-124.6,1435.1-124.8z"/>
	</g>
	<g id="XMLID_151_">
		<path id="XMLID_158_" class="st18" d="M1426.5-142.4l-7.8-17.9c-0.3-0.7,0-1.5,0.7-1.8c0.7-0.3,1.5,0,1.8,0.7l7.8,17.9
			c0.3,0.7,0,1.5-0.7,1.8C1427.6-141.3,1426.8-141.7,1426.5-142.4z"/>
	</g>
	<g id="XMLID_150_">
		
			<rect id="XMLID_161_" x="1393.9" y="-185.6" transform="matrix(0.3982 0.9173 -0.9173 0.3982 689.89 -1402.3024)" class="st18" width="39.6" height="20.5"/>
	</g>
	<g id="XMLID_154_">
		
			<rect id="XMLID_157_" x="1412.5" y="-209" transform="matrix(-0.3982 -0.9173 0.9173 -0.3982 2137.3284 1051.53)" class="st18" width="2.1" height="67.3"/>
	</g>
	<g id="XMLID_153_">
		
			<rect id="XMLID_160_" x="1445" y="-215.5" transform="matrix(-0.3982 -0.9173 0.9173 -0.3982 2205.6155 1063.3647)" class="st18" width="13.2" height="47.3"/>
	</g>
	<g id="XMLID_156_">
		
			<rect id="XMLID_155_" x="1368.8" y="-182.4" transform="matrix(-0.3982 -0.9173 0.9173 -0.3982 2068.7239 1039.6959)" class="st18" width="13.2" height="47.3"/>
	</g>
</g>
<use xlink:href="#stars"  width="8.6" height="7.6" id="XMLID_72_" x="-4.3" y="-3.8" transform="matrix(1 0 0 -1 909.8962 238.238)" style="overflow:visible;enable-background:new    ;"/>
<use xlink:href="#stars"  width="8.6" height="7.6" id="XMLID_32_" x="-4.3" y="-3.8" transform="matrix(1 0 0 -1 929.978 531.5165)" style="overflow:visible;enable-background:new    ;"/>
<use xlink:href="#stars"  width="8.6" height="7.6" id="XMLID_31_" x="-4.3" y="-3.8" transform="matrix(1 0 0 -1 1013.0138 646.1752)" style="overflow:visible;enable-background:new    ;"/>
<use xlink:href="#stars"  width="8.6" height="7.6" id="XMLID_30_" x="-4.3" y="-3.8" transform="matrix(1 0 0 -1 779.2574 593.7957)" style="overflow:visible;enable-background:new    ;"/>
<use xlink:href="#stars"  width="8.6" height="7.6" id="XMLID_29_" x="-4.3" y="-3.8" transform="matrix(1 0 0 -1 1427.0566 720.3846)" style="overflow:visible;enable-background:new    ;"/>
<use xlink:href="#stars"  width="8.6" height="7.6" id="XMLID_28_" x="-4.3" y="-3.8" transform="matrix(1 0 0 -1 770.8045 212.5576)" style="overflow:visible;enable-background:new    ;"/>
<use xlink:href="#stars"  width="8.6" height="7.6" id="XMLID_27_" x="-4.3" y="-3.8" transform="matrix(1 0 0 -1 952.4087 117.6542)" style="overflow:visible;enable-background:new    ;"/>
<use xlink:href="#stars"  width="8.6" height="7.6" id="XMLID_26_" x="-4.3" y="-3.8" transform="matrix(1 0 0 -1 1598.7205 270.3382)" style="overflow:visible;enable-background:new    ;"/>
<use xlink:href="#stars"  width="8.6" height="7.6" id="XMLID_25_" x="-4.3" y="-3.8" transform="matrix(1 0 0 -1 1789.6321 405.3536)" style="overflow:visible;enable-background:new    ;"/>
<use xlink:href="#stars"  width="8.6" height="7.6" id="XMLID_24_" x="-4.3" y="-3.8" transform="matrix(1 0 0 -1 1831.8544 520.0045)" style="overflow:visible;enable-background:new    ;"/>
<use xlink:href="#stars"  width="8.6" height="7.6" id="XMLID_23_" x="-4.3" y="-3.8" transform="matrix(1 0 0 -1 1833.5273 110.0231)" style="overflow:visible;enable-background:new    ;"/>
<use xlink:href="#stars"  width="8.6" height="7.6" id="XMLID_22_" x="-4.3" y="-3.8" transform="matrix(1 0 0 -1 1926.2231 324.8481)" style="overflow:visible;enable-background:new    ;"/>
<use xlink:href="#sparkle"  width="11" height="11" id="XMLID_21_" x="-5.5" y="-5.5" transform="matrix(0.9818 0 0 -0.9818 891.2249 447.4789)" style="overflow:visible;enable-background:new    ;"/>
<use xlink:href="#sparkle"  width="11" height="11" id="XMLID_20_" x="-5.5" y="-5.5" transform="matrix(0.9818 0 0 -0.9818 1320.7891 326.5602)" style="overflow:visible;enable-background:new    ;"/>
<use xlink:href="#sparkle"  width="11" height="11" id="XMLID_19_" x="-5.5" y="-5.5" transform="matrix(0.9818 0 0 -0.9818 1593.1311 505.5886)" style="overflow:visible;enable-background:new    ;"/>
<use xlink:href="#sparkle"  width="11" height="11" id="XMLID_18_" x="-5.5" y="-5.5" transform="matrix(0.9818 0 0 -0.9818 1376.7643 589.597)" style="overflow:visible;enable-background:new    ;"/>
<use xlink:href="#sparkle"  width="11" height="11" id="XMLID_17_" x="-5.5" y="-5.5" transform="matrix(0.9818 0 0 -0.9818 909.8959 662.3658)" style="overflow:visible;enable-background:new    ;"/>
<use xlink:href="#sparkle"  width="11" height="11" id="XMLID_16_" x="-5.5" y="-5.5" transform="matrix(0.9818 0 0 -0.9818 990.9876 413.4185)" style="overflow:visible;enable-background:new    ;"/>
<use xlink:href="#sparkle"  width="11" height="11" id="XMLID_15_" x="-5.5" y="-5.5" transform="matrix(0.9818 0 0 -0.9818 1741.3418 292.4396)" style="overflow:visible;enable-background:new    ;"/>
<linearGradient id="XMLID_42_" gradientUnits="userSpaceOnUse" x1="1027.4126" y1="-144.0469" x2="1014.3948" y2="-217.2684" gradientTransform="matrix(1 0 0 -1 0 593.84)">
	<stop  offset="0" style="stop-color:#FFF6C8;stop-opacity:0.3"/>
	<stop  offset="1" style="stop-color:#FFF6C8;stop-opacity:0"/>
</linearGradient>
<path id="XMLID_11_" class="st20" d="M1136.9,787.5c0-19.9-16.1-36-36-36c-18.2,0-33.2,13.5-35.6,31c-10.2-9.9-24.1-15.9-39.5-15.9
	c-15.5,0-29.5,6.2-39.8,16.3c-4.1-17.6-21.5-30.8-42.4-30.8c-23.9,0-43.3,17.3-43.3,38.7"/>
<path class="st21" d="M2414.6,805.1H1208.8c-11.3,0-20.5-9.2-20.5-20.5V33.8c0-11.3,9.2-20.5,20.5-20.5h1205.9
	c11.3,0,20.5,9.2,20.5,20.5v750.8C2435.2,795.9,2426,805.1,2414.6,805.1z"/>
<linearGradient id="Circle_1_" gradientUnits="userSpaceOnUse" x1="857.3706" y1="63.2865" x2="857.3706" y2="306.0865" gradientTransform="matrix(1 0 0 -1 0 593.84)">
	<stop  offset="0" style="stop-color:#9F1D20"/>
	<stop  offset="1" style="stop-color:#F05360"/>
</linearGradient>
<circle id="Circle" class="st22" cx="857.4" cy="409.2" r="121.4"/>
<g id="XMLID_3_">
	<path id="XMLID_4_" class="st23" d="M871,343.7l45.4,93.9c1.9,3.8,2.9,6.7,2.9,8.6c0,4-3.3,7.7-9.8,10.9c-3.8,1.9-6.8,2.9-9,2.9
		c-2.2,0-4-0.5-5.4-1.5c-1.4-1-2.4-2.1-3-3.2c-0.6-1.1-1.5-2.8-2.6-5l-8.7-18.2h-46.7l-8.7,18.2c-1.1,2.2-2,3.9-2.6,4.9
		c-0.6,1-1.6,2-3,3.1c-1.4,1.1-3.2,1.6-5.4,1.6c-2.2,0-5.2-1-9-2.9c-6.5-3.1-9.8-6.7-9.8-10.8c0-1.9,1-4.8,2.9-8.6l45.4-94
		c1.2-2.6,3.1-4.7,5.6-6.2c2.5-1.6,5.2-2.4,8-2.4C863.6,334.9,868,337.8,871,343.7z M857.3,384l-11.1,23h22.4L857.3,384z"/>
</g>
<image style="overflow:visible;" width="1280" height="783" xlink:href="1280px-Node.js_logo.svg.png"  transform="matrix(0.2251 0 0 0.2251 1214.4685 617.7099)">
</image>
<image style="overflow:visible;" width="1280" height="905" xlink:href="1280px-React-icon.svg.png"  transform="matrix(0.2653 0 0 0.2653 1167.0701 211.9059)">
</image>
<image style="overflow:visible;" width="2272" height="1704" xlink:href="../Downloads/android-logo-12377.png"  transform="matrix(0.2009 0 0 0.2009 1108.614 366.0617)">
</image>
<image style="overflow:visible;" width="145" height="152" xlink:href="logo.png"  transform="matrix(1 0 0 1 1253.6891 54.3625)">
</image>
<text transform="matrix(1 0 0 1 1436.0079 90.0337)"><tspan x="0" y="0" class="st24 st25">REST API made in PHP with Symfony framework </tspan><tspan x="0" y="48" class="st24 st25">MySQL database with Doctrine ORM </tspan><tspan x="0" y="96" class="st24 st25">Twig as the templating engine</tspan></text>
<text transform="matrix(1 0 0 1 1466.0704 309.7508)"><tspan x="0" y="0" class="st24 st25">Webiste made with React</tspan><tspan x="0" y="48" class="st24 st25">Class based components</tspan></text>
<text transform="matrix(1 0 0 1 1466.0707 520.005)"><tspan x="0" y="0" class="st24 st25">Android mobile app made with React Native </tspan><tspan x="0" y="48" class="st24 st25">Firebase Messaging for push notifications</tspan></text>
<text transform="matrix(1 0 0 1 1533.0074 690.04)"><tspan x="0" y="0" class="st24 st25">Websocket server made with Node js</tspan><tspan x="0" y="48" class="st24 st25">and Socket IO framework</tspan></text>
</svg>
