<?xml version="1.0" encoding="utf-8"?>
<!-- Generator: Adobe Illustrator 19.0.0, SVG Export Plug-In . SVG Version: 6.00 Build 0)  -->
<svg version="1.1" id="Content" xmlns="http://www.w3.org/2000/svg" xmlns:xlink="http://www.w3.org/1999/xlink" x="0px" y="0px"
	 viewBox="539 -242.7 1920 1080" style="enable-background:new 539 -242.7 1920 1080;" xml:space="preserve">
<style type="text/css">
	.st0{fill:#FFF6C7;}
	.st1{fill:#020202;}
	.st2{fill:#091318;}
	.st3{fill:url(#XMLID_6_);}
	.st4{fill:url(#XMLID_7_);}
	.st5{fill:url(#XMLID_8_);}
	.st6{fill:url(#XMLID_13_);}
	.st7{fill:url(#XMLID_14_);}
	.st8{fill:url(#XMLID_35_);}
	.st9{fill:url(#XMLID_36_);}
	.st10{fill:url(#XMLID_37_);}
	.st11{opacity:0.41;fill:url(#XMLID_39_);enable-background:new    ;}
	.st12{opacity:0.41;fill:url(#XMLID_40_);enable-background:new    ;}
	.st13{opacity:0.41;fill:url(#XMLID_41_);enable-background:new    ;}
	.st14{opacity:0.41;fill:url(#XMLID_42_);enable-background:new    ;}
	.st15{opacity:0.41;}
	.st16{fill:#FFF6C8;}
	.st17{opacity:0.21;}
	.st18{fill:#47665A;}
	.st19{fill:#FDFDFE;}
	.st20{fill:url(#XMLID_43_);}
	.st21{fill:url(#Circle_1_);}
	.st22{fill:#D6D6D6;}
	.st23{opacity:0.83;fill:#FFFFFF;enable-background:new    ;}
	.st24{font-family:'Poppins-Bold';}
	.st25{font-size:40px;}
	.st26{enable-background:new    ;}
	.st27{fill:#A4C639;}
	.st28{fill:none;stroke:#A4C639;stroke-width:3;stroke-linecap:round;stroke-linejoin:round;}
	.st29{fill:#FFFFFF;}
</style>
<symbol  id="sparkle" viewBox="-5.5 -5.5 11 11">
	<path id="XMLID_3_" class="st0" d="M4.8,0.7H0.7v4.1c0,0.4-0.3,0.7-0.7,0.7s-0.7-0.3-0.7-0.7V0.7h-4.1c-0.4,0-0.7-0.3-0.7-0.7
		s0.3-0.7,0.7-0.7h4.1v-4.1c0-0.4,0.3-0.7,0.7-0.7s0.7,0.3,0.7,0.7v4.1h4.1c0.4,0,0.7,0.3,0.7,0.7S5.1,0.7,4.8,0.7z"/>
</symbol>
<symbol  id="stars" viewBox="-4.3 -3.8 8.6 7.6">
	<path id="XMLID_2_" class="st0" d="M4.3,0c0-2.1-1.9-3.8-4.3-3.8S-4.3-2.1-4.3,0S-2.4,3.8,0,3.8S4.3,2.1,4.3,0z"/>
</symbol>
<g id="XMLID_125_">
	<path id="XMLID_152_" class="st1" d="M907.9-116.9c1.9-28.5-18.5-54-47.2-58c-29-4-55.8,15.4-61.4,43.7
		C834.6-121.2,871.6-119.6,907.9-116.9z"/>
</g>
<rect id="XMLID_38_" x="539.3" y="-244.1" class="st2" width="1920" height="1081.4"/>
<use xlink:href="#stars"  width="8.6" height="7.6" id="XMLID_99_" x="-4.3" y="-3.8" transform="matrix(1 0 0 -1 582.2859 431.1656)" style="overflow:visible;"/>
<use xlink:href="#stars"  width="8.6" height="7.6" id="XMLID_98_" x="-4.3" y="-3.8" transform="matrix(1 0 0 -1 740.8394 481.3407)" style="overflow:visible;enable-background:new    ;"/>
<use xlink:href="#stars"  width="8.6" height="7.6" id="XMLID_97_" x="-4.3" y="-3.8" transform="matrix(1 0 0 -1 740.8394 -10.2822)" style="overflow:visible;enable-background:new    ;"/>
<use xlink:href="#stars"  width="8.6" height="7.6" id="XMLID_96_" x="-4.3" y="-3.8" transform="matrix(1 0 0 -1 1851.8398 776.1553)" style="overflow:visible;enable-background:new    ;"/>
<use xlink:href="#stars"  width="8.6" height="7.6" id="XMLID_95_" x="-4.3" y="-3.8" transform="matrix(1 0 0 -1 1530.4351 466.6238)" style="overflow:visible;enable-background:new    ;"/>
<use xlink:href="#stars"  width="8.6" height="7.6" id="XMLID_94_" x="-4.3" y="-3.8" transform="matrix(1 0 0 -1 638.6373 624.4463)" style="overflow:visible;enable-background:new    ;"/>
<use xlink:href="#stars"  width="8.6" height="7.6" id="XMLID_92_" x="-4.3" y="-3.8" transform="matrix(1 0 0 -1 1294.8875 -53.4482)" style="overflow:visible;enable-background:new    ;"/>
<use xlink:href="#stars"  width="8.6" height="7.6" id="XMLID_91_" x="-4.3" y="-3.8" transform="matrix(1 0 0 -1 1586.8411 -155.6351)" style="overflow:visible;enable-background:new    ;"/>
<use xlink:href="#stars"  width="8.6" height="7.6" id="XMLID_90_" x="-4.3" y="-3.8" transform="matrix(1 0 0 -1 1965.0115 47.1858)" style="overflow:visible;enable-background:new    ;"/>
<use xlink:href="#stars"  width="8.6" height="7.6" id="XMLID_89_" x="-4.3" y="-3.8" transform="matrix(1 0 0 -1 1552.6123 723.8641)" style="overflow:visible;enable-background:new    ;"/>
<use xlink:href="#stars"  width="8.6" height="7.6" id="XMLID_88_" x="-4.3" y="-3.8" transform="matrix(1 0 0 -1 1838.9041 645.2859)" style="overflow:visible;enable-background:new    ;"/>
<use xlink:href="#stars"  width="8.6" height="7.6" id="XMLID_87_" x="-4.3" y="-3.8" transform="matrix(1 0 0 -1 2095.3845 689.1816)" style="overflow:visible;enable-background:new    ;"/>
<use xlink:href="#stars"  width="8.6" height="7.6" id="XMLID_86_" x="-4.3" y="-3.8" transform="matrix(1 0 0 -1 2255.854 460.1128)" style="overflow:visible;enable-background:new    ;"/>
<use xlink:href="#stars"  width="8.6" height="7.6" id="XMLID_85_" x="-4.3" y="-3.8" transform="matrix(1 0 0 -1 2278.1736 81.1555)" style="overflow:visible;enable-background:new    ;"/>
<use xlink:href="#stars"  width="8.6" height="7.6" id="XMLID_84_" x="-4.3" y="-3.8" transform="matrix(1 0 0 -1 2348.2495 203.8164)" style="overflow:visible;enable-background:new    ;"/>
<use xlink:href="#stars"  width="8.6" height="7.6" id="XMLID_83_" x="-4.3" y="-3.8" transform="matrix(1 0 0 -1 2349.9893 602.615)" style="overflow:visible;enable-background:new    ;"/>
<use xlink:href="#stars"  width="8.6" height="7.6" id="XMLID_82_" x="-4.3" y="-3.8" transform="matrix(1 0 0 -1 2173.3467 109.5166)" style="overflow:visible;enable-background:new    ;"/>
<use xlink:href="#stars"  width="8.6" height="7.6" id="XMLID_81_" x="-4.3" y="-3.8" transform="matrix(1 0 0 -1 2099.2263 -85.5903)" style="overflow:visible;enable-background:new    ;"/>
<use xlink:href="#stars"  width="8.6" height="7.6" id="XMLID_80_" x="-4.3" y="-3.8" transform="matrix(1 0 0 -1 2235.9233 -83.5484)" style="overflow:visible;enable-background:new    ;"/>
<use xlink:href="#stars"  width="8.6" height="7.6" id="XMLID_79_" x="-4.3" y="-3.8" transform="matrix(1 0 0 -1 1876.7598 -63.4698)" style="overflow:visible;enable-background:new    ;"/>
<use xlink:href="#stars"  width="8.6" height="7.6" id="XMLID_78_" x="-4.3" y="-3.8" transform="matrix(1 0 0 -1 1567.0903 267.5161)" style="overflow:visible;enable-background:new    ;"/>
<use xlink:href="#stars"  width="8.6" height="7.6" id="XMLID_77_" x="-4.3" y="-3.8" transform="matrix(1 0 0 -1 2055.4211 488.134)" style="overflow:visible;enable-background:new    ;"/>
<use xlink:href="#stars"  width="8.6" height="7.6" id="XMLID_76_" x="-4.3" y="-3.8" transform="matrix(1 0 0 -1 1610.0813 43.3709)" style="overflow:visible;enable-background:new    ;"/>
<use xlink:href="#stars"  width="8.6" height="7.6" id="XMLID_75_" x="-4.3" y="-3.8" transform="matrix(1 0 0 -1 1234.2009 -126.1008)" style="overflow:visible;enable-background:new    ;"/>
<use xlink:href="#stars"  width="8.6" height="7.6" id="XMLID_74_" x="-4.3" y="-3.8" transform="matrix(1 0 0 -1 818.2966 56.3381)" style="overflow:visible;enable-background:new    ;"/>
<use xlink:href="#stars"  width="8.6" height="7.6" id="XMLID_73_" x="-4.3" y="-3.8" transform="matrix(1 0 0 -1 1124.2717 343.129)" style="overflow:visible;enable-background:new    ;"/>
<use xlink:href="#stars"  width="8.6" height="7.6" id="XMLID_71_" x="-4.3" y="-3.8" transform="matrix(1 0 0 -1 1605.7017 345.8213)" style="overflow:visible;enable-background:new    ;"/>
<use xlink:href="#stars"  width="8.6" height="7.6" id="XMLID_70_" x="-4.3" y="-3.8" transform="matrix(1 0 0 -1 596.6186 -33.2732)" style="overflow:visible;enable-background:new    ;"/>
<use xlink:href="#stars"  width="8.6" height="7.6" id="XMLID_69_" x="-4.3" y="-3.8" transform="matrix(1 0 0 -1 1286.8794 57.3858)" style="overflow:visible;enable-background:new    ;"/>
<use xlink:href="#stars"  width="8.6" height="7.6" id="XMLID_68_" x="-4.3" y="-3.8" transform="matrix(1 0 0 -1 1193.9578 546.0735)" style="overflow:visible;enable-background:new    ;"/>
<use xlink:href="#stars"  width="8.6" height="7.6" id="XMLID_66_" x="-4.3" y="-3.8" transform="matrix(1 0 0 -1 725.5815 698.8593)" style="overflow:visible;enable-background:new    ;"/>
<use xlink:href="#stars"  width="8.6" height="7.6" id="XMLID_65_" x="-4.3" y="-3.8" transform="matrix(1 0 0 -1 638.6373 195.8235)" style="overflow:visible;enable-background:new    ;"/>
<use xlink:href="#stars"  width="8.6" height="7.6" id="XMLID_63_" x="-4.3" y="-3.8" transform="matrix(1 0 0 -1 898.0419 357.3473)" style="overflow:visible;enable-background:new    ;"/>
<use xlink:href="#stars"  width="8.6" height="7.6" id="XMLID_62_" x="-4.3" y="-3.8" transform="matrix(1 0 0 -1 1140.3645 95.0529)" style="overflow:visible;enable-background:new    ;"/>
<use xlink:href="#stars"  width="8.6" height="7.6" id="XMLID_58_" x="-4.3" y="-3.8" transform="matrix(1 0 0 -1 1333.9705 424.0232)" style="overflow:visible;enable-background:new    ;"/>
<use xlink:href="#stars"  width="8.6" height="7.6" id="XMLID_55_" x="-4.3" y="-3.8" transform="matrix(1 0 0 -1 1720.8318 775.9903)" style="overflow:visible;enable-background:new    ;"/>
<use xlink:href="#sparkle"  width="11" height="11" id="XMLID_133_" x="-5.5" y="-5.5" transform="matrix(0.9818 0 0 -0.9818 701.7057 490.8849)" style="overflow:visible;"/>
<use xlink:href="#sparkle"  width="11" height="11" id="XMLID_132_" x="-5.5" y="-5.5" transform="matrix(0.9818 0 0 -0.9818 1019.9667 -145.1461)" style="overflow:visible;enable-background:new    ;"/>
<use xlink:href="#sparkle"  width="11" height="11" id="XMLID_131_" x="-5.5" y="-5.5" transform="matrix(0.9818 0 0 -0.9818 1521.9725 -102.1315)" style="overflow:visible;enable-background:new    ;"/>
<use xlink:href="#sparkle"  width="11" height="11" id="XMLID_130_" x="-5.5" y="-5.5" transform="matrix(0.9818 0 0 -0.9818 1958.6302 -15.6985)" style="overflow:visible;enable-background:new    ;"/>
<use xlink:href="#sparkle"  width="11" height="11" id="XMLID_129_" x="-5.5" y="-5.5" transform="matrix(0.9818 0 0 -0.9818 2155.0938 70.541)" style="overflow:visible;enable-background:new    ;"/>
<use xlink:href="#sparkle"  width="11" height="11" id="XMLID_128_" x="-5.5" y="-5.5" transform="matrix(0.9818 0 0 -0.9818 2335.7429 -21.4902)" style="overflow:visible;enable-background:new    ;"/>
<use xlink:href="#sparkle"  width="11" height="11" id="XMLID_127_" x="-5.5" y="-5.5" transform="matrix(0.9818 0 0 -0.9818 2333.5015 -144.4975)" style="overflow:visible;enable-background:new    ;"/>
<use xlink:href="#sparkle"  width="11" height="11" id="XMLID_126_" x="-5.5" y="-5.5" transform="matrix(0.9818 0 0 -0.9818 2006.9016 -136.6969)" style="overflow:visible;enable-background:new    ;"/>
<use xlink:href="#sparkle"  width="11" height="11" id="XMLID_124_" x="-5.5" y="-5.5" transform="matrix(0.9818 0 0 -0.9818 686.3243 -114.4312)" style="overflow:visible;enable-background:new    ;"/>
<use xlink:href="#sparkle"  width="11" height="11" id="XMLID_123_" x="-5.5" y="-5.5" transform="matrix(0.9818 0 0 -0.9818 627.4185 91.0966)" style="overflow:visible;enable-background:new    ;"/>
<use xlink:href="#sparkle"  width="11" height="11" id="XMLID_122_" x="-5.5" y="-5.5" transform="matrix(0.9818 0 0 -0.9818 603.6458 -164.7585)" style="overflow:visible;enable-background:new    ;"/>
<use xlink:href="#sparkle"  width="11" height="11" id="XMLID_121_" x="-5.5" y="-5.5" transform="matrix(0.9818 0 0 -0.9818 2085.4456 248.4962)" style="overflow:visible;enable-background:new    ;"/>
<use xlink:href="#sparkle"  width="11" height="11" id="XMLID_120_" x="-5.5" y="-5.5" transform="matrix(0.9818 0 0 -0.9818 1692.9703 201.2402)" style="overflow:visible;enable-background:new    ;"/>
<use xlink:href="#sparkle"  width="11" height="11" id="XMLID_119_" x="-5.5" y="-5.5" transform="matrix(0.9818 0 0 -0.9818 1072.1355 24.7585)" style="overflow:visible;enable-background:new    ;"/>
<use xlink:href="#sparkle"  width="11" height="11" id="XMLID_118_" x="-5.5" y="-5.5" transform="matrix(0.9818 0 0 -0.9818 1120.7341 -72.4329)" style="overflow:visible;enable-background:new    ;"/>
<use xlink:href="#sparkle"  width="11" height="11" id="XMLID_117_" x="-5.5" y="-5.5" transform="matrix(0.9818 0 0 -0.9818 762.3939 425.9287)" style="overflow:visible;enable-background:new    ;"/>
<use xlink:href="#sparkle"  width="11" height="11" id="XMLID_116_" x="-5.5" y="-5.5" transform="matrix(0.9818 0 0 -0.9818 1534.4073 139.1818)" style="overflow:visible;enable-background:new    ;"/>
<use xlink:href="#sparkle"  width="11" height="11" id="XMLID_115_" x="-5.5" y="-5.5" transform="matrix(0.9818 0 0 -0.9818 2205.3132 209.3539)" style="overflow:visible;enable-background:new    ;"/>
<use xlink:href="#sparkle"  width="11" height="11" id="XMLID_114_" x="-5.5" y="-5.5" transform="matrix(0.9818 0 0 -0.9818 1680.3043 -122.6523)" style="overflow:visible;enable-background:new    ;"/>
<use xlink:href="#sparkle"  width="11" height="11" id="XMLID_113_" x="-5.5" y="-5.5" transform="matrix(0.9818 0 0 -0.9818 1714.4689 -33.2162)" style="overflow:visible;enable-background:new    ;"/>
<use xlink:href="#sparkle"  width="11" height="11" id="XMLID_112_" x="-5.5" y="-5.5" transform="matrix(0.9818 0 0 -0.9818 696.2889 313.1702)" style="overflow:visible;enable-background:new    ;"/>
<use xlink:href="#sparkle"  width="11" height="11" id="XMLID_111_" x="-5.5" y="-5.5" transform="matrix(0.9818 0 0 -0.9818 1546.79 500.0537)" style="overflow:visible;enable-background:new    ;"/>
<use xlink:href="#sparkle"  width="11" height="11" id="XMLID_110_" x="-5.5" y="-5.5" transform="matrix(0.9818 0 0 -0.9818 672.9023 738.5417)" style="overflow:visible;enable-background:new    ;"/>
<use xlink:href="#sparkle"  width="11" height="11" id="XMLID_108_" x="-5.5" y="-5.5" transform="matrix(0.9818 0 0 -0.9818 2287.0898 720.0492)" style="overflow:visible;enable-background:new    ;"/>
<use xlink:href="#sparkle"  width="11" height="11" id="XMLID_107_" x="-5.5" y="-5.5" transform="matrix(0.9818 0 0 -0.9818 2078.5764 333.8639)" style="overflow:visible;enable-background:new    ;"/>
<use xlink:href="#sparkle"  width="11" height="11" id="XMLID_106_" x="-5.5" y="-5.5" transform="matrix(0.9818 0 0 -0.9818 2383.7473 305.4555)" style="overflow:visible;enable-background:new    ;"/>
<use xlink:href="#sparkle"  width="11" height="11" id="XMLID_105_" x="-5.5" y="-5.5" transform="matrix(0.9818 0 0 -0.9818 1354.5216 78.7984)" style="overflow:visible;enable-background:new    ;"/>
<use xlink:href="#sparkle"  width="11" height="11" id="XMLID_104_" x="-5.5" y="-5.5" transform="matrix(0.9818 0 0 -0.9818 1255.5774 332.2842)" style="overflow:visible;enable-background:new    ;"/>
<use xlink:href="#sparkle"  width="11" height="11" id="XMLID_103_" x="-5.5" y="-5.5" transform="matrix(0.9818 0 0 -0.9818 1298.4836 474.0735)" style="overflow:visible;enable-background:new    ;"/>
<use xlink:href="#sparkle"  width="11" height="11" id="XMLID_102_" x="-5.5" y="-5.5" transform="matrix(0.9818 0 0 -0.9818 1146.8932 625.819)" style="overflow:visible;enable-background:new    ;"/>
<use xlink:href="#sparkle"  width="11" height="11" id="XMLID_100_" x="-5.5" y="-5.5" transform="matrix(0.9818 0 0 -0.9818 1384.6268 216.2713)" style="overflow:visible;enable-background:new    ;"/>
<linearGradient id="XMLID_6_" gradientUnits="userSpaceOnUse" x1="2240.2444" y1="458.4766" x2="2231.7363" y2="527.7707" gradientTransform="matrix(0.9986 5.374856e-002 -5.374856e-002 0.9986 29.6235 -193.9281)">
	<stop  offset="0" style="stop-color:#FFF6C8;stop-opacity:0.3"/>
	<stop  offset="1" style="stop-color:#FFF6C8;stop-opacity:0"/>
</linearGradient>
<path id="XMLID_53_" class="st3" d="M2423.2,467.7c1.2-22.6-19.2-42-45.7-43.5c-15.7-0.8-29.9,4.8-39.2,14.3
	c-13.7-5-31.1-8.5-50.3-9.5c-0.1,0-0.2,0-0.3,0c-2.9-27.7-55.3-52.4-120.9-55.9c-68.4-3.7-125.1,17-126.7,46.2"/>
<linearGradient id="XMLID_7_" gradientUnits="userSpaceOnUse" x1="1459.2484" y1="606.6038" x2="1443.9752" y2="692.5114" gradientTransform="matrix(1 0 0 1 0 -1.44)">
	<stop  offset="0" style="stop-color:#FFF6C8;stop-opacity:0.3"/>
	<stop  offset="1" style="stop-color:#FFF6C8;stop-opacity:0"/>
</linearGradient>
<path id="XMLID_101_" class="st4" d="M1569.5,652.4c0-18.2-14.8-33-33-33c-16.3,0-29.8,11.8-32.5,27.3c-4.8-4.5-11.3-7.3-18.5-7.3
	c-4.1,0-7.9,0.9-11.4,2.5c-2.2-22.7-21.3-40.5-44.6-40.5c-23.3,0-42.4,17.8-44.6,40.5c-5.7-4-12.7-6.4-20.2-6.4
	c-19.4,0-35.2,15.7-35.2,35.2"/>
<linearGradient id="XMLID_8_" gradientUnits="userSpaceOnUse" x1="1240" y1="244.9593" x2="1240" y2="244.9593" gradientTransform="matrix(1 0 0 1 0 -1.44)">
	<stop  offset="0" style="stop-color:#FFF6C8;stop-opacity:0.3"/>
	<stop  offset="1" style="stop-color:#FFF6C8;stop-opacity:0"/>
</linearGradient>
<path id="XMLID_56_" class="st5" d="M1240,243.5"/>
<linearGradient id="XMLID_13_" gradientUnits="userSpaceOnUse" x1="1189.7" y1="249.0593" x2="1189.7" y2="249.0593" gradientTransform="matrix(1 0 0 1 0 -1.44)">
	<stop  offset="0" style="stop-color:#FFF6C8;stop-opacity:0.3"/>
	<stop  offset="1" style="stop-color:#FFF6C8;stop-opacity:0"/>
</linearGradient>
<path id="XMLID_54_" class="st6" d="M1189.7,247.6"/>
<linearGradient id="XMLID_14_" gradientUnits="userSpaceOnUse" x1="2082.344" y1="731.8812" x2="2070.5811" y2="798.0454" gradientTransform="matrix(1 0 0 1 0 -1.44)">
	<stop  offset="0" style="stop-color:#FFF6C8;stop-opacity:0.3"/>
	<stop  offset="1" style="stop-color:#FFF6C8;stop-opacity:0"/>
</linearGradient>
<path id="XMLID_135_" class="st7" d="M2161.7,786.6c0-9.9-10.8-17.8-24.2-17.8c-1.6,0-3.2,0.1-4.8,0.3c0-0.1,0-0.2,0-0.3
	c0-19.7-17.5-35.7-39.1-35.7c-16.8,0-31.1,9.7-36.6,23.3c-7.4-9.5-19-15.6-31.9-15.6c-22.4,0-40.5,18.1-40.5,40.5"/>
<linearGradient id="XMLID_35_" gradientUnits="userSpaceOnUse" x1="705.5442" y1="344.6812" x2="693.7812" y2="410.8455" gradientTransform="matrix(1 0 0 1 0 -1.44)">
	<stop  offset="0" style="stop-color:#FFF6C8;stop-opacity:0.3"/>
	<stop  offset="1" style="stop-color:#FFF6C8;stop-opacity:0"/>
</linearGradient>
<path id="XMLID_12_" class="st8" d="M784.9,399.4c0-9.9-10.8-17.8-24.2-17.8c-1.6,0-3.2,0.1-4.8,0.3c0-0.1,0-0.2,0-0.3
	c0-19.7-17.5-35.7-39.1-35.7c-16.8,0-31.1,9.7-36.6,23.3c-7.4-9.5-19-15.6-31.9-15.6c-22.4,0-40.5,18.1-40.5,40.5"/>
<linearGradient id="XMLID_36_" gradientUnits="userSpaceOnUse" x1="780.2" y1="788.7593" x2="780.2" y2="788.7593" gradientTransform="matrix(1 0 0 1 0 -1.44)">
	<stop  offset="0" style="stop-color:#FFF6C8;stop-opacity:0.3"/>
	<stop  offset="1" style="stop-color:#FFF6C8;stop-opacity:0"/>
</linearGradient>
<path id="XMLID_134_" class="st9" d="M780.2,787.3"/>
<linearGradient id="XMLID_37_" gradientUnits="userSpaceOnUse" x1="2170.6125" y1="-47.4163" x2="2159.0447" y2="17.649" gradientTransform="matrix(1 0 0 1 0 -1.44)">
	<stop  offset="0" style="stop-color:#FFF6C8;stop-opacity:0.3"/>
	<stop  offset="1" style="stop-color:#FFF6C8;stop-opacity:0"/>
</linearGradient>
<path id="XMLID_136_" class="st10" d="M2312.3,10.1c0-12.8-13.3-23.2-29.8-23.2c-3.1,0-6.1,0.4-8.9,1c-2.4-14.1-20.8-25.1-43.2-25.1
	c-15.3,0-28.7,5.1-36.5,12.9c-9-1.7-18.8-2.7-29.1-2.7c-20.7,0-39.4,3.8-53.4,10.1c-3.4-24.2-24.2-42.8-49.3-42.8
	c-27.5,0-49.8,22.3-49.8,49.8"/>
<linearGradient id="XMLID_39_" gradientUnits="userSpaceOnUse" x1="818.4056" y1="45.7254" x2="799.1814" y2="153.8567" gradientTransform="matrix(0.9905 0.1377 -0.1377 0.9905 65.7312 -330.5946)">
	<stop  offset="0" style="stop-color:#FFFFFF;stop-opacity:0.9"/>
	<stop  offset="8.430076e-002" style="stop-color:#FFFEF7;stop-opacity:0.8241"/>
	<stop  offset="0.6911" style="stop-color:#FFF8D5;stop-opacity:0.278"/>
	<stop  offset="1" style="stop-color:#FFF6C8;stop-opacity:0"/>
</linearGradient>
<circle id="XMLID_137_" class="st11" cx="853.1" cy="-120.4" r="54.9"/>
<linearGradient id="XMLID_40_" gradientUnits="userSpaceOnUse" x1="818.4056" y1="45.7254" x2="799.1814" y2="153.8567" gradientTransform="matrix(0.9905 0.1377 -0.1377 0.9905 65.7312 -330.5946)">
	<stop  offset="0" style="stop-color:#FFFFFF;stop-opacity:0.9"/>
	<stop  offset="8.430076e-002" style="stop-color:#FFFEF7;stop-opacity:0.8241"/>
	<stop  offset="0.6911" style="stop-color:#FFF8D5;stop-opacity:0.278"/>
	<stop  offset="1" style="stop-color:#FFF6C8;stop-opacity:0"/>
</linearGradient>
<circle id="XMLID_139_" class="st12" cx="853.1" cy="-120.4" r="54.9"/>
<linearGradient id="XMLID_41_" gradientUnits="userSpaceOnUse" x1="1115.7755" y1="355.4197" x2="1096.5513" y2="463.5509" gradientTransform="matrix(0.9905 0.1377 -0.1377 0.9905 65.7312 -330.5946)">
	<stop  offset="0" style="stop-color:#FFFFFF;stop-opacity:0.9"/>
	<stop  offset="8.430076e-002" style="stop-color:#FFFEF7;stop-opacity:0.8241"/>
	<stop  offset="0.6911" style="stop-color:#FFF8D5;stop-opacity:0.278"/>
	<stop  offset="1" style="stop-color:#FFF6C8;stop-opacity:0"/>
</linearGradient>
<circle id="XMLID_10_" class="st13" cx="1105" cy="227.3" r="54.9"/>
<linearGradient id="XMLID_42_" gradientUnits="userSpaceOnUse" x1="1907.8562" y1="198.9639" x2="1888.6321" y2="307.0951" gradientTransform="matrix(0.9905 0.1377 -0.1377 0.9905 65.7312 -330.5946)">
	<stop  offset="0" style="stop-color:#FFFFFF;stop-opacity:0.9"/>
	<stop  offset="8.430076e-002" style="stop-color:#FFFEF7;stop-opacity:0.8241"/>
	<stop  offset="0.6911" style="stop-color:#FFF8D5;stop-opacity:0.278"/>
	<stop  offset="1" style="stop-color:#FFF6C8;stop-opacity:0"/>
</linearGradient>
<circle id="XMLID_9_" class="st14" cx="1911.1" cy="181.4" r="54.9"/>
<g id="XMLID_138_" class="st15">
	<path id="XMLID_140_" class="st16" d="M852.1-134.4c0.3,0,0.7,0.1,1,0.1C852.7-134.3,852.4-134.4,852.1-134.4z"/>
	<path id="XMLID_141_" class="st16" d="M857-133.7c0.3,0,0.7,0.1,1,0.1C857.6-133.6,857.3-133.7,857-133.7z"/>
	<path id="XMLID_142_" class="st16" d="M858.7-133.5c35.5,5.2,63.1,12.9,62.5,17.6c-0.7,4.8-31.4,4.5-68.6-0.6
		c-37.2-5.1-66.8-13.3-66.2-18.1c0.6-4.7,29.4-4.6,64.9,0.1c-46-6.1-83.5-5.2-84.5,2.2c-1,7.5,36.8,19,84.5,25.7s87.2,5.9,88.3-1.7
		C940.5-115.7,904.7-126.8,858.7-133.5z"/>
	<path id="XMLID_143_" class="st16" d="M858-133.6c0.3,0,0.5,0.1,0.8,0.1C858.5-133.5,858.2-133.6,858-133.6z"/>
	<path id="XMLID_144_" class="st16" d="M851.3-134.5c0.3,0,0.5,0.1,0.8,0.1C851.8-134.4,851.6-134.5,851.3-134.5z"/>
	<path id="XMLID_145_" class="st16" d="M855-134c0.7,0.1,1.3,0.2,2,0.3C856.3-133.8,855.7-133.9,855-134z"/>
	<path id="XMLID_146_" class="st16" d="M853.1-134.3c0.7,0.1,1.3,0.2,2,0.3C854.4-134.1,853.7-134.2,853.1-134.3z"/>
</g>
<g id="Satelite" class="st17">
	<g id="XMLID_148_">
		<path id="XMLID_163_" class="st18" d="M1416.3-118.7c-3.9-9.1,0.2-19.7,9.3-23.6c9.1-3.9,19.7,0.2,23.6,9.3L1416.3-118.7z"/>
	</g>
	<g id="XMLID_147_">
		<path id="XMLID_162_" class="st19" d="M1449.2-133c-15.9,8.5-32.9,14.3-32.9,14.3L1449.2-133z"/>
	</g>
	<g id="XMLID_149_">
		<path id="XMLID_159_" class="st18" d="M1436.5-116l-7.8-17.9c-0.1-0.2,0-0.5,0.3-0.6c0.2-0.1,0.5,0,0.6,0.3l7.8,17.9
			c0.1,0.2,0,0.5-0.3,0.6C1436.9-115.7,1436.6-115.8,1436.5-116z"/>
	</g>
	<g id="XMLID_151_">
		<path id="XMLID_158_" class="st18" d="M1427.9-133.6l-7.8-17.9c-0.3-0.7,0-1.5,0.7-1.8s1.5,0,1.8,0.7l7.8,17.9
			c0.3,0.7,0,1.5-0.7,1.8C1429-132.5,1428.2-132.9,1427.9-133.6z"/>
	</g>
	<g id="XMLID_150_">
		
			<rect id="XMLID_161_" x="1395.3" y="-176.8" transform="matrix(-0.3982 -0.9173 0.9173 -0.3982 2131.3047 1065.2168)" class="st18" width="39.6" height="20.5"/>
	</g>
	<g id="XMLID_154_">
		
			<rect id="XMLID_157_" x="1414" y="-200.1" transform="matrix(0.3982 0.9173 -0.9173 0.3982 698.8422 -1398.1669)" class="st18" width="2.1" height="67.3"/>
	</g>
	<g id="XMLID_153_">
		
			<rect id="XMLID_160_" x="1446.4" y="-206.6" transform="matrix(0.3982 0.9173 -0.9173 0.3982 706.577 -1442.953)" class="st18" width="13.2" height="47.3"/>
	</g>
	<g id="XMLID_156_">
		
			<rect id="XMLID_155_" x="1370.2" y="-173.6" transform="matrix(0.3982 0.9173 -0.9173 0.3982 691.0439 -1353.1786)" class="st18" width="13.2" height="47.3"/>
	</g>
</g>
<use xlink:href="#stars"  width="8.6" height="7.6" id="XMLID_72_" x="-4.3" y="-3.8" transform="matrix(1 0 0 -1 911.2961 247.0573)" style="overflow:visible;enable-background:new    ;"/>
<use xlink:href="#stars"  width="8.6" height="7.6" id="XMLID_32_" x="-4.3" y="-3.8" transform="matrix(1 0 0 -1 931.378 540.3358)" style="overflow:visible;enable-background:new    ;"/>
<use xlink:href="#stars"  width="8.6" height="7.6" id="XMLID_31_" x="-4.3" y="-3.8" transform="matrix(1 0 0 -1 1014.4138 654.9944)" style="overflow:visible;enable-background:new    ;"/>
<use xlink:href="#stars"  width="8.6" height="7.6" id="XMLID_30_" x="-4.3" y="-3.8" transform="matrix(1 0 0 -1 780.6573 602.615)" style="overflow:visible;enable-background:new    ;"/>
<use xlink:href="#stars"  width="8.6" height="7.6" id="XMLID_29_" x="-4.3" y="-3.8" transform="matrix(1 0 0 -1 1428.4565 729.2039)" style="overflow:visible;enable-background:new    ;"/>
<use xlink:href="#stars"  width="8.6" height="7.6" id="XMLID_28_" x="-4.3" y="-3.8" transform="matrix(1 0 0 -1 772.2045 221.3769)" style="overflow:visible;enable-background:new    ;"/>
<use xlink:href="#stars"  width="8.6" height="7.6" id="XMLID_27_" x="-4.3" y="-3.8" transform="matrix(1 0 0 -1 953.8087 126.4735)" style="overflow:visible;enable-background:new    ;"/>
<use xlink:href="#stars"  width="8.6" height="7.6" id="XMLID_26_" x="-4.3" y="-3.8" transform="matrix(1 0 0 -1 1600.1204 279.1575)" style="overflow:visible;enable-background:new    ;"/>
<use xlink:href="#stars"  width="8.6" height="7.6" id="XMLID_25_" x="-4.3" y="-3.8" transform="matrix(1 0 0 -1 1791.032 414.1729)" style="overflow:visible;enable-background:new    ;"/>
<use xlink:href="#stars"  width="8.6" height="7.6" id="XMLID_24_" x="-4.3" y="-3.8" transform="matrix(1 0 0 -1 1833.2544 528.8238)" style="overflow:visible;enable-background:new    ;"/>
<use xlink:href="#stars"  width="8.6" height="7.6" id="XMLID_23_" x="-4.3" y="-3.8" transform="matrix(1 0 0 -1 1834.9272 118.8424)" style="overflow:visible;enable-background:new    ;"/>
<use xlink:href="#stars"  width="8.6" height="7.6" id="XMLID_22_" x="-4.3" y="-3.8" transform="matrix(1 0 0 -1 1927.623 333.6674)" style="overflow:visible;enable-background:new    ;"/>
<use xlink:href="#sparkle"  width="11" height="11" id="XMLID_21_" x="-5.5" y="-5.5" transform="matrix(0.9818 0 0 -0.9818 892.6249 456.2982)" style="overflow:visible;enable-background:new    ;"/>
<use xlink:href="#sparkle"  width="11" height="11" id="XMLID_20_" x="-5.5" y="-5.5" transform="matrix(0.9818 0 0 -0.9818 1322.189 335.3795)" style="overflow:visible;enable-background:new    ;"/>
<use xlink:href="#sparkle"  width="11" height="11" id="XMLID_19_" x="-5.5" y="-5.5" transform="matrix(0.9818 0 0 -0.9818 1594.531 514.4079)" style="overflow:visible;enable-background:new    ;"/>
<use xlink:href="#sparkle"  width="11" height="11" id="XMLID_18_" x="-5.5" y="-5.5" transform="matrix(0.9818 0 0 -0.9818 1378.1642 598.4163)" style="overflow:visible;enable-background:new    ;"/>
<use xlink:href="#sparkle"  width="11" height="11" id="XMLID_17_" x="-5.5" y="-5.5" transform="matrix(0.9818 0 0 -0.9818 911.2958 671.1851)" style="overflow:visible;enable-background:new    ;"/>
<use xlink:href="#sparkle"  width="11" height="11" id="XMLID_16_" x="-5.5" y="-5.5" transform="matrix(0.9818 0 0 -0.9818 992.3876 422.2378)" style="overflow:visible;enable-background:new    ;"/>
<use xlink:href="#sparkle"  width="11" height="11" id="XMLID_15_" x="-5.5" y="-5.5" transform="matrix(0.9818 0 0 -0.9818 1742.7417 301.2589)" style="overflow:visible;"/>
<linearGradient id="XMLID_43_" gradientUnits="userSpaceOnUse" x1="1028.842" y1="748.1274" x2="1015.8242" y2="821.3491" gradientTransform="matrix(1 0 0 1 0 -1.44)">
	<stop  offset="0" style="stop-color:#FFF6C8;stop-opacity:0.3"/>
	<stop  offset="1" style="stop-color:#FFF6C8;stop-opacity:0"/>
</linearGradient>
<path id="XMLID_11_" class="st20" d="M1138.3,796.3c0-19.9-16.1-36-36-36c-18.2,0-33.2,13.5-35.6,31c-10.2-9.9-24.1-15.9-39.5-15.9
	c-15.5,0-29.5,6.2-39.8,16.3c-4.1-17.6-21.5-30.8-42.4-30.8c-23.9,0-43.3,17.3-43.3,38.7"/>
<g>
	
		<linearGradient id="Circle_1_" gradientUnits="userSpaceOnUse" x1="852.6" y1="449.7243" x2="852.6" y2="206.9243" gradientTransform="matrix(1 0 0 1 0 -1.44)">
		<stop  offset="0" style="stop-color:#9F1D20"/>
		<stop  offset="1" style="stop-color:#F05360"/>
	</linearGradient>
	<circle id="Circle" class="st21" cx="852.6" cy="326.9" r="121.4"/>
	<g id="XMLID_1_">
		<path id="XMLID_4_" class="st22" d="M866.2,261.4l45.4,93.9c1.9,3.8,2.9,6.7,2.9,8.6c0,4-3.3,7.7-9.8,10.9c-3.8,1.9-6.8,2.9-9,2.9
			s-4-0.5-5.4-1.5s-2.4-2.1-3-3.2s-1.5-2.8-2.6-5l-8.7-18.2h-46.7l-8.7,18.2c-1.1,2.2-2,3.9-2.6,4.9s-1.6,2-3,3.1s-3.2,1.6-5.4,1.6
			s-5.2-1-9-2.9c-6.5-3.1-9.8-6.7-9.8-10.8c0-1.9,1-4.8,2.9-8.6l45.4-94c1.2-2.6,3.1-4.7,5.6-6.2c2.5-1.6,5.2-2.4,8-2.4
			C858.8,252.6,863.2,255.5,866.2,261.4z M852.5,301.7l-11.1,23h22.4L852.5,301.7z"/>
	</g>
</g>
<g>
	<path class="st23" d="M2361.3,736.7H1155.5c-11.3,0-20.5-9.2-20.5-20.5V-34.6c0-11.3,9.2-20.5,20.5-20.5h1205.9
		c11.3,0,20.5,9.2,20.5,20.5v750.8C2381.9,727.5,2372.7,736.7,2361.3,736.7z"/>
	
		<image style="overflow:visible;enable-background:new    ;" width="1280" height="783" xlink:href="1280px-Node.js_logo.svg.png"  transform="matrix(0.1784 0 0 0.1784 1190.7598 575.4475)">
	</image>
	
		<image style="overflow:visible;enable-background:new    ;" width="1280" height="905" xlink:href="1280px-React-icon.svg.png"  transform="matrix(0.2117 0 0 0.2117 1168.3721 184.9237)">
	</image>
	
		<image style="overflow:visible;enable-background:new    ;" width="145" height="152" xlink:href="logo.png"  transform="matrix(1 0 0 1 1232.4272 13.7682)">
	</image>
	<text transform="matrix(1 0 0 1 1481.7388 79.0424)" class="st24 st25">REST API sa Symfony framework-om</text>
	<text transform="matrix(1 0 0 1 1481.7388 127.0425)" class="st24 st25">MySQL baza podataka sa Doctrine ORM </text>
	<text transform="matrix(1 0 0 1 1478.7708 301.4814)" class="st24 st25">Webiste napravljen pomoću React </text>
	<text transform="matrix(1 0 0 1 1484.7703 470.4241)" class="st26"><tspan x="0" y="0" class="st24 st25">Android aplikacija napravljena pomoću </tspan><tspan x="0" y="48" class="st24 st25">React Native i Firebase za Push notifikacije</tspan></text>
	<text transform="matrix(1 0 0 1 1484.7704 658.7194)" class="st24 st25">Websocket server sa Node js i Socket.io</text>
	<g>
		<path class="st27" d="M1282.5,499.8c5.2,0,9.5,4.2,9.5,9.5V550c0,5.2-4.2,9.5-9.5,9.5c-5.2,0-9.5-4.2-9.5-9.5v-40.7
			C1273,504.1,1277.2,499.8,1282.5,499.8L1282.5,499.8z"/>
		<path class="st27" d="M1260.8,450.9c0,0.4-0.1,0.7-0.1,1.1v61.7c0,6.6,5.2,12,11.8,12h62.7c6.5,0,11.8-5.3,11.8-12V452
			c0-0.4,0-0.7,0-1.1H1260.8L1260.8,450.9z"/>
		<path class="st27" d="M1325.3,499.8c5.2,0,9.5,4.2,9.5,9.5V550c0,5.2-4.2,9.5-9.5,9.5c-5.2,0-9.5-4.2-9.5-9.5v-40.7
			C1315.8,504.1,1320,499.8,1325.3,499.8L1325.3,499.8z M1245.5,456.4c5.2,0,9.5,4.2,9.5,9.5v40.7c0,5.2-4.2,9.5-9.5,9.5
			c-5.2,0-9.5-4.2-9.5-9.5v-40.7C1236,460.6,1240.3,456.4,1245.5,456.4L1245.5,456.4z M1362.2,456.4c5.2,0,9.5,4.2,9.5,9.5v40.7
			c0,5.2-4.2,9.5-9.5,9.5c-5.2,0-9.5-4.2-9.5-9.5v-40.7C1352.8,460.6,1357,456.4,1362.2,456.4L1362.2,456.4z M1261.1,446.9
			c0.3-18.9,16.8-34.5,38-36.5h9.5c21.2,2,37.7,17.6,38,36.5H1261.1z"/>
		<path class="st28" d="M1264.4,408.5l10,17.3 M1343.4,408.5l-10,17.3"/>
		<path class="st29" d="M1291.1,429.9c0,2.6-2.2,4.8-4.9,4.8c-2.7,0-4.9-2.1-4.9-4.8v0c0-2.6,2.2-4.8,4.9-4.8
			C1288.9,425.1,1291.1,427.2,1291.1,429.9L1291.1,429.9z M1327.8,429.9c0,2.6-2.2,4.8-4.9,4.8c-2.7,0-4.9-2.1-4.9-4.8v0
			c0-2.6,2.2-4.8,4.9-4.8C1325.6,425.1,1327.8,427.2,1327.8,429.9L1327.8,429.9z"/>
	</g>
</g>
</svg>
