<?xml version="1.0" encoding="utf-8"?>
<!-- Generator: Adobe Illustrator 19.0.0, SVG Export Plug-In . SVG Version: 6.00 Build 0)  -->
<svg version="1.1" id="Layer_1" xmlns="http://www.w3.org/2000/svg" xmlns:xlink="http://www.w3.org/1999/xlink" x="0px" y="0px"
	 viewBox="0 0 455 115" style="enable-background:new 0 0 455 115;" xml:space="preserve">
<style type="text/css">
	.st0{fill:#83A9B1;}
	.st1{fill:#B7E3ED;}
	.st2{fill:#9FC8D2;}
	.st3{fill:#789BA0;}
	.st4{fill:#94C6CE;}
	.st5{fill:#6A8A8E;}
	.st6{fill:#85B9C1;}
	.st7{fill:#87B1B8;}
	.st8{fill:#70969B;}
	.st9{fill:#A3CFD8;}
	.st10{fill:#67898D;}
	.st11{fill:#4E6D6D;}
	.st12{fill:#081A2B;}
</style>
<g id="XMLID_3_">
	<g id="XMLID_7_">
		<g id="XMLID_16_">
			<circle id="XMLID_23_" class="st0" cx="107" cy="57.5" r="57.5"/>
			<path id="XMLID_22_" class="st1" d="M134.5,108c17.9-9.8,30-28.7,30-50.5C164.5,25.7,138.8,0,107,0C75.3,0,49.5,25.7,49.5,57.5
				c0,9.3,2.2,18.1,6.1,25.9C55.7,83.4,80.3,103.6,134.5,108z"/>
			<path id="XMLID_21_" class="st0" d="M107,0C75.3,0,49.5,25.7,49.5,57.5c0,1.4,0.1,2.8,0.2,4.2c3.1,3.3,9.3,8.1,23.6,11.5
				c14.5,3.4,17.2,3.1,37.6,9.3c20.4,6.2,28.6,1.5,37.7,1.9c4.1,0.2,7.3-0.1,9.6-0.5c4.1-7.9,6.4-16.8,6.4-26.3
				C164.5,25.7,138.8,0,107,0z"/>
			<path id="XMLID_20_" class="st1" d="M107,0C78.6,0,55,20.6,50.3,47.7c6.3,3.1,48.2,21.8,114.2,10.1c0-0.1,0-0.2,0-0.2
				C164.5,25.7,138.8,0,107,0z"/>
			<path id="XMLID_19_" class="st2" d="M59.4,25.2c0,0,28.8,10.2,58.1,10.1c25.7-0.1,38.3,3.7,44.7,6.1C155.2,17.5,133.2,0,107,0
				C87.2,0,69.8,10,59.4,25.2z"/>
			<path id="XMLID_18_" class="st0" d="M156.6,28.3C146.6,11.4,128.1,0,107,0C96.1,0,85.9,3,77.2,8.3l0,0
				C77.2,8.3,101.3,21.8,156.6,28.3L156.6,28.3z"/>
			<path id="XMLID_17_" class="st1" d="M82.4,5.5c12.4,6,32,12.1,64.9,10.9C136.9,6.3,122.7,0,107,0C98.2,0,89.8,2,82.4,5.5z"/>
		</g>
		<g id="XMLID_8_">
			<path id="XMLID_15_" class="st3" d="M164.5,57.5c0-27.3-19.1-50.2-44.6-56c0.7,0.9,45.9,57-24,112.5c3.6,0.7,7.3,1.1,11.1,1.1
				C138.8,115,164.5,89.3,164.5,57.5z"/>
			<path id="XMLID_14_" class="st4" d="M164.4,53.8c0-0.6-0.1-1.2-0.1-1.8c0-0.3-0.1-0.7-0.1-1c-0.1-0.6-0.1-1.1-0.2-1.7
				c-0.1-0.4-0.1-0.7-0.2-1.1c-0.1-0.5-0.2-1.1-0.3-1.6c-0.1-0.4-0.1-0.7-0.2-1.1c-0.1-0.6-0.2-1.1-0.4-1.6c-0.1-0.3-0.2-0.7-0.2-1
				c-0.2-0.7-0.4-1.3-0.6-2c-0.1-0.2-0.1-0.4-0.2-0.6c-0.3-0.8-0.5-1.6-0.8-2.4c-0.1-0.3-0.3-0.7-0.4-1c-0.2-0.5-0.4-0.9-0.6-1.4
				c-0.2-0.4-0.3-0.8-0.5-1.1c-0.2-0.4-0.4-0.8-0.6-1.2c-0.2-0.4-0.4-0.8-0.6-1.2c-0.2-0.4-0.4-0.8-0.6-1.1
				c-0.2-0.4-0.4-0.8-0.6-1.2c-0.2-0.3-0.4-0.7-0.6-1c-0.2-0.4-0.5-0.8-0.7-1.2c-0.2-0.3-0.3-0.5-0.5-0.8c-1-1.6-2.2-3.2-3.3-4.7
				c-0.1-0.2-0.3-0.4-0.4-0.5c-0.4-0.5-0.8-0.9-1.1-1.4c-0.2-0.2-0.3-0.4-0.5-0.5c-0.4-0.4-0.8-0.9-1.2-1.3
				c-0.2-0.2-0.3-0.3-0.5-0.5c-0.4-0.5-0.9-0.9-1.3-1.3c-0.1-0.1-0.2-0.2-0.3-0.3c-2.8-2.7-5.8-5-9.1-7.1c0,0,0,0,0,0
				c-0.6-0.4-1.3-0.8-2-1.2c0,0-0.1,0-0.1-0.1c-4.8-2.8-10.1-4.8-15.6-6.1c0,0,0,0,0,0c0.7,0.9,40.7,50.5-12.8,102.6
				c8.1,1.7,17.2,3.1,27.4,3.9c0.7-0.4,1.4-0.8,2-1.2c0.2-0.1,0.4-0.3,0.6-0.4c0.5-0.3,1.1-0.7,1.6-1c0.2-0.1,0.3-0.2,0.5-0.3
				c0.7-0.4,1.3-0.9,1.9-1.4c0.2-0.1,0.4-0.3,0.6-0.4c0.5-0.4,1-0.8,1.5-1.1c0.2-0.1,0.3-0.3,0.5-0.4c0.6-0.5,1.2-1,1.8-1.5
				c0.2-0.1,0.3-0.3,0.5-0.4c0.5-0.4,0.9-0.8,1.3-1.3c0.2-0.2,0.3-0.3,0.5-0.5c0.6-0.6,1.1-1.1,1.6-1.7c0.1-0.1,0.2-0.3,0.4-0.4
				c0.4-0.5,0.8-1,1.3-1.5c0.2-0.2,0.3-0.4,0.5-0.6c0.5-0.6,1-1.2,1.5-1.9c0.1-0.1,0.1-0.2,0.2-0.3c0.4-0.6,0.8-1.1,1.2-1.7
				c0.1-0.2,0.3-0.4,0.4-0.6c0.4-0.6,0.8-1.2,1.2-1.8c0-0.1,0.1-0.2,0.1-0.2c0.4-0.7,0.8-1.4,1.2-2.1c0.1-0.2,0.2-0.4,0.3-0.6
				c0.3-0.6,0.6-1.2,0.9-1.8c0.1-0.1,0.1-0.3,0.2-0.4c0.3-0.7,0.7-1.5,1-2.2c0.1-0.2,0.2-0.4,0.3-0.6c0.3-0.6,0.5-1.2,0.7-1.9
				c0.1-0.2,0.1-0.4,0.2-0.5c0.3-0.8,0.5-1.5,0.8-2.3c0.1-0.2,0.1-0.4,0.2-0.6c0.2-0.6,0.4-1.3,0.6-2c0.1-0.2,0.1-0.4,0.2-0.6
				c0.2-0.8,0.4-1.6,0.6-2.4c0-0.2,0.1-0.3,0.1-0.5c0.1-0.7,0.3-1.4,0.4-2.1c0-0.2,0.1-0.4,0.1-0.7c0.1-0.8,0.2-1.7,0.3-2.5
				c0-0.1,0-0.2,0-0.3c0.1-0.8,0.1-1.5,0.2-2.3c0-0.2,0-0.5,0-0.7c0-0.9,0.1-1.8,0.1-2.6c0-0.9,0-1.9-0.1-2.8
				C164.4,54.4,164.4,54.1,164.4,53.8z"/>
			<path id="XMLID_13_" class="st5" d="M164.4,53.8c0-0.6-0.1-1.2-0.1-1.8c0-0.3-0.1-0.7-0.1-1c-0.1-0.6-0.1-1.1-0.2-1.7
				c-0.1-0.4-0.1-0.7-0.2-1.1c-0.1-0.5-0.2-1.1-0.3-1.6c-0.1-0.4-0.1-0.7-0.2-1.1c-0.1-0.6-0.2-1.1-0.4-1.6c-0.1-0.3-0.2-0.7-0.2-1
				c-0.2-0.7-0.4-1.3-0.6-2c-0.1-0.2-0.1-0.4-0.2-0.6c-0.3-0.8-0.5-1.6-0.8-2.4c-0.1-0.3-0.3-0.7-0.4-1c-0.2-0.5-0.4-0.9-0.6-1.4
				c-0.2-0.4-0.3-0.8-0.5-1.1c-0.2-0.4-0.4-0.8-0.6-1.2c-0.2-0.4-0.4-0.8-0.6-1.2c-0.2-0.4-0.4-0.8-0.6-1.1
				c-0.2-0.4-0.4-0.8-0.6-1.2c-0.2-0.3-0.4-0.7-0.6-1c-0.2-0.4-0.5-0.8-0.7-1.2c-0.2-0.3-0.3-0.5-0.5-0.8c-1-1.6-2.2-3.2-3.3-4.7
				c-0.1-0.2-0.3-0.4-0.4-0.5c-0.4-0.5-0.8-0.9-1.1-1.4c-0.2-0.2-0.3-0.4-0.5-0.5c-0.4-0.4-0.8-0.9-1.2-1.3
				c-0.2-0.2-0.3-0.3-0.5-0.5c-0.4-0.5-0.9-0.9-1.3-1.3c-0.1-0.1-0.2-0.2-0.3-0.3c-2.8-2.7-5.8-5-9.1-7.1c0,0,0,0,0,0
				c-0.6-0.4-1.3-0.8-2-1.2c0,0-0.1,0-0.1-0.1c-4.8-2.8-10.1-4.8-15.6-6.1c0,0,0,0,0,0c0.6,0.8,31.5,39.1,2.9,83.7
				c12.1,1.7,18.7-1.1,25.7-0.8c4.1,0.2,7.3-0.1,9.5-0.5c0.1-0.2,0.2-0.4,0.3-0.5c0.3-0.6,0.6-1.2,0.9-1.9c0.2-0.3,0.3-0.7,0.5-1
				c0.3-0.7,0.6-1.4,0.8-2.1c0.1-0.3,0.2-0.6,0.3-0.8c0.4-1,0.7-2,1-3c0-0.1,0.1-0.2,0.1-0.3c0.3-0.9,0.5-1.8,0.7-2.7
				c0.1-0.3,0.2-0.7,0.2-1c0.2-0.7,0.3-1.4,0.4-2.1c0.1-0.4,0.1-0.8,0.2-1.2c0.1-0.7,0.2-1.4,0.3-2c0.1-0.4,0.1-0.8,0.2-1.2
				c0.1-0.7,0.1-1.5,0.2-2.2c0-0.3,0.1-0.7,0.1-1c0.1-1.1,0.1-2.2,0.1-3.3c0-0.9,0-1.9-0.1-2.8C164.4,54.4,164.4,54.1,164.4,53.8z"
				/>
			<path id="XMLID_12_" class="st6" d="M164.5,57.7c0-0.1,0-0.2,0-0.2c0-0.9,0-1.9-0.1-2.8c0-0.3,0-0.6-0.1-0.9
				c0-0.6-0.1-1.2-0.1-1.8c0-0.3-0.1-0.7-0.1-1c-0.1-0.6-0.1-1.1-0.2-1.7c-0.1-0.4-0.1-0.7-0.2-1.1c-0.1-0.5-0.2-1.1-0.3-1.6
				c-0.1-0.4-0.1-0.7-0.2-1.1c-0.1-0.6-0.2-1.1-0.4-1.6c-0.1-0.3-0.2-0.7-0.2-1c-0.2-0.7-0.4-1.3-0.6-2c-0.1-0.2-0.1-0.4-0.2-0.6
				c-0.3-0.8-0.5-1.6-0.8-2.4c-0.1-0.3-0.3-0.7-0.4-1c-0.2-0.5-0.4-0.9-0.6-1.4c-0.2-0.4-0.3-0.8-0.5-1.1c-0.2-0.4-0.4-0.8-0.6-1.2
				c-0.2-0.4-0.4-0.8-0.6-1.2c-0.2-0.4-0.4-0.8-0.6-1.1c-0.2-0.4-0.4-0.8-0.6-1.2c-0.2-0.3-0.4-0.7-0.6-1c-0.2-0.4-0.5-0.8-0.7-1.2
				c-0.2-0.3-0.3-0.5-0.5-0.8c-1-1.6-2.2-3.2-3.3-4.7c-0.1-0.2-0.3-0.4-0.4-0.5c-0.4-0.5-0.8-0.9-1.1-1.4c-0.2-0.2-0.3-0.4-0.5-0.5
				c-0.4-0.4-0.8-0.9-1.2-1.3c-0.2-0.2-0.3-0.3-0.5-0.5c-0.4-0.5-0.9-0.9-1.3-1.3c-0.1-0.1-0.2-0.2-0.3-0.3c-2.8-2.7-5.8-5-9.1-7.1
				c0,0,0,0,0,0c-0.6-0.4-1.3-0.8-2-1.2c0,0-0.1,0-0.1-0.1c-4.8-2.8-10.1-4.8-15.6-6.1c0,0,0,0,0,0c0.5,0.6,21.1,26.2,13.2,59.8
				C142.9,60.8,153.3,59.7,164.5,57.7z"/>
			<path id="XMLID_11_" class="st7" d="M162.1,40.9c-0.1-0.4-0.3-0.8-0.4-1.2c-0.1-0.4-0.2-0.7-0.4-1.1c-0.1-0.4-0.3-0.8-0.4-1.2
				c-0.1-0.4-0.3-0.7-0.4-1.1c-0.1-0.4-0.3-0.7-0.4-1.1c-0.2-0.4-0.3-0.8-0.5-1.1c-0.1-0.3-0.3-0.7-0.5-1c-0.2-0.4-0.4-0.8-0.6-1.2
				c-0.2-0.3-0.3-0.6-0.5-0.9c-0.2-0.4-0.4-0.8-0.7-1.2c-0.1-0.3-0.3-0.5-0.4-0.8c-0.3-0.4-0.5-0.9-0.8-1.3
				c-0.1-0.2-0.3-0.5-0.4-0.7c-0.3-0.5-0.6-0.9-0.9-1.4c-0.1-0.2-0.2-0.4-0.3-0.5c-0.4-0.5-0.7-1-1.1-1.6c-0.1-0.1-0.2-0.2-0.2-0.3
				c-0.4-0.6-0.9-1.2-1.4-1.8c0,0,0,0,0,0c-8-9.9-19.1-17-31.9-20c0.4,0.4,11.4,14.1,14.3,34.4c14.8,1.1,23.2,3.7,28,5.5
				C162.2,41.2,162.1,41.1,162.1,40.9z"/>
			<path id="XMLID_10_" class="st8" d="M156.1,27.6c-0.1-0.2-0.2-0.3-0.3-0.5c-0.8-1.3-1.6-2.5-2.5-3.7c-0.1-0.1-0.1-0.1-0.2-0.2
				c-0.4-0.5-0.8-1.1-1.2-1.6c-0.1-0.1-0.1-0.1-0.2-0.2c-8-9.8-19.1-17-31.8-19.9c0.3,0.4,7.4,9.2,11.8,23.1
				c7.5,1.4,15.7,2.6,24.9,3.7C156.4,28.1,156.3,27.8,156.1,27.6z"/>
			<path id="XMLID_9_" class="st9" d="M141.7,11.7c-0.1,0-0.1-0.1-0.2-0.1c-0.6-0.4-1.1-0.8-1.7-1.2c-0.1-0.1-0.2-0.1-0.3-0.2
				c-0.6-0.4-1.1-0.8-1.7-1.1c-0.1-0.1-0.2-0.1-0.3-0.2c-0.6-0.4-1.2-0.8-1.8-1.1c0,0-0.1-0.1-0.1-0.1c-4.8-2.8-10.1-4.8-15.6-6.1
				c0.2,0.3,4.6,5.8,8.6,14.8c5.7,0.3,11.9,0.4,18.7,0.1C145.5,14.7,143.7,13.1,141.7,11.7z"/>
		</g>
	</g>
	<g id="XMLID_4_">
		<path id="XMLID_6_" class="st10" d="M53.8,36.3c0,0-37-5.8-41.3,1.8c-4.3,7.7,51,26.7,88.7,35.3C138.8,82,182,88.7,198.3,83
			c14.8-5.2-34.1-21.2-34.1-21.2l0.2-3.5c0,0,41.1,11,51.2,25.6c8.8,12.7-38.4,13.8-114.9-3.3C42.6,67.5-9,46.5,1.3,34.9
			c10.9-12.2,53.9-2.1,53.9-2.1L53.8,36.3z"/>
		<path id="XMLID_5_" class="st11" d="M164.4,58.3l-0.2,3.5c0,0,49,16,34.1,21.2c-12.8,4.5-41.5,1.4-71.8-4.3
			c-1.1,2-2.3,4.2-3.7,6.4c63.7,12.3,100.7,10.2,92.7-1.3C205.5,69.2,164.4,58.3,164.4,58.3z"/>
	</g>
</g>
<g id="XMLID_1_">
	<path id="XMLID_63_" class="st12" d="M252.6,41.5l17.5,36.2c0.7,1.5,1.1,2.6,1.1,3.3c0,1.6-1.3,3-3.8,4.2c-1.5,0.7-2.6,1.1-3.5,1.1
		c-0.8,0-1.5-0.2-2.1-0.6c-0.5-0.4-0.9-0.8-1.2-1.2c-0.2-0.4-0.6-1.1-1-1.9l-3.4-7h-18l-3.4,7c-0.4,0.9-0.8,1.5-1,1.9
		c-0.2,0.4-0.6,0.8-1.2,1.2s-1.2,0.6-2.1,0.6s-2-0.4-3.5-1.1c-2.5-1.2-3.8-2.6-3.8-4.1c0-0.7,0.4-1.8,1.1-3.3l17.5-36.2
		c0.5-1,1.2-1.8,2.2-2.4c1-0.6,2-0.9,3.1-0.9C249.8,38.2,251.5,39.3,252.6,41.5z M247.4,57.1l-4.3,8.9h8.6L247.4,57.1z"/>
	<path id="XMLID_66_" class="st12" d="M286.7,74.2c1.4,0,2.5,0.4,3.2,1.1c0.7,0.7,1,2.2,1,4.5c0,2.3-0.4,3.8-1.1,4.6
		c-0.7,0.8-1.8,1.1-3.2,1.1c-4.4,0-7.4-1-9.2-3.1c-1.8-2.1-2.7-5.6-2.7-10.5V41c0-1,0-1.7,0.1-2.2c0.1-0.5,0.2-1.1,0.6-1.7
		c0.6-1.1,2.3-1.7,5.1-1.7c2.6,0,4.3,0.6,4.9,1.8c0.3,0.6,0.6,1.2,0.6,1.7c0.1,0.5,0.1,1.2,0.1,2.2v31.1
		C286.2,73.5,286.3,74.2,286.7,74.2z M304.2,73.8c0.3,0.3,1.2,0.4,2.7,0.4c1.4,0,2.6,0.4,3.6,1.1c1,0.7,1.4,2.2,1.4,4.5
		c0,2.3-0.5,3.8-1.5,4.6c-1,0.8-2.4,1.1-4.2,1.1c-9.2,0-13.7-4.5-13.7-13.6L292.2,41c0-1,0-1.7,0.1-2.2c0.1-0.5,0.3-1.1,0.6-1.7
		c0.6-1.1,2.3-1.7,5.1-1.7c2.6,0,4.3,0.6,4.9,1.8c0.5,1,0.7,2.2,0.7,3.9v31.1C303.7,73,303.8,73.6,304.2,73.8z"/>
	<path id="XMLID_69_" class="st12" d="M315.6,82.6c-0.8-0.5-1.2-1.3-1.2-2.5c0-1.1,0.8-2.8,2.5-5.1c0.5-0.7,1.2-1.1,2.3-1.1
		c1.1,0,2.5,0.5,4.3,1.6c1.8,1.1,3.5,1.6,4.9,1.6c2.6,0,4-0.5,4-1.6c0-0.8-1.4-1.4-4.3-1.8c-2.7-0.4-5.4-1.4-8.1-3
		c-1.3-0.8-2.3-2-3.1-3.7s-1.2-3.6-1.2-5.9c0-6.8,4.7-10.2,14.1-10.2c3.1,0,6.2,0.7,9.5,2.2c1.5,0.7,2.3,1.6,2.3,2.6
		s-0.5,2.3-1.4,3.8c-1,1.5-1.9,2.3-2.9,2.3c-0.5,0-1.5-0.3-2.9-1c-1.4-0.6-2.9-1-4.6-1c-2.5,0-3.8,0.5-3.8,1.4
		c0,1.3,1.5,2.1,4.4,2.5c2.9,0.3,5.6,1.1,8.3,2.5c1.3,0.6,2.3,1.7,3.1,3.1c0.8,1.5,1.3,3.4,1.3,5.6c0,2.2-0.4,4.2-1.3,5.7
		c-0.8,1.6-2,2.8-3.5,3.5c-2.8,1.3-6.2,2-10.4,2C323.5,86.3,319.5,85,315.6,82.6z"/>
	<path id="XMLID_71_" class="st12" d="M366,51.6c4.3,0,7.9,1.6,10.8,4.9c2.9,3.3,4.3,7.3,4.3,12.1V80c0,1,0,1.7-0.1,2.2
		c-0.1,0.5-0.3,1.1-0.6,1.7c-0.6,1.1-2.2,1.7-5,1.7c-2.6,0-4.3-0.6-4.9-1.7c-0.3-0.6-0.6-1.2-0.6-1.7c-0.1-0.5-0.1-1.3-0.1-2.3V68.6
		c0-1.8-0.5-3.2-1.5-4.1c-1-1-2.3-1.5-3.8-1.5c-1.5,0-2.9,0.5-4.1,1.4c-1.2,0.9-1.8,2-2,3.1V80c0,1,0,1.7-0.1,2.2
		c-0.1,0.5-0.3,1.1-0.6,1.7c-0.6,1.1-2.2,1.7-5,1.7c-2.7,0-4.4-0.6-5-1.8c-0.3-0.6-0.5-1.2-0.6-1.7s-0.1-1.2-0.1-2.3V41.2
		c0-1,0-1.7,0.1-2.2c0.1-0.5,0.2-1,0.6-1.7c0.6-1.2,2.3-1.7,5.1-1.7c2.7,0,4.4,0.6,4.9,1.7c0.3,0.6,0.6,1.2,0.6,1.7
		c0.1,0.5,0.1,1.2,0.1,2.2v14.3C360.6,53,363.1,51.6,366,51.6z"/>
	<path id="XMLID_73_" class="st12" d="M408.4,55.1c0.3-2.4,2-3.6,5.1-3.6c1.7,0,2.9,0.1,3.8,0.4c0.8,0.3,1.4,0.7,1.7,1.4
		c0.3,0.6,0.5,1.2,0.6,1.7c0.1,0.5,0.1,1.2,0.1,2.2v22.7c0,1,0,1.7-0.1,2.2c-0.1,0.5-0.2,1.1-0.6,1.7c-0.6,1.1-2.1,1.7-4.4,1.7
		c-2.4,0-3.9-0.3-4.7-0.9c-0.8-0.6-1.3-1.4-1.4-2.6c-1.6,2.3-4.3,3.4-8,3.4c-3.7,0-7.2-1.7-10.4-5.1c-3.2-3.4-4.8-7.4-4.8-11.9
		s1.6-8.5,4.8-11.9c3.2-3.4,6.8-5.1,10.6-5.1c1.5,0,2.8,0.3,4,0.8c1.2,0.5,2.1,1,2.5,1.5C407.8,54.3,408.1,54.7,408.4,55.1z
		 M396.6,68.6c0,1.4,0.6,2.7,1.7,3.9c1.1,1.1,2.5,1.7,4.1,1.7c1.6,0,2.9-0.6,4-1.8c1.1-1.2,1.6-2.5,1.6-3.9c0-1.4-0.5-2.7-1.5-3.9
		c-1-1.2-2.4-1.8-4.1-1.8c-1.7,0-3.1,0.6-4.1,1.8C397.2,65.9,396.6,67.2,396.6,68.6z"/>
	<path id="XMLID_76_" class="st12" d="M445,68.6l8.6,7.1c1.1,0.9,1.8,1.6,2,2.1s0.4,0.9,0.4,1.4c0,1-0.7,2.4-2,4.2
		c-1.5,1.8-2.8,2.7-3.9,2.7c-1,0-2.3-0.6-4-1.9l-0.6-0.5c-1-0.8-2.5-2.3-4.6-4.3c-2.1-2.1-3.7-3.5-4.7-4.4v5c0,1,0,1.7-0.1,2.2
		c-0.1,0.5-0.3,1.1-0.6,1.7c-0.6,1.1-2.2,1.7-5,1.7c-2.7,0-4.4-0.6-5-1.8c-0.3-0.6-0.5-1.2-0.6-1.7c-0.1-0.5-0.1-1.2-0.1-2.2V41.1
		c0-1,0-1.7,0.1-2.2c0.1-0.5,0.2-1.1,0.6-1.7c0.6-1.2,2.3-1.8,5.1-1.8c2.1,0,3.5,0.4,4.4,1.1c0.7,0.6,1.1,1.6,1.2,2.9
		c0,0.4,0.1,1,0.1,1.8v20.5c0.8-0.6,2-1.8,3.5-3.3c1.6-1.6,2.8-2.7,3.5-3.3l0.8-0.5c1.5-1.2,2.8-1.8,3.9-1.8c1.1,0,2.3,0.9,3.7,2.6
		s2.1,3.1,2.1,4.1c0,1-0.8,2.2-2.4,3.5L445,68.6z"/>
</g>
</svg>
